<?xml version="1.0" encoding="utf-8"?>
<!-- Generator: Adobe Illustrator 19.0.0, SVG Export Plug-In . SVG Version: 6.00 Build 0)  -->
<svg version="1.1" id="icons" xmlns="http://www.w3.org/2000/svg" xmlns:xlink="http://www.w3.org/1999/xlink" x="0px" y="0px"
	 viewBox="-286 380.5 37.2 33.5" style="enable-background:new -286 380.5 37.2 33.5;" xml:space="preserve">
<style type="text/css">
	.st0{fill:#0E67B1;}
</style>
<g>
	<path class="st0" d="M-255,404.6l-5.3-1.3c0,0,0-0.1-0.1-0.1l-1.6-1.6v-1.5c0.1-0.1,0.3-0.3,0.4-0.4c1.5-1.7,2.4-4,2.5-6.4
		c0-0.1,0-0.2,0-0.3c0-0.3,0-0.6,0.1-0.9l0.5-5.2c0.2-1.6-0.4-3.2-1.5-4.4c-1.1-1.2-2.6-1.9-4.3-1.9h-5.9c-1.6,0-3.2,0.7-4.3,1.9
		c-1.1,1.2-1.6,2.8-1.5,4.4l0.5,5.2c0,0.3,0,0.6,0.1,0.9c0,0.1,0,0.2,0,0.3c0.1,2.5,1,4.7,2.5,6.4c0.1,0.1,0.3,0.3,0.4,0.4v1.5
		l-1.6,1.6c0,0,0,0.1-0.1,0.1l-5.3,1.3c-2.2,0.6-3.5,1.9-3.5,3.9v3.8c0,0.9,0.8,1.7,1.7,1.7h27.8c0.9,0,1.7-0.8,1.7-1.7v-3.8
		C-251.5,406.6-252.7,405.2-255,404.6L-255,404.6z M-267.7,410.5h1.2c0,0,0.1,0,0.1,0l0.4,2.4h-2.2l0.4-2.4
		C-267.8,410.5-267.7,410.5-267.7,410.5L-267.7,410.5z M-265.9,408.8c0,0.3-0.3,0.6-0.6,0.6h-1.2c-0.3,0-0.6-0.3-0.6-0.6V408
		l1.2-0.8l1.2,0.8V408.8z M-271.2,401.1c1.2,0.9,2.6,1.3,4.1,1.3c1.5,0,2.9-0.5,4.1-1.3v0.6l-4.1,4.1l-4.1-4.1V401.1z M-265.1,407.2
		C-265.1,407.2-265.1,407.2-265.1,407.2l-1.2-0.8l3.8-3.8l1.1,1.1c-0.4,0.6-1.2,2.2-2.4,4.3c0,0,0,0,0,0c0,0,0,0,0,0L-265.1,407.2z
		 M-273.5,383.1c0.9-1,2.1-1.5,3.5-1.5h5.9c1.3,0,2.6,0.6,3.5,1.5c0.9,1,1.3,2.3,1.2,3.6l-0.3,3.3c-0.7-1.7-1.5-2.9-1.6-2.9
		c-0.2-0.2-0.5-0.3-0.7-0.1c-1.4,1-7.8,1.1-10.1,1.1c-0.2,0-0.3,0.1-0.4,0.2c-0.7,0.7-1.2,1.6-1.6,2.3l-0.4-3.8
		C-274.8,385.4-274.4,384.1-273.5,383.1L-273.5,383.1z M-274.1,393.2c0-0.1,0-0.2,0-0.3c0-0.1,0-0.1,0-0.2c0.1-0.3,0.8-2.2,2-3.6
		c1.5,0,7.6,0,10-1c0.5,0.7,1.4,2.5,2,4.6c0,0.1,0,0.1,0,0.2c0,0.1,0,0.2,0,0.3c-0.2,4.5-3.3,8.1-7,8.1
		C-270.8,401.3-273.8,397.8-274.1,393.2L-274.1,393.2z M-271.7,402.6l3.8,3.8l-1.2,0.8c0,0,0,0,0,0l-1.2,0.8c0,0,0,0,0,0
		c0,0,0,0,0,0c-1.2-2.1-2-3.7-2.4-4.3L-271.7,402.6z M-281.6,412.3v-3.8c0-1.4,0.9-2.4,2.7-2.8l5.3-1.3c0.3,0.6,1,1.7,2.3,4.2
		c0.2,0.3,0.4,0.5,0.7,0.5c0.1,0,0.2,0,0.3,0c0.2,0,0.4-0.1,0.6-0.2l0.4-0.2v0.1c0,0.5,0.2,0.9,0.6,1.3l-0.5,2.8h-7.1V410
		c0-0.3-0.2-0.5-0.5-0.5c-0.3,0-0.5,0.2-0.5,0.5v2.9h-3.5C-281.3,412.9-281.6,412.6-281.6,412.3L-281.6,412.3z M-252.6,412.3
		c0,0.3-0.3,0.6-0.6,0.6h-3.5V410c0-0.3-0.2-0.5-0.5-0.5c-0.3,0-0.5,0.2-0.5,0.5v2.9h-7.1l-0.5-2.8c0.3-0.3,0.6-0.8,0.6-1.3v-0.1
		l0.4,0.2c0.2,0.1,0.4,0.2,0.6,0.2c0.1,0,0.2,0,0.3,0c0.3-0.1,0.6-0.3,0.7-0.5c1.4-2.4,2-3.6,2.3-4.2l5.3,1.3
		c1.8,0.4,2.7,1.4,2.7,2.8V412.3z M-252.6,412.3"/>
</g>
</svg>
