<?xml version="1.0" encoding="utf-8"?>
<!-- Generator: Adobe Illustrator 19.0.0, SVG Export Plug-In . SVG Version: 6.00 Build 0)  -->
<svg version="1.1" id="icons" xmlns="http://www.w3.org/2000/svg" xmlns:xlink="http://www.w3.org/1999/xlink" x="0px" y="0px"
	 viewBox="-286 380.5 37.2 33.5" style="enable-background:new -286 380.5 37.2 33.5;" xml:space="preserve">
<style type="text/css">
	.st0{fill:#F4791F;}
	.st1{fill:#F4F4F4;}
	.st2{fill:#A7B6C4;}
	.st3{fill:#0E67B1;}
	.st4{fill:#E0E0E0;}
	.st5{fill:#414042;}
</style>
<g>
	<path class="st0" d="M-252.6,410.7l1,2.2l-0.6,0.2l-3.1-1.4L-252.6,410.7z"/>
	<path class="st1" d="M-255.6,404.2l2.7,5.9l-3.3,1.2l-4.5-2L-255.6,404.2z"/>
	<path class="st2" d="M-279.9,390.2l5.3-5.3l0.6,0.6l-5.3,5.3L-279.9,390.2z"/>
	<path class="st2" d="M-281,389.1l5.3-5.3l0.6,0.6l-5.3,5.3L-281,389.1z"/>
	<path class="st3" d="M-276.2,383.3l-5.3,5.3l-1.6-1.6c-0.3-0.3-0.4-0.6-0.4-1s0.2-0.7,0.4-1l3.2-3.2c0.3-0.3,0.6-0.4,1-0.4
		s0.7,0.2,1,0.4L-276.2,383.3z"/>
	<path class="st4" d="M-260.3,408l-0.9,0.9l-17.6-17.6l0.9-0.9L-260.3,408z"/>
	<path class="st4" d="M-256,403.6l-0.9,0.9l-17.6-17.6l0.9-0.9L-256,403.6z"/>
	<path class="st1" d="M-275,387.4l17.6,17.6l-2.5,2.5l-17.6-17.6L-275,387.4z"/>
	<path class="st5" d="M-255.2,403.4l4.5,9.8l-1.5,0.6l-9.2-4.2l-22.1-22.1c-0.4-0.4-0.6-0.9-0.6-1.5s0.2-1.1,0.6-1.5l3.2-3.2
		c0.4-0.4,0.9-0.6,1.5-0.6s1.1,0.2,1.5,0.6L-255.2,403.4z M-251.6,412.9l-1-2.2l-2.7,1l3.1,1.4L-251.6,412.9z M-252.9,410.1
		l-2.7-5.9l-5.1,5.1l4.5,2L-252.9,410.1z M-256.9,404.5l0.9-0.9l-17.6-17.6l-0.9,0.9L-256.9,404.5z M-257.3,405l-17.6-17.6l-2.5,2.5
		l17.6,17.6L-257.3,405z M-261.2,408.9l0.9-0.9l-17.6-17.6l-0.9,0.9L-261.2,408.9z M-279.3,390.8l5.3-5.3l-0.6-0.6l-5.3,5.3
		L-279.3,390.8z M-280.4,389.7l5.3-5.3l-0.6-0.6l-5.3,5.3L-280.4,389.7z M-281.5,388.6l5.3-5.3l-1.6-1.6c-0.3-0.3-0.6-0.4-1-0.4
		s-0.7,0.2-1,0.4l-3.2,3.2c-0.3,0.3-0.4,0.6-0.4,1s0.2,0.8,0.4,1L-281.5,388.6z"/>
</g>
</svg>
