<?xml version="1.0" encoding="utf-8"?>
<!-- Generator: Adobe Illustrator 19.0.0, SVG Export Plug-In . SVG Version: 6.00 Build 0)  -->
<svg version="1.1" id="icons" xmlns="http://www.w3.org/2000/svg" xmlns:xlink="http://www.w3.org/1999/xlink" x="0px" y="0px"
	 viewBox="-940 524.5 37.2 33.5" style="enable-background:new -940 524.5 37.2 33.5;" xml:space="preserve">
<style type="text/css">
	.st0{fill:#0E67B1;stroke:#0E67B1;stroke-width:2.968514e-002;stroke-miterlimit:10;}
</style>
<g>
	<path class="st0" d="M-907.8,524.8h-13c-1.1,0-2,0.9-2,2v7.4c0,1.1,0.9,2,2,2h0.9v1.8c0,0.2,0.1,0.4,0.3,0.5c0.1,0,0.2,0.1,0.3,0.1
		c0.1,0,0.2,0,0.3-0.1l3.6-2.3h7.7c1.1,0,2-0.9,2-2v-7.4C-905.8,525.7-906.7,524.8-907.8,524.8L-907.8,524.8z M-906.9,534.2
		c0,0.5-0.4,0.9-0.9,0.9h-7.8c-0.1,0-0.2,0-0.3,0.1l-2.9,1.8v-1.4c0-0.3-0.2-0.5-0.5-0.5h-1.4c-0.5,0-0.9-0.4-0.9-0.9v-7.4
		c0-0.5,0.4-0.9,0.9-0.9h13c0.5,0,0.9,0.4,0.9,0.9V534.2z M-906.9,534.2"/>
	<path class="st0" d="M-923.3,541.2c0-0.1-0.1-0.3-0.3-0.3c-0.1-0.1-0.3-0.1-0.4-0.1l-3.4,0.9c-0.1,0-0.3,0.1-0.3,0.3
		c-0.1,0.1-0.1,0.3-0.1,0.4c0.3,1,1.2,1.7,2.2,1.7c0.2,0,0.4,0,0.6-0.1c0.6-0.2,1.1-0.5,1.4-1.1
		C-923.2,542.4-923.1,541.8-923.3,541.2L-923.3,541.2z M-924.4,542.4c-0.2,0.3-0.4,0.5-0.7,0.6c-0.5,0.1-0.9,0-1.2-0.4l2.1-0.6
		C-924.3,542.2-924.4,542.3-924.4,542.4L-924.4,542.4z M-924.4,542.4"/>
	<path class="st0" d="M-924.7,546.4c2.1-1,3.5-3.1,3.5-5.5c0-3.3-2.7-6.1-6.1-6.1c-3.3,0-6.1,2.7-6.1,6.1c0,2.4,1.4,4.5,3.5,5.5
		c-2.3,1-3.8,3.2-3.8,5.8v5c0,0.3,0.2,0.5,0.5,0.5h11.7c0.3,0,0.5-0.2,0.5-0.5v-5C-920.8,549.6-922.4,547.4-924.7,546.4
		L-924.7,546.4z M-929.2,547.3l1.2,1.3l-1.5,1.1l-0.5-2C-929.8,547.6-929.5,547.5-929.2,547.3L-929.2,547.3z M-927.2,547
		c0.3,0,0.5,0,0.8,0.1l-0.8,0.9l-0.8-0.9C-927.8,547-927.5,547-927.2,547L-927.2,547z M-925.2,547.3c0.3,0.1,0.6,0.3,0.9,0.4l-0.5,2
		l-1.5-1.1L-925.2,547.3z M-932.2,540.9c0-2.7,2.2-5,5-5s5,2.2,5,5s-2.2,5-5,5S-932.2,543.6-932.2,540.9L-932.2,540.9z
		 M-932.5,552.2c0-1.4,0.6-2.8,1.5-3.7l0.6,2.3c0,0.2,0.2,0.3,0.3,0.4c0.1,0,0.1,0,0.2,0c0.1,0,0.2,0,0.3-0.1l1.7-1.3v6.9h-4.8
		V552.2z M-921.9,556.7h-4.8v-6.9l1.7,1.3c0.1,0.1,0.2,0.1,0.3,0.1c0.1,0,0.1,0,0.2,0c0.2-0.1,0.3-0.2,0.3-0.4l0.6-2.3
		c0.9,1,1.5,2.3,1.5,3.7V556.7z M-921.9,556.7"/>
	<path class="st0" d="M-925.3,551.7c-0.1-0.2-0.3-0.3-0.5-0.3c-0.2,0-0.4,0.1-0.5,0.3c-0.1,0.2,0,0.4,0.1,0.6
		c0.2,0.2,0.4,0.2,0.6,0.1C-925.3,552.2-925.2,551.9-925.3,551.7C-925.3,551.6-925.3,551.7-925.3,551.7L-925.3,551.7z M-925.3,551.7
		"/>
	<path class="st0" d="M-924.5,539.8c0.5,0,0.7-0.6,0.4-0.9c-0.2-0.2-0.5-0.2-0.7-0.1c-0.2,0.1-0.3,0.3-0.2,0.6
		C-925,539.6-924.8,539.8-924.5,539.8L-924.5,539.8z M-924.5,539.8"/>
	<path class="st0" d="M-927.6,540.4c0.3-0.3,0.1-0.9-0.4-0.9c-0.5,0-0.7,0.6-0.3,0.9C-928.1,540.6-927.8,540.6-927.6,540.4
		C-927.5,540.3-927.6,540.4-927.6,540.4L-927.6,540.4z M-927.6,540.4"/>
	<path class="st0" d="M-909.9,528.8h-8.9c-0.3,0-0.5,0.2-0.5,0.5c0,0.3,0.2,0.5,0.5,0.5h8.9c0.3,0,0.5-0.2,0.5-0.5
		C-909.3,529-909.6,528.8-909.9,528.8L-909.9,528.8z M-909.9,528.8"/>
	<path class="st0" d="M-909.9,531.4h-8.9c-0.3,0-0.5,0.2-0.5,0.5c0,0.3,0.2,0.5,0.5,0.5h8.9c0.3,0,0.5-0.2,0.5-0.5
		C-909.3,531.6-909.6,531.4-909.9,531.4L-909.9,531.4z M-909.9,531.4"/>
</g>
</svg>
