<?xml version="1.0" encoding="utf-8"?>
<!-- Generator: Adobe Illustrator 19.0.0, SVG Export Plug-In . SVG Version: 6.00 Build 0)  -->
<svg version="1.1" id="icons" xmlns="http://www.w3.org/2000/svg" xmlns:xlink="http://www.w3.org/1999/xlink" x="0px" y="0px"
	 viewBox="-286 380.5 37.2 33.5" style="enable-background:new -286 380.5 37.2 33.5;" xml:space="preserve">
<style type="text/css">
	.st0{fill:#0E67B1;}
	.st1{fill:#0E67B1;stroke:#FFFFFF;stroke-width:7.783095e-002;stroke-miterlimit:10;}
</style>
<g id="XMLID_73_">
	<g>
		<path id="XMLID_98_" class="st0" d="M-254.9,408.5c-0.2,0-0.4,0-0.6,0c-0.1,0-0.1-0.1-0.2-0.1c-1.5-0.2-2.5-1.4-2.6-2.9
			c0-0.2-0.1-0.3-0.3-0.3c-4.1,0-8.1,0-12.2,0c-0.2,0-0.3,0.1-0.3,0.3c-0.1,1.3-1,2.4-2.3,2.8c-0.2,0-0.4,0.1-0.5,0.1
			c-0.2,0-0.4,0-0.6,0c-0.1,0-0.2-0.1-0.2-0.1c-1.4-0.2-2.5-1.4-2.6-2.8c0-0.3-0.1-0.4-0.4-0.4c-1.3-0.1-2.4-1.1-2.7-2.4
			c0-0.1-0.1-0.2-0.1-0.4c0-0.6,0-1.2,0-1.9c0,0,0-0.1,0.1-0.1c0.4-1.7,1.4-2.5,3.1-2.6c0.2,0,0.3-0.1,0.4-0.3
			c0.4-0.8,0.8-1.6,1.2-2.4c0.7-1.3,1.8-2.2,3.3-2.5c0.3-0.1,0.5-0.1,0.8-0.2c2.8,0,5.5,0,8.3,0c0.1,0,0.1,0.1,0.2,0.1
			c1.2,0.1,2.2,0.6,3.1,1.3c1.3,1,2.5,2.1,3.8,3.1c0.5,0.4,1.1,0.8,1.7,0.9c1,0.2,2,0.4,3,0.5c1.4,0.2,2.5,1.2,2.9,2.6
			c0,0.1,0.1,0.3,0.1,0.4c0,0.2,0,0.4,0,0.6c0,0.1-0.1,0.1-0.1,0.2c-0.2,1.4-1.3,2.6-2.8,2.8c-0.3,0-0.4,0.1-0.4,0.4
			c-0.1,1.4-1.1,2.4-2.4,2.7C-254.6,408.4-254.7,408.5-254.9,408.5z M-261,394.7C-261.1,394.6-261.1,394.6-261,394.7
			c-0.1-0.1-0.1-0.2-0.2-0.2c-0.8-0.6-1.7-0.9-2.8-0.9c-2.4,0-4.9,0-7.3,0c-1.8,0-3,0.8-3.8,2.3c-0.4,0.7-0.7,1.4-1,2.1
			c-0.5,1-0.4,0.9-1.4,0.9c-1.2,0-2,0.9-2,2.1c0,0.4,0,0.8,0,1.2c0,1.1,1,2,2.1,2c0.2,0,0.3-0.1,0.3-0.2c0.6-1.2,1.6-1.9,2.9-1.9
			c1.3,0,2.3,0.7,2.8,1.9c0.1,0.2,0.2,0.2,0.4,0.2c4.2,0,8.4,0,12.6,0c0.2,0,0.3-0.1,0.3-0.2c0.2-0.3,0.3-0.6,0.6-0.9
			c1.5-1.7,4.2-1.2,5.2,0.8c0.1,0.2,0.2,0.3,0.5,0.2c0.8-0.2,1.4-0.6,1.8-1.4c0.1-0.2,0.1-0.5,0.2-0.8c-0.2,0-0.3,0-0.4,0
			c-0.4,0-0.8,0-1.2,0c-0.3,0-0.5-0.2-0.5-0.5c0-0.3,0.2-0.5,0.5-0.5c0.3,0,0.6,0,0.9,0c0.2,0,0.3,0,0.6,0c-0.4-0.8-0.9-1.3-1.7-1.5
			c-0.9-0.2-1.7-0.3-2.6-0.4c-0.4-0.1-0.8-0.2-1.2-0.2c-2.2,0-4.3,0-6.5,0c-3.7,0-7.5,0-11.2,0c-0.8,0-1.4-0.8-1.1-1.5
			c0.6-1.6,1.7-2.7,3.7-2.7c3.1,0,6.1,0,9.2,0C-261.3,394.7-261.2,394.7-261,394.7z M-257.2,397.9c0-0.1-0.1-0.1-0.1-0.1
			c-0.8-0.6-1.5-1.3-2.3-1.9c-0.1-0.1-0.2-0.1-0.4-0.1c-1.5,0-2.9,0-4.4,0c-0.1,0-0.2,0-0.4,0c0,0.6,0,1.2,0,1.8
			c0,0.3,0.1,0.3,0.4,0.3c2.3,0,4.6,0,6.8,0C-257.4,397.9-257.3,397.9-257.2,397.9z M-255.2,407.5c1.2,0,2.2-1,2.2-2.1
			c0-1.2-1-2.1-2.1-2.1c-1.2,0-2.2,1-2.2,2.1C-257.3,406.5-256.4,407.5-255.2,407.5z M-274.3,407.5c1.2,0,2.2-1,2.2-2.1
			c0-1.2-1-2.2-2.1-2.2c-1.2,0-2.1,1-2.2,2.1C-276.4,406.5-275.5,407.4-274.3,407.5z M-265.8,397.9c0-0.8,0-1.5,0-2.2
			c-1.1,0-2.1,0-3.2,0c0,0.7,0,1.3,0,2c0,0.1,0.1,0.2,0.2,0.2c0.3,0,0.6,0,1,0C-267.1,397.9-266.5,397.9-265.8,397.9z M-271.7,397.9
			c0.5,0,0.9,0,1.4,0c0.1,0,0.3,0,0.3-0.2c0-0.6,0-1.2,0-1.8c0-0.1-0.1-0.2-0.2-0.2c-0.3,0-0.7,0-1,0c-1,0.2-1.7,0.8-2.1,1.8
			c-0.1,0.3-0.1,0.4,0.2,0.4C-272.6,397.9-272.1,397.9-271.7,397.9z"/>
		<path id="XMLID_86_" class="st0" d="M-263.7,401c-0.2,0-0.4,0-0.6,0c-0.3,0-0.5-0.2-0.5-0.5c0-0.3,0.2-0.5,0.5-0.5
			c0.4,0,0.7,0,1.1,0c0.3,0,0.5,0.2,0.5,0.5c0,0.3-0.2,0.5-0.5,0.5C-263.3,401-263.5,401-263.7,401C-263.7,401-263.7,401-263.7,401z
			"/>
		<path id="XMLID_85_" class="st0" d="M-255.2,404.3c0.6,0,1,0.5,1,1c0,0.6-0.5,1.1-1,1.1c-0.6,0-1-0.5-1-1
			C-256.2,404.7-255.8,404.3-255.2,404.3z"/>
		<path id="XMLID_84_" class="st0" d="M-273.3,405.3c0,0.6-0.5,1-1,1c-0.6,0-1-0.5-1-1.1c0-0.6,0.5-1,1.1-1
			C-273.7,404.3-273.3,404.7-273.3,405.3z"/>
	</g>
</g>
<path id="XMLID_72_" class="st1" d="M-285.7,394.7c0.1-0.2,0.4-0.3,0.6-0.3c3,0,4.4,0,7.4,0c0.3,0,0.5,0,0.6,0.4
	c0.1,0.4-0.2,0.6-0.6,0.6c-1.1,0-2.3,0-3.4,0c-1.8,0-2.1,0-3.9,0c-0.3,0-0.6-0.1-0.8-0.3C-285.7,395-285.7,394.9-285.7,394.7z"/>
<path id="XMLID_71_" class="st1" d="M-279.8,390.7c0.1-0.2,0.4-0.3,0.6-0.3c3,0,2.8,0,5.8,0c0.3,0,0.5,0,0.6,0.4
	c0.1,0.4-0.2,0.6-0.6,0.6c-1.1,0-0.7,0-1.9,0c-1.8,0-2.1,0-3.9,0c-0.3,0-0.6-0.1-0.8-0.3C-279.8,391-279.8,390.9-279.8,390.7z"/>
<path id="XMLID_70_" class="st1" d="M-280.1,392.6c1.2,0,2.4,0,3.6,0c0.4,0,0.6,0.2,0.6,0.5c0,0.3-0.2,0.5-0.6,0.5
	c-2.4,0-1.7,0-4.1,0c-0.3,0-0.5-0.1-0.5-0.4c-0.1-0.2,0-0.4,0.2-0.5c0.1-0.1,0.2-0.1,0.4-0.1C-279.3,392.6-281.3,392.6-280.1,392.6z
	"/>
<path id="XMLID_69_" class="st1" d="M-280.5,396.2c1,0,0.2,0,1.2,0c0.4,0,0.6,0.2,0.6,0.5c0,0.3-0.1,0.4-0.4,0.5c-0.1,0-0.2,0-0.3,0
	c-2,0-1.2,0-3.2,0c-0.2,0-0.4-0.1-0.6-0.2c-0.1-0.1-0.1-0.3-0.1-0.5c0.1-0.2,0.3-0.3,0.5-0.3C-281.6,396.2-281.6,396.2-280.5,396.2z
	"/>
</svg>
