<?xml version="1.0" encoding="utf-8"?>
<!-- Generator: Adobe Illustrator 19.0.0, SVG Export Plug-In . SVG Version: 6.00 Build 0)  -->
<svg version="1.1" id="icons" xmlns="http://www.w3.org/2000/svg" xmlns:xlink="http://www.w3.org/1999/xlink" x="0px" y="0px"
	 viewBox="-940 524.5 37.2 33.5" style="enable-background:new -940 524.5 37.2 33.5;" xml:space="preserve">
<style type="text/css">
	.st0{fill:none;}
	.st1{fill:#0E67B1;}
	.st2{fill:#FFFFFF;}
	.st3{fill:#0E67B1;stroke:#FFFFFF;stroke-width:0.2066;stroke-miterlimit:10;}
</style>
<g>
	<g>
		<path class="st0" d="M-922.3,553.8c-0.4,0-0.6,0.3-0.6,0.6c0,0.3,0.3,0.6,0.6,0.7c0.3,0,0.6-0.3,0.6-0.6
			C-921.6,554.1-921.9,553.8-922.3,553.8z"/>
		<path class="st0" d="M-913.1,552.5c0-0.5,0-0.5-0.5-0.5c-2.9,0-5.8,0-8.7,0v0c-2.9,0-5.9,0-8.8,0c-0.3,0-0.4,0.1-0.4,0.4
			c0,1.6,0,1.8,0,3.5c0,0.6,0.2,0.8,0.8,0.8c5.6,0,11.1,0,16.7,0c0.6,0,0.9-0.4,0.9-0.5C-913.1,554.6-913.1,554.1-913.1,552.5z
			 M-922.3,556.2c-1,0-1.8-0.8-1.8-1.8c0-1,0.8-1.8,1.9-1.8c1,0,1.8,0.8,1.8,1.8C-920.5,555.4-921.3,556.2-922.3,556.2z"/>
		<path class="st0" d="M-931.1,529.8c2.9,0,5.8,0,8.8,0v0c0.7,0,1.3,0,2,0c2.3,0,4.6,0,6.9,0c0.2,0,0.4,0,0.4-0.3c0-0.9,0-1.8,0-2.7
			c0-0.5-0.3-0.7-0.7-0.7c-5.6,0-11.2,0-16.8,0c-0.6,0-0.8,0.2-0.8,0.8c0,0.8,0,1.6,0,2.5C-931.5,529.7-931.4,529.8-931.1,529.8z
			 M-923.5,527.4c0.8,0,1.6,0,2.4,0c0.3,0,0.6,0.3,0.6,0.6c0,0.3-0.3,0.6-0.6,0.6c-0.4,0-0.8,0-1.2,0c-0.4,0-0.8,0-1.1,0
			c-0.4,0-0.6-0.2-0.6-0.6C-924.1,527.6-923.9,527.4-923.5,527.4z"/>
		<path class="st0" d="M-913.5,531c-5.9,0-11.7,0-17.6,0c-0.3,0-0.4,0.1-0.4,0.4c0,0.9,0,11.5,0,15.8c0,0,0,0,0,0c0,1.1,0,2.1,0,3.2
			c0,0.3,0.1,0.5,0.4,0.4c5.8,0,11.7,0,17.5,0c0.3,0,0.5-0.1,0.4-0.4c0-1.1,0-2.2,0-3.3c0,0,0,0,0,0c0-4.3,0-14.9,0-15.8
			C-913.1,531.1-913.1,531-913.5,531z"/>
		<path class="st1" d="M-911.9,552c0-1.6,0-3.1,0-4.7l0,0c0-5.1,0-18.4,0-20.7c0-0.7-0.5-1.3-1.2-1.6c-0.1,0-0.3-0.1-0.4-0.1
			c-5.8,0-11.7,0-17.5,0c0,0-0.1,0-0.1,0.1c-1.1,0.3-1.5,0.9-1.5,2c0,2.5,0,19.3,0,21.9c0,0.7,0,1.5,0,2.2c0,2.2,0,2.9,0,5
			c0,1,0.5,1.6,1.4,1.8c0.1,0,0.1,0,0.2,0.1c5.8,0,11.7,0,17.5,0c0,0,1.7,0.3,1.6-1.3C-911.9,554.9-911.9,553.8-911.9,552z
			 M-931.5,526.9c0-0.6,0.2-0.8,0.8-0.8c5.6,0,11.2,0,16.8,0c0.5,0,0.7,0.2,0.7,0.7c0,0.9,0,1.8,0,2.7c0,0.3-0.2,0.3-0.4,0.3
			c-2.3,0-4.6,0-6.9,0c-0.7,0-1.3,0-2,0v0c-2.9,0-5.8,0-8.8,0c-0.3,0-0.4-0.1-0.4-0.4C-931.5,528.6-931.5,527.7-931.5,526.9z
			 M-913.1,556.2c0,0.2-0.2,0.5-0.9,0.5c-5.6,0-11.1,0-16.7,0c-0.6,0-0.8-0.2-0.8-0.8c0-1.6,0-1.8,0-3.5c0-0.3,0.1-0.4,0.4-0.4
			c2.9,0,5.9,0,8.8,0v0c2.9,0,5.8,0,8.7,0c0.5,0,0.5,0,0.5,0.5C-913.1,554.1-913.1,554.6-913.1,556.2z M-913.1,547.2
			C-913.1,547.2-913.1,547.2-913.1,547.2c0,1.1,0,2.2,0,3.3c0,0.3-0.1,0.4-0.4,0.4c-5.8,0-11.7,0-17.5,0c-0.4,0-0.4-0.1-0.4-0.4
			c0-1.1,0-2.1,0-3.2c0,0,0,0,0,0c0-4.3,0-14.9,0-15.8c0-0.3,0.1-0.4,0.4-0.4c5.9,0,11.7,0,17.6,0c0.4,0,0.5,0.1,0.5,0.5
			C-913.1,532.3-913.1,542.9-913.1,547.2z"/>
		<path class="st1" d="M-922.2,552.6c-1,0-1.8,0.8-1.9,1.8c0,1,0.8,1.8,1.8,1.8c1,0,1.8-0.8,1.8-1.8
			C-920.5,553.5-921.3,552.6-922.2,552.6z M-922.3,555.1c-0.3,0-0.6-0.3-0.6-0.7c0-0.4,0.3-0.6,0.6-0.6c0.4,0,0.6,0.3,0.6,0.6
			C-921.7,554.8-922,555.1-922.3,555.1z"/>
		<path class="st1" d="M-923.4,528.5c0.4,0,0.8,0,1.1,0c0.4,0,0.8,0,1.2,0c0.4,0,0.6-0.2,0.6-0.6c0-0.3-0.2-0.6-0.6-0.6
			c-0.8,0-1.6,0-2.4,0c-0.4,0-0.6,0.3-0.6,0.6C-924.1,528.3-923.8,528.5-923.4,528.5z"/>
	</g>
	<path class="st1" d="M-940,537.4c0,0,0.1-0.1,0.1-0.1c0.3-1,0.9-1.4,1.9-1.4c2.6,0,5.2,0,7.8,0c8.3,0,16.5,0,24.8,0
		c1.2,0,1.7,0.4,2.1,1.5c0,0,0,0,0,0.1c0,2.6,0,5.2,0,7.9c0,0-0.1,0.1-0.1,0.1c-0.3,1-0.9,1.4-1.9,1.4c-1,0-1.9,0-2.9,0
		c-9.9,0-19.8,0-29.6,0c-1.2,0-1.7-0.3-2.1-1.5c0,0,0,0,0-0.1C-940,542.6-940,540-940,537.4z M-921.7,545.6
		C-921.7,545.6-921.7,545.6-921.7,545.6c0.2,0,0.4,0,0.6,0c5.3,0,10.5,0,15.8,0c0.5,0,0.8-0.2,0.8-0.8c0-2.3,0-4.7,0-7
		c0-0.6-0.2-0.8-0.8-0.8c-10.9,0-21.8,0-32.6,0c-0.6,0-0.8,0.2-0.8,0.8c0,2.3,0,4.6,0,6.9c0,0.7,0.2,0.9,0.9,0.9
		C-932.5,545.6-927.1,545.6-921.7,545.6z"/>
	<path class="st2" d="M-921.7,545.6c-5.4,0-10.8,0-16.2,0c-0.7,0-0.9-0.2-0.9-0.9c0-2.3,0-4.6,0-6.9c0-0.6,0.2-0.8,0.8-0.8
		c10.9,0,21.8,0,32.6,0c0.6,0,0.8,0.2,0.8,0.8c0,2.3,0,4.7,0,7c0,0.5-0.2,0.8-0.8,0.8c-5.3,0-10.5,0-15.8,0
		C-921.3,545.6-921.5,545.6-921.7,545.6C-921.7,545.6-921.7,545.6-921.7,545.6z M-932.7,540.1c0-0.5,0-0.9,0-1.3
		c0-0.3-0.2-0.5-0.5-0.6c-0.4,0-0.6,0.2-0.6,0.6c0,0.4,0,0.8,0,1.3c-0.4-0.3-0.8-0.6-1.1-0.8c-0.4-0.3-0.7-0.2-0.9,0.1
		c-0.2,0.3-0.1,0.6,0.2,0.9c0.4,0.3,0.9,0.6,1.4,1c-0.1,0.1-0.2,0.2-0.3,0.3c-0.4,0.3-0.8,0.5-1.1,0.8c-0.2,0.2-0.3,0.4-0.2,0.6
		c0.1,0.2,0.3,0.4,0.4,0.4c0.2,0,0.4-0.1,0.5-0.2c0.4-0.2,0.7-0.5,1-0.7c0,0.1,0.1,0.1,0.1,0.1c0,0.3,0,0.7,0,1
		c0,0.4,0.2,0.7,0.6,0.7c0.4,0,0.6-0.2,0.6-0.7c0-0.4,0-0.7,0-1.1c0.1,0,0.1,0,0.2,0c0.3,0.2,0.5,0.4,0.8,0.6
		c0.5,0.4,0.8,0.4,1.1,0.1c0.2-0.3,0.1-0.6-0.4-1c-0.4-0.3-0.8-0.6-1.2-0.9c0.5-0.4,0.9-0.7,1.3-1c0.1-0.1,0.3-0.3,0.3-0.4
		c0-0.2-0.1-0.5-0.2-0.6c-0.2-0.2-0.5-0.2-0.7,0C-931.9,539.5-932.2,539.8-932.7,540.1z M-917.4,542.4c0.4,0.3,0.8,0.6,1.2,0.8
		c0.3,0.2,0.7,0.2,0.9-0.1c0.2-0.3,0.1-0.6-0.2-0.8c-0.5-0.3-0.9-0.7-1.4-1c0.5-0.4,0.9-0.7,1.4-1c0.1-0.1,0.3-0.2,0.3-0.4
		c0.1-0.2,0-0.5-0.2-0.6c-0.2-0.2-0.5-0.2-0.7,0c-0.4,0.3-0.7,0.5-1.1,0.8c0-0.1-0.1-0.1-0.1-0.1c0-0.3,0-0.7,0-1
		c0-0.4-0.2-0.7-0.6-0.7c-0.4,0-0.5,0.2-0.5,0.7c0,0.4,0,0.7,0,1.2c-0.5-0.3-0.8-0.6-1.2-0.9c-0.3-0.2-0.6-0.1-0.8,0.1
		c-0.2,0.3-0.2,0.6,0.1,0.8c0.3,0.3,0.7,0.5,1,0.8c0.1,0.1,0.3,0.2,0.4,0.3c-0.2,0.1-0.3,0.2-0.5,0.4c-0.3,0.2-0.7,0.5-1,0.7
		c-0.3,0.2-0.3,0.5-0.1,0.8c0.2,0.2,0.5,0.3,0.8,0.1c0.1-0.1,0.3-0.2,0.4-0.3c0.3-0.2,0.5-0.4,0.8-0.6c0,0.5,0,0.8,0,1.2
		c0,0.5,0.2,0.7,0.6,0.7c0.4,0,0.6-0.2,0.6-0.7C-917.4,543.3-917.4,542.9-917.4,542.4z M-909.1,541.3c0.5-0.3,0.9-0.7,1.3-1
		c0.4-0.3,0.5-0.6,0.3-0.9c-0.2-0.3-0.5-0.3-0.9,0c-0.3,0.2-0.7,0.5-1,0.7c0,0-0.1-0.1-0.1-0.1c0-0.4,0-0.7,0-1.1
		c0-0.4-0.2-0.7-0.6-0.6c-0.3,0-0.6,0.2-0.6,0.6c0,0.4,0,0.7,0,1.2c-0.1-0.1-0.2-0.1-0.3-0.2c-0.3-0.2-0.6-0.5-0.9-0.7
		c-0.3-0.2-0.6-0.1-0.8,0.1c-0.2,0.3-0.2,0.6,0.1,0.8c0.1,0.1,0.2,0.2,0.3,0.3c0.4,0.3,0.7,0.5,1.1,0.8c-0.1,0.1-0.2,0.2-0.3,0.3
		c-0.4,0.3-0.8,0.6-1.2,0.8c-0.3,0.2-0.3,0.5-0.1,0.8c0.2,0.3,0.5,0.3,0.8,0.1c0.2-0.1,0.3-0.2,0.5-0.3c0.2-0.2,0.5-0.3,0.8-0.6
		c0,0.5,0,0.9,0,1.3c0,0.4,0.4,0.6,0.8,0.5c0.3-0.1,0.4-0.3,0.4-0.6c0-0.4,0-0.8,0-1.2c0.4,0.3,0.8,0.6,1.1,0.8
		c0.4,0.3,0.7,0.2,0.9,0c0.2-0.3,0.1-0.6-0.2-0.9C-908.1,542-908.6,541.7-909.1,541.3z M-926.3,541.3c-0.5,0.4-0.9,0.7-1.4,1
		c-0.1,0.1-0.3,0.2-0.3,0.4c-0.1,0.2,0,0.5,0.2,0.6c0.2,0.2,0.5,0.1,0.7,0c0.4-0.3,0.7-0.5,1.2-0.9c0,0.5,0,0.8,0,1.2
		c0,0.5,0.2,0.7,0.6,0.7c0.4,0,0.6-0.2,0.6-0.7c0-0.4,0-0.7,0-1.2c0.5,0.3,0.8,0.6,1.2,0.9c0.2,0.2,0.5,0.2,0.7,0
		c0.1-0.1,0.2-0.4,0.2-0.6c0-0.1-0.2-0.3-0.3-0.4c-0.4-0.3-0.9-0.6-1.3-1c0.1-0.1,0.2-0.2,0.3-0.3c0.4-0.3,0.8-0.5,1.1-0.8
		c0.3-0.2,0.3-0.5,0.2-0.8c-0.2-0.3-0.5-0.3-0.9-0.1c-0.2,0.1-0.4,0.3-0.6,0.4c-0.2,0.1-0.4,0.3-0.6,0.4c0-0.5,0-0.9,0-1.3
		c0-0.4-0.2-0.6-0.6-0.6c-0.3,0-0.5,0.2-0.6,0.6c0,0.1,0,0.3,0,0.4c0,0.3,0,0.5,0,0.8c-0.1,0-0.1,0-0.2,0c-0.3-0.2-0.5-0.4-0.8-0.5
		c-0.1-0.1-0.2-0.1-0.3-0.2c-0.3-0.2-0.7-0.2-0.9,0.1c-0.2,0.3-0.1,0.6,0.2,0.8C-927.3,540.6-926.9,540.9-926.3,541.3z"/>
	<path class="st3" d="M-932.7,540.1c0.5-0.3,0.8-0.6,1.2-0.9c0.2-0.2,0.5-0.2,0.7,0c0.1,0.2,0.2,0.4,0.2,0.6c0,0.1-0.2,0.3-0.3,0.4
		c-0.4,0.3-0.9,0.6-1.3,1c0.4,0.3,0.8,0.6,1.2,0.9c0.5,0.4,0.6,0.7,0.4,1c-0.2,0.3-0.6,0.3-1.1-0.1c-0.3-0.2-0.5-0.4-0.8-0.6
		c0,0-0.1,0-0.2,0c0,0.4,0,0.7,0,1.1c0,0.4-0.2,0.7-0.6,0.7c-0.4,0-0.6-0.2-0.6-0.7c0-0.3,0-0.7,0-1c0,0,0,0-0.1-0.1
		c-0.3,0.2-0.7,0.5-1,0.7c-0.2,0.1-0.4,0.2-0.5,0.2c-0.2,0-0.4-0.2-0.4-0.4c-0.1-0.2,0-0.5,0.2-0.6c0.4-0.3,0.8-0.5,1.1-0.8
		c0.1-0.1,0.2-0.2,0.3-0.3c-0.5-0.4-0.9-0.7-1.4-1c-0.3-0.3-0.4-0.6-0.2-0.9c0.2-0.3,0.6-0.3,0.9-0.1c0.3,0.2,0.7,0.5,1.1,0.8
		c0-0.5,0-0.9,0-1.3c0-0.4,0.3-0.6,0.6-0.6c0.3,0,0.5,0.2,0.5,0.6C-932.7,539.2-932.7,539.6-932.7,540.1z"/>
	<path class="st3" d="M-917.4,542.4c0,0.5,0,0.8,0,1.2c0,0.5-0.2,0.7-0.6,0.7c-0.4,0-0.6-0.2-0.6-0.7c0-0.4,0-0.7,0-1.2
		c-0.3,0.2-0.6,0.4-0.8,0.6c-0.1,0.1-0.3,0.2-0.4,0.3c-0.3,0.2-0.6,0.1-0.8-0.1c-0.2-0.3-0.2-0.6,0.1-0.8c0.3-0.3,0.7-0.5,1-0.7
		c0.1-0.1,0.3-0.2,0.5-0.4c-0.2-0.1-0.3-0.2-0.4-0.3c-0.3-0.3-0.7-0.5-1-0.8c-0.3-0.2-0.3-0.6-0.1-0.8c0.2-0.2,0.5-0.3,0.8-0.1
		c0.4,0.3,0.8,0.5,1.2,0.9c0-0.5,0-0.8,0-1.2c0-0.4,0.2-0.7,0.5-0.7c0.4,0,0.6,0.2,0.6,0.7c0,0.3,0,0.7,0,1c0,0,0,0,0.1,0.1
		c0.4-0.3,0.7-0.5,1.1-0.8c0.2-0.2,0.5-0.2,0.7,0c0.2,0.2,0.3,0.4,0.2,0.6c-0.1,0.1-0.2,0.3-0.3,0.4c-0.4,0.3-0.9,0.6-1.4,1
		c0.5,0.4,1,0.7,1.4,1c0.3,0.2,0.4,0.5,0.2,0.8c-0.2,0.3-0.5,0.4-0.9,0.1C-916.6,543-917,542.8-917.4,542.4z"/>
	<path class="st3" d="M-909.1,541.3c0.5,0.4,0.9,0.7,1.4,1c0.3,0.3,0.4,0.6,0.2,0.9c-0.2,0.3-0.5,0.3-0.9,0
		c-0.3-0.2-0.7-0.5-1.1-0.8c0,0.5,0,0.9,0,1.2c0,0.3-0.1,0.5-0.4,0.6c-0.4,0.1-0.7-0.1-0.8-0.5c0-0.4,0-0.8,0-1.3
		c-0.3,0.2-0.5,0.4-0.8,0.6c-0.2,0.1-0.3,0.2-0.5,0.3c-0.3,0.2-0.6,0.1-0.8-0.1c-0.2-0.3-0.2-0.6,0.1-0.8c0.4-0.3,0.8-0.6,1.2-0.8
		c0.1-0.1,0.2-0.1,0.3-0.3c-0.4-0.3-0.8-0.6-1.1-0.8c-0.1-0.1-0.2-0.2-0.3-0.3c-0.3-0.2-0.3-0.5-0.1-0.8c0.2-0.2,0.5-0.3,0.8-0.1
		c0.3,0.2,0.6,0.4,0.9,0.7c0.1,0.1,0.2,0.1,0.3,0.2c0-0.4,0-0.8,0-1.2c0-0.4,0.2-0.6,0.6-0.6c0.4,0,0.6,0.2,0.6,0.6
		c0,0.4,0,0.7,0,1.1c0,0,0,0,0.1,0.1c0.3-0.2,0.7-0.5,1-0.7c0.4-0.3,0.7-0.3,0.9,0c0.2,0.3,0.1,0.6-0.3,0.9
		C-908.2,540.6-908.6,540.9-909.1,541.3z"/>
	<path class="st3" d="M-926.3,541.3c-0.5-0.4-1-0.7-1.4-1c-0.3-0.2-0.4-0.6-0.2-0.8c0.2-0.3,0.5-0.3,0.9-0.1
		c0.1,0.1,0.2,0.1,0.3,0.2c0.3,0.2,0.5,0.4,0.8,0.5c0,0,0,0,0.2,0c0-0.3,0-0.6,0-0.8c0-0.1,0-0.3,0-0.4c0-0.4,0.2-0.6,0.6-0.6
		c0.3,0,0.6,0.2,0.6,0.6c0,0.4,0,0.8,0,1.3c0.3-0.2,0.4-0.3,0.6-0.4c0.2-0.1,0.4-0.3,0.6-0.4c0.3-0.2,0.7-0.2,0.9,0.1
		c0.2,0.3,0.1,0.6-0.2,0.8c-0.4,0.3-0.7,0.5-1.1,0.8c-0.1,0.1-0.2,0.1-0.3,0.3c0.5,0.3,0.9,0.7,1.3,1c0.1,0.1,0.3,0.3,0.3,0.4
		c0,0.2-0.1,0.4-0.2,0.6c-0.2,0.2-0.5,0.2-0.7,0c-0.4-0.3-0.8-0.5-1.2-0.9c0,0.4,0,0.8,0,1.2c0,0.5-0.2,0.7-0.6,0.7
		c-0.4,0-0.6-0.2-0.6-0.7c0-0.4,0-0.7,0-1.2c-0.5,0.3-0.8,0.6-1.2,0.9c-0.2,0.2-0.5,0.2-0.7,0c-0.2-0.2-0.3-0.4-0.2-0.6
		c0-0.1,0.2-0.3,0.3-0.4C-927.3,542-926.8,541.7-926.3,541.3z"/>
</g>
</svg>
