<?xml version="1.0" encoding="utf-8"?>
<!-- Generator: Adobe Illustrator 19.0.0, SVG Export Plug-In . SVG Version: 6.00 Build 0)  -->
<svg version="1.1" id="icons" xmlns="http://www.w3.org/2000/svg" xmlns:xlink="http://www.w3.org/1999/xlink" x="0px" y="0px"
	 viewBox="-940 524.5 37.2 33.5" style="enable-background:new -940 524.5 37.2 33.5;" xml:space="preserve">
<style type="text/css">
	.st0{fill:#0E67B1;}
</style>
<g>
	<path class="st0" d="M-921.4,557.8c-1.8,0-3.6,0-5.4,0c-1.3,0-2.4-0.9-2.5-2.2c-0.2-1.4,0.1-2.8,1.1-3.9c0.8-1,1.9-1.6,3.1-2
		c1.3-0.4,2.6-0.5,3.9-0.5c1.2,0,2.4,0.1,3.5,0.4c1.2,0.3,2.3,0.9,3.1,1.8c0.8,0.9,1.3,2,1.3,3.3c0,0.3,0,0.7-0.1,1
		c-0.3,1.2-1.3,2-2.5,2C-917.8,557.8-919.6,557.8-921.4,557.8z M-921.4,556.8c0.1,0,0.1,0,0.2,0c1.7,0,3.5,0,5.2,0
		c0.8,0,1.5-0.5,1.6-1.3c0.1-0.5,0.1-1,0-1.5c-0.2-1.1-0.9-2-1.8-2.6c-1-0.7-2.2-1-3.4-1.1c-1.1-0.1-2.1-0.1-3.2,0
		c-1.1,0.1-2.2,0.3-3.2,0.9c-0.9,0.5-1.6,1.1-2.1,2c-0.3,0.6-0.4,1.3-0.4,2c0,0.9,0.7,1.6,1.6,1.6
		C-925,556.8-923.2,556.8-921.4,556.8z"/>
	<path class="st0" d="M-925.6,544.4c0-2.3,1.9-4.1,4.1-4.1c2.3,0,4.1,1.9,4.1,4.1c0,2.2-1.9,4.1-4.1,4.1
		C-923.7,548.5-925.6,546.7-925.6,544.4z M-921.4,547.5c1.7,0,3.1-1.4,3.1-3.1c0-1.7-1.4-3.1-3.1-3.1c-1.7,0-3.1,1.4-3.1,3.1
		C-924.6,546.1-923.2,547.5-921.4,547.5z"/>
</g>
<g>
	<g>
		<path class="st0" d="M-922.3,538.6c-1.2,0.1-2.2,0.3-3.1,1.1c-0.3,0.2-0.4,0.5-0.5,0.9c0,0.3-0.2,0.5-0.5,0.5
			c-0.3,0-0.4-0.2-0.5-0.5c-0.1-0.3-0.2-0.6-0.4-0.8c-0.6-0.6-1.3-0.9-2.2-1.1c-1.4-0.3-2.8-0.2-4.1,0.3c-0.4,0.2-0.8,0.4-1.1,0.7
			c-0.2,0.2-0.3,0.5-0.4,0.7c-0.1,0.3-0.1,0.5-0.4,0.6c-0.3,0.1-0.4-0.1-0.6-0.3c0-0.2,0-0.5,0-0.7c0-0.1,0-0.3,0.1-0.4
			c0.1-0.6,0.1-1.1,0.2-1.7c0.5-2.6,1.7-5,3.5-6.9c2.2-2.4,4.9-3.8,8.2-4.3c0.5-0.1,1.1-0.1,1.7-0.2c0-0.4,0-0.9,0-1.3
			c0-0.3,0.1-0.6,0.4-0.7c0.1,0,0.2,0,0.2,0c0.3,0.2,0.4,0.4,0.4,0.8c0,0.4,0,0.8,0,1.3c0.4,0,0.8,0.1,1.2,0.1
			c3.3,0.4,6.2,1.8,8.5,4.2c2.1,2.1,3.3,4.7,3.8,7.6c0.1,0.7,0.1,1.4,0.2,2.1c0,0.3-0.2,0.5-0.4,0.5c-0.3,0-0.5-0.2-0.5-0.4
			c0-0.5-0.3-0.9-0.7-1.2c-0.6-0.5-1.3-0.7-2.1-0.8c-1.2-0.2-2.5-0.1-3.6,0.3c-0.3,0.1-0.7,0.3-1,0.5c-0.4,0.3-0.6,0.6-0.7,1.1
			c0,0.3-0.2,0.5-0.5,0.4c-0.2,0-0.5-0.2-0.5-0.5c0-0.5-0.3-0.8-0.6-1.1c-0.9-0.7-1.9-0.9-2.9-1 M-917.8,538.7c0-0.1,0-0.3,0-0.4
			c-0.1-1.6-0.3-3.2-0.6-4.8c-0.3-1.4-0.7-2.8-1.4-4.1c-0.3-0.5-0.6-1-1-1.4c-0.6-0.6-1.3-0.6-2,0c-0.3,0.3-0.5,0.6-0.8,1
			c-0.6,1-1,2.1-1.3,3.3c-0.5,1.8-0.8,3.7-0.9,5.6c0,0.3,0,0.6,0,0.9C-923.1,537.3-920.5,537.3-917.8,538.7z M-923.9,527.7
			c-5.6,0.8-10.2,5.5-10.9,10.9c2.7-1.4,5.3-1.4,8,0.2c0-0.1,0-0.1,0-0.2c0.1-1.9,0.3-3.9,0.7-5.8c0.4-1.8,1-3.5,2.1-5
			C-923.9,527.8-923.9,527.8-923.9,527.7z M-908.8,538.6c-0.2-2.3-1.6-5.4-4.1-7.7c-1.9-1.7-5.4-3.4-6.8-3.2c0,0,0,0.1,0.1,0.1
			c0.6,0.8,1.1,1.7,1.4,2.7c0.9,2.4,1.2,4.9,1.4,7.5c0,0.3,0,0.5,0.1,0.8C-914.2,537.3-911.5,537.3-908.8,538.6z"/>
	</g>
</g>
</svg>
