<?xml version="1.0" encoding="utf-8"?>
<!-- Generator: Adobe Illustrator 19.0.0, SVG Export Plug-In . SVG Version: 6.00 Build 0)  -->
<svg version="1.1" id="icons" xmlns="http://www.w3.org/2000/svg" xmlns:xlink="http://www.w3.org/1999/xlink" x="0px" y="0px"
	 viewBox="-940 524.5 37.2 33.5" style="enable-background:new -940 524.5 37.2 33.5;" xml:space="preserve">
<style type="text/css">
	.st0{fill:#0E67B1;}
</style>
<g>
	<path class="st0" d="M-927.2,546.4c-0.1-0.1-0.3-0.2-0.3-0.3c0-0.1,0-0.3,0-0.4c0-0.1,0.1-0.1,0.1-0.1c2.2-2.2,4.5-4.5,6.7-6.7
		c0.1-0.1,0.3-0.2,0.4-0.2c0.3,0,0.5,0.3,0.3,0.6c0,0.1-0.1,0.1-0.1,0.1c-2.2,2.2-4.5,4.5-6.7,6.7
		C-926.9,546.2-927,546.3-927.2,546.4z"/>
	<path class="st0" d="M-924.1,540.5c0,0.9-0.7,1.6-1.6,1.5c-0.8,0-1.5-0.7-1.5-1.5c0-0.9,0.7-1.6,1.6-1.5
		C-924.8,539-924.1,539.7-924.1,540.5z M-926.4,540.5c0,0.4,0.3,0.8,0.8,0.8c0.4,0,0.8-0.3,0.8-0.8c0-0.4-0.3-0.8-0.8-0.8
		C-926.1,539.8-926.5,540.1-926.4,540.5z"/>
	<path class="st0" d="M-923.3,544.4c0-0.9,0.7-1.5,1.6-1.5c0.8,0,1.5,0.7,1.5,1.6c0,0.9-0.7,1.5-1.6,1.5
		C-922.6,546-923.3,545.3-923.3,544.4z M-921,544.4c0-0.4-0.4-0.8-0.8-0.8c-0.4,0-0.7,0.4-0.7,0.8c0,0.4,0.4,0.8,0.8,0.8
		C-921.3,545.2-921,544.8-921,544.4z"/>
</g>
<g>
	<path class="st0" d="M-905.9,541.2c0.1,0.1,0.3,0.3,0.4,0.4c0.5,0.4,1.3,0.4,1.8-0.1c0.3-0.3,0.6-0.3,0.8,0
		c0.2,0.2,0.2,0.6-0.1,0.8c-0.5,0.5-1.2,0.7-1.9,0.6c-0.8-0.1-1.4-0.5-1.9-1.2c-0.5-0.6-1-0.9-1.8-0.7c-0.4,0.1-0.7,0.4-0.8,0.8
		c-0.2,1.1-0.6,2.1-1.1,3c-1,1.7-2.5,2.9-4.2,3.9c-0.3,0.1-0.4,0.3-0.4,0.6c-0.2,1.1-0.4,2.2-0.6,3.2c-0.2,0.8-0.7,1.2-1.4,1.2
		c-1.1,0-2.2,0-3.2,0c-1.1,0-1.5-0.4-1.6-1.5c0-0.4-0.1-0.9-0.1-1.3c-1,0-1.9,0-2.9,0c0,0.5-0.1,1-0.1,1.5c-0.1,0.8-0.5,1.3-1.3,1.3
		c-1.1,0-2.2,0-3.3,0c-1,0-1.4-0.4-1.6-1.3c-0.2-1-0.4-2-0.6-3c-0.1-0.3-0.2-0.4-0.4-0.6c-1.9-1.1-3.6-2.5-4.6-4.5
		c-0.1-0.1-0.2-0.2-0.4-0.2c-0.5,0-1,0-1.4,0c-0.8-0.1-1.2-0.6-1.2-1.4c0-1.4,0-2.8,0-4.2c0-0.8,0.5-1.4,1.4-1.4c0.4,0,0.8,0,1.2,0
		c0.2,0,0.3-0.1,0.4-0.3c0.5-0.9,1.1-1.8,1.9-2.5c0.2-0.2,0.3-0.4,0.2-0.7c-0.2-1.2-0.4-2.3-0.5-3.5c-0.1-1.1,0.7-1.8,1.7-1.3
		c1.5,0.6,2.9,1.3,4.4,2c0.1,0.1,0.3,0.1,0.4,0.1c1.3-0.2,2.5-0.5,3.8-0.6c3.4-0.3,6.7,0.3,9.7,1.9c3.2,1.7,5.5,4.1,6,8
		C-907.8,539.7-907,540-905.9,541.2z M-934.1,531.5c0.1,0.9,0.3,1.8,0.4,2.7c0,0.2-0.1,0.4-0.2,0.5c-1,0.9-1.8,1.9-2.4,3.2
		c-0.1,0.2-0.4,0.3-0.6,0.3c-0.5,0-1.1,0-1.7,0c-0.3,0-0.4,0.1-0.4,0.4c0,1.3,0,2.7,0,4c0,0.3,0.1,0.4,0.4,0.4c0.6,0,1.2,0,1.7,0
		c0.3,0,0.5,0.1,0.6,0.4c1,2.1,2.7,3.6,4.7,4.7c0.4,0.2,0.5,0.4,0.6,0.8c0.2,1.2,0.4,2.3,0.7,3.4c0.1,0.3,0.2,0.4,0.5,0.4
		c1.1,0,2.2,0,3.3,0c0.2,0,0.3-0.1,0.4-0.3c0-0.6,0.1-1.2,0.1-1.8c0-0.5,0.2-0.7,0.8-0.7c1.1,0,2.2,0,3.3,0c0.7,0,0.9,0,0.9,0.7
		c0,0.6,0.1,1.2,0.1,1.7c0,0.3,0.1,0.4,0.4,0.4c1.1,0,2.2,0,3.3,0c0.3,0,0.4-0.1,0.5-0.4c0.2-1.2,0.4-2.5,0.7-3.7
		c0-0.2,0.2-0.4,0.4-0.5c1.3-0.7,2.4-1.6,3.4-2.7c2.7-3.2,2.5-7.1-0.5-10.1c-1.9-1.9-4.2-3-6.7-3.6c-3.1-0.7-6.2-0.7-9.3,0.2
		c-0.3,0.1-0.6,0-0.9-0.1c-1.5-0.7-3-1.4-4.5-2.1c-0.1,0-0.1,0-0.3-0.1C-934.3,530.3-934.2,530.9-934.1,531.5z"/>
	<path class="st0" d="M-923.9,532.5c-1.2,0-2.5,0.2-3.8,0.6c-0.1,0-0.2,0.1-0.4,0.2c-0.3,0.1-0.4,0.4-0.3,0.7
		c0.1,0.3,0.4,0.4,0.7,0.3c1.5-0.7,3.1-0.8,4.7-0.6c0.9,0.1,1.8,0.4,2.7,0.6c0.4,0.1,0.7,0.1,0.9-0.2c0.1-0.3,0-0.6-0.4-0.8
		C-921,532.7-922.4,532.5-923.9,532.5z"/>
	<path class="st0" d="M-931.3,537.7c0-0.6-0.5-1.1-1.1-1.1c-0.6,0-1.1,0.5-1.1,1.1c0,0.6,0.5,1.1,1.1,1.1
		C-931.8,538.9-931.3,538.4-931.3,537.7z"/>
</g>
</svg>
