<?xml version="1.0" encoding="utf-8"?>
<!-- Generator: Adobe Illustrator 19.0.0, SVG Export Plug-In . SVG Version: 6.00 Build 0)  -->
<svg version="1.1" id="icons" xmlns="http://www.w3.org/2000/svg" xmlns:xlink="http://www.w3.org/1999/xlink" x="0px" y="0px"
	 viewBox="-940 524.5 37.2 33.5" style="enable-background:new -940 524.5 37.2 33.5;" xml:space="preserve">
<style type="text/css">
	.st0{fill:#0E67B1;}
	.st1{fill:#0E67B1;stroke:#FFFFFF;stroke-width:0.2321;stroke-miterlimit:10;}
	.st2{fill:#0E67B1;stroke:#FFFFFF;stroke-width:0.116;stroke-miterlimit:10;}
</style>
<g>
	<path class="st0" d="M-902.8,546.4c0-2.9,0-15.7,0-16.7c0-0.9-0.6-1.6-1.4-1.9c-0.1,0-0.2-0.1-0.3-0.1c-11.3,0-22.3,0-33.5,0
		c0,0-0.4,0.1-0.4,0.1c-1,0.3-1.6,1-1.6,2c0,1,0,15.4,0,16.9c0,1.4,0,2.4,0,4c0,1.5,0.8,2.3,2.3,2.3c3.5,0,7,0,10.4,0
		c0.2,0,0.4,0,0.5,0c0,1.3,0,2.7,0,4c-0.6,0-1.3,0-1.9,0c-0.5,0-0.7,0.2-0.7,0.6c0,0.4,0.3,0.7,0.7,0.7c4.8,0,9.6,0,14.4,0
		c0.5,0,0.8-0.2,0.8-0.6c0-0.4-0.3-0.6-0.8-0.6c-0.6,0-1.2,0-1.9,0c0-1.2,0-2.4,0-3.5c0-0.5,0-0.5,0.5-0.5c3.5,0,7.1,0,10.6,0
		c1.3,0,2.2-0.8,2.2-2.2c0-1.1,0-1.5,0-2.6C-902.8,547.6-902.8,547-902.8,546.4z M-938.7,529.9c0-0.7,0.2-0.9,0.9-0.9
		c11,0,21.9,0,32.9,0c0.6,0,0.8,0.3,0.8,0.8c0,0.9,0,12.6,0,16.1c0,0.2,0,0.5,0,0.7c0,0.1,0,0.2,0,0.2c0,0,0,0,0,0
		c0,0.2-0.2,0.2-0.5,0.2c-9,0-18,0-27,0c-2.2,0-4.5,0-6.7,0c-0.3,0-0.4-0.1-0.4-0.3c0,0,0-0.1,0-0.1c0,0,0-0.1,0-0.1
		c0-0.2,0-0.5,0-0.7C-938.7,542.5-938.7,530.7-938.7,529.9z M-917.4,557c-2.6,0-5.3,0-8,0c0-1.3,0-2.6,0-4c2.7,0,5.3,0,8,0
		C-917.4,554.3-917.4,555.6-917.4,557z M-904.1,551.1c0,0.3-0.3,0.6-0.6,0.6c-0.1,0-0.2,0-0.3,0c-10.8,0-21.7,0-32.5,0
		c-0.2,0-0.4,0-0.6,0c-0.3,0-0.6-0.2-0.6-0.6c0-1.1,0-1.5,0-2.6c11.5,0,23.1,0,34.6,0C-904.1,549.6-904.1,549.9-904.1,551.1z"/>
	<path class="st0" d="M-921.4,549.3c-0.3,0-0.6,0.3-0.6,0.6c0,0.4,0.3,0.6,0.7,0.6c0.4,0,0.6-0.3,0.6-0.6
		C-920.8,549.5-921.1,549.3-921.4,549.3z"/>
</g>
<g>
	<path class="st1" d="M-922.3,544.6c0,0.2,0,0.5,0,0.7c0,0.1,0,0.2-0.1,0.2c-0.1,0-0.2,0-0.2,0c-0.8-0.5-1.6-1.1-2.3-1.6
		c-0.2-0.1-0.2-0.3,0-0.4c0.8-0.5,1.6-1.1,2.4-1.6c0.1,0,0.2-0.1,0.2,0c0.1,0,0.1,0.1,0.1,0.2c0,0.2,0,0.5,0,0.7c0.4,0,0.8,0,1.3,0
		c1.1-0.1,2.1-0.5,2.9-1.2c0.9-0.8,1.4-1.8,1.5-3c0.1-2-0.7-3.5-2.4-4.5c-0.2-0.1-0.2-0.2-0.1-0.4c0.2-0.3,0.4-0.7,0.6-1
		c0.1-0.2,0.2-0.2,0.4-0.1c1.7,1,2.8,2.4,3.2,4.4c0.8,3.6-1.5,7-5.1,7.7c-0.6,0.1-1.3,0.1-1.9,0.1
		C-922.1,544.6-922.1,544.6-922.3,544.6C-922.2,544.6-922.2,544.6-922.3,544.6z"/>
	<path class="st1" d="M-918.5,538.6c0.1,0,0.2,0,0.3,0c0.1,0,0.2,0.1,0.2,0.2c0,0.2,0,0.4,0,0.6c0,0.1-0.1,0.2-0.2,0.2
		c-0.1,0-0.2,0-0.3,0c0,0.2,0,0.5,0,0.7c0,0.2,0,0.2-0.2,0.2c-0.2,0-0.3,0-0.5,0c-0.2,0-0.2-0.1-0.2-0.2c0-0.2,0-0.5,0-0.7
		c-0.1,0-0.1,0-0.2,0c-0.5,0-1,0-1.5,0c-0.2,0-0.2,0-0.2-0.2c-0.1-0.5,0.1-0.9,0.4-1.2c0.5-0.7,0.9-1.4,1.4-2.1
		c0.1-0.1,0.1-0.2,0.3-0.2c0.2,0,0.3,0,0.5,0c0.2,0,0.2,0,0.2,0.2c0,0.8,0,1.6,0,2.4C-918.5,538.5-918.5,538.5-918.5,538.6z
		 M-920.4,538.6c0.3,0,0.7,0,1,0c0-0.5,0-0.9,0-1.4c0,0,0,0,0,0C-919.8,537.6-920.1,538.1-920.4,538.6z"/>
	<path class="st1" d="M-923.2,539.5c0.4,0,0.8,0,1.1,0c0.2,0,0.3,0,0.3,0.3c0,0.2,0,0.3,0,0.5c0,0.2-0.1,0.2-0.2,0.2
		c-0.8,0-1.6,0-2.4,0c-0.1,0-0.2-0.1-0.2-0.2c0-0.2,0-0.3,0-0.5c0-0.1,0.1-0.2,0.2-0.3c0.4-0.3,0.7-0.6,1.1-1
		c0.3-0.3,0.5-0.7,0.6-1.1c0-0.1,0-0.1,0-0.2c0-0.3-0.1-0.4-0.3-0.5c-0.3-0.1-0.6,0.1-0.6,0.3c0,0.2-0.1,0.2-0.3,0.2
		c-0.1,0-0.3,0-0.5,0c-0.1,0-0.2-0.1-0.2-0.2c0.1-0.5,0.4-0.9,0.9-1.1c0.5-0.2,1.1-0.1,1.5,0.3c0.4,0.3,0.4,0.8,0.3,1.3
		c-0.1,0.6-0.4,1.1-0.8,1.5C-922.8,539.1-923,539.3-923.2,539.5z"/>
	<path class="st2" d="M-921.8,532.5c0-0.2,0-0.4,0-0.6c0-0.2,0.1-0.3,0.3-0.3c0.1,0,0.2,0,0.3,0c0.2,0,0.3,0.1,0.3,0.3
		c0,0.4,0,0.9,0,1.3c0,0.2-0.1,0.3-0.3,0.3c-0.1,0-0.2,0-0.3,0c-0.2,0-0.3-0.1-0.3-0.3C-921.8,532.9-921.8,532.7-921.8,532.5z"/>
	<path class="st2" d="M-926.9,538.6c-0.2,0-0.4,0-0.6,0c-0.2,0-0.3-0.1-0.3-0.3c0-0.1,0-0.2,0-0.3c0-0.2,0.1-0.3,0.3-0.3
		c0.4,0,0.9,0,1.3,0c0.2,0,0.3,0.1,0.3,0.3c0,0.1,0,0.2,0,0.3c0,0.2-0.1,0.3-0.3,0.3C-926.5,538.6-926.7,538.6-926.9,538.6z"/>
	<path class="st2" d="M-925.7,536.1c-0.1,0-0.1-0.1-0.2-0.1c-0.4-0.2-0.7-0.4-1.1-0.6c-0.2-0.1-0.2-0.2-0.1-0.4
		c0.1-0.1,0.1-0.2,0.2-0.3c0.1-0.1,0.2-0.2,0.4-0.1c0.4,0.2,0.8,0.4,1.1,0.7c0.1,0.1,0.2,0.2,0.1,0.4c-0.1,0.1-0.1,0.2-0.2,0.3
		C-925.5,536-925.6,536.1-925.7,536.1z"/>
	<path class="st2" d="M-923.4,533.7c0,0.3-0.2,0.3-0.4,0.4c-0.1,0.1-0.2,0.1-0.3,0c0,0-0.1-0.1-0.1-0.1c-0.2-0.4-0.4-0.7-0.6-1.1
		c-0.1-0.2-0.1-0.3,0.1-0.4c0.1,0,0.2-0.1,0.3-0.1c0.2-0.1,0.3-0.1,0.4,0.1c0.2,0.4,0.4,0.7,0.6,1.1
		C-923.4,533.6-923.4,533.7-923.4,533.7z"/>
	<path class="st2" d="M-925.7,540.1C-925.7,540.2-925.6,540.2-925.7,540.1c0.2,0.1,0.5,0.5,0.5,0.7c0,0.1-0.1,0.1-0.1,0.2
		c-0.4,0.2-0.7,0.4-1.1,0.6c-0.2,0.1-0.3,0.1-0.4-0.1c-0.1-0.1-0.1-0.2-0.2-0.3c-0.1-0.1,0-0.3,0.1-0.4c0.4-0.2,0.8-0.4,1.1-0.7
		C-925.8,540.2-925.7,540.2-925.7,540.1z"/>
</g>
</svg>
