<?xml version="1.0" encoding="utf-8"?>
<!-- Generator: Adobe Illustrator 19.0.0, SVG Export Plug-In . SVG Version: 6.00 Build 0)  -->
<svg version="1.1" id="icons" xmlns="http://www.w3.org/2000/svg" xmlns:xlink="http://www.w3.org/1999/xlink" x="0px" y="0px"
	 viewBox="-940 524.5 37.2 33.5" style="enable-background:new -940 524.5 37.2 33.5;" xml:space="preserve">
<style type="text/css">
	.st0{fill:#0E67B1;}
</style>
<g>
	<g>
		<path class="st0" d="M-910.9,526.4c0,10.8,0,19.3,0,30.1c-0.2,0.3-0.3,0.7-0.5,0.9c-0.3,0.3-0.7,0.4-1,0.6c-5.7,0-11.3,0-17,0
			c0,0-0.1,0-0.1-0.1c-1-0.3-1.4-0.9-1.4-1.9c0-10.5,0-18.7,0-29.1c0-1.3,0.7-2,2-2c3.7,0,7.3,0,11,0c1.7,0,3.5,0,5.2,0
			c0.8,0,1.5,0.5,1.7,1.2C-911,526.2-911,526.3-910.9,526.4z M-929.8,530.8c0,0.2,0,0.3,0,0.4c0,6.8,0,11.4,0,18.2
			c0,0.3,0.1,0.4,0.4,0.4c5.6,0,11.3,0,16.9,0c0.3,0,0.4-0.1,0.4-0.4c0-6.8,0-11.3,0-18.1c0-0.5,0-0.5-0.4-0.5c-5.6,0-11.2,0-16.9,0
			C-929.5,530.8-929.6,530.8-929.8,530.8z M-912.1,550.9c-5.9,0-11.8,0-17.7,0c0,0.1,0,0.2,0,0.2c0,1.7,0,3.4,0,5
			c0,0.4,0.2,0.7,0.7,0.7c5.4,0,10.9,0,16.3,0c0.5,0,0.7-0.2,0.7-0.7c0-1.6,0-3.3,0-4.9C-912.1,551.1-912.1,551-912.1,550.9z
			 M-912.1,529.6c0-1,0-2,0-3c0-0.3-0.3-0.5-0.7-0.5c-5.4,0-10.9,0-16.3,0c-0.5,0-0.7,0.2-0.7,0.7c0,0.9,0,1.7,0,2.6
			c0,0.1,0,0.2,0,0.2C-923.9,529.6-918,529.6-912.1,529.6z"/>
		<path class="st0" d="M-922.7,553.9c0-1,0.7-1.7,1.7-1.7c1,0,1.7,0.7,1.7,1.7c0,1-0.8,1.8-1.7,1.8
			C-921.9,555.6-922.7,554.8-922.7,553.9z M-920.9,553.3c-0.3,0-0.6,0.3-0.6,0.6c0,0.3,0.3,0.6,0.6,0.6c0.3,0,0.6-0.3,0.6-0.6
			C-920.3,553.5-920.6,553.3-920.9,553.3z"/>
		<path class="st0" d="M-920.9,528.4c-0.4,0-0.7,0-1.1,0c-0.4,0-0.6-0.2-0.6-0.6c0-0.3,0.2-0.6,0.6-0.6c0.8,0,1.5,0,2.3,0
			c0.4,0,0.6,0.2,0.6,0.6c0,0.3-0.2,0.5-0.6,0.6C-920.2,528.4-920.6,528.4-920.9,528.4L-920.9,528.4z"/>
	</g>
</g>
<g>
	<path class="st0" d="M-926.9,545.5L-926.9,545.5c0-0.2,0.2-0.4,0.4-0.4h10.5c0.2,0,0.4,0.2,0.4,0.4l0,0c0,0.2-0.2,0.4-0.4,0.4
		h-10.5C-926.7,545.9-926.9,545.7-926.9,545.5z"/>
	<path class="st0" d="M-916,534.8c0,1.2-1,2.2-2.1,2.2c-1.3,0-2.3-1-2.3-2.2c0-1.2,1-2.2,2.2-2.2C-917,532.5-916,533.5-916,534.8z
		 M-918.2,536c0.7,0,1.3-0.6,1.3-1.3c0-0.7-0.6-1.3-1.3-1.3c-0.7,0-1.3,0.6-1.3,1.3C-919.5,535.5-919,536-918.2,536z"/>
	<path class="st0" d="M-916,540.6c0,1.2-1,2.2-2.2,2.2c-1.2,0-2.2-1-2.2-2.2c0-1.2,1-2.2,2.2-2.2C-917,538.4-916,539.4-916,540.6z
		 M-918.2,541.9c0.7,0,1.3-0.6,1.3-1.3c0-0.7-0.6-1.3-1.3-1.3c-0.7,0-1.3,0.6-1.3,1.3C-919.5,541.3-919,541.9-918.2,541.9z"/>
	<path class="st0" d="M-924.2,532.6c1.2,0,2.2,1,2.2,2.2c0,1.2-1,2.2-2.2,2.2c-1.2,0-2.2-1-2.2-2.2
		C-926.4,533.5-925.4,532.6-924.2,532.6z M-924.2,536c0.7,0,1.3-0.6,1.3-1.3c0-0.7-0.6-1.3-1.3-1.3c-0.7,0-1.3,0.6-1.3,1.3
		C-925.5,535.5-924.9,536-924.2,536z"/>
	<path class="st0" d="M-924.2,538.4c1.2,0,2.2,1,2.2,2.2c0,1.2-1,2.2-2.2,2.2c-1.2,0-2.2-1-2.2-2.2
		C-926.4,539.3-925.4,538.4-924.2,538.4z M-924.2,541.9c0.7,0,1.3-0.6,1.3-1.3c0-0.7-0.6-1.3-1.3-1.3c-0.7,0-1.3,0.6-1.3,1.3
		C-925.5,541.3-924.9,541.9-924.2,541.9z"/>
	<path class="st0" d="M-918.5,547.7L-918.5,547.7c0,0.2-0.2,0.4-0.4,0.4h-4.5c-0.2,0-0.4-0.2-0.4-0.4l0,0c0-0.2,0.2-0.4,0.4-0.4h4.5
		C-918.7,547.3-918.5,547.5-918.5,547.7z"/>
</g>
</svg>
