<?xml version="1.0" encoding="utf-8"?>
<!-- Generator: Adobe Illustrator 19.0.0, SVG Export Plug-In . SVG Version: 6.00 Build 0)  -->
<svg version="1.1" id="icons" xmlns="http://www.w3.org/2000/svg" xmlns:xlink="http://www.w3.org/1999/xlink" x="0px" y="0px"
	 viewBox="-940 524.5 37.2 33.5" style="enable-background:new -940 524.5 37.2 33.5;" xml:space="preserve">
<style type="text/css">
	.st0{fill:#0E67B1;}
</style>
<g>
	<g>
		<path class="st0" d="M-932.4,541.2c0-1.2,0-2.3,0-3.5c0-2.7,0-5.4,0-8c0-0.5,0.2-0.7,0.7-0.7c0.8,0,1.5,0,2.3,0
			c0.3,0,0.4-0.1,0.4-0.4c0-0.4,0-0.8,0-1.2c0-0.5,0.2-0.6,0.6-0.6c2.1,0,4.1,0,6.2,0c0.3,0,0.4-0.1,0.4-0.4c0-0.4,0-0.9,0-1.3
			c0-0.3,0.2-0.6,0.5-0.6c0.3,0,0.5,0.2,0.5,0.6c0,0.4,0,0.9,0,1.3c0,0.3,0.1,0.3,0.3,0.3c2,0,4.1,0,6.1,0c0.6,0,0.8,0.1,0.8,0.7
			c0,0.4,0,0.8,0,1.2c0,0.3,0.1,0.3,0.3,0.3c0.7,0,1.5,0,2.2,0c0.7,0,0.8,0.1,0.8,0.8c0,3.2,0,6.4,0,9.6c0,0.6,0,1.2,0,1.9
			c0.2,0,0.3,0,0.4,0c1.5,0,3,0,4.4,0c0.5,0,0.7,0.2,0.7,0.7c0,5.1,0,10.2,0,15.3c0,0.5-0.2,0.7-0.7,0.7c-5.7,0-11.4,0-17.1,0
			c-4.8,0-9.5,0-14.3,0c-0.2,0-0.4,0-0.6,0c-0.4,0-0.6-0.2-0.6-0.6c0-0.1,0-0.1,0-0.2c0-5,0-10,0-15c0-0.7,0.2-0.8,0.8-0.8
			c1.4,0,2.9,0,4.3,0C-932.7,541.2-932.6,541.2-932.4,541.2z M-911.3,556.7c0-8.9,0-17.8,0-26.7c-6.7,0-13.3,0-20,0
			c0,8.9,0,17.8,0,26.7c0.4,0,0.7,0,1.1,0c0-0.3,0-0.5,0-0.8c0-8,0-15.9,0-23.9c0-0.7,0.1-0.8,0.8-0.8c2.4,0,4.7,0,7.1,0
			c3.1,0,6.1,0,9.2,0c0.5,0,0.6,0.2,0.7,0.6c0,0.1,0,0.2,0,0.3c0,8.1,0,16.2,0,24.3c0,0.1,0,0.2,0,0.4
			C-912.1,556.7-911.7,556.7-911.3,556.7z M-925.8,556.7c0-0.1,0-0.1,0-0.2c0-2.5,0-4.9,0-7.4c0-0.2-0.1-0.3-0.3-0.3
			c-0.9,0-1.8,0-2.7,0c-0.3,0-0.4,0.1-0.4,0.4c0,2.3,0,4.7,0,7c0,0.1,0,0.3,0,0.4C-928,556.7-926.9,556.7-925.8,556.7z
			 M-913.6,556.7c0-0.1,0-0.2,0-0.2c0-2.4,0-4.9,0-7.3c0-0.2-0.1-0.3-0.3-0.3c-0.9,0-1.8,0-2.7,0c-0.3,0-0.4,0.1-0.4,0.4
			c0,2.4,0,4.7,0,7.1c0,0.1,0,0.2,0,0.3C-915.8,556.7-914.7,556.7-913.6,556.7z M-908,549.5c0-1.5,0-3.1,0-4.6
			c0-0.3-0.1-0.4-0.4-0.4c-0.5,0-1,0-1.5,0c-0.3,0-0.4,0.1-0.4,0.4c0,1.3,0,2.6,0,3.8c0,1.8,0,3.6,0,5.5c0,0.3,0.1,0.4,0.4,0.4
			c0.5,0,1,0,1.5,0c0.3,0,0.4-0.1,0.4-0.4C-908,552.6-908,551-908,549.5z M-932.5,544.5c-0.6,0-1.3,0-1.9,0c-0.3,0-0.4,0.1-0.4,0.4
			c0,3,0,5.9,0,8.9c0,0.8,0,0.8,0.8,0.8c0.5,0,1,0,1.5,0C-932.5,551.1-932.5,547.8-932.5,544.5z M-921.9,556.7c0-0.1,0-0.2,0-0.3
			c0-2.4,0-4.8,0-7.2c0-0.3-0.1-0.3-0.3-0.3c-0.7,0-1.5,0-2.2,0c-0.3,0-0.3,0.1-0.3,0.4c0,2.4,0,4.8,0,7.1c0,0.1,0,0.2,0,0.3
			C-923.7,556.7-922.8,556.7-921.9,556.7z M-918,556.7c0-0.1,0-0.1,0-0.1c0-2.5,0-5,0-7.5c0-0.2-0.1-0.3-0.3-0.3c-0.7,0-1.4,0-2.1,0
			c-0.3,0-0.4,0.1-0.4,0.4c0,2.4,0,4.7,0,7.1c0,0.1,0,0.2,0,0.4C-919.8,556.7-918.9,556.7-918,556.7z M-921.4,527.8L-921.4,527.8
			c-2,0-4,0-6,0c-0.6,0-0.7,0-0.6,0.7c0,0.5-0.1,0.5,0.5,0.5c4,0,8.1,0,12.1,0c0.8,0,0.7,0,0.8-0.8c0-0.3-0.1-0.4-0.4-0.4
			C-917.2,527.8-919.3,527.8-921.4,527.8z M-906.9,554.5c0.1,0,0.1,0.1,0.1,0.1c0.2,0,0.4,0,0.6,0c0.4,0,0.4,0,0.4-0.4
			c0-2.9,0-5.9,0-8.8c0-0.9,0-0.8-0.9-0.8c-0.3,0-0.3,0.1-0.3,0.3c0,3.1,0,6.2,0,9.4C-906.9,554.3-906.9,554.4-906.9,554.5z
			 M-936.9,549.5C-936.9,549.5-936.9,549.5-936.9,549.5c0,1.4,0,2.8,0,4.3c0,0.8,0,0.8,0.8,0.8c0.3,0,0.4-0.1,0.4-0.4
			c0-3,0-5.9,0-8.9c0-0.8,0-0.8-0.8-0.8c-0.3,0-0.4,0.1-0.4,0.4C-936.9,546.4-936.9,547.9-936.9,549.5z M-924.7,534.5
			C-924.7,534.5-924.7,534.5-924.7,534.5c0.3,0,0.6,0,0.9,0c0.2,0,0.3-0.1,0.3-0.3c0-0.6,0-1.2,0-1.8c0-0.1-0.1-0.2-0.2-0.2
			c-0.6,0-1.2,0-1.8,0c-0.1,0-0.2,0.1-0.2,0.2c0,0.6,0,1.2,0,1.8c0,0.2,0.1,0.3,0.3,0.3C-925.3,534.5-925,534.5-924.7,534.5z
			 M-925.8,542.3c0,0.7,0,1.4,0,2.1c0,0.1,0.2,0.2,0.2,0.2c0.6,0,1.2,0,1.8,0c0.2,0,0.3-0.1,0.3-0.3c0-0.4,0-0.7,0-1.1
			c0-0.3,0-0.6,0-0.9C-924.3,542.3-925,542.3-925.8,542.3z M-923.5,541.2c0-0.7,0-1.4,0-2.1c0-0.1-0.1-0.2-0.2-0.2
			c-0.6,0-1.2,0-1.8,0c-0.2,0-0.3,0.1-0.3,0.3c0,0.3,0,0.6,0,1c0,0.3,0,0.7,0,1C-925,541.2-924.3,541.2-923.5,541.2z M-926.9,534.5
			c0-0.8,0-1.5,0-2.2c-0.7,0-1.4,0-2.1,0c-0.1,0-0.2,0.1-0.2,0.2c0,0.7,0,1.4,0,2.1C-928.4,534.5-927.7,534.5-926.9,534.5z
			 M-920.2,532.3c-0.8,0-1.5,0-2.3,0c0,0.8,0,1.5,0,2.2c0.7,0,1.4,0,2.1,0c0.1,0,0.2-0.1,0.2-0.2
			C-920.2,533.6-920.2,533-920.2,532.3z M-916.9,532.2c-0.7,0-1.4,0-2.1,0c-0.1,0-0.2,0.1-0.2,0.2c0,0.7,0,1.4,0,2.1
			c0.8,0,1.5,0,2.3,0C-916.9,533.7-916.9,533-916.9,532.2z M-915.8,532.2c0,0.8,0,1.5,0,2.3c0.7,0,1.4,0,2,0c0.1,0,0.2-0.1,0.2-0.2
			c0-0.6,0-1.2,0-1.8c0-0.1-0.1-0.2-0.2-0.2C-914.4,532.2-915.1,532.2-915.8,532.2z M-925.8,537.8c0.7,0,1.4,0,2.1,0
			c0.1,0,0.2-0.1,0.2-0.2c0-0.7,0-1.4,0-2.1c-0.8,0-1.5,0-2.3,0C-925.8,536.3-925.8,537.1-925.8,537.8z M-925.8,545.6
			c0,0.7,0,1.4,0,2.1c0,0.1,0.1,0.2,0.2,0.2c0.6,0,1.2,0,1.8,0c0.1,0,0.2-0.1,0.2-0.1c0-0.7,0-1.4,0-2.1
			C-924.3,545.6-925,545.6-925.8,545.6z M-926.9,545.6c-0.7,0-1.4,0-2.1,0c-0.1,0-0.2,0.1-0.2,0.2c0,0.6,0,1.2,0,1.8
			c0,0.2,0,0.3,0.2,0.3c0.6,0,1.2,0,1.8,0c0.1,0,0.2-0.1,0.2-0.2C-926.9,547-926.9,546.3-926.9,545.6z M-922.4,545.6
			c0,0.8,0,1.5,0,2.3c0.7,0,1.4,0,2,0c0.1,0,0.2-0.1,0.2-0.2c0-0.6,0-1.2,0-1.8c0-0.1-0.1-0.2-0.2-0.2
			C-921.1,545.6-921.7,545.6-922.4,545.6z M-916.9,545.6c-0.7,0-1.4,0-2,0c-0.2,0-0.2,0.1-0.2,0.2c0,0.6,0,1.2,0,1.8
			c0,0.2,0.1,0.3,0.3,0.3c0.6,0,1.1,0,1.7,0c0.1,0,0.2,0,0.3,0C-916.9,547.1-916.9,546.3-916.9,545.6z M-926.9,535.6
			c-0.7,0-1.4,0-2.1,0c-0.1,0-0.2,0.1-0.2,0.2c0,0.6,0,1.2,0,1.8c0,0.1,0.1,0.2,0.2,0.2c0.6,0,1.2,0,1.8,0c0.1,0,0.2-0.1,0.2-0.2
			C-926.9,537-926.9,536.3-926.9,535.6z M-922.5,537.8c0.5,0,1,0,1.4,0c0.8,0,0.8,0,0.8-0.8c0-0.5,0-0.9,0-1.4c-0.8,0-1.5,0-2.3,0
			C-922.5,536.3-922.5,537.1-922.5,537.8z M-916.9,537.8c0-0.8,0-1.5,0-2.3c-0.7,0-1.4,0-2,0c-0.1,0-0.2,0.1-0.2,0.2
			c0,0.6,0,1.2,0,1.8c0,0.1,0.1,0.2,0.2,0.2C-918.3,537.9-917.6,537.8-916.9,537.8z M-916.9,538.9c-0.1,0-0.1,0-0.1,0
			c-0.4,0-0.8,0-1.3,0c-0.9,0-0.9,0-0.9,0.9c0,0.5,0,0.9,0,1.4c0.8,0,1.5,0,2.3,0C-916.9,540.4-916.9,539.7-916.9,538.9z
			 M-920.2,541.2c0-0.7,0-1.4,0-2.1c0-0.1-0.1-0.2-0.2-0.2c-0.6,0-1.2,0-1.8,0c-0.1,0-0.2,0.1-0.2,0.1c0,0.7,0,1.4,0,2.1
			C-921.7,541.2-921,541.2-920.2,541.2z M-926.9,541.1c0-0.7,0-1.4,0-2.1c0-0.1-0.1-0.1-0.2-0.1c-0.6,0-1.2,0-1.9,0
			c-0.1,0-0.2,0.1-0.2,0.2c0,0.7,0,1.4,0,2.1C-928.4,541.1-927.6,541.1-926.9,541.1z M-915.8,545.6c0,0.7,0,1.4,0,2
			c0,0.1,0.1,0.2,0.2,0.2c0.6,0,1.2,0,1.8,0c0.1,0,0.2-0.1,0.2-0.2c0-0.7,0-1.4,0-2.1C-914.3,545.6-915,545.6-915.8,545.6z
			 M-910.2,556.7c1.5,0,3,0,4.5,0c0-0.4,0-0.7,0-1.1c-1.5,0-3,0-4.5,0C-910.2,556-910.2,556.3-910.2,556.7z M-905.7,542.3
			c-1.5,0-3,0-4.5,0c0,0.3,0,0.6,0,0.9c0,0.2,0.1,0.3,0.3,0.2c0.4,0,0.8,0,1.3,0c0.9,0,1.8,0,2.7,0c0.1,0,0.3,0,0.3-0.2
			C-905.7,542.9-905.7,542.6-905.7,542.3z M-915.8,542.2c0,0.7,0,1.4,0,2.1c0,0.1,0.1,0.2,0.2,0.2c0.6,0,1.3,0,1.9,0
			c0.1,0,0.2-0.1,0.2-0.2c0-0.6,0-1.2,0-1.9c0-0.1-0.1-0.2-0.2-0.2C-914.4,542.2-915.1,542.2-915.8,542.2z M-916.9,542.2
			c-0.7,0-1.4,0-2.1,0c-0.1,0-0.2,0.1-0.2,0.2c0,0.6,0,1.3,0,1.9c0,0.1,0.1,0.2,0.2,0.2c0.7,0,1.4,0,2.1,0
			C-916.9,543.7-916.9,543-916.9,542.2z M-922.5,544.5c0.7,0,1.4,0,2.1,0c0.1,0,0.2-0.1,0.2-0.2c0-0.6,0-1.2,0-1.8
			c0-0.1-0.1-0.2-0.2-0.2c-0.7,0-1.4,0-2.1,0C-922.5,543-922.5,543.7-922.5,544.5z M-926.9,542.2c-0.7,0-1.4,0-2.1,0
			c-0.1,0-0.2,0.1-0.2,0.2c0,0.6,0,1.2,0,1.8c0,0.1,0.1,0.2,0.2,0.2c0.7,0,1.4,0,2.1,0C-926.9,543.7-926.9,543-926.9,542.2z
			 M-913.5,541.2c0-0.7,0-1.4,0-2.1c0-0.1-0.1-0.2-0.2-0.2c-0.6,0-1.2,0-1.8,0c-0.1,0-0.2,0.1-0.2,0.1c0,0.7,0,1.4,0,2.1
			C-915,541.2-914.3,541.2-913.5,541.2z M-915.8,535.6c0,0.7,0,1.4,0,2.1c0,0.1,0.2,0.2,0.2,0.2c0.4,0,0.8,0,1.3,0
			c0.8,0,0.8,0,0.8-0.8c0-0.5,0-1,0-1.5C-914.3,535.6-915,535.6-915.8,535.6z M-936.9,542.3c0,0.3,0,0.6,0,0.9
			c0,0.1,0.1,0.2,0.2,0.2c1.3,0,2.7,0,4,0c0.1,0,0.2-0.1,0.2-0.1c0-0.3,0-0.7,0-1C-934,542.3-935.4,542.3-936.9,542.3z
			 M-936.9,556.7c1.5,0,3,0,4.4,0c0-0.4,0-0.7,0-1.1c-1.5,0-3,0-4.4,0C-936.9,556-936.9,556.3-936.9,556.7z"/>
	</g>
</g>
</svg>
