<?xml version="1.0" encoding="utf-8"?>
<!-- Generator: Adobe Illustrator 19.0.0, SVG Export Plug-In . SVG Version: 6.00 Build 0)  -->
<svg version="1.1" id="icons" xmlns="http://www.w3.org/2000/svg" xmlns:xlink="http://www.w3.org/1999/xlink" x="0px" y="0px"
	 viewBox="-286 380.5 37.2 33.5" style="enable-background:new -286 380.5 37.2 33.5;" xml:space="preserve">
<style type="text/css">
	.st0{fill:#0E67B1;}
</style>
<g id="XMLID_108_">
	<path id="XMLID_140_" class="st0" d="M-283,390.3c9.9,0,19.7,0,29.6,0c0-0.9,0-1.8,0-2.7c0-0.5-0.4-0.8-0.9-0.8c-0.5,0-1.1,0-1.6,0
		c-0.6,0-1-0.4-1-0.9c0-0.5,0.4-0.8,1-0.8c0.6,0,1.3,0,1.9,0c1.3,0.1,2.3,1.2,2.3,2.5c0,4.1,0,8.1,0,12.2c0,0.5-0.4,0.9-0.8,0.9
		c-0.5,0-0.8-0.3-0.8-0.9c0-2.4,0-4.9,0-7.3c0-0.4-0.1-0.5-0.5-0.5c-9.5,0-19.1,0-28.6,0c-0.1,0-0.3,0-0.5,0c0,0.2,0,0.3,0,0.5
		c0,5.7,0,11.4,0,17.1c0,1.5,0.4,1.6,1.6,1.6c6,0,12,0,17.9,0c0.1,0,0.2,0,0.3,0c0.7,0,1.1,0.3,1.1,0.9c0,0.5-0.4,0.8-1,0.8
		c-0.9,0-1.8,0-2.7,0c-5.3,0-10.6,0-16,0c-1.8,0-2.8-1.3-2.8-2.8c0-7.4,0-14.8,0-22.2c0-1.7,1.1-2.7,2.7-2.8c0.5,0,1,0,1.5,0
		c0.6,0,0.9,0.3,0.9,0.8c0,0.5-0.3,0.8-0.9,0.8c-0.5,0-1,0-1.5,0c-0.7,0-1,0.3-1,1C-283,388.6-283,389.4-283,390.3z"/>
	<path id="XMLID_139_" class="st0" d="M-257.9,410.8c0.9-1.2,1.8-2.2,2.6-3.3c1.2-1.5,2.4-3.1,3.7-4.6c0.2-0.2,0.4-0.4,0.6-0.5
		c0.3-0.1,0.7,0,0.9,0.3c0.2,0.3,0.2,0.7,0,1c-0.6,0.7-1.1,1.4-1.7,2.1c-1.7,2.1-3.4,4.3-5.1,6.4c-0.5,0.6-1,0.7-1.6,0.1
		c-1.1-1.1-2.1-2.1-3.2-3.2c-0.5-0.5-0.5-0.9-0.1-1.3c0.4-0.4,0.9-0.3,1.3,0.1c0.8,0.8,1.6,1.6,2.3,2.3
		C-258.1,410.5-258,410.7-257.9,410.8z"/>
	<path id="XMLID_138_" class="st0" d="M-268.2,386.8c-1.7,0-3.4,0-5,0c-0.7,0-1-0.3-1-0.9c0-0.4,0.3-0.7,0.7-0.8c0.2,0,0.3,0,0.5,0
		c3.3,0,6.5,0,9.8,0c0.8,0,1.2,0.3,1.2,0.9c0,0.6-0.4,0.8-1.2,0.8C-264.9,386.8-266.6,386.8-268.2,386.8z"/>
	<path id="XMLID_137_" class="st0" d="M-276,385.1c0,0.8,0,1.7,0,2.5c0,0.5-0.4,0.9-0.8,0.9c-0.5,0-0.9-0.4-0.9-0.9
		c0-1.7,0-3.4,0-5.1c0-0.5,0.4-0.9,0.9-0.9c0.5,0,0.8,0.4,0.8,0.9C-276,383.4-276,384.2-276,385.1z"/>
	<path id="XMLID_136_" class="st0" d="M-260.3,385c0-0.9,0-1.7,0-2.6c0-0.4,0.2-0.7,0.6-0.8c0.4-0.1,0.7,0,0.9,0.3
		c0.1,0.2,0.2,0.4,0.2,0.6c0,1.7,0,3.4,0,5.1c0,0.5-0.4,0.9-0.9,0.9c-0.5,0-0.8-0.4-0.8-0.9C-260.3,386.8-260.3,385.9-260.3,385
		C-260.3,385-260.3,385-260.3,385z"/>
	<path id="XMLID_135_" class="st0" d="M-266.4,406c0.5,0,0.8,0.4,0.8,0.8c0,0.5-0.3,0.8-0.8,0.8c-0.5,0-0.9-0.4-0.9-0.8
		C-267.3,406.4-266.9,406-266.4,406z"/>
	<path id="XMLID_134_" class="st0" d="M-259.5,400.7c-0.5,0-0.8-0.4-0.8-0.9c0-0.5,0.4-0.8,0.8-0.8c0.5,0,0.8,0.4,0.8,0.9
		C-258.6,400.3-259,400.7-259.5,400.7z"/>
	<path id="XMLID_133_" class="st0" d="M-255.2,396.4c0,0.5-0.3,0.8-0.8,0.8c-0.5,0-0.9-0.4-0.9-0.8c0-0.5,0.4-0.8,0.8-0.8
		C-255.5,395.5-255.2,395.9-255.2,396.4z"/>
	<path id="XMLID_132_" class="st0" d="M-276,396.4c0,0.5-0.3,0.8-0.8,0.9c-0.5,0-0.9-0.4-0.9-0.8c0-0.5,0.4-0.8,0.8-0.8
		C-276.4,395.5-276,395.9-276,396.4z"/>
	<path id="XMLID_131_" class="st0" d="M-265.6,396.4c0,0.5-0.4,0.8-0.8,0.8c-0.5,0-0.9-0.4-0.9-0.8c0-0.4,0.4-0.8,0.8-0.8
		C-266,395.5-265.6,395.9-265.6,396.4z"/>
	<path id="XMLID_130_" class="st0" d="M-279.5,399.8c0,0.5-0.4,0.8-0.8,0.8c-0.5,0-0.8-0.3-0.8-0.8c0-0.5,0.3-0.9,0.8-0.9
		C-279.9,399-279.5,399.4-279.5,399.8z"/>
	<path id="XMLID_129_" class="st0" d="M-276,406.8c0,0.5-0.4,0.8-0.9,0.8c-0.5,0-0.8-0.4-0.8-0.8c0-0.5,0.4-0.8,0.9-0.8
		C-276.4,406-276,406.3-276,406.8z"/>
	<path id="XMLID_128_" class="st0" d="M-269.9,400.7c-0.5,0-0.8-0.4-0.8-0.8c0-0.5,0.4-0.8,0.8-0.8c0.5,0,0.9,0.4,0.9,0.8
		C-269.1,400.3-269.4,400.7-269.9,400.7z"/>
	<path id="XMLID_127_" class="st0" d="M-265.6,399.8c0,0.5-0.4,0.8-0.8,0.8c-0.5,0-0.9-0.4-0.8-0.9c0-0.4,0.4-0.8,0.8-0.8
		C-266,399-265.6,399.4-265.6,399.8z"/>
	<path id="XMLID_126_" class="st0" d="M-273.4,397.2c-0.5,0-0.8-0.4-0.8-0.9c0-0.5,0.4-0.8,0.9-0.8c0.5,0,0.8,0.4,0.8,0.8
		C-272.5,396.8-272.9,397.2-273.4,397.2z"/>
	<path id="XMLID_125_" class="st0" d="M-281.2,403.3c0-0.5,0.4-0.8,0.8-0.8c0.5,0,0.8,0.4,0.8,0.8c0,0.5-0.4,0.8-0.8,0.8
		C-280.8,404.2-281.2,403.8-281.2,403.3z"/>
	<path id="XMLID_124_" class="st0" d="M-273.4,407.6c-0.5,0-0.8-0.4-0.8-0.9c0-0.5,0.4-0.8,0.8-0.8c0.5,0,0.9,0.4,0.9,0.8
		C-272.5,407.3-272.9,407.6-273.4,407.6z"/>
	<path id="XMLID_123_" class="st0" d="M-258.6,403.3c0,0.5-0.4,0.9-0.8,0.9c-0.5,0-0.8-0.4-0.8-0.9c0-0.5,0.3-0.8,0.8-0.8
		C-259,402.5-258.6,402.8-258.6,403.3z"/>
	<path id="XMLID_122_" class="st0" d="M-263.8,403.3c0-0.5,0.4-0.8,0.9-0.8c0.5,0,0.8,0.4,0.8,0.8c0,0.5-0.4,0.9-0.8,0.9
		C-263.4,404.2-263.8,403.8-263.8,403.3z"/>
	<path id="XMLID_121_" class="st0" d="M-265.6,403.3c0,0.5-0.4,0.9-0.8,0.9c-0.5,0-0.8-0.4-0.8-0.9c0-0.5,0.4-0.8,0.8-0.8
		C-265.9,402.5-265.6,402.8-265.6,403.3z"/>
	<path id="XMLID_120_" class="st0" d="M-269.1,403.3c0,0.5-0.4,0.9-0.8,0.9c-0.5,0-0.8-0.4-0.8-0.9c0-0.5,0.4-0.8,0.8-0.8
		C-269.4,402.5-269.1,402.8-269.1,403.3z"/>
	<path id="XMLID_119_" class="st0" d="M-274.2,403.3c0-0.5,0.4-0.8,0.8-0.8c0.5,0,0.8,0.4,0.8,0.8c0,0.5-0.4,0.9-0.8,0.9
		C-273.8,404.2-274.2,403.8-274.2,403.3z"/>
	<path id="XMLID_118_" class="st0" d="M-276.9,402.5c0.5,0,0.8,0.4,0.9,0.8c0,0.5-0.4,0.8-0.8,0.9c-0.5,0-0.9-0.4-0.9-0.8
		C-277.7,402.9-277.3,402.5-276.9,402.5z"/>
	<path id="XMLID_117_" class="st0" d="M-255.2,399.9c0,0.5-0.4,0.8-0.9,0.8c-0.5,0-0.8-0.4-0.8-0.8c0-0.5,0.4-0.9,0.9-0.8
		C-255.5,399-255.1,399.4-255.2,399.9z"/>
	<path id="XMLID_116_" class="st0" d="M-262.9,400.7c-0.5,0-0.8-0.4-0.8-0.8c0-0.5,0.4-0.8,0.8-0.8c0.5,0,0.9,0.4,0.9,0.8
		C-262.1,400.3-262.5,400.7-262.9,400.7z"/>
	<path id="XMLID_115_" class="st0" d="M-273.4,400.7c-0.5,0-0.8-0.4-0.8-0.8c0-0.5,0.4-0.9,0.8-0.8c0.4,0,0.8,0.4,0.8,0.8
		C-272.5,400.3-272.9,400.7-273.4,400.7z"/>
	<path id="XMLID_114_" class="st0" d="M-276,399.8c0,0.5-0.4,0.8-0.8,0.8c-0.5,0-0.8-0.4-0.8-0.8c0-0.5,0.4-0.9,0.8-0.9
		C-276.4,399-276,399.4-276,399.8z"/>
	<path id="XMLID_113_" class="st0" d="M-262.9,397.2c-0.5,0-0.8-0.4-0.8-0.8c0-0.5,0.3-0.8,0.8-0.8c0.5,0,0.9,0.4,0.9,0.8
		C-262.1,396.8-262.5,397.2-262.9,397.2z"/>
	<path id="XMLID_112_" class="st0" d="M-258.6,396.4c0,0.5-0.3,0.9-0.8,0.9c-0.5,0-0.8-0.3-0.8-0.8c0-0.5,0.3-0.9,0.8-0.9
		C-259,395.5-258.6,395.9-258.6,396.4z"/>
	<path id="XMLID_111_" class="st0" d="M-270.7,406.8c0-0.5,0.4-0.8,0.8-0.8c0.5,0,0.8,0.4,0.8,0.9c0,0.5-0.4,0.8-0.9,0.8
		C-270.4,407.6-270.8,407.2-270.7,406.8z"/>
	<path id="XMLID_110_" class="st0" d="M-269.9,397.2c-0.5,0-0.8-0.4-0.8-0.8c0-0.5,0.4-0.8,0.9-0.8c0.5,0,0.8,0.4,0.8,0.9
		C-269.1,396.9-269.5,397.2-269.9,397.2z"/>
	<path id="XMLID_109_" class="st0" d="M-279.5,406.8c0,0.5-0.4,0.8-0.8,0.8c-0.5,0-0.9-0.4-0.9-0.8c0-0.5,0.4-0.8,0.9-0.8
		C-279.9,406-279.5,406.3-279.5,406.8z"/>
</g>
</svg>
