<?xml version="1.0" encoding="utf-8"?>
<!-- Generator: Adobe Illustrator 19.0.0, SVG Export Plug-In . SVG Version: 6.00 Build 0)  -->
<svg version="1.1" id="icons" xmlns="http://www.w3.org/2000/svg" xmlns:xlink="http://www.w3.org/1999/xlink" x="0px" y="0px"
	 viewBox="-286 380.5 37.2 33.5" style="enable-background:new -286 380.5 37.2 33.5;" xml:space="preserve">
<style type="text/css">
	.st0{fill:#0E67B1;stroke:#0E67B1;stroke-width:0.2451;stroke-miterlimit:10;}
</style>
<g id="XMLID_2_">
	<g id="XMLID_3_">
		<path id="XMLID_14_" class="st0" d="M-285,413.6c0.2,0,0.2,0,0.4,0c9.4,0,19.4,0,28.7,0c1.2,0,2.4,0,3.6,0c0.4,0,0.7-0.3,0.7-0.6
			c0-0.4-0.3-0.7-0.7-0.7c-0.1,0-0.2,0-0.3,0c-10.5,0-21,0-31.4,0c-0.2,0-0.4,0-0.7,0c0-0.2,0-0.4,0-0.5c0-9.8,0-19.6,0-29.4
			c0-0.4,0-0.8-0.5-1.1c-0.2,0-0.3,0-0.5,0c-0.4,0.2-0.5,0.6-0.5,1c0,9.8,0,18.8,0,28.6c0,0.2,0-0.2,0,0
			C-286,410.9-286.3,413.2-285,413.6z"/>
		<path id="XMLID_13_" class="st0" d="M-249.6,407.1c-0.3,0.3-0.6,0.7-1,1c-0.4,0.4-0.8,0.8-1.2,1.2c-0.3,0.3-0.7,0.3-1.1,0
			c-0.6-0.6-1.2-1.3-1.9-1.9c-0.4-0.4-0.4-0.8-0.1-1.1c0.3-0.3,0.7-0.3,1.1,0.1c0.2,0.2,0.4,0.5,0.7,0.7c0,0,0.1,0,0.1,0
			c0-0.1,0-0.3,0-0.4c0-4.8,0-9.6,0-14.4c0-0.1,0-0.2,0-0.3c0-0.4,0.3-0.7,0.7-0.7c0.4,0,0.7,0.3,0.7,0.7c0,1.3,0,2.6,0,3.9
			c0,3.6,0,7.2,0,10.9c0,0.1,0,0.2,0,0.4c0.3-0.3,0.5-0.5,0.7-0.7c0.5-0.5,0.9-0.5,1.3,0C-249.6,406.8-249.6,406.9-249.6,407.1z"/>
		<path id="XMLID_10_" class="st0" d="M-283.3,398.4c0-3.9,0-7.7,0-11.6c0-0.7,0.2-0.9,0.9-0.9c2.1,0,4.3,0,6.4,0
			c0.6,0,0.8,0.2,0.8,0.8c0,7.8,0,15.5,0,23.3c0,0.6-0.2,0.8-0.8,0.8c-2.1,0-4.3,0-6.4,0c-0.6,0-0.8-0.2-0.8-0.8
			C-283.3,406.2-283.3,402.3-283.3,398.4z M-281.9,409.5c1.8,0,3.6,0,5.4,0c0-7.4,0-14.8,0-22.2c-1.8,0-3.6,0-5.4,0
			C-281.9,394.8-281.9,402.1-281.9,409.5z"/>
		<path id="XMLID_7_" class="st0" d="M-273.8,401.8c0-2.7,0-5.5,0-8.2c0-0.7,0.2-0.9,0.9-0.9c2.1,0,4.3,0,6.4,0
			c0.6,0,0.8,0.2,0.8,0.8c0,5.5,0,11,0,16.5c0,0.6-0.2,0.8-0.8,0.8c-2.1,0-4.3,0-6.4,0c-0.6,0-0.8-0.2-0.8-0.8
			C-273.8,407.3-273.8,404.6-273.8,401.8z M-272.5,394.1c0,5.2,0,10.3,0,15.4c1.8,0,3.6,0,5.3,0c0-5.2,0-10.3,0-15.4
			C-268.9,394.1-270.7,394.1-272.5,394.1z"/>
		<path id="XMLID_4_" class="st0" d="M-256.3,405.5c0,1.5,0,3,0,4.5c0,0.6-0.2,0.8-0.8,0.8c-2.1,0-4.3,0-6.4,0
			c-0.6,0-0.8-0.2-0.8-0.8c0-3,0-6,0-9c0-0.7,0.2-0.9,0.9-0.9c2.1,0,4.2,0,6.3,0c0.7,0,0.9,0.2,0.9,0.9
			C-256.3,402.5-256.3,404-256.3,405.5z M-257.7,409.5c0-2.7,0-5.4,0-8c-1.8,0-3.6,0-5.3,0c0,2.7,0,5.4,0,8
			C-261.2,409.5-259.5,409.5-257.7,409.5z"/>
	</g>
</g>
</svg>
