<?xml version="1.0" encoding="utf-8"?>
<!-- Generator: Adobe Illustrator 19.0.0, SVG Export Plug-In . SVG Version: 6.00 Build 0)  -->
<svg version="1.1" id="icons" xmlns="http://www.w3.org/2000/svg" xmlns:xlink="http://www.w3.org/1999/xlink" x="0px" y="0px"
	 viewBox="-286 380.5 37.2 33.5" style="enable-background:new -286 380.5 37.2 33.5;" xml:space="preserve">
<style type="text/css">
	.st0{fill:#0E67B1;}
</style>
<g id="XMLID_2_">
	<g>
		<path id="XMLID_159_" class="st0" d="M-249.3,411c-0.2,0.4-0.5,0.5-0.9,0.5c-11.1,0-22.2,0-33.3,0c-1.2,0-1.2,0-1.2-1.2
			c0-5.3,0-10.6,0-15.9c0-0.2,0-0.3,0-0.5c-0.2,0-0.4,0-0.6,0c-0.4,0-0.6-0.2-0.7-0.7c0-0.8,0-1.6,0-2.4c0-0.3,0.1-0.5,0.4-0.7
			c0.6-0.3,1.2-0.6,1.8-0.9c0.2-0.1,0.3-0.2,0.3-0.5c0-0.7,0-1.4,0-2.2c0-0.2,0-0.3-0.2-0.4c-0.3-0.1-0.4-0.3-0.4-0.6
			c0-0.8,0-1.6,0-2.4c0-0.4,0.2-0.6,0.6-0.6c1.2,0,2.5,0,3.7,0c0.4,0,0.6,0.3,0.7,0.7c0,0.8,0,1.6,0,2.4c0,0.2-0.1,0.5-0.3,0.5
			c-0.4,0.1-0.4,0.4-0.4,0.7c0,0.1,0,0.2,0,0.3c0.2-0.1,0.3-0.1,0.4-0.2c1.2-0.6,2.4-1.2,3.6-1.8c0.3-0.2,0.6-0.2,1,0
			c3.2,1.6,6.5,3.3,9.7,4.9c0.4,0.2,0.5,0.4,0.5,0.8c0,0.7,0,1.4,0,2.2c0,0.6-0.2,0.8-0.8,0.8c-0.1,0-0.3,0-0.4,0c0,0.4,0,0.8,0,1.3
			c0.2,0,0.4,0,0.6,0c5,0,10,0,14.9,0c0.4,0,0.7,0.1,0.9,0.5C-249.3,400.8-249.3,405.9-249.3,411z M-267,393.9
			c-1.2-0.2-1.2-0.2-1.2-1.2c0-0.2-0.1-0.4-0.3-0.5c-2.1-1.1-4.3-2.1-6.4-3.2c-0.2-0.1-0.4-0.1-0.6,0c-2,1-3.9,2-5.9,2.9
			c-0.6,0.3-1,0.6-0.9,1.3c0.1,0.4-0.2,0.6-0.6,0.6c-0.2,0-0.4,0-0.6,0c0,0.2,0,0.3,0,0.4c0,4.4,0,8.8,0,13.2c0,0.3,0.1,0.4,0.4,0.4
			c1.5,0,2.9,0,4.4,0c0.3,0,0.4-0.1,0.4-0.4c0-1.3,0-2.6,0-3.9c0-0.5,0.2-0.7,0.7-0.7c1.6,0,3.2,0,4.8,0c0.5,0,0.7,0.2,0.7,0.7
			c0,1.3,0,2.6,0,3.9c0,0.3,0.1,0.4,0.4,0.4c1.4,0,2.8,0,4.3,0c0.4,0,0.4-0.1,0.4-0.5c0-4.4,0-8.7,0-13.1
			C-267,394.1-267,394-267,393.9z M-264.4,410.3c0-0.6,0-1.1,0-1.6c0-2.6,0-5.2,0-7.8c0-0.5,0.2-0.7,0.7-0.7c0.1,0,0.1,0,0.2,0
			c3.6,0,7.3,0,10.9,0c0.6,0,0.8,0.2,0.8,0.8c0,2.9,0,5.9,0,8.8c0,0.2,0,0.3,0,0.5c0.3,0,0.6,0,0.9,0c0.4,0,0.4-0.1,0.4-0.5
			c0-3.5,0-7,0-10.5c0-0.5,0-0.5-0.5-0.5c-4.8,0-9.6,0-14.3,0c-0.3,0-0.4,0.1-0.4,0.4c0,3.5,0,7.1,0,10.6c0,0.1,0,0.3,0,0.4
			C-265.3,410.3-264.9,410.3-264.4,410.3z M-267,392.6c0.4,0,0.8,0,1.3,0c0-0.4,0-0.8,0-1.2c0-0.2-0.1-0.4-0.3-0.5c-3-1.5-6-3-9-4.5
			c-0.1-0.1-0.3-0.1-0.5,0c-0.5,0.2-1,0.5-1.6,0.8c-2.5,1.2-4.9,2.5-7.4,3.7c-0.1,0.1-0.3,0.2-0.3,0.3c0,0.5,0,0.9,0,1.4
			c0.3,0,0.6,0,0.8,0c0.5,0,0.5,0,0.5-0.5c0-0.4,0.1-0.6,0.5-0.8c2.4-1.2,4.8-2.4,7.2-3.6c0.3-0.2,0.6-0.2,1,0
			c2.3,1.1,4.5,2.3,6.8,3.4c0.6,0.3,1.1,0.6,0.9,1.4C-267,392.5-267,392.6-267,392.6z M-277.2,410.3c1.3,0,2.5,0,3.8,0
			c0-0.1,0-0.1,0-0.2c0-2,0-3.9,0-5.9c0-0.3-0.1-0.3-0.3-0.3c-1,0-2.1,0-3.1,0c-0.3,0-0.4,0.1-0.4,0.4c0,1.9,0,3.7,0,5.6
			C-277.2,410.1-277.2,410.2-277.2,410.3z M-265.8,397.7c0.2,0,0.3,0,0.4,0c4.6,0,9.3,0,13.9,0c0.9,0,0.9,0,0.9-0.9
			c0-0.3-0.1-0.4-0.4-0.4c-4.8,0-9.6,0-14.5,0c-0.1,0-0.3,0-0.4,0C-265.8,396.8-265.8,397.2-265.8,397.7z M-253.1,405.3
			c0-0.3,0-0.6,0-0.9c0-0.3-0.1-0.4-0.4-0.4c-3.1,0-6.2,0-9.3,0c-0.1,0-0.3,0-0.4,0c0,0.4,0,0.9,0,1.3
			C-259.8,405.3-256.5,405.3-253.1,405.3z M-253.1,406.5c-3.4,0-6.8,0-10.2,0c0,0.4,0,0.9,0,1.3c0.2,0,0.3,0,0.4,0
			c1.8,0,3.6,0,5.4,0c1.3,0,2.6,0,3.9,0c0.1,0,0.3-0.1,0.3-0.2C-253,407.3-253.1,406.9-253.1,406.5z M-253.1,401.5
			c-3.4,0-6.8,0-10.1,0c0,0.4,0,0.8,0,1.2c3.4,0,6.8,0,10.1,0C-253.1,402.3-253.1,401.9-253.1,401.5z M-263.2,409c0,0.4,0,0.8,0,1.3
			c3.4,0,6.8,0,10.1,0c0-0.4,0-0.8,0-1.3C-256.5,409-259.8,409-263.2,409z M-278.4,409.1C-278.5,409.1-278.5,409-278.4,409.1
			c-1.7-0.1-3.3-0.1-4.9-0.1c-0.1,0-0.2,0.1-0.2,0.2c0,0.4,0,0.7,0,1.1c1.7,0,3.4,0,5.1,0C-278.4,409.9-278.4,409.5-278.4,409.1z
			 M-267,409c-0.2,0-0.3,0-0.5,0c-1.3,0-2.5,0-3.8,0c-0.9,0-0.9,0-0.9,0.9c0,0.3,0.1,0.4,0.4,0.4c1.5,0,3,0,4.4,0c0.1,0,0.2,0,0.3,0
			C-267,409.9-267,409.5-267,409z M-282.9,385c0.6,0,1.1,0,1.6,0c1.1,0,1.1,0,1-1.1c0,0,0,0,0,0c-0.1-0.1-0.1-0.2-0.2-0.2
			c-0.7,0-1.4,0-2.1,0c-0.1,0-0.2,0.1-0.2,0.2C-282.9,384.3-282.9,384.6-282.9,385z M-280.9,386.3c-0.3,0-0.4,0-0.6,0
			c-0.7,0-0.7,0-0.7,0.7c0,0.5,0,1,0,1.5c0.5-0.2,0.8-0.4,1.2-0.6c0.1,0,0.1-0.1,0.1-0.2C-280.9,387.2-280.9,386.8-280.9,386.3z"/>
		<path id="XMLID_156_" class="st0" d="M-277.8,396.4c0-1.4,1.1-2.5,2.5-2.5c1.4,0,2.5,1.2,2.5,2.5c0,1.4-1.2,2.5-2.6,2.5
			C-276.7,398.9-277.8,397.8-277.8,396.4z M-276.5,396.4c0,0.7,0.6,1.3,1.3,1.3c0.7,0,1.3-0.6,1.3-1.3c0-0.7-0.6-1.3-1.3-1.3
			C-275.9,395.1-276.5,395.7-276.5,396.4z"/>
		<path id="XMLID_155_" class="st0" d="M-275.9,406.5c0.3,0,0.6,0.3,0.6,0.6c0,0.3-0.3,0.6-0.6,0.6c-0.3,0-0.6-0.3-0.6-0.7
			C-276.5,406.8-276.2,406.5-275.9,406.5z"/>
	</g>
</g>
</svg>
