<?xml version="1.0" encoding="utf-8"?>
<!-- Generator: Adobe Illustrator 19.0.0, SVG Export Plug-In . SVG Version: 6.00 Build 0)  -->
<svg version="1.1" id="icons" xmlns="http://www.w3.org/2000/svg" xmlns:xlink="http://www.w3.org/1999/xlink" x="0px" y="0px"
	 viewBox="-286 380.5 37.2 33.5" style="enable-background:new -286 380.5 37.2 33.5;" xml:space="preserve">
<style type="text/css">
	.st0{fill:#0E67B1;}
</style>
<path id="XMLID_2_" class="st0" d="M-256.6,400.6c0,0.4,0,0.7,0,1c0,3,0,6.1,0,9.1c0,1.4-0.9,2.3-2.2,2.3c-5.7,0-11.3,0-17,0
	c-1.5,0-2.3-0.8-2.3-2.3c0-3.2,0-6.4,0-9.6c0-0.1,0-0.3,0-0.5c-0.1,0-0.3,0-0.4,0c-1.1,0-2.1,0-3.2,0c-2.3,0-3.9-1.6-3.9-3.8
	c0-3.8,0-7.6,0-11.3c0-2.3,1.6-3.9,3.9-3.9c5.3,0,10.7,0,16,0c4.2,0,8.4,0,12.7,0c1.8,0,3.1,0.9,3.7,2.4c0.1,0.4,0.2,0.9,0.2,1.3
	c0,3.9,0,7.7,0,11.6c0,2.1-1.7,3.7-3.7,3.7C-254.1,400.6-255.3,400.6-256.6,400.6z M-280,388.2h25.1c0.4,0,0.7,0.3,0.7,0.7v4.4
	c0,0.4-0.3,0.7-0.7,0.7h-1.7v5c1.3,0,2.6,0.1,3.9,0c1.1-0.1,1.9-1,1.9-2.1c0-3.8,0-7.6,0-11.4c0-1.2-1-2.2-2.2-2.2
	c-9.6,0-19.2,0-28.7,0c-1.4,0-2.3,0.9-2.3,2.2c0,3.8,0,7.5,0,11.3c0,1.3,0.9,2.2,2.2,2.2c1.1,0,2.2,0,3.2,0c0.1,0,0.2,0,0.3,0v-5
	h-1.8c-0.3,0-0.6-0.3-0.6-0.6v-4.4C-280.7,388.5-280.4,388.2-280,388.2z M-274.5,389.8h-1.7c-0.2,0-0.3,0.2-0.3,0.3v0
	c0,5.2,0,10.3,0,15.5c0,0.6,0.1,0.7,0.7,0.7c5.6,0,11.2,0,16.8,0c0.6,0,0.7-0.1,0.7-0.7c0-5.1,0-10.2,0-15.3c0,0,0-0.1,0-0.1
	c0-0.2-0.2-0.4-0.4-0.4h-1.6c-0.1,4.1-3.6,6.7-7.3,6.6C-271.3,396.3-274.4,393.6-274.5,389.8z M-272.8,389.8
	c0.1,1.9,0.9,3.3,2.5,4.2c2,1.1,4,1.1,5.9-0.1c1.5-0.9,2.2-2.3,2.3-4C-265.6,389.8-269.2,389.8-272.8,389.8z M-276.5,408
	c-0.1,0.7,0,0.8,0.7,0.8c5.6,0,11.2,0,16.8,0c0.6,0,0.8-0.2,0.7-0.8C-264.4,408-270.4,408-276.5,408z M-258.3,410.5
	c-6.1,0-12.1,0-18.2,0c-0.1,0.7,0,0.8,0.7,0.8c5.6,0,11.2,0,16.9,0C-258.3,411.3-258.2,411.2-258.3,410.5z M-278.2,392.3v-2.4h-0.3
	c-0.3,0-0.5,0.2-0.5,0.5v1.5c0,0.3,0.2,0.5,0.5,0.5H-278.2z M-256.6,389.8v2.4h0.4c0.2,0,0.4-0.2,0.4-0.4v-1.6
	c0-0.3-0.2-0.5-0.5-0.5H-256.6z"/>
</svg>
