<?xml version="1.0" encoding="utf-8"?>
<!-- Generator: Adobe Illustrator 19.0.0, SVG Export Plug-In . SVG Version: 6.00 Build 0)  -->
<svg version="1.1" id="icons" xmlns="http://www.w3.org/2000/svg" xmlns:xlink="http://www.w3.org/1999/xlink" x="0px" y="0px"
	 viewBox="-940 524.5 37.2 33.5" style="enable-background:new -940 524.5 37.2 33.5;" xml:space="preserve">
<style type="text/css">
	.st0{fill:#0E67B1;}
</style>
<g>
	<g>
		<path class="st0" d="M-911.2,526c0,10.9,0,19.5,0,30.4c-0.2,0.3-0.3,0.7-0.5,0.9c-0.3,0.3-0.7,0.4-1,0.6c-5.7,0-11.5,0-17.2,0
			c0,0-0.1-0.1-0.1-0.1c-1-0.3-1.4-0.9-1.4-2c0-10.6,0-18.9,0-29.5c0-1.3,0.7-2,2-2c3.7,0,7.4,0,11.2,0c1.7,0,3.5,0,5.2,0
			c0.8,0,1.5,0.5,1.7,1.2C-911.3,525.8-911.2,525.9-911.2,526z M-930.3,530.4c0,0.2,0,0.3,0,0.4c0,6.9,0,11.6,0,18.5
			c0,0.3,0.1,0.4,0.4,0.4c5.7,0,11.4,0,17.1,0c0.3,0,0.4-0.1,0.4-0.4c0-6.9,0-11.5,0-18.4c0-0.5,0-0.5-0.4-0.5c-5.7,0-11.4,0-17.1,0
			C-930,530.4-930.1,530.4-930.3,530.4z M-912.4,550.8c-6,0-11.9,0-17.9,0c0,0.1,0,0.2,0,0.2c0,1.7,0,3.4,0,5.1
			c0,0.4,0.2,0.7,0.7,0.7c5.5,0,11,0,16.5,0c0.5,0,0.7-0.2,0.7-0.7c0-1.7,0-3.3,0-5C-912.4,551-912.4,550.9-912.4,550.8z
			 M-912.4,529.3c0-1.1,0-2.1,0-3.1c0-0.3-0.3-0.6-0.7-0.6c-5.5,0-11,0-16.5,0c-0.5,0-0.7,0.2-0.7,0.7c0,0.9,0,1.7,0,2.6
			c0,0.1,0,0.2,0,0.2C-924.3,529.3-918.4,529.3-912.4,529.3z"/>
		<path class="st0" d="M-923.1,553.8c0-1,0.8-1.8,1.7-1.8c1,0,1.8,0.8,1.8,1.7c0,1-0.8,1.8-1.8,1.8
			C-922.3,555.6-923.1,554.8-923.1,553.8z M-921.4,553.2c-0.3,0-0.6,0.3-0.6,0.6c0,0.3,0.3,0.6,0.6,0.6c0.3,0,0.6-0.3,0.6-0.6
			C-920.7,553.5-921,553.2-921.4,553.2z"/>
		<path class="st0" d="M-921.4,528c-0.4,0-0.7,0-1.1,0c-0.4,0-0.6-0.2-0.6-0.6c0-0.3,0.2-0.6,0.6-0.6c0.8,0,1.5,0,2.3,0
			c0.4,0,0.6,0.2,0.6,0.6c0,0.3-0.2,0.6-0.6,0.6C-920.6,528-921,528-921.4,528L-921.4,528z"/>
	</g>
</g>
<path class="st0" d="M-915,536.4c-0.7,0-1.2,0.6-1.2,1.2c0,0.3,0.1,0.5,0.2,0.7l-2.9,3.3c-0.2-0.1-0.4-0.1-0.6-0.1
	c-0.2,0-0.4,0.1-0.6,0.2l-1.3-1.4c0.1-0.2,0.2-0.4,0.2-0.7c0-0.7-0.6-1.2-1.2-1.2c-0.7,0-1.2,0.6-1.2,1.2c0,0.1,0,0.2,0,0.4
	l-3.1,1.9c-0.2-0.2-0.5-0.4-0.9-0.4c-0.7,0-1.2,0.6-1.2,1.2c0,0.7,0.6,1.2,1.2,1.2c0.7,0,1.2-0.6,1.2-1.2c0-0.1,0-0.2-0.1-0.4
	l3.1-1.9c0.2,0.2,0.5,0.4,0.9,0.4c0.2,0,0.4-0.1,0.6-0.2l1.3,1.4c-0.1,0.2-0.2,0.4-0.2,0.7c0,0.7,0.6,1.2,1.2,1.2
	c0.7,0,1.2-0.6,1.2-1.2c0-0.3-0.1-0.5-0.2-0.7l2.9-3.3c0.2,0.1,0.4,0.1,0.6,0.1c0.7,0,1.2-0.6,1.2-1.2
	C-913.8,537-914.4,536.4-915,536.4z M-927,542.8c0,0.3-0.3,0.6-0.6,0.6c-0.3,0-0.6-0.3-0.6-0.6c0-0.3,0.3-0.6,0.6-0.6
	c0.1,0,0.2,0,0.3,0.1C-927.1,542.4-927,542.6-927,542.8L-927,542.8z M-922.4,540.3c-0.1,0-0.2,0-0.3-0.1c-0.2-0.1-0.3-0.3-0.3-0.5v0
	c0-0.3,0.3-0.6,0.6-0.6c0.3,0,0.6,0.3,0.6,0.6c0,0.1,0,0.1,0,0.2c-0.1,0.2-0.2,0.4-0.5,0.4C-922.3,540.3-922.4,540.3-922.4,540.3z
	 M-918.9,542.8c0,0.3-0.3,0.6-0.6,0.6c-0.3,0-0.6-0.3-0.6-0.6c0-0.1,0-0.1,0-0.2c0.1-0.2,0.2-0.4,0.5-0.4c0,0,0.1,0,0.1,0
	c0,0,0.1,0,0.1,0c0.2,0,0.4,0.2,0.5,0.4C-918.9,542.7-918.9,542.7-918.9,542.8z M-915,538.3c0,0-0.1,0-0.1,0c-0.2,0-0.4-0.2-0.5-0.4
	c0-0.1,0-0.1,0-0.2c0-0.3,0.3-0.6,0.6-0.6c0.3,0,0.6,0.3,0.6,0.6C-914.4,538-914.7,538.3-915,538.3z"/>
</svg>
