<?xml version="1.0" encoding="utf-8"?>
<!-- Generator: Adobe Illustrator 19.0.0, SVG Export Plug-In . SVG Version: 6.00 Build 0)  -->
<svg version="1.1" id="icons" xmlns="http://www.w3.org/2000/svg" xmlns:xlink="http://www.w3.org/1999/xlink" x="0px" y="0px"
	 viewBox="-940 524.5 37.2 33.5" style="enable-background:new -940 524.5 37.2 33.5;" xml:space="preserve">
<style type="text/css">
	.st0{fill:none;stroke:#0E67B1;stroke-width:0.8136;stroke-miterlimit:10;}
	.st1{fill:#0E67B1;}
	.st2{fill:#0E67B1;stroke:#0E67B1;stroke-width:0.1627;stroke-miterlimit:10;}
</style>
<path class="st0" d="M-925.3,541.6c0,2,1.6,3.6,3.6,3.6c1.9,0,3.6-1.6,3.6-3.5c0-2-1.6-3.6-3.6-3.6
	C-923.8,538-925.3,539.6-925.3,541.6z"/>
<path class="st1" d="M-921.6,558.3c-3,0-5.4-2.4-5.4-5.4c0-3,2.4-5.4,5.4-5.4c3,0,5.4,2.4,5.4,5.4
	C-916.2,555.8-918.6,558.2-921.6,558.3z M-921.6,548.5c-2.4,0-4.3,1.9-4.4,4.3c0,2.4,1.9,4.4,4.3,4.4c2.4,0,4.4-1.9,4.4-4.3
	C-917.3,550.4-919.2,548.5-921.6,548.5z"/>
<path class="st1" d="M-921.6,535.4c-3,0-5.4-2.4-5.4-5.4c0-3,2.4-5.4,5.4-5.4c3,0,5.5,2.4,5.5,5.4
	C-916.2,533-918.6,535.4-921.6,535.4z M-926,530c0,2.4,1.9,4.4,4.3,4.4c2.4,0,4.4-1.9,4.4-4.3c0-2.4-1.9-4.4-4.3-4.4
	C-924,525.6-926,527.6-926,530z"/>
<path class="st1" d="M-938.4,541.4c0-3,2.4-5.4,5.4-5.4c3,0,5.5,2.4,5.5,5.4c0,3-2.4,5.5-5.4,5.5
	C-936,546.8-938.4,544.4-938.4,541.4z M-937.4,541.4c0,2.4,1.9,4.4,4.3,4.4c2.4,0,4.4-1.9,4.4-4.3c0-2.4-1.9-4.4-4.3-4.4
	C-935.4,537.1-937.4,539-937.4,541.4z"/>
<path class="st1" d="M-904.8,541.4c0,3-2.4,5.4-5.4,5.4c-3,0-5.4-2.4-5.4-5.4c0-3,2.4-5.4,5.4-5.4
	C-907.2,536-904.8,538.4-904.8,541.4z M-910.2,537.1c-2.4,0-4.4,1.9-4.4,4.3c0,2.5,1.9,4.4,4.3,4.4c2.4,0,4.4-1.9,4.4-4.3
	C-905.8,539-907.7,537.1-910.2,537.1z"/>
<path class="st1" d="M-915.4,552.9c-0.2-0.3-0.3-0.6-0.5-0.9c1-0.6,1.9-1.3,2.7-2.1c0.8-0.8,1.5-1.7,2.1-2.7
	c0.3,0.2,0.6,0.3,0.9,0.5C-911.4,549.9-913.1,551.6-915.4,552.9z"/>
<path class="st1" d="M-910.2,535.2c-0.3,0.2-0.6,0.3-0.9,0.5c-0.6-1-1.2-1.9-2.1-2.7c-0.8-0.8-1.7-1.5-2.8-2.1
	c0.2-0.3,0.3-0.6,0.5-0.9C-913.1,531.2-911.4,532.9-910.2,535.2z"/>
<path class="st1" d="M-933.1,547.6c0.1-0.1,0.2-0.1,0.2-0.1c0.2-0.1,0.4-0.2,0.7-0.4c1.1,2,2.7,3.6,4.8,4.8
	c-0.2,0.3-0.3,0.6-0.5,0.9C-930.1,551.6-931.8,549.9-933.1,547.6z"/>
<path class="st1" d="M-927.8,530c0.2,0.3,0.3,0.6,0.5,0.9c-1,0.6-1.9,1.2-2.7,2.1c-0.8,0.8-1.5,1.7-2.1,2.7
	c-0.3-0.2-0.6-0.3-0.9-0.5C-931.8,532.9-930.1,531.2-927.8,530z"/>
<path class="st1" d="M-920.6,552.8c0.4,0,0.8,0,1.1,0c0,0.4,0,0.7,0,1.1c-0.5,0-1,0-1.6,0c0,0.2,0,0.4,0,0.6c0.5,0,1,0,1.6,0
	c0,0.4,0,0.7,0,1.1c-0.5,0-1,0-1.6,0c0,0.4,0,0.7,0,1.1c-0.4,0-0.7,0-1.1,0c0-0.3,0-0.7,0-1.1c-0.6,0-1.1,0-1.6,0c0-0.4,0-0.7,0-1.1
	c0.5,0,1,0,1.6,0c0-0.2,0-0.4,0-0.6c-0.5,0-1,0-1.6,0c0-0.4,0-0.7,0-1.1c0.4,0,0.7,0,1.1,0c-0.6-0.8-1.1-1.6-1.6-2.4
	c0.3-0.2,0.6-0.4,0.9-0.6c0.6,0.9,1.1,1.7,1.7,2.6c0.6-0.9,1.2-1.7,1.7-2.6c0.3,0.2,0.6,0.4,0.9,0.6
	C-919.5,551.2-920.1,552-920.6,552.8z"/>
<path class="st1" d="M-920.5,528.9c-0.1-0.4-0.4-0.6-0.8-0.5c-0.2,0-0.5,0-0.7,0c-0.4,0-0.6,0.2-0.6,0.5c0,0.3,0.2,0.6,0.6,0.6
	c0.3,0,0.6,0,0.9,0c0.9,0,1.6,0.6,1.7,1.5c0.1,0.8-0.5,1.6-1.4,1.7c-0.1,0-0.1,0-0.2,0c0,0.3,0,0.7,0,1.1c-0.4,0-0.7,0-1.1,0
	c0-0.3,0-0.7,0-1c-0.5-0.1-1-0.2-1.3-0.7c-0.2-0.3-0.3-0.6-0.4-0.9c0.4,0,0.8,0,1.1,0c0.1,0.5,0.4,0.6,0.8,0.5c0.3,0,0.5,0,0.8,0
	c0.3,0,0.6-0.2,0.6-0.5c0-0.3-0.2-0.5-0.6-0.6c-0.3,0-0.7,0-1,0c-0.9,0-1.6-0.6-1.7-1.5c-0.1-0.9,0.5-1.6,1.4-1.7c0.1,0,0.1,0,0.2,0
	c0-0.3,0-0.7,0-1c0.4,0,0.7,0,1.1,0c0,0.3,0,0.7,0,1c0.5,0.1,1,0.2,1.3,0.7c0.2,0.3,0.3,0.6,0.4,1
	C-919.8,528.9-920.1,528.9-920.5,528.9z"/>
<path class="st1" d="M-931.4,538.2c0,0.4,0,0.7,0,1c-0.7,0-1.3,0-1.9,0.5c0.3,0,0.5,0,0.8,0c0,0.4,0,0.7,0,1.1c-0.4,0-0.8,0-1.3,0
	c-0.2,0-0.3,0.1-0.3,0.3c0,0.3,0,0.5,0,0.8c0.6,0,1.1,0,1.6,0c0,0.4,0,0.7,0,1.1c-0.2,0-0.5,0-0.8,0c0.6,0.6,1.3,0.6,1.9,0.6
	c0,0.4,0,0.7,0,1.1c-1.3,0.1-2.3-0.3-3.1-1.3c-0.2-0.3-0.4-0.4-0.7-0.3c-0.2,0-0.3,0-0.5,0c0-0.4,0-0.7,0-1.1c0.2,0,0.4,0,0.5,0
	c0-0.4,0-0.7,0-1.1c-0.2,0-0.4,0-0.5,0c0-0.4,0-0.7,0-1c0,0,0.1,0,0.1,0c0.6,0.1,1-0.1,1.4-0.6
	C-933.6,538.3-932.5,538.1-931.4,538.2z"/>
<path class="st1" d="M-908.6,538.2c0,0.4,0,0.7,0,1c-0.7,0.1-1.2,0.4-1.5,1.1c0.5,0,1,0,1.5,0c0,0.4,0,0.7,0,1.1c-0.5,0-1,0-1.5,0
	c-0.1,0.6-0.2,1.1-0.3,1.6c0.6,0,1.2,0,1.8,0c0,0.4,0,0.7,0,1.1c-1.2,0-2.5,0-3.7,0c0-0.3,0-0.7,0-1c0.9-0.2,1.1-0.6,1-1.7
	c-0.3,0-0.7,0-1,0c0-0.4,0-0.7,0-1.1c0.3,0,0.5,0,0.8,0c0.2,0,0.3-0.1,0.4-0.3C-910.8,538.9-909.8,538.2-908.6,538.2z"/>
<path class="st2" d="M-921.5,540.9c0-0.3,0-0.5,0-0.8c0-0.2,0.1-0.3,0.3-0.3c0.2,0,0.3,0.1,0.3,0.3c0,0.5,0,1,0,1.5
	c0,0.1,0,0.2,0.1,0.3c0.3,0.2,0.3,0.5,0.1,0.8c-0.2,0.2-0.5,0.3-0.8,0.1c-0.1,0-0.2-0.1-0.3-0.1c-0.4,0-0.9,0-1.3,0
	c-0.1,0-0.2-0.1-0.3-0.2c-0.1-0.2,0-0.4,0.3-0.4c0.4,0,0.8,0,1.2,0c0.2,0,0.4-0.2,0.4-0.4C-921.5,541.5-921.5,541.2-921.5,540.9
	C-921.5,540.9-921.5,540.9-921.5,540.9z"/>
</svg>
