<?xml version="1.0" encoding="utf-8"?>
<!-- Generator: Adobe Illustrator 19.0.0, SVG Export Plug-In . SVG Version: 6.00 Build 0)  -->
<svg version="1.1" id="icons" xmlns="http://www.w3.org/2000/svg" xmlns:xlink="http://www.w3.org/1999/xlink" x="0px" y="0px"
	 viewBox="-940 524.5 37.2 33.5" style="enable-background:new -940 524.5 37.2 33.5;" xml:space="preserve">
<style type="text/css">
	.st0{fill:#0E67B1;}
</style>
<g>
	<path class="st0" d="M-903.4,546.3c0-2.8,0-15.4,0-16.4c0-0.9-0.5-1.6-1.3-1.9c-0.1,0-0.2-0.1-0.3-0.1c-11.1,0-21.9,0-33,0
		c0,0-0.3,0.1-0.4,0.1c-1,0.3-1.5,1-1.5,2c0,1,0,15.2,0,16.6c0,1.4,0,2.4,0,3.9c0,1.5,0.8,2.2,2.3,2.2c3.4,0,6.8,0,10.3,0
		c0.2,0,0.3,0,0.5,0c0,1.3,0,2.6,0,3.9c-0.6,0-1.2,0-1.9,0c-0.5,0-0.7,0.2-0.7,0.6c0,0.4,0.3,0.6,0.7,0.6c4.7,0,9.4,0,14.1,0
		c0.5,0,0.7-0.2,0.7-0.6c0-0.4-0.3-0.6-0.8-0.6c-0.6,0-1.2,0-1.9,0c0-1.2,0-2.3,0-3.5c0-0.5,0-0.5,0.5-0.5c3.5,0,7,0,10.5,0
		c1.3,0,2.1-0.8,2.1-2.1c0-1.1,0-1.5,0-2.6C-903.4,547.5-903.4,546.9-903.4,546.3z M-938.7,530.1c0-0.7,0.2-0.9,0.9-0.9
		c10.8,0,21.6,0,32.3,0c0.6,0,0.8,0.2,0.8,0.8c0,0.9,0,12.4,0,15.8c0,0.2,0,0.5,0,0.7c0,0.1,0,0.2,0,0.2c0,0,0,0,0,0
		c0,0.2-0.2,0.2-0.5,0.2c-8.9,0-17.7,0-26.6,0c-2.2,0-4.4,0-6.6,0c-0.3,0-0.4-0.1-0.4-0.3c0,0,0-0.1,0-0.1c0,0,0-0.1,0-0.1
		c0-0.2,0-0.5,0-0.7C-938.7,542.5-938.7,530.9-938.7,530.1z M-917.8,556.7c-2.6,0-5.2,0-7.8,0c0-1.3,0-2.6,0-3.9c2.6,0,5.2,0,7.8,0
		C-917.8,554.1-917.8,555.4-917.8,556.7z M-904.7,550.9c0,0.3-0.2,0.5-0.6,0.6c-0.1,0-0.2,0-0.3,0c-10.6,0-21.3,0-31.9,0
		c-0.2,0-0.4,0-0.6,0c-0.3,0-0.6-0.2-0.6-0.6c0-1.1,0-1.5,0-2.6c11.4,0,22.7,0,34,0C-904.7,549.5-904.7,549.8-904.7,550.9z"/>
	<path class="st0" d="M-921.8,549.2c-0.3,0-0.6,0.3-0.6,0.6c0,0.4,0.3,0.6,0.6,0.6c0.3,0,0.6-0.3,0.6-0.6
		C-921.1,549.4-921.4,549.1-921.8,549.2z"/>
</g>
<path class="st0" d="M-930,540h-5.1c-0.3,0-0.5-0.2-0.5-0.5v-0.1c0-0.3,0.2-0.5,0.5-0.5h5.1c0.3,0,0.5,0.2,0.5,0.5v0.1
	C-929.6,539.8-929.8,540-930,540z"/>
<path class="st0" d="M-930,543.5h-5.1c-0.3,0-0.5-0.2-0.5-0.5v-0.1c0-0.3,0.2-0.5,0.5-0.5h5.1c0.3,0,0.5,0.2,0.5,0.5v0.1
	C-929.6,543.3-929.8,543.5-930,543.5z"/>
<path class="st0" d="M-929.1,541.8h-7c-0.3,0-0.5-0.2-0.5-0.5v-0.1c0-0.3,0.2-0.5,0.5-0.5h7c0.3,0,0.5,0.2,0.5,0.5v0.1
	C-928.6,541.5-928.8,541.8-929.1,541.8z"/>
<path class="st0" d="M-907.3,540h-7c-0.3,0-0.5-0.2-0.5-0.5v-0.1c0-0.3,0.2-0.5,0.5-0.5h7c0.3,0,0.5,0.2,0.5,0.5v0.1
	C-906.8,539.8-907.1,540-907.3,540z"/>
<path class="st0" d="M-908.3,543.5h-5.1c-0.3,0-0.5-0.2-0.5-0.5v-0.1c0-0.3,0.2-0.5,0.5-0.5h5.1c0.3,0,0.5,0.2,0.5,0.5v0.1
	C-907.8,543.3-908,543.5-908.3,543.5z"/>
<path class="st0" d="M-909.3,541.8h-3.2c-0.3,0-0.5-0.2-0.5-0.5v-0.1c0-0.3,0.2-0.5,0.5-0.5h3.2c0.3,0,0.5,0.2,0.5,0.5v0.1
	C-908.8,541.5-909,541.8-909.3,541.8z"/>
<path class="st0" d="M-918.7,540h-5.1c-0.3,0-0.5-0.2-0.5-0.5v-0.1c0-0.3,0.2-0.5,0.5-0.5h5.1c0.3,0,0.5,0.2,0.5,0.5v0.1
	C-918.2,539.8-918.4,540-918.7,540z"/>
<path class="st0" d="M-917.7,543.5h-7c-0.3,0-0.5-0.2-0.5-0.5v-0.1c0-0.3,0.2-0.5,0.5-0.5h7c0.3,0,0.5,0.2,0.5,0.5v0.1
	C-917.3,543.3-917.5,543.5-917.7,543.5z"/>
<path class="st0" d="M-919.7,541.8h-3.2c-0.3,0-0.5-0.2-0.5-0.5v-0.1c0-0.3,0.2-0.5,0.5-0.5h3.2c0.3,0,0.5,0.2,0.5,0.5v0.1
	C-919.2,541.5-919.4,541.8-919.7,541.8z"/>
<path class="st0" d="M-934.5,535.5l0.9,0.7l-0.3,1.1c-0.1,0.2,0.2,0.4,0.4,0.3l1-0.6l1,0.6c0.2,0.1,0.4-0.1,0.4-0.3l-0.3-1.1
	l0.9-0.7c0.2-0.1,0.1-0.4-0.1-0.4l-1.1-0.1l-0.4-1c-0.1-0.2-0.4-0.2-0.4,0l-0.4,1l-1.1,0.1C-934.6,535.1-934.7,535.3-934.5,535.5z"
	/>
<path class="st0" d="M-923.2,535.5l0.9,0.7l-0.3,1.1c-0.1,0.2,0.2,0.4,0.4,0.3l1-0.6l1,0.6c0.2,0.1,0.4-0.1,0.4-0.3l-0.3-1.1
	l0.9-0.7c0.2-0.1,0.1-0.4-0.1-0.4l-1.1-0.1l-0.4-1c-0.1-0.2-0.4-0.2-0.4,0l-0.4,1l-1.1,0.1C-923.3,535.1-923.3,535.3-923.2,535.5z"
	/>
<path class="st0" d="M-912.8,535.5l0.9,0.7l-0.3,1.1c-0.1,0.2,0.2,0.4,0.4,0.3l1-0.6l1,0.6c0.2,0.1,0.4-0.1,0.4-0.3l-0.3-1.1
	l0.9-0.7c0.2-0.1,0.1-0.4-0.1-0.4l-1.1-0.1l-0.4-1c-0.1-0.2-0.4-0.2-0.4,0l-0.4,1l-1.1,0.1C-912.8,535.1-912.9,535.3-912.8,535.5z"
	/>
</svg>
