<?xml version="1.0" encoding="utf-8"?>
<!-- Generator: Adobe Illustrator 19.0.0, SVG Export Plug-In . SVG Version: 6.00 Build 0)  -->
<svg version="1.1" id="icons" xmlns="http://www.w3.org/2000/svg" xmlns:xlink="http://www.w3.org/1999/xlink" x="0px" y="0px"
	 viewBox="-940 524.5 37.2 33.5" style="enable-background:new -940 524.5 37.2 33.5;" xml:space="preserve">
<style type="text/css">
	.st0{fill:#0E67B1;stroke:#0E67B1;stroke-width:0.1801;stroke-miterlimit:10;}
	.st1{font-family:'OpenSans-Bold';}
	.st2{font-size:5.7128px;}
	.st3{fill:none;}
	.st4{fill:#0E67B1;}
</style>
<g>
	<g>
		<text transform="matrix(0.846 0 0 1 -926.7267 546.668)" class="st0 st1 st2">24/7</text>
	</g>
	<g>
		<path class="st3" d="M-921.7,534.5c-5.5,0-10,4.5-10,10c0,5.5,4.5,10,10,10s10-4.5,10-10C-911.7,539-916.2,534.5-921.7,534.5z
			 M-925.7,536.8c0.3,0,0.5,0.2,0.5,0.5c0,0.3-0.2,0.5-0.5,0.5c-0.3,0-0.5-0.2-0.5-0.6C-926.3,537-926,536.8-925.7,536.8z
			 M-925.8,552.3c-0.3,0-0.5-0.2-0.5-0.5c0-0.3,0.2-0.5,0.5-0.5c0.3,0,0.5,0.2,0.5,0.5C-925.2,552.1-925.4,552.3-925.8,552.3z
			 M-921.6,553.4c-0.3,0-0.5-0.2-0.5-0.5c0-0.3,0.2-0.5,0.5-0.5c0.3,0,0.5,0.2,0.5,0.5C-921,553.2-921.3,553.4-921.6,553.4z
			 M-921.6,536.7c-0.3,0-0.5-0.2-0.5-0.6c0-0.3,0.2-0.5,0.5-0.5c0.3,0,0.5,0.2,0.5,0.6C-921.1,536.5-921.3,536.7-921.6,536.7z
			 M-917.4,536.8c0.3,0,0.5,0.2,0.5,0.5c0,0.3-0.2,0.5-0.5,0.5c-0.3,0-0.5-0.3-0.5-0.6C-917.9,537-917.7,536.8-917.4,536.8z
			 M-917.4,552.3c-0.3,0-0.5-0.2-0.5-0.5c0-0.3,0.2-0.5,0.5-0.5c0.3,0,0.5,0.2,0.5,0.5C-916.9,552.1-917.1,552.3-917.4,552.3z
			 M-913.2,544c0.3,0,0.5,0.2,0.5,0.5c0,0.3-0.2,0.5-0.5,0.5c-0.3,0-0.6-0.2-0.6-0.5C-913.7,544.3-913.5,544-913.2,544z
			 M-914.3,549.3c-0.3,0-0.5-0.3-0.5-0.5c0-0.3,0.2-0.5,0.5-0.5c0.3,0,0.5,0.2,0.5,0.5C-913.8,549-914,549.3-914.3,549.3z
			 M-913.8,540.4c0,0.3-0.2,0.5-0.5,0.5c-0.3,0-0.5-0.2-0.5-0.5c0-0.3,0.2-0.5,0.5-0.5C-914,539.9-913.8,540.1-913.8,540.4z"/>
		<path class="st3" d="M-922.7,530.9c0-0.1,0-0.2,0-0.3c0-0.5,0-1,0-1.6c0-0.4,0.2-0.6,0.6-0.6c0.3,0,0.5,0,0.8,0
			c0.7,0,0.8,0.1,0.8,0.8c0,0.6,0,1.1,0,1.7c1-0.2,1.8-1.6,1.7-2.7c-0.2-1.6-1.3-2.6-2.8-2.6c-1.5,0-2.6,1.1-2.8,2.6
			C-924.5,529.3-923.6,530.7-922.7,530.9z"/>
		<path class="st3" d="M-921.7,532.2c-6.8,0-12.4,5.5-12.4,12.4c0,6.8,5.5,12.4,12.4,12.4c6.8,0,12.4-5.5,12.4-12.4
			C-909.3,537.7-914.9,532.2-921.7,532.2z M-921.7,555.7c-6.1,0-11.1-5-11.1-11.1c0-6.1,5-11.1,11.1-11.1s11.1,5,11.1,11.1
			C-910.6,550.7-915.6,555.7-921.7,555.7z"/>
		<path class="st4" d="M-911.4,535.8c0.3-0.3,0.7-0.7,1.1-1.1c0.2,0.2,0.4,0.5,0.6,0.7c0.2,0.2,0.6,0.3,0.8,0
			c0.2-0.2,0.4-0.3,0.5-0.5c0.2-0.2,0.2-0.5,0-0.8c-0.7-0.7-1.5-1.5-2.2-2.2c-0.3-0.2-0.5-0.2-0.8,0c-0.1,0.1-0.3,0.3-0.4,0.4
			c-0.4,0.4-0.4,0.6,0,1c0.2,0.2,0.4,0.4,0.7,0.6c-0.3,0.2-0.5,0.4-0.6,0.5c-0.2,0.2-0.3,0.3-0.5,0.5c-1.8-1.8-4.2-3.1-6.9-3.7
			c0.1-0.1,0.1-0.1,0.2-0.2c1.1-1.1,1.5-2.4,1.1-3.9c-0.4-1.5-1.4-2.3-2.9-2.7c-0.2,0-0.3-0.1-0.5-0.1c-0.2,0-0.4,0-0.7,0
			c-0.1,0-0.1,0.1-0.2,0.1c-1.6,0.3-2.7,1.1-3.1,2.6c-0.5,1.5-0.1,2.8,1,4c0.1,0.1,0.1,0.1,0.2,0.2c-6.3,1.1-11.1,6.6-11.1,13.2
			c0,7.4,6,13.4,13.4,13.4c7.4,0,13.4-6,13.4-13.4c0-3.1-1-5.9-2.8-8.2L-911.4,535.8z M-924.4,528.2c0.1-1.5,1.3-2.6,2.8-2.6
			c1.5,0,2.6,1.1,2.8,2.6c0.1,1.1-0.7,2.5-1.7,2.7c0-0.6,0-1.1,0-1.7c0-0.7-0.2-0.8-0.8-0.8c-0.3,0-0.5,0-0.8,0
			c-0.4,0-0.6,0.2-0.6,0.6c0,0.5,0,1,0,1.6c0,0.1,0,0.2,0,0.3C-923.6,530.7-924.5,529.3-924.4,528.2z M-921.7,556.9
			c-6.8,0-12.4-5.5-12.4-12.4c0-6.8,5.5-12.4,12.4-12.4c6.8,0,12.4,5.5,12.4,12.4C-909.3,551.4-914.9,556.9-921.7,556.9z"/>
		<path class="st4" d="M-913.2,545.1c0.3,0,0.5-0.2,0.5-0.5c0-0.3-0.2-0.5-0.5-0.5c-0.3,0-0.5,0.2-0.5,0.5
			C-913.7,544.9-913.5,545.1-913.2,545.1z"/>
		<path class="st4" d="M-925.7,537.9c0.3,0,0.5-0.2,0.5-0.5c0-0.3-0.2-0.5-0.5-0.5c-0.3,0-0.5,0.2-0.5,0.5
			C-926.3,537.6-926,537.9-925.7,537.9z"/>
		<path class="st4" d="M-914.9,540.4c0,0.3,0.2,0.5,0.5,0.5c0.3,0,0.5-0.2,0.5-0.5c0-0.3-0.2-0.5-0.5-0.5
			C-914.6,539.9-914.9,540.1-914.9,540.4z"/>
		<path class="st4" d="M-914.3,548.2c-0.3,0-0.5,0.2-0.5,0.5c0,0.3,0.2,0.5,0.5,0.5c0.3,0,0.5-0.2,0.5-0.5
			C-913.8,548.5-914,548.2-914.3,548.2z"/>
		<path class="st4" d="M-917.4,537.9c0.3,0,0.5-0.2,0.5-0.5c0-0.3-0.2-0.5-0.5-0.5c-0.3,0-0.5,0.2-0.5,0.5
			C-917.9,537.6-917.7,537.9-917.4,537.9z"/>
		<path class="st4" d="M-921.6,552.4c-0.3,0-0.5,0.2-0.5,0.5c0,0.3,0.2,0.5,0.5,0.5c0.3,0,0.5-0.2,0.5-0.5
			C-921,552.6-921.3,552.4-921.6,552.4z"/>
		<path class="st4" d="M-921.5,535.7c-0.3,0-0.5,0.2-0.5,0.5c0,0.3,0.2,0.5,0.5,0.6c0.3,0,0.5-0.2,0.5-0.5
			C-921,535.9-921.2,535.7-921.5,535.7z"/>
		<path class="st4" d="M-917.4,551.3c-0.3,0-0.5,0.2-0.5,0.5c0,0.3,0.2,0.5,0.5,0.5c0.3,0,0.5-0.2,0.5-0.5
			C-916.9,551.5-917.1,551.3-917.4,551.3z"/>
		<path class="st4" d="M-929.9,545.1c-0.3,0-0.5-0.2-0.5-0.5c0-0.3,0.2-0.5,0.5-0.5c0.3,0,0.5,0.2,0.5,0.5
			C-929.4,544.9-929.6,545.1-929.9,545.1z"/>
		<path class="st4" d="M-928.3,540.4c0,0.3-0.2,0.5-0.5,0.5c-0.3,0-0.5-0.2-0.5-0.5c0-0.3,0.2-0.5,0.5-0.5
			C-928.5,539.9-928.3,540.1-928.3,540.4z"/>
		<path class="st4" d="M-928.8,548.2c0.3,0,0.5,0.2,0.5,0.5c0,0.3-0.2,0.5-0.5,0.5c-0.3,0-0.5-0.2-0.5-0.5
			C-929.3,548.5-929.1,548.2-928.8,548.2z"/>
		<path class="st4" d="M-925.7,551.3c0.3,0,0.5,0.2,0.5,0.5c0,0.3-0.2,0.5-0.5,0.5c-0.3,0-0.5-0.2-0.5-0.5
			C-926.3,551.5-926,551.3-925.7,551.3z"/>
		<path class="st4" d="M-921.7,533.4c-6.1,0-11.1,5-11.1,11.1c0,6.1,5,11.1,11.1,11.1s11.1-5,11.1-11.1
			C-910.6,538.4-915.6,533.4-921.7,533.4z M-921.7,554.6c-5.5,0-10-4.5-10-10c0-5.5,4.5-10,10-10s10,4.5,10,10
			C-911.7,550.1-916.2,554.6-921.7,554.6z"/>
	</g>
</g>
</svg>
