<?xml version="1.0" encoding="utf-8"?>
<!-- Generator: Adobe Illustrator 19.0.0, SVG Export Plug-In . SVG Version: 6.00 Build 0)  -->
<svg version="1.1" id="icons" xmlns="http://www.w3.org/2000/svg" xmlns:xlink="http://www.w3.org/1999/xlink" x="0px" y="0px"
	 viewBox="-940 524.5 37.2 33.5" style="enable-background:new -940 524.5 37.2 33.5;" xml:space="preserve">
<style type="text/css">
	.st0{fill:#0E67B1;}
	.st1{fill:#0E67B1;stroke:#0E67B1;stroke-width:0.1843;stroke-miterlimit:10;}
</style>
<g>
	<g>
		<path class="st0" d="M-927.9,547.5C-927.9,547.5-927.9,547.5-927.9,547.5c-0.4-0.1-0.6-0.4-0.6-0.7c0-1,0-2,0-3
			c0-0.4,0.4-0.7,0.8-0.7c1.3,0,2.5,0,3.8,0c2.9,0,5.9,0,8.8,0c0.3,0,0.5,0,0.7,0.3c0.1,0.1,0.1,0.2,0.2,0.3c0,1,0,2.1,0,3.1
			c-0.1,0.2-0.2,0.4-0.4,0.5c-0.1,0-0.2,0.1-0.3,0.1C-919.2,547.5-923.5,547.5-927.9,547.5z M-921.4,543.6c-2.1,0-4.2,0-6.3,0
			c-0.3,0-0.4,0.1-0.4,0.4c0,0.4,0,0.9,0,1.3c0,0.5,0,0.9,0,1.4c0,0.3,0.1,0.4,0.4,0.4c0.1,0,0.1,0,0.2,0c1.5,0,3.1,0,4.6,0
			c2.6,0,5.2,0,7.8,0c0.3,0,0.3-0.1,0.3-0.3c0-0.9,0-1.8,0-2.7c0-0.4,0-0.4-0.4-0.4C-917.2,543.6-919.3,543.6-921.4,543.6z"/>
		<path class="st0" d="M-922.6,544.8c0.2-0.1,0.3-0.2,0.4-0.3c0.1-0.1,0.3-0.1,0.4,0c0.1,0.1,0.1,0.3-0.1,0.4
			c-0.2,0.1-0.4,0.3-0.6,0.4c0.2,0.1,0.4,0.3,0.5,0.4c0,0,0.1,0.1,0.1,0.1c0,0.1,0,0.2-0.1,0.3c-0.1,0.1-0.2,0.1-0.3,0
			c-0.2-0.1-0.3-0.2-0.5-0.3c0,0.2,0,0.3,0,0.5c0,0.1,0,0.2-0.2,0.3c-0.2,0.1-0.3,0-0.3-0.2c0-0.2,0-0.3,0-0.5
			c-0.2,0.1-0.3,0.2-0.4,0.3c-0.1,0-0.2,0.1-0.2,0.1c-0.1,0-0.2-0.1-0.2-0.2c0-0.1,0-0.2,0.1-0.3c0.1-0.1,0.3-0.2,0.5-0.3
			c0,0,0.1-0.1,0.1-0.1c-0.2-0.1-0.4-0.3-0.5-0.4c0,0-0.1-0.1-0.1-0.1c0-0.1,0-0.2,0.1-0.3c0.1-0.1,0.2-0.1,0.3,0
			c0.2,0.1,0.3,0.2,0.5,0.3c0-0.2,0-0.3,0-0.5c0-0.2,0.1-0.2,0.2-0.3c0.2,0,0.3,0.1,0.3,0.3C-922.6,544.5-922.6,544.7-922.6,544.8z"
			/>
		<path class="st0" d="M-920.2,544.8c0-0.2,0-0.3,0-0.5c0-0.2,0.1-0.3,0.2-0.3c0.1,0,0.2,0.1,0.2,0.3c0,0.1,0,0.3,0,0.5
			c0.2-0.1,0.3-0.2,0.5-0.3c0.1-0.1,0.2-0.1,0.3,0c0.1,0.1,0.1,0.2,0.1,0.2c0,0-0.1,0.1-0.1,0.1c-0.2,0.1-0.4,0.3-0.6,0.4
			c0.1,0.1,0.3,0.2,0.4,0.3c0.1,0,0.1,0.1,0.2,0.1c0.1,0.1,0.1,0.2,0.1,0.3c-0.1,0.1-0.2,0.1-0.3,0.1c-0.2-0.1-0.3-0.2-0.5-0.3
			c0,0.1,0,0.2,0,0.3c0,0.1,0,0.1,0,0.2c0,0.1-0.1,0.2-0.2,0.2c-0.1,0-0.2-0.1-0.2-0.2c0-0.1,0-0.2,0-0.3c0,0,0-0.1,0-0.2
			c-0.2,0.1-0.3,0.2-0.5,0.3c-0.1,0.1-0.2,0.1-0.3,0c-0.1-0.1-0.1-0.2-0.1-0.3c0-0.1,0.1-0.1,0.1-0.1c0.2-0.1,0.4-0.3,0.6-0.4
			c-0.2-0.1-0.3-0.2-0.4-0.3c0,0-0.1-0.1-0.1-0.1c-0.1-0.1-0.1-0.2-0.1-0.3c0.1-0.1,0.2-0.1,0.3-0.1c0.1,0.1,0.2,0.2,0.3,0.2
			C-920.3,544.8-920.2,544.8-920.2,544.8z"/>
		<path class="st0" d="M-916.3,545.3c0.2,0.1,0.4,0.3,0.6,0.4c0.1,0.1,0.1,0.2,0.1,0.3c0,0.1-0.1,0.1-0.2,0.2c-0.1,0-0.1,0-0.2-0.1
			c-0.1-0.1-0.3-0.2-0.5-0.3c0,0.2,0,0.4,0,0.5c0,0.1-0.1,0.2-0.2,0.2c-0.2,0-0.3-0.1-0.3-0.2c0-0.2,0-0.3,0-0.5
			c-0.2,0.1-0.3,0.2-0.5,0.3c-0.2,0.1-0.3,0.1-0.4-0.1c0-0.1,0-0.2,0.1-0.3c0.1-0.1,0.3-0.2,0.4-0.3c0,0,0.1-0.1,0.1-0.1
			c-0.2-0.1-0.4-0.3-0.6-0.4c-0.1-0.1-0.1-0.2-0.1-0.2c0-0.2,0.2-0.3,0.4-0.2c0.2,0.1,0.3,0.2,0.5,0.3c0-0.2,0-0.3,0-0.5
			c0-0.1,0.1-0.2,0.2-0.3c0.1,0,0.3,0.1,0.3,0.2c0,0.2,0,0.3,0,0.5c0.1-0.1,0.1-0.1,0.2-0.1c0.1-0.1,0.2-0.1,0.3-0.2
			c0.1-0.1,0.3-0.1,0.3,0c0.1,0.1,0.1,0.2-0.1,0.3c-0.1,0.1-0.3,0.2-0.4,0.3C-916.2,545.2-916.3,545.3-916.3,545.3z"/>
		<path class="st0" d="M-925.6,545.3c0.2,0.1,0.4,0.3,0.6,0.4c0.1,0.1,0.1,0.2,0.1,0.3c0,0.1-0.1,0.1-0.2,0.2c-0.1,0-0.1,0-0.2-0.1
			c-0.1-0.1-0.3-0.2-0.5-0.3c0,0.2,0,0.3,0,0.5c0,0.2-0.1,0.2-0.2,0.3c-0.1,0-0.2-0.1-0.2-0.2c0-0.2,0-0.3,0-0.5
			c-0.1,0.1-0.2,0.1-0.2,0.2c-0.1,0.1-0.2,0.1-0.3,0.2c-0.1,0.1-0.3,0.1-0.3,0c-0.1-0.1-0.1-0.2,0.1-0.3c0.2-0.1,0.3-0.2,0.5-0.3
			c0,0,0.1-0.1,0.1-0.1c-0.2-0.1-0.4-0.3-0.5-0.4c-0.1,0-0.1-0.1-0.1-0.2c0-0.1,0-0.2,0.1-0.2c0.1-0.1,0.2-0.1,0.3,0
			c0.2,0.1,0.3,0.2,0.5,0.3c0-0.2,0-0.3,0-0.4c0-0.1,0-0.1,0-0.2c0-0.1,0.1-0.2,0.2-0.2c0.1,0,0.2,0.1,0.2,0.2c0,0.2,0,0.3,0,0.5
			c0.1-0.1,0.2-0.1,0.2-0.2c0.1-0.1,0.2-0.1,0.2-0.2c0.1-0.1,0.2,0,0.3,0.1c0.1,0.1,0.1,0.2,0,0.3c-0.1,0.1-0.3,0.2-0.5,0.3
			C-925.6,545.2-925.6,545.3-925.6,545.3z"/>
	</g>
</g>
<g>
	<g>
		<path class="st0" d="M-911.1,526.1c0,10.9,0,19.5,0,30.4c-0.2,0.3-0.3,0.7-0.5,0.9c-0.3,0.3-0.7,0.4-1,0.6c-5.7,0-11.5,0-17.2,0
			c0,0-0.1-0.1-0.1-0.1c-1-0.3-1.4-0.9-1.4-1.9c0-10.6,0-18.9,0-29.5c0-1.3,0.7-2,2-2c3.7,0,7.4,0,11.1,0c1.7,0,3.5,0,5.2,0
			c0.8,0,1.5,0.5,1.7,1.2C-911.2,525.8-911.2,525.9-911.1,526.1z M-930.2,530.4c0,0.2,0,0.3,0,0.4c0,6.9,0,11.5,0,18.5
			c0,0.3,0.1,0.4,0.4,0.4c5.7,0,11.4,0,17.1,0c0.3,0,0.4-0.1,0.4-0.4c0-6.9,0-11.5,0-18.4c0-0.5,0-0.5-0.4-0.5c-5.7,0-11.4,0-17,0
			C-929.9,530.4-930,530.4-930.2,530.4z M-912.3,550.8c-6,0-11.9,0-17.9,0c0,0.1,0,0.2,0,0.2c0,1.7,0,3.4,0,5.1
			c0,0.4,0.2,0.7,0.7,0.7c5.5,0,11,0,16.5,0c0.5,0,0.7-0.2,0.7-0.7c0-1.7,0-3.3,0-5C-912.3,551-912.3,550.9-912.3,550.8z
			 M-912.3,529.3c0-1.1,0-2.1,0-3.1c0-0.3-0.3-0.6-0.7-0.6c-5.5,0-11,0-16.5,0c-0.5,0-0.7,0.2-0.7,0.7c0,0.9,0,1.7,0,2.6
			c0,0.1,0,0.2,0,0.2C-924.2,529.3-918.3,529.3-912.3,529.3z"/>
		<path class="st0" d="M-923,553.8c0-1,0.8-1.8,1.7-1.8c1,0,1.8,0.8,1.8,1.7c0,1-0.8,1.8-1.8,1.8C-922.2,555.6-923,554.8-923,553.8z
			 M-921.3,553.2c-0.3,0-0.6,0.3-0.6,0.6c0,0.3,0.3,0.6,0.6,0.6c0.3,0,0.6-0.3,0.6-0.6C-920.6,553.5-920.9,553.2-921.3,553.2z"/>
		<path class="st0" d="M-921.3,528.1c-0.4,0-0.7,0-1.1,0c-0.4,0-0.6-0.2-0.6-0.6c0-0.3,0.2-0.6,0.6-0.6c0.8,0,1.5,0,2.3,0
			c0.4,0,0.6,0.2,0.6,0.6c0,0.3-0.2,0.6-0.6,0.6C-920.5,528.1-920.9,528.1-921.3,528.1L-921.3,528.1z"/>
	</g>
</g>
<g>
	<path class="st1" d="M-921.6,542c-1,0-1.9,0-2.9,0c-0.7,0-1.3-0.5-1.4-1.2c-0.1-0.8,0.1-1.5,0.6-2.1c0.4-0.5,1-0.9,1.7-1.1
		c0.7-0.2,1.4-0.3,2.1-0.3c0.6,0,1.3,0.1,1.9,0.2c0.6,0.2,1.2,0.5,1.7,1c0.4,0.5,0.7,1.1,0.7,1.8c0,0.2,0,0.4,0,0.6
		c-0.1,0.6-0.7,1.1-1.3,1.1C-919.6,542-920.6,542-921.6,542z M-921.6,541.4c0,0,0.1,0,0.1,0c0.9,0,1.9,0,2.8,0
		c0.4,0,0.8-0.3,0.8-0.7c0-0.3,0-0.5,0-0.8c-0.1-0.6-0.5-1-1-1.4c-0.5-0.4-1.2-0.5-1.8-0.6c-0.6-0.1-1.1-0.1-1.7,0
		c-0.6,0.1-1.2,0.2-1.7,0.5c-0.5,0.2-0.9,0.6-1.1,1.1c-0.2,0.3-0.2,0.7-0.2,1.1c0,0.5,0.4,0.9,0.9,0.9
		C-923.5,541.4-922.5,541.4-921.6,541.4z"/>
	<path class="st1" d="M-923.7,534.8c0-1.2,1-2.2,2.2-2.2c1.2,0,2.2,1,2.2,2.2c0,1.2-1,2.2-2.2,2.2C-922.8,537-923.7,536-923.7,534.8
		z M-921.6,536.5c0.9,0,1.7-0.7,1.7-1.7c0-0.9-0.7-1.7-1.7-1.7c-0.9,0-1.7,0.7-1.7,1.7C-923.2,535.8-922.5,536.5-921.6,536.5z"/>
</g>
</svg>
