<?xml version="1.0" encoding="utf-8"?>
<!-- Generator: Adobe Illustrator 19.0.0, SVG Export Plug-In . SVG Version: 6.00 Build 0)  -->
<svg version="1.1" id="icons" xmlns="http://www.w3.org/2000/svg" xmlns:xlink="http://www.w3.org/1999/xlink" x="0px" y="0px"
	 viewBox="-940 524.5 37.2 33.5" style="enable-background:new -940 524.5 37.2 33.5;" xml:space="preserve">
<style type="text/css">
	.st0{fill:#0E67B1;}
</style>
<g>
	<path class="st0" d="M-922.7,524.5c0.8,0,1.6,0,2.4,0c0.1,0,0.2,0.1,0.3,0.1c0.5,0.1,1.1,0.1,1.6,0.2c4.3,0.9,7.8,3.1,10.4,6.7
		c1.6,2.2,2.6,4.7,3,7.4c0.1,0.5,0.1,1,0.2,1.5c0,0.6,0,1.2,0,1.8c0,0.4-0.1,0.8-0.2,1.3c-0.6,4.2-2.5,7.8-5.8,10.6
		c-2.4,2.1-5.2,3.3-8.3,3.8c-0.5,0.1-0.9,0.1-1.4,0.2c-0.7,0-1.5,0-2.2,0c-0.5-0.1-1.1-0.1-1.6-0.2c-4.4-0.8-8.1-3-10.8-6.6
		c-1.7-2.3-2.7-4.8-3.1-7.6c-0.1-0.5-0.1-1-0.2-1.5c0-0.6,0-1.2,0-1.8c0-0.4,0.1-0.8,0.2-1.3c0.5-3.4,1.8-6.3,4-8.9
		c2.7-3,6-4.9,10-5.5C-923.6,524.6-923.2,524.6-922.7,524.5z M-921.6,545.4c3.7,0,7.3,0,11,0c0.8,0,1.1-0.4,1.1-1.1c0-2,0-4.1,0-6.1
		c0-0.8-0.4-1.1-1.1-1.1c-7.3,0-14.5,0-21.8,0c-0.8,0-1.2,0.3-1.2,1.2c0,2,0,4,0,6c0,0.9,0.3,1.2,1.2,1.2
		C-928.8,545.5-925.2,545.5-921.6,545.4z M-928.4,533.3c2.1,0.6,4.2,0.8,6.3,0.8c0-2.9,0-5.7,0-8.5c-0.1,0-0.3,0-0.4,0.1
		c-0.9,0.2-1.6,0.6-2.3,1.2c-1.2,1.1-2.1,2.4-2.7,3.9C-927.8,531.6-928.1,532.4-928.4,533.3z M-922.1,548.4c-2.1,0-4.2,0.3-6.2,0.8
		c0,0.1,0,0.1,0,0.1c0.6,2,1.4,3.9,2.8,5.5c0.7,0.8,1.5,1.5,2.4,1.8c0.3,0.1,0.7,0.2,1,0.3C-922.1,554.1-922.1,551.2-922.1,548.4z
		 M-921,534.1c2.1-0.1,4.2-0.3,6.3-0.8c-0.7-2.1-1.5-4.1-3-5.8c-0.7-0.8-1.5-1.4-2.5-1.7c-0.3-0.1-0.5-0.1-0.8-0.2
		C-921,528.5-921,531.3-921,534.1z M-921,556.9c0.2,0,0.3,0,0.4-0.1c1.1-0.3,2-0.9,2.8-1.7c1.3-1.4,2.1-3.1,2.7-4.9
		c0.1-0.3,0.2-0.6,0.3-1c-2.1-0.5-4.1-0.8-6.3-0.8C-921,551.2-921,554.1-921,556.9z M-929.6,534c-0.8-0.3-1.6-0.6-2.4-0.9
		c-0.8-0.3-1.5-0.8-2.2-1.1c-1.7,2-3.4,7-3,8.8c0.9,0,1.7,0,2.6,0c0-0.8,0-1.6,0-2.4c0-1.4,0.9-2.3,2.3-2.3c0.7,0,1.5,0,2.3,0
		C-929.9,535.3-929.8,534.7-929.6,534z M-913.5,534c0.2,0.7,0.3,1.4,0.4,2c0.8,0,1.6,0,2.4,0c1.2,0,2.2,1,2.2,2.2c0,0.8,0,1.5,0,2.3
		c0,0.1,0,0.2,0,0.3c0.9,0,1.7,0,2.6,0c-0.1-3.3-1.1-6.2-3-8.8C-910.3,532.8-911.9,533.5-913.5,534z M-913.5,548.5
		c1.6,0.5,3.2,1.2,4.6,2.1c1.7-2,3.5-7.2,3-8.8c-0.8,0-1.7,0-2.6,0c0,0.8,0,1.6,0,2.5c0,1.3-1,2.2-2.2,2.2c-0.7,0-1.4,0-2.1,0
		c-0.1,0-0.3,0.1-0.3,0.2C-913.2,547.3-913.3,547.9-913.5,548.5z M-930.1,546.5c-0.8,0-1.6,0-2.4,0c-1.2,0-2.1-1-2.1-2.1
		c0-0.7,0-1.5,0-2.2c0-0.1,0-0.2,0-0.3c-0.9,0-1.8,0-2.6,0c0.1,3.3,1.1,6.2,3.1,8.8c1.4-0.9,3-1.6,4.6-2.1
		C-929.8,547.8-929.9,547.2-930.1,546.5z M-917.8,526c1,0.9,1.8,2,2.4,3.2c0.6,1.2,1.1,2.5,1.7,3.7c1.2-0.3,3.6-1.4,4.1-1.9
		C-911.8,528.5-914.5,526.8-917.8,526z M-925.3,556.5c-2-1.9-3.2-4.4-4-7c-1.5,0.5-2.9,1.1-4.2,1.9
		C-931.3,554-928.6,555.7-925.3,556.5z M-913.7,549.5c-0.6,1.3-1.1,2.5-1.7,3.7c-0.6,1.2-1.4,2.3-2.4,3.2c3.3-0.8,6-2.5,8.2-5.1
		C-910.9,550.6-912.3,550-913.7,549.5z M-925.3,526c-3.3,0.8-6,2.5-8.2,5.1c1.3,0.8,2.7,1.5,4.2,1.9
		C-928.5,530.4-927.4,527.9-925.3,526z M-929,536c2.3,0,4.6,0,6.9,0c0-0.3,0-0.6,0-0.8c-1.1-0.1-2.2-0.2-3.3-0.3
		c-1.1-0.1-2.2-0.4-3.3-0.6C-928.8,534.9-928.9,535.4-929,536z M-914.5,534.3c-1.1,0.2-2.2,0.4-3.3,0.6c-1.1,0.1-2.2,0.2-3.3,0.3
		c0,0.3,0,0.5,0,0.8c2.3,0,4.6,0,6.9,0C-914.2,535.4-914.3,534.9-914.5,534.3z M-929,546.5c0.1,0.6,0.2,1.2,0.4,1.7
		c2.2-0.6,4.3-0.8,6.5-0.9c0-0.3,0-0.6,0-0.9C-924.4,546.5-926.7,546.5-929,546.5z M-914.1,546.5c-2.3,0-4.6,0-6.9,0
		c0,0.3,0,0.6,0,0.8c2.2,0.1,4.4,0.3,6.5,0.9C-914.3,547.6-914.2,547.1-914.1,546.5z"/>
	<g>
		<path class="st0" d="M-930.2,539.8h0.6l-0.9,2.7h-0.6l-0.9-2.7h0.6l0.5,1.6c0,0.1,0.1,0.2,0.1,0.3c0,0.1,0,0.2,0.1,0.3
			c0-0.1,0.1-0.3,0.1-0.6L-930.2,539.8z"/>
		<path class="st0" d="M-929.3,542.5v-2.7h0.6v2.7H-929.3z"/>
		<path class="st0" d="M-928.1,539.8h0.8c0.4,0,0.7,0.1,0.8,0.2c0.2,0.1,0.3,0.3,0.3,0.5c0,0.2,0,0.3-0.1,0.4
			c-0.1,0.1-0.2,0.2-0.3,0.2v0c0.2,0,0.3,0.1,0.4,0.2c0.1,0.1,0.1,0.2,0.1,0.4c0,0.2-0.1,0.4-0.3,0.6c-0.2,0.1-0.4,0.2-0.7,0.2h-1
			V539.8z M-927.5,540.9h0.3c0.2,0,0.3,0,0.3-0.1c0.1,0,0.1-0.1,0.1-0.2c0-0.1,0-0.2-0.1-0.2c-0.1,0-0.2-0.1-0.4-0.1h-0.3V540.9z
			 M-927.5,541.3v0.7h0.4c0.2,0,0.3,0,0.3-0.1c0.1-0.1,0.1-0.2,0.1-0.3c0-0.2-0.2-0.3-0.5-0.3H-927.5z"/>
		<path class="st0" d="M-921.9,542.5h-0.7l-0.4-1.4c0-0.1,0-0.2-0.1-0.3s-0.1-0.3-0.1-0.3c0,0.1,0,0.2-0.1,0.3
			c0,0.1-0.1,0.3-0.1,0.3l-0.4,1.4h-0.7l-0.7-2.7h0.6l0.3,1.5c0.1,0.3,0.1,0.5,0.1,0.7c0-0.1,0-0.2,0.1-0.3c0-0.1,0.1-0.3,0.1-0.3
			l0.4-1.5h0.5l0.4,1.5c0,0.1,0,0.2,0.1,0.3s0,0.3,0.1,0.4c0-0.1,0-0.2,0.1-0.4c0-0.1,0.1-0.3,0.1-0.3l0.3-1.5h0.6L-921.9,542.5z"/>
		<path class="st0" d="M-918.4,541.1c0,0.4-0.1,0.8-0.3,1s-0.5,0.4-1,0.4c-0.4,0-0.7-0.1-1-0.4s-0.3-0.6-0.3-1c0-0.4,0.1-0.8,0.3-1
			c0.2-0.2,0.5-0.4,1-0.4s0.7,0.1,1,0.4C-918.5,540.4-918.4,540.7-918.4,541.1z M-920.4,541.1c0,0.3,0.1,0.5,0.2,0.7
			s0.3,0.2,0.5,0.2c0.5,0,0.7-0.3,0.7-0.9c0-0.6-0.2-0.9-0.7-0.9c-0.2,0-0.4,0.1-0.5,0.2C-920.3,540.6-920.4,540.8-920.4,541.1z"/>
		<path class="st0" d="M-917.3,541.5v1h-0.6v-2.7h0.8c0.4,0,0.6,0.1,0.8,0.2c0.2,0.1,0.3,0.3,0.3,0.6c0,0.2,0,0.3-0.1,0.4
			c-0.1,0.1-0.2,0.2-0.4,0.3c0.4,0.6,0.7,1,0.8,1.2h-0.6l-0.6-1H-917.3z M-917.3,541h0.2c0.2,0,0.3,0,0.4-0.1
			c0.1-0.1,0.1-0.2,0.1-0.3c0-0.1,0-0.2-0.1-0.3s-0.2-0.1-0.4-0.1h-0.2V541z"/>
		<path class="st0" d="M-915.4,542.5v-2.7h0.6v2.2h1.1v0.5H-915.4z"/>
		<path class="st0" d="M-911,541.1c0,0.4-0.1,0.8-0.4,1c-0.3,0.2-0.6,0.4-1.1,0.4h-0.8v-2.7h0.8c0.4,0,0.8,0.1,1,0.3
			S-911,540.7-911,541.1z M-911.6,541.1c0-0.6-0.3-0.9-0.8-0.9h-0.3v1.8h0.2C-911.9,542-911.6,541.7-911.6,541.1z"/>
	</g>
</g>
</svg>
