<?xml version="1.0" encoding="utf-8"?>
<!-- Generator: Adobe Illustrator 19.0.0, SVG Export Plug-In . SVG Version: 6.00 Build 0)  -->
<svg version="1.1" id="icons" xmlns="http://www.w3.org/2000/svg" xmlns:xlink="http://www.w3.org/1999/xlink" x="0px" y="0px"
	 viewBox="-940 524.5 37.2 33.5" style="enable-background:new -940 524.5 37.2 33.5;" xml:space="preserve">
<style type="text/css">
	.st0{fill:#0E67B1;}
	.st1{fill:#0E67B1;stroke:#FFFFFF;stroke-width:0.1788;stroke-miterlimit:10;}
</style>
<g>
	<g>
		<g>
			<path class="st0" d="M-932.3,531c-0.1,0-0.2,0.1-0.2,0.2v0.4c0,8.4,0,15.6,0,24c0,1,0.1,1.1,1.1,1.1c6.6,0,13.3,0,19.9,0
				c0.9,0,1.1-0.1,1.1-1.1c0-8.4,0-15.6,0-24c0-0.2,0-0.3,0-0.5c0-0.1-0.1-0.2-0.2-0.2H-932.3z M-932.5,529.7c0,0.1,0.1,0.2,0.2,0.2
				l21.8,0c0-0.1,0-0.1,0.1-0.2c0-0.5,0,0.4,0-0.1c0-0.9-0.1-1-1-1c-3.5,0-7.1,0-10.6,0c-3.2,0-6.4,0-9.6,0c-0.7,0-0.9,0.2-0.9,0.9
				C-932.5,530-932.5,529.5-932.5,529.7z M-916.1,527.7c0.3,0,0.5,0,0.7,0c1.4,0,2.8,0,4.2,0c1.1,0,1.7,0.7,1.7,1.8
				c0,9.7,0,16.7,0,26.4c0,1.1-0.6,1.8-1.8,1.8c-6.8,0-13.7,0-20.5,0c-1.1,0-1.8-0.7-1.8-1.7c0-9.7,0-16.7,0-26.4
				c0-1.2,0.6-1.8,1.8-1.8c1.6,0,3.1,0,4.8,0l1,0c3,0,5.9,0,8.9,0L-916.1,527.7z"/>
			<path class="st0" d="M-912.1,555.8h-19c-0.1,0-0.2-0.1-0.2-0.2v-22.9c0-0.1,0.1-0.2,0.2-0.2h19c0.1,0,0.2,0.1,0.2,0.2v22.9
				C-911.9,555.7-911.9,555.8-912.1,555.8z M-930.2,533.7v20.9c0,0.1,0.1,0.2,0.2,0.2h17c0.1,0,0.2-0.1,0.2-0.2v-20.9
				c0-0.1-0.1-0.2-0.2-0.2h-17C-930.1,533.5-930.2,533.5-930.2,533.7z"/>
			<path class="st0" d="M-922.6,550.4v-0.5c0-0.1,0.1-0.2,0.2-0.2h7.8c0.1,0,0.2,0.1,0.2,0.2v0.5c0,0.1-0.1,0.2-0.2,0.2h-7.8
				C-922.5,550.6-922.6,550.5-922.6,550.4z"/>
			<path class="st0" d="M-922.6,543.2v-0.5c0-0.1,0.1-0.2,0.2-0.2h7.8c0.1,0,0.2,0.1,0.2,0.2v0.5c0,0.1-0.1,0.2-0.2,0.2h-7.8
				C-922.5,543.4-922.6,543.3-922.6,543.2z"/>
			<path class="st0" d="M-914.4,535.4v0.5c0,0.1-0.1,0.2-0.2,0.2h-7.8c-0.1,0-0.2-0.1-0.2-0.2v-0.5c0-0.1,0.1-0.2,0.2-0.2h7.8
				C-914.5,535.2-914.4,535.3-914.4,535.4z"/>
			<path class="st0" d="M-922.6,538.2v-0.5c0-0.1,0.1-0.2,0.2-0.2h5.3c0.1,0,0.2,0.1,0.2,0.2v0.5c0,0.1-0.1,0.2-0.2,0.2h-5.3
				C-922.5,538.4-922.6,538.3-922.6,538.2z"/>
			<path class="st0" d="M-922.6,545.4v-0.5c0-0.1,0.1-0.2,0.2-0.2h5.3c0.1,0,0.2,0.1,0.2,0.2v0.5c0,0.1-0.1,0.2-0.2,0.2h-5.3
				C-922.5,545.6-922.6,545.5-922.6,545.4z"/>
			<path class="st0" d="M-916.9,552.2v0.5c0,0.1-0.1,0.2-0.2,0.2h-5.3c-0.1,0-0.2-0.1-0.2-0.2v-0.5c0-0.1,0.1-0.2,0.2-0.2h5.3
				C-917,552-916.9,552-916.9,552.2z"/>
		</g>
		<path class="st1" d="M-924.1,535.2c-0.2-0.2-0.6-0.2-0.8,0l-2,2l-0.8-0.8c-0.2-0.2-0.6-0.2-0.8,0c-0.2,0.2-0.2,0.6,0,0.8l1.2,1.2
			c0.2,0.2,0.6,0.2,0.8,0l2.4-2.4C-923.9,535.8-923.9,535.5-924.1,535.2z"/>
		<path class="st1" d="M-924.1,542.2c-0.2-0.2-0.6-0.2-0.8,0l-2,2l-0.8-0.8c-0.2-0.2-0.6-0.2-0.8,0c-0.2,0.2-0.2,0.6,0,0.8l1.2,1.2
			c0.2,0.2,0.6,0.2,0.8,0l2.4-2.4C-923.9,542.8-923.9,542.4-924.1,542.2z"/>
		<path class="st1" d="M-924.1,549.4c-0.2-0.2-0.6-0.2-0.8,0l-2,2l-0.8-0.8c-0.2-0.2-0.6-0.2-0.8,0c-0.2,0.2-0.2,0.6,0,0.8l1.2,1.2
			c0.2,0.2,0.6,0.2,0.8,0l2.4-2.4C-923.9,550-923.9,549.6-924.1,549.4z"/>
	</g>
	<g>
		<path class="st0" d="M-921.5,528.7c-1.2,0-2.4,0-3.6,0c-0.4,0-0.5-0.1-0.5-0.5c0-0.6,0-1.2,0-1.8c0-0.3,0.1-0.4,0.4-0.4
			c0.5,0,1,0,1.5,0c0.1,0,0.2,0,0.2-0.1c0.4-0.8,1-1.2,1.9-1.2c0.9,0,1.5,0.4,1.8,1.2c0.1,0.1,0.1,0.1,0.2,0.1c0.5,0,1,0,1.6,0
			c0.3,0,0.4,0.1,0.4,0.4c0,0.6,0,1.3,0,1.9c0,0.3-0.1,0.4-0.4,0.4C-919,528.7-920.2,528.7-921.5,528.7z M-918.1,526.6
			c-0.1,0-0.2,0-0.2,0c-0.5,0-1,0-1.5,0c-0.2,0-0.3-0.1-0.4-0.3c0-0.1,0-0.1-0.1-0.2c-0.2-0.6-0.7-0.9-1.3-0.9c-0.6,0-1.1,0.4-1.3,1
			c-0.1,0.3-0.2,0.4-0.5,0.4c-0.5,0-0.9,0-1.4,0c-0.1,0-0.1,0-0.2,0c0,0.5,0,0.9,0,1.3c2.3,0,4.5,0,6.8,0
			C-918.1,527.5-918.1,527.1-918.1,526.6z"/>
		<path class="st0" d="M-921.5,527.3c-0.4,0-0.7-0.3-0.7-0.7c0-0.4,0.3-0.7,0.7-0.7c0.4,0,0.7,0.3,0.7,0.7
			C-920.8,527-921.1,527.3-921.5,527.3z"/>
	</g>
</g>
</svg>
