<?xml version="1.0" encoding="utf-8"?>
<!-- Generator: Adobe Illustrator 19.0.0, SVG Export Plug-In . SVG Version: 6.00 Build 0)  -->
<svg version="1.1" id="icons" xmlns="http://www.w3.org/2000/svg" xmlns:xlink="http://www.w3.org/1999/xlink" x="0px" y="0px"
	 viewBox="-940 524.5 37.2 33.5" style="enable-background:new -940 524.5 37.2 33.5;" xml:space="preserve">
<style type="text/css">
	.st0{fill:#0E67B1;}
</style>
<g>
	<path class="st0" d="M-905.3,534c-0.4-0.8-1.2-1.4-2-1.7c-0.9-0.3-1.8-0.2-2.6,0.3c-0.8,0.4-1.4,1.2-1.7,2
		c-0.2,0.6-0.2,1.2-0.1,1.8l-3.7,2c-1.1-1.6-2.9-2.7-4.9-2.9v-3.2c1.5-0.4,2.5-1.7,2.5-3.3c0-1.9-1.5-3.4-3.4-3.4s-3.4,1.5-3.4,3.4
		c0,1.6,1.1,2.9,2.5,3.3v3.2c-2.6,0.3-4.7,2-5.7,4.4l-4.1-1.1c0-0.6-0.2-1.2-0.5-1.7c-0.5-0.8-1.2-1.4-2.1-1.6
		c-1.8-0.5-3.7,0.6-4.2,2.4c-0.2,0.9-0.1,1.8,0.3,2.6c0.5,0.8,1.2,1.4,2.1,1.6c0.3,0.1,0.6,0.1,0.9,0.1c0.6,0,1.2-0.2,1.7-0.5
		c0.5-0.3,1-0.7,1.3-1.2l4.1,1.1c0,0.3-0.1,0.6-0.1,1c0,1.6,0.6,3.1,1.5,4.4l-3,3c-1.3-0.8-3-0.6-4.1,0.5c-1.3,1.3-1.3,3.5,0,4.8
		c0.7,0.7,1.5,1,2.4,1c0.9,0,1.8-0.3,2.4-1c1.1-1.1,1.3-2.8,0.5-4.1l3-3c1.2,0.9,2.7,1.5,4.4,1.5s3.1-0.6,4.4-1.5l3,3
		c-0.8,1.3-0.6,3,0.5,4.1c0.7,0.7,1.5,1,2.4,1c0.9,0,1.8-0.3,2.4-1c1.3-1.3,1.3-3.5,0-4.8c-1.1-1.1-2.8-1.3-4.1-0.5l-3-3
		c0.9-1.2,1.5-2.7,1.5-4.4c0-0.9-0.2-1.8-0.5-2.5l3.7-2c0.4,0.4,0.9,0.8,1.5,0.9c0.3,0.1,0.7,0.1,1,0.1c0.6,0,1.1-0.1,1.6-0.4
		c0.8-0.4,1.4-1.2,1.7-2C-904.8,535.7-904.9,534.8-905.3,534L-905.3,534z M-907.6,537c-0.4,0.2-0.8,0.3-1.3,0.1
		c-0.4-0.1-0.8-0.4-1-0.8c-0.2-0.4-0.3-0.8-0.1-1.3c0.1-0.4,0.4-0.8,0.8-1c0.2-0.1,0.5-0.2,0.8-0.2c0.2,0,0.3,0,0.5,0.1
		c0.4,0.1,0.8,0.4,1,0.8c0.2,0.4,0.3,0.8,0.1,1.3C-906.9,536.5-907.2,536.8-907.6,537z M-915.9,542.4c0,2.9-2.4,5.3-5.3,5.3
		c-2.9,0-5.3-2.4-5.3-5.3c0-2.9,2.4-5.3,5.3-5.3C-918.2,537.1-915.9,539.5-915.9,542.4z M-922.8,528.9c0-0.9,0.7-1.6,1.6-1.6
		s1.6,0.7,1.6,1.6c0,0.9-0.7,1.6-1.6,1.6S-922.8,529.8-922.8,528.9z M-935.7,540.2c-0.4-0.1-0.8-0.4-1-0.8c-0.2-0.4-0.3-0.8-0.2-1.2
		c0.2-0.9,1.1-1.4,2-1.2c0.4,0.1,0.8,0.4,1,0.8c0.2,0.4,0.3,0.8,0.2,1.2C-933.9,540-934.8,540.5-935.7,540.2z M-930.3,553.9
		c-0.6,0.6-1.7,0.6-2.3,0c-0.6-0.6-0.6-1.7,0-2.3c0.3-0.3,0.7-0.5,1.2-0.5c0.4,0,0.8,0.2,1.2,0.5
		C-929.7,552.2-929.7,553.3-930.3,553.9z M-909.7,551.6c0.6,0.6,0.6,1.7,0,2.3c-0.6,0.6-1.7,0.6-2.3,0c-0.6-0.6-0.6-1.7,0-2.3
		c0.3-0.3,0.7-0.5,1.2-0.5C-910.5,551.1-910,551.3-909.7,551.6z"/>
</g>
</svg>
