<?xml version="1.0" encoding="utf-8"?>
<!-- Generator: Adobe Illustrator 19.0.0, SVG Export Plug-In . SVG Version: 6.00 Build 0)  -->
<svg version="1.1" id="icons" xmlns="http://www.w3.org/2000/svg" xmlns:xlink="http://www.w3.org/1999/xlink" x="0px" y="0px"
	 viewBox="-940 524.5 37.2 33.5" style="enable-background:new -940 524.5 37.2 33.5;" xml:space="preserve">
<style type="text/css">
	.st0{fill:#0E67B1;stroke:#FFFFFF;stroke-width:0.5367;stroke-miterlimit:10;}
	.st1{fill:#0E67B1;stroke:#FFFFFF;stroke-width:8.945190e-002;stroke-miterlimit:10;}
</style>
<g>
	<path class="st0" d="M-915.8,539.6c-0.3-0.3-0.9-0.3-1.3,0l-3.1,3.1l-1.3-1.3c-0.3-0.3-0.9-0.3-1.3,0c-0.3,0.3-0.3,0.9,0,1.3
		l1.9,1.9c0.3,0.3,0.9,0.3,1.3,0l3.8-3.8C-915.5,540.5-915.5,539.9-915.8,539.6z"/>
	<g>
		<path class="st1" d="M-907,530.1c-0.6,0.6-1.2,1.2-1.7,1.8c-0.2,0.2-0.5,0.2-0.8,0c-0.1-0.1-0.2-0.2-0.3-0.3
			c-0.4,0.4-0.8,0.8-1.2,1.2c0.6,0.8,1.3,1.6,1.8,2.5c0.5,0.8,0.9,1.8,1.2,2.7c0.5,1.4,0.8,2.9,0.8,4.4c0.1,2.6-0.5,5-1.6,7.2
			c-1.3,2.5-3.1,4.5-5.4,6c-2.3,1.5-4.8,2.2-7.4,2.3c-1.3,0.1-2.6-0.1-3.9-0.3c-0.4-0.1-0.6-0.4-0.5-0.7c0.1-0.3,0.4-0.4,0.7-0.4
			c0.8,0.1,1.7,0.3,2.6,0.4c0-0.4,0-0.8,0-1.1c0-0.4,0.2-0.6,0.5-0.6c0.3,0,0.6,0.3,0.6,0.6c0,0.3,0,0.7,0,1c2.1-0.1,4-0.6,5.8-1.5
			c-0.2-0.3-0.3-0.6-0.5-0.9c-0.2-0.4-0.2-0.7,0.1-0.9c0.3-0.2,0.6-0.1,0.8,0.3c0.1,0.3,0.3,0.5,0.5,0.8c0,0,0,0,0.1,0.1
			c1.8-1.1,3.2-2.5,4.3-4.3c-0.3-0.2-0.6-0.4-0.9-0.5c-0.3-0.2-0.4-0.5-0.3-0.8c0.2-0.3,0.5-0.4,0.8-0.2c0.2,0.1,0.3,0.2,0.5,0.3
			c0.2,0.1,0.3,0.2,0.5,0.3c0.8-1,1.7-4.5,1.6-5.9c-0.3,0-0.6,0-0.9,0c-0.4,0-0.7-0.3-0.7-0.6c0-0.3,0.3-0.6,0.7-0.6
			c0.3,0,0.6,0,0.9,0c0,0,0,0,0.1,0c-0.1-2-0.6-4-1.5-5.9c-0.3,0.2-0.7,0.4-1,0.6c-0.2,0.1-0.5,0.1-0.6-0.1
			c-0.1-0.1-0.2-0.4-0.2-0.6c0-0.1,0.2-0.3,0.3-0.4c0.3-0.2,0.6-0.4,0.9-0.6c-1.1-1.8-2.6-3.2-4.3-4.3c-0.2,0.3-0.4,0.6-0.6,0.9
			c-0.2,0.3-0.5,0.4-0.8,0.2c-0.3-0.2-0.3-0.5-0.2-0.8c0.2-0.3,0.3-0.6,0.5-0.9c-1.8-0.9-3.7-1.5-5.8-1.5c0,0.4,0,0.7,0,1
			c0,0.4-0.2,0.7-0.6,0.6c-0.4,0-0.6-0.3-0.6-0.7c0-0.3,0-0.6,0-0.9c0,0,0,0-0.1-0.1c-0.7,0.1-1.5,0.2-2.3,0.3
			c-0.1,0-0.2,0.1-0.3,0.1c-0.3,0-0.6-0.1-0.6-0.4c-0.1-0.3,0.1-0.6,0.4-0.7c0.3-0.1,0.6-0.1,0.9-0.2c0.3,0,0.6-0.1,0.9-0.1
			c0-0.2,0-0.4,0-0.6c-0.2,0-0.5,0-0.7,0c-0.8,0-1.5-0.7-1.5-1.4c0-0.7,0.7-1.4,1.5-1.4c1.6,0,3.2,0,4.8,0c0.8,0,1.5,0.7,1.5,1.4
			c0,0.7-0.7,1.4-1.5,1.4c-0.2,0-0.5,0-0.7,0c0,0.2,0,0.4,0,0.7c1.6,0.2,3.1,0.6,4.5,1.3c1.4,0.7,2.7,1.6,3.9,2.6
			c0.4-0.4,0.8-0.8,1.3-1.3c-0.1-0.1-0.3-0.2-0.4-0.3c-0.3-0.3-0.2-0.6,0-0.8c0.5-0.5,1-1,1.5-1.5c0.3-0.3,0.6-0.3,0.9,0
			c0.6,0.6,1.1,1.1,1.7,1.7C-907,529.8-907,530-907,530.1z M-921.5,527.8C-921.5,527.8-921.5,527.8-921.5,527.8c0-0.4,0-0.7,0-1
			c0-0.5,0.2-0.7,0.7-0.7c0.4,0,0.8,0,1.3,0c0.2,0,0.3-0.1,0.3-0.3c0-0.2-0.1-0.3-0.3-0.3c-1.7,0-3.3,0-5,0c-0.2,0-0.3,0.1-0.3,0.3
			c0,0.2,0.1,0.3,0.3,0.3c0.4,0,0.8,0,1.3,0c0.4,0,0.6,0.2,0.7,0.7c0,0.3,0,0.7,0,1C-922.2,527.8-921.9,527.8-921.5,527.8z
			 M-909.1,529.2c-0.2,0.2-0.5,0.5-0.7,0.7c0.2,0.2,0.5,0.5,0.7,0.7c0.2-0.2,0.5-0.5,0.8-0.7C-908.6,529.6-908.8,529.4-909.1,529.2z
			"/>
		<path class="st1" d="M-938.2,544.4c0.2-0.3,0.4-0.4,0.7-0.4c3.4,0,6.9,0,10.3,0c0.3,0,0.6,0.1,0.7,0.4c0.1,0.4-0.2,0.7-0.6,0.7
			c-1.3,0-2.6,0-3.9,0c-2.1,0-4.1,0-6.2,0c-0.4,0-0.7-0.1-0.9-0.3C-938.2,544.7-938.2,544.5-938.2,544.4z"/>
		<path class="st1" d="M-931.3,540.1c1.4,0,2.7,0,4.1,0c0.4,0,0.7,0.3,0.7,0.6c0,0.3-0.2,0.6-0.6,0.6c-2.7,0-5.5,0-8.2,0
			c-0.3,0-0.5-0.1-0.6-0.4c-0.1-0.3,0-0.5,0.3-0.6c0.1-0.1,0.3-0.1,0.4-0.1C-934,540.1-932.6,540.1-931.3,540.1z"/>
		<path class="st1" d="M-930.7,547.9c1.2,0,2.3,0,3.5,0c0.4,0,0.7,0.2,0.7,0.6c0,0.3-0.1,0.5-0.4,0.6c-0.1,0-0.2,0-0.3,0
			c-2.3,0-4.6,0-6.8,0c-0.2,0-0.5-0.1-0.6-0.2c-0.1-0.1-0.1-0.4-0.1-0.6c0.1-0.3,0.3-0.4,0.6-0.4
			C-933,547.9-931.9,547.9-930.7,547.9z"/>
		<path class="st1" d="M-929.9,537.3c-0.9,0-1.8,0-2.7,0c-0.4,0-0.7-0.3-0.7-0.6c0-0.3,0.3-0.6,0.7-0.6c1.8,0,3.6,0,5.4,0
			c0.4,0,0.7,0.2,0.7,0.6c0,0.3-0.2,0.5-0.6,0.5C-928.1,537.3-929,537.3-929.9,537.3z"/>
		<path class="st1" d="M-929.1,553c-0.6,0-1.2,0-1.9,0c-0.4,0-0.6-0.2-0.6-0.6c0-0.3,0.3-0.6,0.6-0.6c1.3,0,2.5,0,3.8,0
			c0.4,0,0.6,0.2,0.6,0.6c0,0.3-0.2,0.6-0.6,0.6C-927.8,553-928.4,553-929.1,553C-929.1,553-929.1,553-929.1,553z"/>
		<path class="st1" d="M-928.4,532.3c0.4,0,0.8,0,1.3,0c0.4,0,0.7,0.2,0.7,0.6c0,0.4-0.2,0.6-0.7,0.6c-0.9,0-1.8,0-2.6,0
			c-0.4,0-0.7-0.3-0.7-0.6c0-0.3,0.3-0.6,0.7-0.6C-929.3,532.3-928.9,532.3-928.4,532.3z"/>
	</g>
</g>
</svg>
