<?xml version="1.0" encoding="utf-8"?>
<!-- Generator: Adobe Illustrator 19.0.0, SVG Export Plug-In . SVG Version: 6.00 Build 0)  -->
<svg version="1.1" id="icons" xmlns="http://www.w3.org/2000/svg" xmlns:xlink="http://www.w3.org/1999/xlink" x="0px" y="0px"
	 viewBox="-286 380.5 37.2 33.5" style="enable-background:new -286 380.5 37.2 33.5;" xml:space="preserve">
<style type="text/css">
	.st0{fill:#0E67B1;}
</style>
<g id="XMLID_173_">
	<path id="XMLID_180_" class="st0" d="M-257.6,412.4c-0.2,0.7-0.4,0.9-1.1,0.9c-0.5,0-1,0-1.5,0c-0.7,0-0.9-0.1-1.2-0.9
		c-3.7,0-7.3,0-11,0c-0.3,0.7-0.4,0.9-1.2,0.9c-0.5,0-1,0-1.4,0c-0.8,0-1-0.1-1.2-0.9c-0.7,0-1.4,0-2.1,0c-1.2,0-2.3-0.8-2.6-2
		c-0.1-0.2-0.1-0.5-0.1-0.7c0-8.5,0-16.9,0-25.4c0-1.4,0.9-2.5,2.3-2.7c0.2,0,0.4,0,0.6,0c7.5,0,15.1,0,22.6,0
		c1.6,0,2.8,1.1,2.8,2.8c0,7,0,13.9,0,20.9c0,1.5,0,2.9,0,4.4c0,1.7-1.1,2.8-2.8,2.8C-256.3,412.4-257,412.4-257.6,412.4z
		 M-254.6,390c-8.2,0-16.4,0-24.7,0c0,0.7,0,1.4,0,2.2c0.9,0,1.8,0,2.7,0c0.6,0,1,0.4,1,0.9c0,0.5-0.4,0.9-1,0.9c-0.8,0-1.6,0-2.4,0
		c-0.1,0-0.2,0-0.3,0c0,0.6,0,1.2,0,1.8c0.4,0,0.7,0,1,0c0.6,0,0.9,0.3,0.9,0.9c0,0.5-0.4,0.9-0.9,0.9c-0.3,0-0.7,0-1,0
		c0,0.2,0,0.3,0,0.4c0,3.9,0,7.7,0,11.6c0,0.1,0,0.2,0,0.3c0.1,0.4,0.3,0.6,0.7,0.7c0.2,0,0.4,0,0.6,0c7.5,0,14.9,0,22.4,0
		c0.7,0,1.1-0.3,1.1-1c0-6.4,0-12.8,0-19.2C-254.6,390.2-254.6,390.1-254.6,390z M-279.3,388.2c8.3,0,16.5,0,24.7,0
		c0-0.1,0-0.2,0-0.3c0-1.2,0-2.5,0-3.7c0-0.7-0.3-1-1-1c-7.5,0-15.1,0-22.6,0c-0.7,0-1,0.4-1,1c0,0.8,0,1.5,0,2.3
		C-279.3,387.1-279.3,387.7-279.3,388.2z"/>
	<path id="XMLID_177_" class="st0" d="M-259.1,400c0,4.3-3.5,7.8-7.8,7.9c-4.3,0-7.8-3.5-7.9-7.8c0-4.3,3.5-7.9,7.8-7.9
		C-262.6,392.2-259.1,395.7-259.1,400z M-266.9,394c-3.3,0-6,2.7-6.1,6c0,3.4,2.7,6.1,6,6.2c3.4,0,6.1-2.7,6.1-6.1
		C-260.8,396.7-263.5,394-266.9,394z"/>
	<path id="XMLID_176_" class="st0" d="M-268.8,386.7c-0.3,0-0.6,0-1,0c-0.5,0-0.9-0.4-0.9-0.9c0-0.5,0.4-0.9,0.9-0.9
		c0.6,0,1.3,0,1.9,0c0.5,0,0.9,0.4,0.9,0.9c0,0.5-0.4,0.9-0.9,0.9C-268.2,386.7-268.5,386.7-268.8,386.7z"/>
	<path id="XMLID_175_" class="st0" d="M-275.7,386.7c-0.3,0-0.7,0-1,0c-0.5,0-0.9-0.4-0.9-0.9c0-0.5,0.4-0.9,0.9-0.9
		c0.7,0,1.3,0,2,0c0.5,0,0.9,0.4,0.9,0.9c0,0.5-0.4,0.9-0.9,0.9C-275,386.7-275.3,386.7-275.7,386.7z"/>
	<path id="XMLID_174_" class="st0" d="M-266.8,395.7c2.3,0.1,4.1,2,4.1,4.2c0,0.6-0.4,1-0.9,1c-0.5,0-0.9-0.4-0.9-0.9
		c-0.1-1.4-1.1-2.4-2.4-2.5c-0.7,0-1-0.4-1-0.9C-267.8,396-267.4,395.7-266.8,395.7z"/>
</g>
</svg>
