<?xml version="1.0" encoding="utf-8"?>
<!-- Generator: Adobe Illustrator 19.0.0, SVG Export Plug-In . SVG Version: 6.00 Build 0)  -->
<svg version="1.1" id="icons" xmlns="http://www.w3.org/2000/svg" xmlns:xlink="http://www.w3.org/1999/xlink" x="0px" y="0px"
	 viewBox="-940 524.5 37.2 33.5" style="enable-background:new -940 524.5 37.2 33.5;" xml:space="preserve">
<style type="text/css">
	.st0{fill:#0E67B1;}
</style>
<g id="QmX2ZP.tif">
	<g>
		<path class="st0" d="M-905.9,536.3c-0.1,0.5-0.2,1.1-0.4,1.6c-0.1,0.3-0.1,0.4,0.1,0.7c0.5,0.6,1,1.2,1.1,2c0.2,1.1-0.1,2.1-0.8,3
			c-0.4,0.5-0.5,0.8-0.3,1.4c0.6,2-0.1,3.6-2.1,4.5c-0.3,0.1-0.4,0.3-0.4,0.7c-0.1,2.3-1.4,3.6-3.7,3.7c-0.3,0-0.5,0.1-0.6,0.4
			c0,0.1-0.1,0.2-0.2,0.4c-1,1.7-2.5,2.4-4.4,1.8c-0.5-0.2-0.8-0.1-1.3,0.2c-1.6,1.4-3.4,1.3-5.1-0.2c-0.2-0.2-0.4-0.2-0.6-0.1
			c-0.4,0.1-0.8,0.3-1.2,0.3c-1.7,0.1-2.9-0.6-3.7-2.3c-0.2-0.3-0.3-0.4-0.7-0.4c-2.2-0.1-3.6-1.4-3.7-3.6c0-0.4-0.2-0.7-0.6-0.8
			c-1.1-0.5-1.9-1.3-2.1-2.6c-0.2-0.8,0-1.6,0.3-2.3c0.1-0.2,0.1-0.4-0.1-0.6c-0.6-0.6-1-1.3-1.2-2.1c-0.2-1.2,0.2-2.1,0.9-3
			c0.4-0.4,0.4-0.7,0.3-1.3c-0.6-2,0.1-3.7,2.1-4.6c0.3-0.2,0.5-0.3,0.5-0.7c0-1.1,0.4-2,1.2-2.8c0.7-0.6,1.6-0.9,2.5-0.9
			c0.3,0,0.5-0.1,0.7-0.4c0.5-1.1,1.3-2,2.6-2.3c0.8-0.2,1.6,0,2.3,0.3c0.2,0.1,0.4,0.1,0.5-0.1c0.6-0.6,1.3-1,2.1-1.2
			c1.3-0.2,2.3,0.3,3.3,1.1c0.2,0.2,0.4,0.2,0.7,0.1c0.4-0.1,0.8-0.2,1.2-0.3c1.7-0.2,2.8,0.6,3.6,2c0.2,0.5,0.5,0.7,1,0.7
			c1.4,0.1,2.6,0.7,3.1,2.1c0.2,0.5,0.3,1,0.3,1.5c0,0.4,0.1,0.5,0.5,0.7c0.5,0.3,1,0.7,1.5,1.1C-906.2,534.7-906,535.4-905.9,536.3
			z M-932.8,532.7C-932.7,532.7-932.7,532.7-932.8,532.7c0,0.1,0,0.2,0,0.2c0,0.7-0.1,0.7-0.7,1c-0.4,0.2-0.8,0.4-1.2,0.6
			c-0.7,0.5-1,1.3-0.8,2.2c0.1,0.4,0.2,0.9,0.4,1.3c0.2,0.4,0.1,0.7-0.2,1c-0.3,0.3-0.6,0.6-0.8,0.9c-0.7,0.9-0.6,1.8,0,2.8
			c0.2,0.3,0.5,0.6,0.7,0.8c0.4,0.4,0.4,0.5,0.2,1c-0.2,0.4-0.3,0.9-0.4,1.3c-0.1,0.8,0,1.5,0.7,2c0.5,0.4,1,0.6,1.5,0.9
			c0.3,0.2,0.5,0.4,0.5,0.8c0,0.3,0,0.5,0,0.8c0.1,1.3,0.7,2.1,1.8,2.3c0.4,0.1,0.9,0.1,1.4,0.1c0.4,0,0.7,0.2,0.8,0.5
			c0.1,0.3,0.3,0.7,0.5,1c0.6,1,1.3,1.4,2.5,1.1c0.4-0.1,0.8-0.2,1.3-0.4c0.4-0.2,0.6-0.1,0.9,0.2c0.2,0.2,0.4,0.4,0.6,0.6
			c1,0.9,2.1,0.9,3.2,0.1c0.3-0.2,0.5-0.5,0.8-0.7c0.3-0.3,0.6-0.4,0.9-0.2c0.2,0.1,0.4,0.2,0.7,0.3c1.5,0.5,2.4,0.1,3.2-1.2
			c0.1-0.2,0.2-0.4,0.3-0.7c0.2-0.5,0.3-0.6,0.9-0.6c0.2,0,0.4,0,0.6,0c1.3,0,2.2-0.7,2.4-1.8c0.1-0.4,0.1-0.9,0.1-1.4
			c0-0.4,0.2-0.6,0.6-0.8c0.5-0.2,1-0.5,1.4-0.8c0.5-0.4,0.8-1,0.8-1.7c-0.1-0.5-0.2-1.1-0.4-1.6c-0.2-0.6-0.2-0.7,0.2-1.1
			c0.3-0.4,0.7-0.8,0.9-1.2c0.4-0.6,0.4-1.3,0-2c-0.3-0.5-0.7-0.9-1-1.3c-0.3-0.3-0.3-0.5-0.2-0.9c0.1-0.3,0.3-0.7,0.4-1
			c0.3-1.2,0-2.1-1.1-2.8c-0.3-0.2-0.6-0.3-1-0.4c-0.3-0.1-0.5-0.4-0.5-0.8c0-0.4,0-0.8-0.1-1.2c-0.1-0.9-0.6-1.6-1.6-1.8
			c-0.5-0.1-1-0.1-1.6-0.2c-0.4,0-0.6-0.2-0.8-0.5c-0.2-0.4-0.3-0.8-0.6-1.2c-0.6-0.9-1.4-1.2-2.4-1c-0.4,0.1-0.8,0.2-1.2,0.4
			c-0.4,0.1-0.6,0.1-0.9-0.2c-0.3-0.3-0.6-0.6-1-0.9c-0.8-0.6-1.7-0.6-2.6,0c-0.3,0.2-0.6,0.5-0.9,0.8c-0.4,0.4-0.5,0.4-1.1,0.2
			c-0.3-0.1-0.6-0.2-0.9-0.3c-1.2-0.3-2.1,0-2.8,1.1c-0.2,0.3-0.3,0.6-0.4,0.9c-0.2,0.4-0.3,0.5-0.8,0.5c-0.2,0-0.5,0-0.7,0
			c-1.2,0-2.1,0.7-2.4,1.8C-932.7,532-932.7,532.4-932.8,532.7z"/>
		<path class="st0" d="M-927,547.6c-0.2-0.2-0.5-0.3-0.5-0.5c-0.1-0.2,0-0.4,0-0.7c0-0.1,0.1-0.2,0.2-0.2c3.7-3.7,7.3-7.3,11-11
			c0.2-0.2,0.4-0.3,0.7-0.3c0.5,0,0.8,0.6,0.5,1c-0.1,0.1-0.1,0.2-0.2,0.2c-3.7,3.7-7.3,7.3-11,11
			C-926.6,547.4-926.8,547.5-927,547.6z"/>
		<path class="st0" d="M-922.6,537.5c0,1.5-1.1,2.5-2.7,2.5c-1.3,0-2.4-1.2-2.4-2.5c0-1.4,1.1-2.5,2.6-2.5
			C-923.7,534.9-922.6,536.1-922.6,537.5z M-926.4,537.5c0,0.7,0.6,1.2,1.2,1.3c0.7,0,1.2-0.6,1.3-1.2c0-0.7-0.6-1.3-1.3-1.3
			C-925.8,536.2-926.4,536.8-926.4,537.5z"/>
		<path class="st0" d="M-920.1,545c0-1.4,1.2-2.5,2.6-2.5c1.4,0,2.5,1.2,2.5,2.5c0,1.4-1.1,2.5-2.5,2.5
			C-919,547.5-920.1,546.4-920.1,545z M-916.3,545c0-0.7-0.6-1.3-1.3-1.2c-0.7,0-1.2,0.6-1.2,1.2c0,0.7,0.6,1.3,1.3,1.3
			C-916.9,546.3-916.3,545.7-916.3,545z"/>
		<path class="st0" d="M-920.7,553.2c0,0.3-0.3,0.7-0.7,0.7c-0.3,0-0.6-0.3-0.6-0.6c0-0.4,0.3-0.7,0.7-0.6
			C-921,552.6-920.7,552.9-920.7,553.2z"/>
		<path class="st0" d="M-933.4,540.6c0.3,0,0.7,0.3,0.7,0.6c0,0.3-0.3,0.6-0.6,0.7c-0.3,0-0.7-0.3-0.7-0.6
			C-934,540.9-933.7,540.6-933.4,540.6z"/>
		<path class="st0" d="M-922,529.3c0-0.3,0.3-0.6,0.6-0.7c0.3,0,0.7,0.3,0.7,0.6c0,0.3-0.3,0.6-0.6,0.7
			C-921.7,529.9-922,529.6-922,529.3z"/>
		<path class="st0" d="M-931.7,534.6c0.3,0,0.7,0.3,0.7,0.7c0,0.3-0.3,0.6-0.6,0.6c-0.3,0-0.6-0.3-0.6-0.7
			C-932.4,534.9-932.1,534.6-931.7,534.6z"/>
		<path class="st0" d="M-918.3,553.4c-0.4,0-0.7-0.3-0.6-0.7c0-0.3,0.3-0.6,0.7-0.6c0.4,0,0.7,0.3,0.6,0.7
			C-917.6,553.1-917.9,553.4-918.3,553.4z"/>
		<path class="st0" d="M-909.4,540.6c0.3,0,0.6,0.3,0.6,0.6c0,0.3-0.3,0.7-0.7,0.7c-0.3,0-0.6-0.3-0.6-0.7
			C-910,540.9-909.8,540.6-909.4,540.6z"/>
		<path class="st0" d="M-923.8,529.7c0,0.4-0.3,0.6-0.7,0.6c-0.3,0-0.6-0.3-0.6-0.7c0-0.4,0.3-0.6,0.7-0.6
			C-924.1,529.1-923.8,529.4-923.8,529.7z"/>
		<path class="st0" d="M-924.5,553.4c-0.4,0-0.7-0.3-0.7-0.6c0-0.4,0.3-0.6,0.7-0.6c0.3,0,0.6,0.3,0.6,0.6
			C-923.8,553.2-924.1,553.4-924.5,553.4z"/>
		<path class="st0" d="M-926.7,551.6c0,0.3-0.3,0.6-0.6,0.6c-0.3,0-0.7-0.3-0.7-0.6c0-0.3,0.3-0.6,0.6-0.6
			C-927,551-926.7,551.2-926.7,551.6z"/>
		<path class="st0" d="M-932.4,547.2c0-0.3,0.3-0.6,0.6-0.6c0.3,0,0.6,0.3,0.7,0.6c0,0.4-0.3,0.7-0.7,0.7
			C-932.1,547.9-932.3,547.6-932.4,547.2z"/>
		<path class="st0" d="M-927.3,531.5c-0.4,0-0.7-0.3-0.7-0.6c0-0.3,0.3-0.6,0.6-0.6c0.4,0,0.7,0.3,0.7,0.6
			C-926.7,531.2-927,531.5-927.3,531.5z"/>
		<path class="st0" d="M-932.9,543.7c0.3,0,0.6,0.3,0.6,0.6c0,0.3-0.3,0.6-0.6,0.7c-0.4,0-0.6-0.3-0.6-0.6
			C-933.5,544-933.3,543.7-932.9,543.7z"/>
		<path class="st0" d="M-914.7,530.9c0,0.4-0.3,0.6-0.7,0.6c-0.3,0-0.6-0.3-0.6-0.7c0-0.3,0.3-0.6,0.7-0.6
			C-915,530.3-914.7,530.6-914.7,530.9z"/>
		<path class="st0" d="M-910.4,535.3c0,0.3-0.3,0.6-0.6,0.6c-0.3,0-0.7-0.3-0.6-0.7c0-0.3,0.3-0.6,0.6-0.6
			C-910.7,534.6-910.4,534.9-910.4,535.3z"/>
		<path class="st0" d="M-909.2,544.3c0,0.3-0.3,0.6-0.6,0.7c-0.3,0-0.7-0.3-0.7-0.7c0-0.3,0.3-0.6,0.6-0.6
			C-909.5,543.7-909.2,544-909.2,544.3z"/>
		<path class="st0" d="M-910.4,547.2c0,0.4-0.3,0.7-0.7,0.6c-0.3,0-0.6-0.3-0.6-0.7c0-0.4,0.3-0.6,0.6-0.6
			C-910.6,546.6-910.4,546.9-910.4,547.2z"/>
		<path class="st0" d="M-914.7,551.6c0,0.4-0.3,0.6-0.7,0.6c-0.3,0-0.6-0.3-0.6-0.7c0-0.4,0.3-0.6,0.6-0.6
			C-915,551-914.7,551.3-914.7,551.6z"/>
		<path class="st0" d="M-933.5,538.1c0-0.4,0.2-0.6,0.6-0.6c0.3,0,0.6,0.3,0.7,0.6c0,0.4-0.3,0.7-0.6,0.7
			C-933.3,538.8-933.5,538.5-933.5,538.1z"/>
		<path class="st0" d="M-929.2,549.7c0,0.4-0.3,0.7-0.6,0.7c-0.3,0-0.6-0.3-0.6-0.6c0-0.4,0.3-0.6,0.6-0.6
			C-929.5,549.1-929.2,549.3-929.2,549.7z"/>
		<path class="st0" d="M-912.3,549.7c0,0.4-0.2,0.6-0.6,0.6c-0.4,0-0.7-0.2-0.6-0.6c0-0.3,0.3-0.6,0.6-0.6
			C-912.5,549.1-912.3,549.3-912.3,549.7z"/>
		<path class="st0" d="M-929.2,532.8c0,0.3-0.3,0.6-0.6,0.6c-0.4,0-0.6-0.3-0.6-0.7c0-0.4,0.3-0.6,0.7-0.6
			C-929.4,532.2-929.2,532.4-929.2,532.8z"/>
		<path class="st0" d="M-909.2,538.1c0,0.4-0.3,0.6-0.6,0.6c-0.3,0-0.6-0.3-0.7-0.6c0-0.4,0.3-0.7,0.6-0.7
			C-909.5,537.5-909.2,537.8-909.2,538.1z"/>
		<path class="st0" d="M-918.3,529.1c0.4,0,0.6,0.3,0.6,0.6c0,0.3-0.3,0.6-0.7,0.6c-0.3,0-0.6-0.3-0.6-0.7
			C-918.9,529.3-918.6,529.1-918.3,529.1z"/>
		<path class="st0" d="M-912.9,533.4c-0.3,0-0.6-0.3-0.6-0.7c0-0.3,0.3-0.6,0.6-0.6c0.4,0,0.6,0.2,0.7,0.6
			C-912.3,533.1-912.5,533.4-912.9,533.4z"/>
	</g>
</g>
</svg>
