<?xml version="1.0" encoding="utf-8"?>
<!-- Generator: Adobe Illustrator 19.0.0, SVG Export Plug-In . SVG Version: 6.00 Build 0)  -->
<svg version="1.1" id="icons" xmlns="http://www.w3.org/2000/svg" xmlns:xlink="http://www.w3.org/1999/xlink" x="0px" y="0px"
	 viewBox="-940 524.5 37.2 33.5" style="enable-background:new -940 524.5 37.2 33.5;" xml:space="preserve">
<style type="text/css">
	.st0{fill:#0E67B1;}
</style>
<g>
	<path class="st0" d="M-910.6,552.5c0.3,0.8,0.6,1.5,0.8,2.2c0.1,0.2,0.2,0.4,0.2,0.6c0.1,0.6-0.2,1.1-0.9,1c-0.5,0-1-0.1-1.4-0.2
		c-0.3-0.1-0.5,0-0.7,0.2c-0.3,0.4-0.5,0.7-0.8,1c-0.5,0.6-1.2,0.5-1.5-0.2c-0.4-1.1-0.8-2.2-1.3-3.3c0-0.1-0.1-0.1-0.2-0.3
		c-0.2,0.5-0.3,0.9-0.5,1.2c-0.3,0.8-0.6,1.5-0.9,2.3c-0.3,0.8-1.1,0.9-1.6,0.2c-0.3-0.3-0.5-0.6-0.8-1c-0.2-0.3-0.4-0.3-0.7-0.2
		c-0.4,0.1-0.9,0.2-1.4,0.2c-0.8,0.1-1.2-0.5-0.9-1.2c0.3-0.7,0.6-1.5,0.8-2.2c0-0.1,0.1-0.3,0.1-0.5c-0.2,0-0.4,0-0.5,0
		c-4.9,0-9.7,0-14.6,0c-1.2,0-2-0.8-2-2c0-7.6,0-15.3,0-22.9c0-1.2,0.7-2,1.9-2c10.6,0,21.2,0,31.8,0c1.2,0,1.9,0.7,1.9,1.9
		c0,7.7,0,15.3,0,23c0,1.2-0.8,2-2,2c-1.5-0.1-3.1,0-4.7,0C-910.2,552.5-910.4,552.5-910.6,552.5z M-922.6,547.2
		c-0.5-2.1-0.1-4,1.3-5.6c1.4-1.6,3.2-2.4,5.3-2.3c3.3,0.2,6.7,3.3,5.8,7.9c0.5,0,1,0,1.5,0c0-5.6,0-11.2,0-16.8
		c-8.4,0-16.7,0-25.1,0c0,5.6,0,11.2,0,16.8C-930.1,547.2-926.4,547.2-922.6,547.2z M-921.2,526.9c-5.3,0-10.5,0-15.8,0
		c-0.7,0-0.8,0.1-0.8,0.8c0,7.6,0,15.2,0,22.8c0,0.6,0.1,0.7,0.7,0.7c2.5,0,5.1,0,7.6,0c2.5,0,5,0,7.5,0c0.2,0,0.4,0,0.5-0.1
		c0.2-0.3,0.3-0.7,0.4-1c0-0.2-0.2-0.4-0.3-0.6c-0.1-0.2-0.3-0.4-0.4-0.6c-0.1-0.3-0.4-0.4-0.7-0.4c-3.9,0-7.8,0-11.8,0
		c-0.7,0-0.8,0-0.8-0.8c0-5.9,0-11.9,0-17.8c0-0.7,0.1-0.8,0.8-0.8c8.8,0,17.5,0,26.3,0c0.6,0,0.7,0.1,0.7,0.7c0,2.4,0,4.7,0,7.1
		c0,3.6,0,7.3,0,10.9c0,0.6-0.1,0.7-0.7,0.7c-0.6,0-1.3,0-1.9,0c-0.5,0-0.8,0.2-1.1,0.6c-0.5,0.6-0.5,1.1-0.2,1.7
		c0.1,0.3,0.3,0.4,0.6,0.4c1.8,0,3.5,0,5.3,0c0.6,0,0.7-0.1,0.7-0.7c0-7.6,0-15.2,0-22.9c0-0.6-0.1-0.7-0.8-0.7
		C-910.7,526.9-916,526.9-921.2,526.9z M-911.3,545.6c0-2.8-2.3-5.1-5.1-5.1c-2.7,0-5,2.3-5.1,5c0,2.8,2.3,5.1,5.1,5.1
		C-913.6,550.7-911.3,548.4-911.3,545.6z M-913.9,556.1c0.6-1.3,1.6-1.6,2.9-1.1c-0.6-1.5-1.1-2.9-1.6-4.2c-1,0.4-1.9,0.8-2.9,1.2
		C-915,553.3-914.5,554.6-913.9,556.1z M-917.1,552.1c-1-0.4-2-0.7-2.9-1.1c-0.5,1.3-1,2.6-1.5,4c1.3-0.5,2.3-0.2,2.9,1.1
		C-918.1,554.7-917.6,553.3-917.1,552.1z"/>
	<path class="st0" d="M-923.9,532.9c2,0,9.2,0,11.2,0c0.3,0,0.6,0.1,0.7,0.4c0.2,0.4-0.1,0.9-0.6,0.9c-0.9,0-6.9,0-7.8,0
		c-3.1,0-6.1,0-9.2,0c-0.7,0-1-0.2-1-0.6c0-0.4,0.3-0.6,1.1-0.6C-927.8,532.9-925.8,532.9-923.9,532.9
		C-923.9,532.9-923.9,532.9-923.9,532.9z"/>
	<path class="st0" d="M-926.6,535.7c1.1,0,8.3,0,9.4,0c0.5,0,0.8,0.2,0.8,0.6c0,0.4-0.3,0.7-0.8,0.7c-2.3,0-10.6,0-12.8,0
		c-0.5,0-0.8-0.3-0.7-0.7c0-0.4,0.3-0.6,0.7-0.6C-928.8,535.7-927.7,535.7-926.6,535.7z"/>
	<path class="st0" d="M-923.2,538.6c0.5,0,0.8,0.2,0.8,0.6c0,0.4-0.3,0.7-0.8,0.7c-2.3,0-4.5,0-6.8,0c-0.5,0-0.8-0.3-0.7-0.7
		c0-0.4,0.3-0.6,0.7-0.6"/>
	<path class="st0" d="M-924.9,541.5c0.5,0,0.8,0.2,0.8,0.6c0,0.4-0.3,0.7-0.8,0.7c-2.3,0-2.8,0-5.1,0c-0.5,0-0.8-0.3-0.7-0.7
		c0-0.4,0.3-0.6,0.7-0.6"/>
	<path class="st0" d="M-924.9,544.3c0.5,0,0.8,0.2,0.8,0.6c0,0.4-0.3,0.7-0.8,0.7c-2.3,0-2.8,0-5.1,0c-0.5,0-0.8-0.3-0.7-0.7
		c0-0.4,0.3-0.6,0.7-0.6"/>
	<path class="st0" d="M-913.6,545.7c0,1.6-1.3,2.8-2.9,2.8c-1.6,0-2.8-1.3-2.8-2.9c0-1.5,1.3-2.8,2.9-2.8
		C-914.8,542.8-913.6,544.1-913.6,545.7z M-914.9,545.7c0-0.9-0.7-1.6-1.6-1.6c-0.8,0-1.6,0.7-1.6,1.6c0,0.9,0.7,1.6,1.6,1.6
		C-915.6,547.2-914.9,546.5-914.9,545.7z"/>
</g>
</svg>
