<?xml version="1.0" encoding="utf-8"?>
<!-- Generator: Adobe Illustrator 19.0.0, SVG Export Plug-In . SVG Version: 6.00 Build 0)  -->
<svg version="1.1" id="icons" xmlns="http://www.w3.org/2000/svg" xmlns:xlink="http://www.w3.org/1999/xlink" x="0px" y="0px"
	 viewBox="-940 524.5 37.2 33.5" style="enable-background:new -940 524.5 37.2 33.5;" xml:space="preserve">
<style type="text/css">
	.st0{fill:#0E67B1;}
	.st1{font-family:'OpenSans-Bold';}
	.st2{font-size:7.9062px;}
</style>
<path class="st0" d="M-922,525.2c0.8,0,1.5,0,2.3,0c0.1,0,0.2,0.1,0.3,0.1c0.5,0.1,1.1,0.1,1.6,0.2c4.2,0.9,7.7,3,10.2,6.5
	c1.6,2.2,2.6,4.6,3,7.3c0.1,0.5,0.1,0.9,0.2,1.4c0,0.6,0,1.2,0,1.8c0,0.4-0.1,0.8-0.1,1.2c-0.6,4.1-2.5,7.6-5.6,10.3
	c-2.3,2-5.1,3.3-8.1,3.7c-0.5,0.1-0.9,0.1-1.4,0.2c-0.7,0-1.5,0-2.2,0c-0.5-0.1-1-0.1-1.5-0.2c-4.3-0.8-7.9-2.9-10.5-6.5
	c-1.6-2.2-2.7-4.7-3.1-7.4c-0.1-0.5-0.1-0.9-0.2-1.4c0-0.6,0-1.2,0-1.8c0-0.4,0.1-0.8,0.1-1.2c0.4-3.3,1.8-6.2,4-8.7
	c2.6-3,5.9-4.8,9.8-5.4C-922.9,525.4-922.5,525.3-922,525.2z M-920.9,545.7c3.6,0,7.1,0,10.7,0c0.7,0,1.1-0.4,1.1-1.1c0-2,0-4,0-6
	c0-0.8-0.3-1.1-1.1-1.1c-7.1,0-14.2,0-21.3,0c-0.8,0-1.1,0.3-1.1,1.1c0,2,0,3.9,0,5.9c0,0.9,0.3,1.2,1.2,1.2
	C-928,545.7-924.4,545.7-920.9,545.7z M-927.6,533.8c2.1,0.5,4.1,0.8,6.2,0.8c0-2.8,0-5.6,0-8.3c-0.1,0-0.3,0-0.4,0.1
	c-0.9,0.2-1.6,0.6-2.2,1.2c-1.2,1.1-2,2.4-2.6,3.8C-927,532.2-927.3,533-927.6,533.8z M-921.4,548.6c-2.1,0-4.1,0.3-6.1,0.8
	c0,0.1,0,0.1,0,0.1c0.6,2,1.4,3.8,2.7,5.4c0.7,0.8,1.4,1.4,2.4,1.8c0.3,0.1,0.6,0.2,1,0.3C-921.4,554.1-921.4,551.4-921.4,548.6z
	 M-920.4,534.6c2.1-0.1,4.1-0.3,6.1-0.8c-0.6-2.1-1.5-4-2.9-5.6c-0.7-0.8-1.5-1.4-2.4-1.7c-0.3-0.1-0.5-0.1-0.8-0.2
	C-920.4,529.1-920.4,531.8-920.4,534.6z M-920.4,556.9c0.2,0,0.3,0,0.4-0.1c1.1-0.3,2-0.9,2.7-1.7c1.3-1.4,2.1-3,2.7-4.8
	c0.1-0.3,0.2-0.6,0.3-1c-2-0.5-4.1-0.8-6.1-0.8C-920.4,551.4-920.4,554.1-920.4,556.9z M-928.8,534.5c-0.8-0.3-1.6-0.6-2.3-0.9
	c-0.7-0.3-1.5-0.7-2.2-1.1c-1.6,1.9-3.3,6.8-2.9,8.6c0.8,0,1.7,0,2.5,0c0-0.8,0-1.6,0-2.3c0-1.4,0.9-2.3,2.3-2.3c0.7,0,1.5,0,2.2,0
	C-929.1,535.8-928.9,535.2-928.8,534.5z M-913,534.5c0.1,0.7,0.3,1.3,0.4,2c0.8,0,1.6,0,2.4,0c1.2,0,2.1,0.9,2.1,2.1
	c0,0.7,0,1.5,0,2.2c0,0.1,0,0.2,0,0.3c0.9,0,1.7,0,2.6,0c-0.1-3.2-1.1-6.1-3-8.6C-909.9,533.4-911.4,534-913,534.5z M-913,548.7
	c1.6,0.5,3.1,1.1,4.5,2c1.7-2,3.4-7,2.9-8.6c-0.8,0-1.7,0-2.5,0c0,0.8,0,1.6,0,2.4c0,1.2-0.9,2.2-2.2,2.2c-0.7,0-1.4,0-2,0
	c-0.1,0-0.3,0.1-0.3,0.2C-912.7,547.5-912.9,548.1-913,548.7z M-929.2,546.7c-0.8,0-1.6,0-2.4,0c-1.1,0-2.1-1-2.1-2.1
	c0-0.7,0-1.4,0-2.1c0-0.1,0-0.2,0-0.3c-0.9,0-1.7,0-2.6,0c0.1,3.2,1.1,6.1,3,8.6c1.4-0.9,2.9-1.6,4.5-2.1
	C-928.9,548-929.1,547.4-929.2,546.7z M-917.2,526.7c1,0.9,1.8,2,2.4,3.2c0.6,1.2,1.1,2.4,1.6,3.6c1.2-0.3,3.5-1.4,4-1.9
	C-911.3,529.2-914,527.5-917.2,526.7z M-924.6,556.5c-2-1.9-3.1-4.3-3.9-6.8c-1.5,0.5-2.8,1-4.1,1.9
	C-930.4,554.1-927.8,555.7-924.6,556.5z M-913.2,549.7c-0.6,1.2-1.1,2.5-1.6,3.6c-0.6,1.2-1.4,2.2-2.4,3.2c3.2-0.8,5.9-2.4,8-5
	C-910.5,550.7-911.8,550.1-913.2,549.7z M-924.6,526.7c-3.2,0.8-5.9,2.4-8,5c1.3,0.8,2.7,1.4,4.1,1.9
	C-927.7,531-926.6,528.6-924.6,526.7z M-928.2,536.5c2.3,0,4.5,0,6.8,0c0-0.3,0-0.5,0-0.8c-1.1-0.1-2.1-0.2-3.2-0.3
	c-1.1-0.1-2.1-0.4-3.2-0.6C-927.9,535.4-928.1,535.9-928.2,536.5z M-914,534.8c-1.1,0.2-2.1,0.4-3.2,0.6c-1.1,0.1-2.1,0.2-3.2,0.3
	c0,0.3,0,0.5,0,0.8c2.3,0,4.5,0,6.8,0C-913.7,535.9-913.8,535.4-914,534.8z M-928.2,546.7c0.1,0.6,0.2,1.1,0.4,1.7
	c2.1-0.6,4.3-0.8,6.4-0.9c0-0.3,0-0.6,0-0.8C-923.7,546.7-925.9,546.7-928.2,546.7z M-913.6,546.7c-2.3,0-4.5,0-6.8,0
	c0,0.3,0,0.5,0,0.8c2.2,0.1,4.3,0.3,6.4,0.9C-913.8,547.9-913.7,547.3-913.6,546.7z"/>
<text transform="matrix(1 0 0 1 -931.2247 544.244)" class="st0 st1 st2">www</text>
</svg>
