<?xml version="1.0" encoding="utf-8"?>
<!-- Generator: Adobe Illustrator 19.0.0, SVG Export Plug-In . SVG Version: 6.00 Build 0)  -->
<svg version="1.1" id="icons" xmlns="http://www.w3.org/2000/svg" xmlns:xlink="http://www.w3.org/1999/xlink" x="0px" y="0px"
	 viewBox="-286 380.5 37.2 33.5" style="enable-background:new -286 380.5 37.2 33.5;" xml:space="preserve">
<style type="text/css">
	.st0{fill:#0E67B1;}
	.st1{fill:none;}
	.st2{fill:#FFFFFF;stroke:#0E67B1;stroke-width:1.3812;stroke-miterlimit:10;}
</style>
<path class="st0" d="M-260.9,412.2c-8,0-16.1,0-24.1,0c-0.7,0-0.8-0.2-0.8-0.8c0-8.7,0-17.5,0-26.2c0-0.7,0.1-0.9,0.9-0.9
	c1.3,0,2.5,0,3.9,0c0-0.8,0-1.5,0-2.2c0-0.8,0.1-0.9,0.9-0.9c1.4,0,2.7,0,4.1,0c0.7,0,0.9,0.2,0.9,0.9c0,0.8,0,1.5,0,2.3
	c3.3,0,6.5,0,9.8,0c0-0.1,0-0.3,0-0.4c0-0.7,0-1.4,0-2.1c0-0.5,0.2-0.7,0.7-0.7c1.5,0,3,0,4.5,0c0.4,0,0.7,0.2,0.7,0.7
	c0,0.7,0,1.4,0,2c0,0.1,0,0.3,0,0.4c0.7,0,1.4,0,2,0c0.6,0,1.3,0,1.9,0c0.6,0,0.8,0.2,0.8,0.8c0,3.6,0,7.3,0,10.9v16.2H-260.9z
	 M-256,410c0-1.4,0-16.8,0-18.2c-9.6,0-19.1,0-28.7,0c0,6.4,0,12.8,0,19.3c7.4,0,21.2,0,28.7,0V410z M-284.7,390.6
	c9.6,0,19.1,0,28.7,0c0-1.7,0-3.4,0-5.1c-1.2,0-2.3,0-3.5,0c0,0.1,0,0.3,0,0.4c0,0.7,0,1.4,0,2c0,0.4-0.2,0.7-0.6,0.7
	c-1.6,0-3.1,0-4.7,0c-0.4,0-0.6-0.2-0.6-0.7c0-0.7,0-1.4,0-2.1c0-0.1,0-0.3,0-0.4c-3.3,0-6.6,0-9.8,0c0,0.2,0,0.3,0,0.4
	c0,0.7,0,1.3,0,2c0,0.5-0.2,0.7-0.6,0.7c-1.6,0-3.1,0-4.7,0c-0.4,0-0.6-0.2-0.6-0.7c0-0.6,0-1.3,0-1.9c0-0.2,0-0.4,0-0.5
	c-1.2,0-2.4,0-3.5,0C-284.7,387.2-284.7,388.9-284.7,390.6z M-276.4,384.9c0-0.7,0-1.5,0-2.2c0-0.3-0.1-0.3-0.3-0.3
	c-1,0-1.9,0-2.9,0c-0.2,0-0.4,0.1-0.4,0.3c0,1.5,0,3,0,4.5c0,0.2,0.1,0.3,0.3,0.3c1,0,2,0,2.9,0c0.3,0,0.3-0.1,0.3-0.3
	C-276.4,386.4-276.4,385.7-276.4,384.9z M-264.2,387.5c1.2,0,2.4,0,3.5,0c0-1.7,0-3.4,0-5.1c-0.1,0-0.2,0-0.3,0c-0.9,0-1.9,0-2.8,0
	c-0.3,0-0.4,0.1-0.4,0.4c0,1.5,0,2.9,0,4.4C-264.3,387.2-264.2,387.3-264.2,387.5z"/>
<g>
	<rect x="-277" y="404.8" class="st1" width="3.7" height="3.7"/>
	<rect x="-272.3" y="399.8" class="st1" width="3.7" height="4"/>
	<rect x="-267.6" y="394.5" class="st1" width="3.7" height="4.3"/>
	<rect x="-277" y="394.5" class="st1" width="3.7" height="4.3"/>
	<rect x="-272.3" y="394.5" class="st1" width="3.7" height="4.3"/>
	<path class="st1" d="M-262.9,398.8h3.3V395c0-0.3-0.2-0.5-0.5-0.5h-2.8V398.8z"/>
	<rect x="-281.1" y="399.8" class="st1" width="3.1" height="4"/>
	<rect x="-277" y="399.8" class="st1" width="3.7" height="4"/>
	<rect x="-267.6" y="404.8" class="st1" width="3.7" height="3.7"/>
	<path class="st1" d="M-262.9,404.8v3.7h2.8c0.3,0,0.5-0.2,0.5-0.5v-3.3H-262.9z"/>
	<path class="st1" d="M-278,404.8h-3.1v3.3c0,0.3,0.2,0.5,0.5,0.5h2.6V404.8z"/>
	<rect x="-267.6" y="399.8" class="st1" width="3.7" height="4"/>
	<path class="st1" d="M-278,398.8v-4.3h-2.6c-0.3,0-0.5,0.2-0.5,0.5v3.8H-278z"/>
	<rect x="-272.3" y="404.8" class="st1" width="3.7" height="3.7"/>
	<rect x="-262.9" y="399.8" class="st1" width="3.3" height="4"/>
	<path class="st0" d="M-260.1,393.5h-20.4c-0.8,0-1.5,0.7-1.5,1.5v13c0,0.8,0.7,1.5,1.5,1.5h20.4c0.8,0,1.5-0.7,1.5-1.5v-13
		C-258.7,394.2-259.3,393.5-260.1,393.5z M-259.6,395v3.8h-3.3v-4.3h2.8C-259.9,394.5-259.6,394.8-259.6,395z M-277,399.8h3.7v4
		h-3.7V399.8z M-278,403.8h-3.1v-4h3.1V403.8z M-268.6,398.8h-3.7v-4.3h3.7V398.8z M-267.6,394.5h3.7v4.3h-3.7V394.5z M-268.6,399.8
		v4h-3.7v-4H-268.6z M-273.3,398.8h-3.7v-4.3h3.7V398.8z M-273.3,404.8v3.7h-3.7v-3.7H-273.3z M-272.3,404.8h3.7v3.7h-3.7V404.8z
		 M-267.6,404.8h3.7v3.7h-3.7V404.8z M-267.6,403.8v-4h3.7v4H-267.6z M-262.9,399.8h3.3v4h-3.3V399.8z M-280.6,394.5h2.6v4.3h-3.1
		V395C-281.1,394.8-280.8,394.5-280.6,394.5z M-281.1,408v-3.3h3.1v3.7h-2.6C-280.8,408.5-281.1,408.3-281.1,408z M-260.1,408.5
		h-2.8v-3.7h3.3v3.3C-259.6,408.3-259.9,408.5-260.1,408.5z"/>
</g>
<circle class="st2" cx="-257.3" cy="404.4" r="7.7"/>
<path class="st0" d="M-257.7,402.4c0-0.6,0-1.1,0-1.7c0-0.4,0.2-0.7,0.6-0.7c0.3,0,0.6,0.3,0.6,0.7c0,1,0,2.1,0,3.1
	c0,0.2,0,0.4,0.3,0.6c0.5,0.4,0.6,1.1,0.2,1.6c-0.4,0.5-1.1,0.6-1.6,0.3c-0.2-0.1-0.4-0.2-0.5-0.2c-0.9,0-1.7,0-2.6,0
	c-0.2,0-0.5-0.1-0.6-0.3c-0.3-0.4,0-0.8,0.5-0.8c0.8,0,1.6,0,2.4,0c0.4,0,0.8-0.3,0.8-0.8C-257.7,403.6-257.7,403-257.7,402.4
	C-257.7,402.4-257.7,402.4-257.7,402.4z"/>
</svg>
