<?xml version="1.0" encoding="utf-8"?>
<!-- Generator: Adobe Illustrator 19.0.0, SVG Export Plug-In . SVG Version: 6.00 Build 0)  -->
<svg version="1.1" id="icons" xmlns="http://www.w3.org/2000/svg" xmlns:xlink="http://www.w3.org/1999/xlink" x="0px" y="0px"
	 viewBox="-286 380.5 37.2 33.5" style="enable-background:new -286 380.5 37.2 33.5;" xml:space="preserve">
<style type="text/css">
	.st0{fill:#0E67B1;stroke:#0E67B1;stroke-width:0.6202;stroke-miterlimit:10;}
	.st1{fill:none;stroke:#0E67B1;stroke-width:1.0337;stroke-miterlimit:10;}
	.st2{fill:#FFFFFF;}
	.st3{fill:#0E67B1;}
</style>
<g id="XMLID_2_">
	<g id="XMLID_8_">
		<g id="XMLID_10_">
			<g id="XMLID_11_">
				<path id="XMLID_12_" class="st0" d="M-268,413.5c-3.4,0-6.7-0.4-9.9-1.5c-1.2-0.4-2.3-1-3.4-1.7c-0.9-0.6-1.1-1.3-0.9-2.4
					c0.4-2.2,1.7-3.9,3.4-5.3c1.9-1.5,4.1-2.5,6.5-3.1c0.6-0.1,1-0.1,1.5,0.2c1.6,1,3.3,0.9,5,0.3c0.5-0.2,1-0.4,1.6-0.6
					c0.1,0,0.2-0.1,0.3,0c2.2,0.6,4.4,1.4,6.2,2.8c1.8,1.3,3.2,3,3.7,5.2c0.1,0.3,0.1,0.5,0.2,0.8c0.1,0.9-0.1,1.6-0.9,2.1
					c-1.9,1.3-4.1,2-6.3,2.5C-263.4,413.3-265.7,413.5-268,413.5z M-274.1,400.4c-1.5,0.6-2.9,1.3-4.2,2.3c-1.9,1.5-3.2,3.3-3.5,5.7
					c-0.1,0.7,0.1,1.3,0.7,1.6c1,0.6,2,1.1,3,1.5c2.9,1.1,6,1.5,9.1,1.6c3.2,0.1,6.3-0.2,9.4-1c1.7-0.5,3.3-1.1,4.7-2.1
					c0.6-0.4,0.9-1,0.8-1.7c-0.1-0.8-0.4-1.6-0.8-2.4c-1-1.8-2.4-3.2-4.2-4.2c-0.9-0.5-1.8-0.9-2.7-1.4c-2.1,3.5-5,10.5-6.2,10.4
					C-269.2,410.7-272.1,403.8-274.1,400.4z M-269.6,407.3C-269.6,407.3-269.6,407.3-269.6,407.3c0.1-0.1,0.1-0.1,0.1-0.1
					c0.1-1.3,0.2-2.5,0.3-3.8c0-0.3,0.1-0.6,0-0.9c-0.2-0.6-0.5-1.2-0.7-1.8c-0.1-0.2-1.4-1-1.7-0.9c-0.7,0.2-1.4,0.3-2.1,0.5
					C-272.4,402.7-271,405-269.6,407.3z M-262.2,400.3c-0.1,0-0.2-0.1-0.2-0.1c-0.5-0.2-1.1-0.4-1.6-0.4c-0.5,0-1,0.4-1.5,0.6
					c-0.2,0.1-0.3,0.2-0.4,0.4c-0.3,0.5-0.5,1.1-0.7,1.6c-0.1,0.2-0.1,0.4-0.1,0.6c0,0.8,0.1,1.5,0.2,2.3c0.1,0.7,0.1,1.3,0.2,2
					c0,0,0,0,0.1,0C-265,404.9-263.6,402.6-262.2,400.3z M-267.1,403c-0.6,0-1.2,0-1.8,0c-0.1,1.4-0.2,2.8-0.3,4.2
					c-0.1,0.6,0,1.1,0.3,1.6c0.3,0.4,0.4,1.4,0.8,1.3s0.8-1.4,1.2-2c0.1-0.1,0.1-0.2,0.1-0.3c0-0.7-0.1-1.4-0.2-2.1
					C-267,404.7-267,403.8-267.1,403z M-266.4,400.7c-1.1,0-2.1,0-3.2,0c0.2,0.5,0.4,1.1,0.6,1.6c0.1,0.3,0.5,0.3,0.8,0.3
					c0.4,0,0.9,0,1.1-0.3C-266.8,401.9-266.6,401.2-266.4,400.7z"/>
			</g>
		</g>
		<circle id="XMLID_9_" class="st1" cx="-268" cy="391.9" r="7.2"/>
	</g>
	<g id="XMLID_3_">
		<path id="XMLID_7_" class="st2" d="M-258.3,386l-0.5-0.2c-3.1-1.4-6.2-2.8-9.3-4.2c0,0-0.1,0-0.2,0c-3.2,1.4-6.5,2.9-9.6,4.3
			l-0.4,0.2l2.1,1.1c2.5,1.3,4.9,2.6,7.4,3.9c0.4,0.2,0.8,0.2,1.2,0c1.5-0.8,3-1.5,4.5-2.3c1.5-0.8,3-1.6,4.6-2.3l0.3-0.2
			C-258.2,386.1-258.2,386.1-258.3,386C-258.2,386-258.2,386-258.3,386z"/>
		<path id="XMLID_4_" class="st3" d="M-257.6,385.2c-2.5-1.1-7.5-3.4-10.3-4.6c-0.2-0.1-0.5-0.1-0.7,0c-3.1,1.4-8.7,3.9-10.6,4.8
			c-0.2,0.1-0.4,0.3-0.4,0.6c0,0.3,0.1,0.5,0.4,0.6c0.4,0.2,0.8,0.4,1.2,0.6c0,1.3,0,3.6,0,4.6c0,0.1,0,0.1,0,0.1
			c-0.4,0.4-0.4,0.6,0,1.1c-0.2,0.3-0.4,0.6-0.5,0.9c-0.2,0.3,0,0.5,0.3,0.5c0.4,0,0.8,0,1.2,0c0.4,0,0.5-0.2,0.3-0.6
			c-0.2-0.3-0.3-0.5-0.5-0.8c-0.1-0.1,0-0.1,0-0.2c0.3-0.3,0.2-0.6,0-0.9c-0.1-0.1-0.1-0.2-0.1-0.3c0-0.9,0-3.2,0-4.2l0.6,0.3
			l5.1,2.7c0.3,0.1,0.6,0.3,0.8,0.4c0.7,0.4,1.5,0.8,2.3,1.2c0.2,0.1,0.3,0.1,0.5,0.1c0.2,0,0.3,0,0.5-0.1c1.5-0.8,3-1.5,4.4-2.3
			l1.2-0.6c0.1,0,0.1-0.1,0.2-0.1l0.5-0.3c1.1-0.6,2.8-1.5,3.8-2.1c0.3-0.2,0.5-0.5,0.4-0.8C-257.1,385.6-257.3,385.3-257.6,385.2z
			 M-258.3,386.1l-0.3,0.2c-1.5,0.8-3,1.6-4.6,2.3c-1.5,0.8-3,1.5-4.5,2.3c-0.4,0.2-0.8,0.2-1.2,0c-2.5-1.3-4.9-2.6-7.4-3.9
			l-2.1-1.1l0.4-0.2c3.1-1.4,6.4-2.9,9.6-4.3c0.1,0,0.2,0,0.2,0c3.1,1.4,6.3,2.8,9.3,4.2l0.5,0.2C-258.2,386-258.2,386-258.3,386.1
			C-258.2,386.1-258.2,386.1-258.3,386.1z"/>
	</g>
</g>
</svg>
