<?xml version="1.0" encoding="utf-8"?>
<!-- Generator: Adobe Illustrator 19.0.0, SVG Export Plug-In . SVG Version: 6.00 Build 0)  -->
<svg version="1.1" id="icons" xmlns="http://www.w3.org/2000/svg" xmlns:xlink="http://www.w3.org/1999/xlink" x="0px" y="0px"
	 viewBox="-286 380.5 37.2 33.5" style="enable-background:new -286 380.5 37.2 33.5;" xml:space="preserve">
<style type="text/css">
	.st0{fill:#0E67B1;stroke:#0E67B1;stroke-width:0.3707;stroke-miterlimit:10;}
</style>
<g id="XMLID_43_">
	<path id="XMLID_52_" class="st0" d="M-265.1,381c1.1,0.2,1.4,0.4,2,0.7c2.9,1.4,4.4,3.8,4.4,7c0,3.6-3,6.8-6.6,7.3
		c-4.1,0.5-7.8-2.4-8.4-6.5c-0.5-3.9,2.2-7.7,6.1-8.4C-267.4,381.1-266.4,380.9-265.1,381z M-260,388.5c0-3.5-2.7-6.2-6.2-6.2
		c-3.5,0-6.2,2.7-6.1,6.3c0,3.5,2.7,6.1,6.3,6.1C-262.7,394.6-260,391.9-260,388.5z"/>
	<path id="XMLID_51_" class="st0" d="M-278.3,389.2c0.9,0,1.7,0,2.6,0c0.5,0,0.7,0.3,0.7,0.7c0,0.4-0.3,0.6-0.7,0.6
		c-0.7,0-1.4,0-2.2,0c-0.1,0-0.2,0-0.4,0c0.8,3.7,1.7,7.3,2.5,11c1-0.1,2.1-0.2,3.1-0.3c2.1-0.2,4.2-0.4,6.2-0.7
		c2.2-0.2,4.5-0.5,6.7-0.7c0.9-0.1,1.8-0.2,2.8-0.3c0.3,0,0.4-0.2,0.5-0.4c0.7-2.4,1.3-4.8,2-7.2c0.1-0.4,0.2-0.8,0.3-1.3
		c-0.8,0-1.6,0-2.4,0c-0.4,0-0.6-0.2-0.7-0.5c-0.1-0.5,0.2-0.8,0.7-0.8c0.8,0,1.7,0,2.5,0c0.2,0,0.3-0.1,0.3-0.3
		c0.1-0.4,0.2-0.9,0.4-1.3c0.1-0.4,0.5-0.7,0.9-0.6c0.4,0.1,0.6,0.5,0.4,0.9c-1,3.7-2,7.4-3,11.2c-0.3,1.1-0.9,1.6-2.1,1.7
		c-1.9,0.2-3.9,0.4-5.8,0.6c-2.1,0.2-4.2,0.4-6.2,0.7c-2.1,0.2-4.2,0.5-6.3,0.7c-0.2,0-0.3,0.1-0.3,0.3c-0.2,0.6-0.3,1.2-0.5,1.8
		c-0.1,0.4,0,0.5,0.4,0.5c4.3,0,8.6,0,12.9,0c2.1,0,4.2,0,6.3,0c0.3,0,0.6,0.1,0.7,0.4c0.1,0.3,0.1,0.5-0.1,0.7
		c-0.2,0.1-0.4,0.2-0.6,0.2c-2.5,0-5.1,0-7.6,0c-3.7,0-7.5,0-11.2,0c-0.3,0-0.7,0-1-0.1c-0.8-0.3-1.3-1.1-1-2
		c0.2-0.7,0.4-1.4,0.6-2.1c0.1-0.2,0.1-0.5,0-0.7c-0.9-3.9-1.8-7.8-2.7-11.8c0-0.2,0-0.3,0-0.5c0.2-0.9,0.4-1.7,0.6-2.6
		c0.1-0.4,0-0.5-0.4-0.5c-1.3,0-2.6,0-3.9,0c-0.5,0-0.8-0.3-0.8-0.7c0-0.3,0.3-0.6,0.6-0.6c1.4,0,2.8,0,4.2,0c0.8,0,1.3,0.5,1.6,1.2
		c0.1,0.2,0.1,0.5,0,0.7C-278,387.8-278.2,388.4-278.3,389.2z"/>
	<path id="XMLID_48_" class="st0" d="M-258.8,413.5c-1.4,0-2.7-1.3-2.7-2.7c0-1.4,1.3-2.7,2.7-2.7c1.4,0,2.8,1.3,2.8,2.7
		C-256.1,412.2-257.4,413.5-258.8,413.5z M-258.8,409.4c-0.9,0-1.4,0.5-1.4,1.4c0,0.9,0.5,1.4,1.4,1.4c0.8,0,1.4-0.5,1.4-1.4
		C-257.4,409.9-257.9,409.4-258.8,409.4z"/>
	<path id="XMLID_45_" class="st0" d="M-272.3,410.8c0,1.4-1.3,2.7-2.7,2.7c-1.4,0-2.8-1.3-2.8-2.7c0-1.4,1.3-2.7,2.7-2.7
		C-273.6,408.1-272.3,409.4-272.3,410.8z M-276.4,410.8c0,0.8,0.5,1.4,1.4,1.4c0.9,0,1.4-0.5,1.4-1.4c0-0.8-0.5-1.3-1.4-1.3
		C-275.9,409.4-276.4,409.9-276.4,410.8z"/>
	<path id="XMLID_44_" class="st0" d="M-267.4,390.2c0.1-0.2,0.2-0.3,0.3-0.4c1-1.3,2.1-2.5,3.1-3.8c0.2-0.2,0.4-0.4,0.7-0.4
		c0.6,0.1,0.7,0.7,0.4,1.2c-0.8,1-1.6,1.9-2.4,2.9c-0.5,0.6-1,1.2-1.5,1.8c-0.4,0.5-0.8,0.5-1.2,0c-0.7-0.7-1.3-1.4-2-2.2
		c-0.3-0.3-0.3-0.8,0-1c0.3-0.3,0.7-0.2,1,0.1c0.4,0.5,0.9,0.9,1.3,1.4C-267.5,390-267.5,390.1-267.4,390.2z"/>
</g>
</svg>
