<?xml version="1.0" encoding="utf-8"?>
<!-- Generator: Adobe Illustrator 19.0.0, SVG Export Plug-In . SVG Version: 6.00 Build 0)  -->
<svg version="1.1" id="icons" xmlns="http://www.w3.org/2000/svg" xmlns:xlink="http://www.w3.org/1999/xlink" x="0px" y="0px"
	 viewBox="-940 524.5 37.2 33.5" style="enable-background:new -940 524.5 37.2 33.5;" xml:space="preserve">
<style type="text/css">
	.st0{fill:#0E67B1;}
</style>
<path class="st0" d="M-904.8,539.1c-0.5,0.5-0.8,0.5-1.3,0c-0.2-0.2-0.4-0.4-0.6-0.6c0,0.2,0,0.3,0,0.5c0,4.5,0,9,0,13.5
	c0,0.5-0.2,0.7-0.5,0.8c-0.4,0.1-0.8-0.2-0.8-0.7c0-1.3,0-2.5,0-3.8c0-3.3,0-6.5,0-9.8c0-0.1,0-0.2,0-0.3c0,0-0.1,0-0.1,0
	c-0.2,0.2-0.4,0.5-0.7,0.7c-0.3,0.3-0.7,0.3-0.9,0.1c-0.3-0.3-0.2-0.6,0.1-0.9c0.6-0.6,1.2-1.2,1.8-1.8c0.3-0.3,0.7-0.3,0.9,0
	c0.6,0.6,1.3,1.3,1.9,1.9c0.1,0.1,0.1,0.2,0.2,0.3C-904.8,538.9-904.8,539-904.8,539.1z"/>
<path class="st0" d="M-911,543c0,3.6,0,7.1,0,10.7c0,0.7-0.2,0.8-0.8,0.8c-2,0-3.9,0-5.9,0c-0.6,0-0.8-0.2-0.8-0.8
	c0-7.2,0-14.3,0-21.5c0-0.6,0.2-0.8,0.8-0.8c2,0,3.9,0,5.9,0c0.6,0,0.8,0.2,0.8,0.8C-911,535.8-911,539.4-911,543z M-912.3,553.2
	c0-6.9,0-13.7,0-20.5c-1.7,0-3.3,0-4.9,0c0,6.9,0,13.7,0,20.5C-915.6,553.2-914,553.2-912.3,553.2z"/>
<path class="st0" d="M-927.3,546.1c0-2.5,0-5.1,0-7.6c0-0.6,0.2-0.8,0.8-0.8c2,0,3.9,0,5.9,0c0.5,0,0.8,0.2,0.8,0.7
	c0,5.1,0,10.2,0,15.3c0,0.6-0.2,0.8-0.8,0.8c-1.9,0-3.9,0-5.8,0c-0.8,0-0.9-0.2-0.9-0.9C-927.3,551.1-927.3,548.6-927.3,546.1z
	 M-926,538.9c0,4.8,0,9.5,0,14.3c1.7,0,3.3,0,4.9,0c0-4.8,0-9.5,0-14.3C-922.7,538.9-924.3,538.9-926,538.9z"/>
<path class="st0" d="M-936,549.5c0-1.4,0-2.8,0-4.2c0-0.5,0.2-0.8,0.8-0.8c2,0,4,0,6,0c0.5,0,0.8,0.2,0.8,0.8c0,2.8,0,5.6,0,8.5
	c0,0.5-0.2,0.7-0.7,0.7c-2,0-4,0-6,0c-0.5,0-0.7-0.2-0.7-0.7C-936,552.3-936,550.9-936,549.5z M-934.7,553.2c1.7,0,3.3,0,5,0
	c0-2.5,0-4.9,0-7.4c-1.7,0-3.3,0-5,0C-934.7,548.3-934.7,550.8-934.7,553.2z"/>
<path class="st0" d="M-907.3,555.8c-0.1,0-0.2,0-0.2,0c-9,0-18,0-27,0l0,0c-0.7,0-1.4,0-2.1,0c0,0,0,0,0,0c-0.2,0-0.4,0-0.6,0
	c0-0.2,0-0.3,0-0.5c0-9.1,0-18.1,0-27.2c0-0.4,0-0.8-0.4-1c-0.2-0.1-0.4,0-0.4,0c-0.4,0.2-0.4,0.5-0.4,0.9c0,9.1,0,16.9,0,25.9
	c0,0.1,0,2,0,2.4c0,0,0,0,0,0c0,0.4,0.2,0.6,0.6,0.7c0.1,0,2.2,0,2.3,0l0,0c0.1,0,0.2,0,0.2,0c8.7,0,16,0,24.7,0c1.1,0,2.2,0,3.3,0
	c0.4,0,0.6-0.3,0.6-0.6C-906.7,556-906.9,555.8-907.3,555.8z"/>
</svg>
