<?xml version="1.0" encoding="utf-8"?>
<!-- Generator: Adobe Illustrator 19.0.0, SVG Export Plug-In . SVG Version: 6.00 Build 0)  -->
<svg version="1.1" id="icons" xmlns="http://www.w3.org/2000/svg" xmlns:xlink="http://www.w3.org/1999/xlink" x="0px" y="0px"
	 viewBox="-286 380.5 37.2 33.5" style="enable-background:new -286 380.5 37.2 33.5;" xml:space="preserve">
<style type="text/css">
	.st0{fill:#0E67B1;}
</style>
<g id="XMLID_2_">
	<path id="XMLID_12_" class="st0" d="M-250.5,388.5c0.2,0.1,0.4,0.3,0.7,0.5c0,0.9,0,1.8,0,2.6c-0.2,0.3-0.5,0.4-0.9,0.4
		c-0.4,0-0.7,0-1.1,0c-0.3,0-0.4,0.1-0.4,0.4c0,6.6,0,13.1,0,19.7c0,0.7-0.2,0.9-0.9,0.9c-8.3,0-16.5,0-24.8,0c-1.3,0-2.5,0-3.8,0
		c-0.6,0-0.8-0.2-0.8-0.8c0-0.1,0-0.1,0-0.2c0-6.5,0-13,0-19.5c0-0.1,0-0.2,0-0.4c-0.6,0-1.1,0-1.6,0c-0.5,0-0.7-0.2-0.7-0.7
		c0-0.6,0-1.3,0-1.9c0-0.6,0-0.7,0.6-0.9c4.6-1.9,9.2-3.8,13.8-5.7c1-0.4,1.6-0.7,2.6-1.1c0,0,0.7-0.5,1.5,0.1 M-276.6,411.8
		c0-0.2,0-0.4,0-0.6c0-4.2,0-8.3,0-12.5c0-0.7,0.2-0.8,0.8-0.8c5.6,0,11.3,0,16.9,0c0.7,0,0.8,0.1,0.8,0.8c0,4.2,0,8.5,0,12.7
		c0,0.1,0,0.2,0,0.4c0.1,0,0.3,0,0.4,0c1.3,0,2.6,0,3.9,0c0.5,0,0.5,0,0.5-0.5c0-6.8,0-13.5,0-20.3c0-0.3-0.1-0.4-0.4-0.5
		c-4.5-1.8-8.9-3.6-13.4-5.3c-0.2-0.1-0.4-0.1-0.5,0c-4.5,1.8-8.9,3.6-13.4,5.3c-0.3,0.1-0.3,0.2-0.3,0.5c0,6.8,0,13.6,0,20.3
		c0,0.1,0,0.3,0,0.4C-279.7,411.8-278.2,411.8-276.6,411.8z M-259.2,411.8c0-0.1,0-0.2,0-0.4c0-4,0-8.1,0-12.1
		c0-0.3-0.1-0.4-0.4-0.4c-5.2,0-10.4,0-15.6,0c-0.3,0-0.4,0.1-0.4,0.4c0,4,0,8,0,12c0,0.1,0,0.3,0,0.4c0.2,0,0.5,0,0.7,0
		c0.5,0,0.5,0,0.5-0.5c0-3.1,0-6.2,0-9.3c0-0.5,0.2-0.7,0.7-0.7c1.5,0,3,0,4.4,0c0.4,0,0.6,0.2,0.7,0.7c0,0.6,0,1.3,0,1.9
		c0,0.9,0,0.9,0.9,0.9c1,0,2.1,0,3.1,0c0.5,0,0.6,0.2,0.7,0.6c0,0.8,0,1.7,0,2.5c0,0.3,0.1,0.3,0.3,0.3c0.8,0,1.6,0,2.4,0
		c0.6,0,0.8,0.2,0.8,0.8c0,0.8,0,1.5,0,2.3c0,0.1,0,0.2,0,0.4C-259.9,411.8-259.6,411.8-259.2,411.8z M-282.5,390.9
		c0-0.2,0-0.3,0-0.4c0-0.4,0.1-0.6,0.5-0.8c4.8-1.9,9.5-3.8,14.3-5.7c0.2-0.1,0.5-0.1,0.7,0c4.7,1.9,9.4,3.7,14.1,5.6
		c0.5,0.2,0.8,0.4,0.7,1c0,0.1,0.1,0.3,0.2,0.3c0.3,0,0.7,0,1,0c0-0.4,0-0.8,0-1.1c0-0.2-0.1-0.3-0.3-0.4
		c-5.2-2.2-10.5-4.3-15.7-6.5c-0.3-0.1-0.5-0.1-0.7,0c-3.4,1.4-6.7,2.8-10.1,4.2c-1.9,0.8-3.7,1.5-5.6,2.3c-0.1,0-0.3,0.2-0.3,0.2
		c0,0.4,0,0.8,0,1.3C-283.2,390.9-282.9,390.9-282.5,390.9z M-265,411.8c0-0.8,0-1.4,0-2.1c0-0.2-0.1-0.2-0.3-0.2c-1,0-2,0-3,0
		c-0.2,0-0.3,0.1-0.3,0.3c0,0.6,0,1.2,0,1.8c0,0.2,0.1,0.3,0.3,0.3c0.4,0,0.9,0,1.3,0C-266.3,411.8-265.7,411.8-265,411.8z
		 M-269.6,411.8c0-0.8,0-1.5,0-2.2c0-0.1-0.1-0.2-0.2-0.2c-1,0-2.1,0-3.1,0c-0.1,0-0.2,0.1-0.2,0.2c0,0.7,0,1.4,0,2.2
		c0.1,0,0.2,0,0.3,0C-271.8,411.8-270.7,411.8-269.6,411.8z M-266.8,408.4c0.5,0,1,0,1.5,0c0.2,0,0.3,0,0.3-0.3c0-0.6,0-1.2,0-1.9
		c0-0.2-0.1-0.3-0.3-0.3c-1,0-2,0-3,0c-0.2,0-0.3,0.1-0.3,0.3c0,0.6,0,1.2,0,1.8c0,0.3,0.1,0.3,0.3,0.3
		C-267.7,408.4-267.3,408.4-266.8,408.4z M-273.2,402.5c0,0.8,0,1.5,0,2.2c0,0.1,0.2,0.2,0.3,0.2c1,0,2,0,3,0c0.2,0,0.3-0.1,0.3-0.3
		c0-0.4,0-0.8,0-1.1c0-0.3,0.1-0.7-0.1-0.9c-0.2-0.2-0.6-0.1-0.9-0.1C-271.4,402.5-272.3,402.5-273.2,402.5z M-271.4,406
		c-0.5,0-1,0-1.5,0c-0.2,0-0.3,0-0.3,0.3c0,0.6,0,1.2,0,1.9c0,0.2,0,0.3,0.2,0.3c1,0,2.1,0,3.1,0c0.1,0,0.2-0.1,0.2-0.2
		c0-0.6,0-1.2,0-1.9c0-0.2-0.1-0.3-0.3-0.3C-270.4,406-270.9,406-271.4,406z M-261.5,411.8c0-0.8,0-1.4,0-2.1c0-0.2-0.1-0.2-0.2-0.2
		c-0.6,0-1.3,0-1.9,0c-0.1,0-0.2,0.1-0.2,0.2c0,0.6,0,1.3,0,1.9c0,0.1,0.1,0.2,0.2,0.2C-263,411.8-262.2,411.8-261.5,411.8z"/>
	<path id="XMLID_9_" class="st0" d="M-274.3,395.5c-0.6,0-1.1,0-1.7,0c-0.4,0-0.6-0.2-0.6-0.6c0-1.1,0-2.2,0-3.3
		c0-0.4,0.2-0.6,0.6-0.6c1.1,0,2.3,0,3.4,0c0.4,0,0.6,0.2,0.6,0.6c0,1.1,0,2.2,0,3.4c0,0.4-0.2,0.6-0.6,0.6
		C-273.2,395.5-273.8,395.5-274.3,395.5z M-275.5,392c0,0.7,0,1.5,0,2.2c0,0.1,0.2,0.2,0.3,0.2c0.4,0,0.7,0,1.1,0
		c0.3,0,0.8,0.1,0.9-0.1c0.2-0.2,0.1-0.6,0.1-1c0-0.4,0-0.9,0-1.3C-274,392-274.7,392-275.5,392z"/>
	<path id="XMLID_6_" class="st0" d="M-267.3,395.5c-0.6,0-1.1,0-1.7,0c-0.4,0-0.6-0.2-0.6-0.6c0-1.1,0-2.2,0-3.3
		c0-0.5,0.2-0.6,0.6-0.6c1.1,0,2.2,0,3.4,0c0.4,0,0.6,0.2,0.6,0.6c0,1.1,0,2.3,0,3.4c0,0.4-0.2,0.6-0.6,0.6
		C-266.2,395.5-266.8,395.5-267.3,395.5z M-266.1,392c-0.8,0-1.5,0-2.2,0c-0.1,0-0.2,0.2-0.2,0.2c0,0.6,0,1.2,0,1.9
		c0,0.2,0.1,0.3,0.3,0.3c0.6,0,1.2,0,1.9,0c0.2,0,0.3-0.1,0.2-0.2C-266.1,393.5-266.1,392.8-266.1,392z"/>
	<path id="XMLID_3_" class="st0" d="M-260.3,395.5c-0.6,0-1.1,0-1.7,0c-0.4,0-0.6-0.2-0.6-0.6c0-1.1,0-2.2,0-3.3
		c0-0.5,0.2-0.6,0.6-0.6c1.1,0,2.2,0,3.3,0c0.4,0,0.6,0.2,0.6,0.6c0,1.1,0,2.3,0,3.4c0,0.4-0.2,0.6-0.6,0.6
		C-259.2,395.5-259.8,395.5-260.3,395.5C-260.3,395.5-260.3,395.5-260.3,395.5z M-261.5,392c0,0.8,0,1.5,0,2.2
		c0,0.1,0.1,0.2,0.2,0.2c0.6,0,1.3,0,1.9,0c0.1,0,0.2-0.2,0.2-0.2c0-0.6,0-1.3,0-1.9c0-0.1-0.1-0.2-0.2-0.2
		C-260.1,392-260.8,392-261.5,392z"/>
</g>
</svg>
