<?xml version="1.0" encoding="utf-8"?>
<!-- Generator: Adobe Illustrator 19.0.0, SVG Export Plug-In . SVG Version: 6.00 Build 0)  -->
<svg version="1.1" id="icons" xmlns="http://www.w3.org/2000/svg" xmlns:xlink="http://www.w3.org/1999/xlink" x="0px" y="0px"
	 viewBox="-286 380.5 37.2 33.5" style="enable-background:new -286 380.5 37.2 33.5;" xml:space="preserve">
<style type="text/css">
	.st0{fill:#0E67B1;}
</style>
<g id="XMLID_2_">
	<g id="XMLID_3_">
		<path id="XMLID_43_" class="st0" d="M-263.6,399.9l-1.7-3.1c0,0,0,0,0,0l8.2-3.2c0.3-0.1,0.6,0.3,0.3,0.5L-263.6,399.9"/>
		<path id="XMLID_35_" class="st0" d="M-267.5,404.9c-2.7,0-4.9-2.2-4.9-4.9c0-2.7,2.2-4.9,4.9-4.9c2.7,0,4.9,2.2,4.9,4.9
			C-262.6,402.7-264.8,404.9-267.5,404.9z M-267.5,396.7c-1.9,0-3.4,1.5-3.4,3.4s1.5,3.4,3.4,3.4s3.4-1.5,3.4-3.4
			S-265.6,396.7-267.5,396.7z"/>
		<g id="XMLID_12_">
			<g>
				<path id="XMLID_108_" class="st0" d="M-252.7,410.7c-0.1,0-0.3,0-0.4-0.1c-0.4-0.2-0.4-0.7-0.2-1.1c1.9-2.8,2.9-6.1,2.9-9.4
					c0-9.4-7.6-17-17-17s-17,7.6-17,17c0,3.4,1,6.6,2.9,9.4c0.2,0.4,0.1,0.8-0.2,1.1c-0.4,0.2-0.8,0.1-1.1-0.2
					c-2-3-3.1-6.6-3.1-10.3c0-10.2,8.3-18.5,18.5-18.5c10.2,0,18.5,8.3,18.5,18.5c0,3.7-1.1,7.2-3.1,10.3
					C-252.2,410.5-252.5,410.7-252.7,410.7z"/>
				<path id="XMLID_107_" class="st0" d="M-249.7,400.8h-2.2c-0.4,0-0.8-0.3-0.8-0.8c0-0.4,0.3-0.8,0.8-0.8h2.2
					c0.4,0,0.8,0.3,0.8,0.8C-249,400.4-249.3,400.8-249.7,400.8z"/>
				<path id="XMLID_106_" class="st0" d="M-283,400.8h-2.2c-0.4,0-0.8-0.3-0.8-0.8c0-0.4,0.3-0.8,0.8-0.8h2.2c0.4,0,0.8,0.3,0.8,0.8
					C-282.2,400.4-282.6,400.8-283,400.8z"/>
				<path id="XMLID_105_" class="st0" d="M-267.5,385.3c-0.4,0-0.8-0.3-0.8-0.8v-2.2c0-0.4,0.3-0.8,0.8-0.8c0.4,0,0.8,0.3,0.8,0.8
					v2.2C-266.7,384.9-267.1,385.3-267.5,385.3z"/>
				<path id="XMLID_104_" class="st0" d="M-275.2,387.3c-0.3,0-0.5-0.1-0.7-0.4l-1.1-1.9c-0.2-0.4-0.1-0.8,0.3-1.1
					c0.4-0.2,0.8-0.1,1.1,0.3l1.1,1.9c0.2,0.4,0.1,0.8-0.3,1.1C-275,387.3-275.1,387.3-275.2,387.3z"/>
				<path id="XMLID_103_" class="st0" d="M-252.1,409.7c-0.1,0-0.3,0-0.4-0.1l-1.9-1.1c-0.4-0.2-0.5-0.7-0.3-1.1
					c0.2-0.4,0.7-0.5,1.1-0.3l1.9,1.1c0.4,0.2,0.5,0.7,0.3,1.1C-251.6,409.5-251.8,409.7-252.1,409.7z"/>
				<path id="XMLID_102_" class="st0" d="M-280.9,393c-0.1,0-0.3,0-0.4-0.1l-1.9-1.1c-0.4-0.2-0.5-0.7-0.3-1.1
					c0.2-0.4,0.7-0.5,1.1-0.3l1.9,1.1c0.4,0.2,0.5,0.7,0.3,1.1C-280.4,392.9-280.7,393-280.9,393z"/>
				<path id="XMLID_101_" class="st0" d="M-282.9,409.7c-0.3,0-0.5-0.1-0.7-0.4c-0.2-0.4-0.1-0.8,0.3-1.1l1.9-1.1
					c0.4-0.2,0.8-0.1,1.1,0.3c0.2,0.4,0.1,0.8-0.3,1.1l-1.9,1.1C-282.6,409.6-282.7,409.7-282.9,409.7z"/>
				<path id="XMLID_100_" class="st0" d="M-254,393c-0.3,0-0.5-0.1-0.7-0.4c-0.2-0.4-0.1-0.8,0.3-1.1l1.9-1.1
					c0.4-0.2,0.8-0.1,1.1,0.3c0.2,0.4,0.1,0.8-0.3,1.1l-1.9,1.1C-253.8,393-253.9,393-254,393z"/>
				<path id="XMLID_99_" class="st0" d="M-259.7,387.3c-0.1,0-0.3,0-0.4-0.1c-0.4-0.2-0.5-0.7-0.3-1.1l1.1-1.9
					c0.2-0.4,0.7-0.5,1.1-0.3c0.4,0.2,0.5,0.7,0.3,1.1l-1.1,1.9C-259.2,387.2-259.5,387.3-259.7,387.3z"/>
			</g>
		</g>
		<path id="XMLID_4_" class="st0" d="M-260.1,413.3h-14.8c-0.4,0-0.7-0.3-0.7-0.7v-3c0-0.4,0.3-0.7,0.7-0.7h14.8
			c0.4,0,0.7,0.3,0.7,0.7v3C-259.4,413-259.7,413.3-260.1,413.3z M-274.2,411.9h13.5v-1.6h-13.5V411.9z"/>
	</g>
</g>
</svg>
