<?xml version="1.0" encoding="utf-8"?>
<!-- Generator: Adobe Illustrator 19.0.0, SVG Export Plug-In . SVG Version: 6.00 Build 0)  -->
<svg version="1.1" id="icons" xmlns="http://www.w3.org/2000/svg" xmlns:xlink="http://www.w3.org/1999/xlink" x="0px" y="0px"
	 viewBox="-940 524.5 37.2 33.5" style="enable-background:new -940 524.5 37.2 33.5;" xml:space="preserve">
<style type="text/css">
	.st0{fill:#0E67B1;}
	.st1{fill:#FFFFFF;}
	.st2{fill:#0E67B1;stroke:#FFFFFF;stroke-width:0.2256;stroke-miterlimit:10;}
</style>
<g>
	<path class="st0" d="M-903.3,545.8c0-2.8,0-15.3,0-16.2c0-0.9-0.5-1.6-1.3-1.8c-0.1,0-0.2-0.1-0.3-0.1c-11,0-21.6,0-32.6,0
		c0,0-0.3,0.1-0.4,0.1c-1,0.3-1.5,1-1.5,2c0,0.9,0,15,0,16.4c0,1.4,0,2.3,0,3.9c0,1.5,0.8,2.2,2.3,2.2c3.4,0,6.8,0,10.1,0
		c0.2,0,0.3,0,0.5,0c0,1.3,0,2.6,0,3.9c-0.6,0-1.2,0-1.8,0c-0.4,0-0.7,0.2-0.7,0.6c0,0.4,0.3,0.6,0.7,0.6c4.7,0,9.3,0,14,0
		c0.5,0,0.7-0.2,0.7-0.6c0-0.4-0.3-0.6-0.7-0.6c-0.6,0-1.2,0-1.8,0c0-1.2,0-2.3,0-3.4c0-0.5,0-0.5,0.5-0.5c3.4,0,6.9,0,10.3,0
		c1.3,0,2.1-0.8,2.1-2.1c0-1.1,0-1.5,0-2.6C-903.3,547-903.3,546.4-903.3,545.8z M-938.2,529.8c0-0.7,0.2-0.9,0.9-0.9
		c10.7,0,21.3,0,32,0c0.6,0,0.8,0.2,0.8,0.8c0,0.9,0,12.2,0,15.7c0,0.2,0,0.5,0,0.7c0,0.1,0,0.2,0,0.2c0,0,0,0,0,0
		c0,0.2-0.2,0.2-0.5,0.2c-8.8,0-17.5,0-26.3,0c-2.2,0-4.3,0-6.5,0c-0.3,0-0.4-0.1-0.4-0.2c0,0,0-0.1,0-0.1c0,0,0-0.1,0-0.1
		c0-0.2,0-0.5,0-0.7C-938.2,542.1-938.2,530.6-938.2,529.8z M-917.5,556.1c-2.6,0-5.1,0-7.7,0c0-1.3,0-2.6,0-3.9c2.6,0,5.2,0,7.7,0
		C-917.5,553.5-917.5,554.8-917.5,556.1z M-904.5,550.4c0,0.3-0.2,0.5-0.6,0.6c-0.1,0-0.2,0-0.3,0c-10.5,0-21.1,0-31.6,0
		c-0.2,0-0.4,0-0.6,0c-0.3,0-0.6-0.2-0.6-0.6c0-1.1,0-1.4,0-2.6c11.2,0,22.4,0,33.7,0C-904.5,548.9-904.5,549.3-904.5,550.4z"/>
	<path class="st0" d="M-921.4,548.6c-0.3,0-0.6,0.3-0.6,0.6c0,0.4,0.3,0.6,0.6,0.6c0.3,0,0.6-0.3,0.6-0.6
		C-920.7,548.9-921,548.6-921.4,548.6z"/>
</g>
<path class="st0" d="M-935,535.1C-935,535.1-934.9,535.1-935,535.1c0.3-0.8,0.7-1.1,1.4-1.1c1.9,0,3.8,0,5.6,0c6,0,12,0,18,0
	c0.9,0,1.2,0.3,1.5,1.1c0,0,0,0,0,0c0,1.9,0,3.8,0,5.7c0,0,0,0.1-0.1,0.1c-0.2,0.7-0.7,1-1.4,1c-0.7,0-1.4,0-2.1,0
	c-7.2,0-14.4,0-21.5,0c-0.9,0-1.2-0.2-1.5-1.1c0,0,0,0,0,0C-935,538.9-935,537-935,535.1z M-921.7,541.1L-921.7,541.1
	c0.1,0,0.3,0,0.4,0c3.8,0,7.6,0,11.5,0c0.4,0,0.6-0.2,0.6-0.6c0-1.7,0-3.4,0-5.1c0-0.4-0.2-0.6-0.6-0.6c-7.9,0-15.8,0-23.7,0
	c-0.4,0-0.6,0.2-0.6,0.6c0,1.7,0,3.3,0,5c0,0.5,0.2,0.6,0.6,0.6C-929.5,541.1-925.6,541.1-921.7,541.1z"/>
<path class="st1" d="M-921.7,541.1c-3.9,0-7.9,0-11.8,0c-0.5,0-0.6-0.2-0.6-0.6c0-1.7,0-3.3,0-5c0-0.5,0.2-0.6,0.6-0.6
	c7.9,0,15.8,0,23.7,0c0.4,0,0.6,0.2,0.6,0.6c0,1.7,0,3.4,0,5.1c0,0.4-0.2,0.6-0.6,0.6c-3.8,0-7.6,0-11.5,0
	C-921.4,541.1-921.5,541.1-921.7,541.1L-921.7,541.1z M-929.7,537.1c0-0.4,0-0.7,0-0.9c0-0.2-0.1-0.4-0.4-0.4
	c-0.3,0-0.4,0.1-0.5,0.4c0,0.3,0,0.6,0,0.9c-0.3-0.2-0.6-0.4-0.8-0.6c-0.3-0.2-0.5-0.2-0.7,0c-0.1,0.2-0.1,0.5,0.2,0.6
	c0.3,0.2,0.6,0.5,1,0.7c-0.1,0.1-0.2,0.1-0.2,0.2c-0.3,0.2-0.5,0.4-0.8,0.6c-0.2,0.1-0.2,0.3-0.1,0.5c0.1,0.1,0.2,0.3,0.3,0.3
	c0.1,0,0.3-0.1,0.4-0.1c0.3-0.2,0.5-0.3,0.8-0.5c0,0.1,0,0.1,0,0.1c0,0.3,0,0.5,0,0.8c0,0.3,0.2,0.5,0.4,0.5c0.3,0,0.4-0.2,0.4-0.5
	c0-0.3,0-0.5,0-0.8c0.1,0,0.1,0,0.1,0c0.2,0.1,0.4,0.3,0.6,0.4c0.4,0.3,0.6,0.3,0.8,0.1c0.2-0.2,0.1-0.5-0.3-0.7
	c-0.3-0.2-0.6-0.4-0.9-0.6c0.4-0.3,0.7-0.5,1-0.7c0.1-0.1,0.2-0.2,0.2-0.3c0-0.2-0.1-0.3-0.2-0.5c-0.1-0.1-0.3-0.1-0.5,0
	C-929.1,536.7-929.3,536.9-929.7,537.1z M-918.6,538.8c0.3,0.2,0.6,0.4,0.8,0.6c0.3,0.2,0.5,0.1,0.7-0.1c0.1-0.2,0.1-0.4-0.2-0.6
	c-0.3-0.2-0.7-0.5-1-0.8c0.4-0.3,0.7-0.5,1-0.7c0.1-0.1,0.2-0.2,0.2-0.3c0.1-0.2,0-0.3-0.1-0.5c-0.2-0.1-0.3-0.1-0.5,0
	c-0.3,0.2-0.5,0.4-0.8,0.6c0,0,0-0.1,0-0.1c0-0.3,0-0.5,0-0.8c0-0.3-0.2-0.5-0.4-0.5c-0.3,0-0.4,0.2-0.4,0.5c0,0.3,0,0.5,0,0.9
	c-0.3-0.2-0.6-0.4-0.9-0.6c-0.2-0.1-0.4-0.1-0.6,0.1c-0.1,0.2-0.1,0.4,0.1,0.6c0.2,0.2,0.5,0.4,0.8,0.6c0.1,0.1,0.2,0.2,0.3,0.2
	c-0.1,0.1-0.2,0.2-0.3,0.3c-0.2,0.2-0.5,0.3-0.7,0.5c-0.2,0.2-0.2,0.4-0.1,0.6c0.1,0.2,0.4,0.2,0.6,0.1c0.1-0.1,0.2-0.1,0.3-0.2
	c0.2-0.1,0.4-0.3,0.6-0.4c0,0.3,0,0.6,0,0.8c0,0.3,0.1,0.5,0.4,0.5c0.3,0,0.4-0.2,0.4-0.5C-918.6,539.4-918.6,539.1-918.6,538.8z
	 M-912.5,538c0.4-0.3,0.7-0.5,1-0.7c0.3-0.2,0.3-0.4,0.2-0.7c-0.2-0.2-0.4-0.2-0.7,0c-0.2,0.2-0.5,0.3-0.7,0.5c0,0,0,0-0.1-0.1
	c0-0.3,0-0.5,0-0.8c0-0.3-0.2-0.5-0.4-0.5c-0.3,0-0.4,0.2-0.4,0.5c0,0.3,0,0.5,0,0.9c-0.1-0.1-0.2-0.1-0.2-0.1
	c-0.2-0.2-0.4-0.3-0.7-0.5c-0.2-0.1-0.4-0.1-0.6,0.1c-0.1,0.2-0.1,0.4,0.1,0.6c0.1,0.1,0.2,0.1,0.2,0.2c0.3,0.2,0.5,0.4,0.8,0.6
	c-0.1,0.1-0.2,0.1-0.2,0.2c-0.3,0.2-0.6,0.4-0.8,0.6c-0.2,0.2-0.2,0.4-0.1,0.6c0.1,0.2,0.4,0.2,0.6,0.1c0.1-0.1,0.2-0.2,0.3-0.2
	c0.2-0.1,0.3-0.2,0.6-0.4c0,0.4,0,0.7,0,1c0,0.3,0.3,0.5,0.5,0.4c0.2-0.1,0.3-0.2,0.3-0.4c0-0.3,0-0.6,0-0.9
	c0.3,0.2,0.6,0.4,0.8,0.6c0.3,0.2,0.5,0.2,0.7,0c0.2-0.2,0.1-0.5-0.2-0.6C-911.8,538.5-912.1,538.2-912.5,538z M-925.1,538
	c-0.4,0.3-0.7,0.5-1,0.7c-0.1,0.1-0.2,0.2-0.2,0.3c-0.1,0.2,0,0.3,0.1,0.5c0.2,0.1,0.3,0.1,0.5,0c0.3-0.2,0.5-0.4,0.9-0.6
	c0,0.3,0,0.6,0,0.8c0,0.3,0.1,0.5,0.4,0.5c0.3,0,0.4-0.2,0.4-0.5c0-0.3,0-0.5,0-0.9c0.3,0.2,0.6,0.4,0.9,0.6c0.2,0.1,0.4,0.1,0.5,0
	c0.1-0.1,0.2-0.3,0.2-0.4c0-0.1-0.1-0.2-0.2-0.3c-0.3-0.2-0.6-0.5-1-0.7c0.1-0.1,0.2-0.1,0.2-0.2c0.3-0.2,0.6-0.4,0.8-0.6
	c0.2-0.2,0.3-0.4,0.1-0.6c-0.1-0.2-0.4-0.2-0.6-0.1c-0.1,0.1-0.3,0.2-0.4,0.3c-0.1,0.1-0.3,0.2-0.5,0.3c0-0.4,0-0.6,0-0.9
	c0-0.3-0.2-0.4-0.4-0.4c-0.2,0-0.4,0.2-0.4,0.4c0,0.1,0,0.2,0,0.3c0,0.2,0,0.4,0,0.6c-0.1,0-0.1,0-0.1,0c-0.2-0.1-0.4-0.3-0.6-0.4
	c-0.1,0-0.1-0.1-0.2-0.1c-0.2-0.2-0.5-0.1-0.6,0.1c-0.1,0.2-0.1,0.5,0.1,0.6C-925.8,537.5-925.4,537.7-925.1,538z"/>
<path class="st2" d="M-929.7,537.1c0.3-0.2,0.6-0.4,0.9-0.6c0.2-0.1,0.4-0.1,0.5,0c0.1,0.1,0.2,0.3,0.2,0.5c0,0.1-0.1,0.2-0.2,0.3
	c-0.3,0.2-0.6,0.5-1,0.7c0.3,0.2,0.6,0.4,0.9,0.6c0.4,0.3,0.5,0.5,0.3,0.7c-0.2,0.2-0.4,0.2-0.8-0.1c-0.2-0.1-0.4-0.3-0.6-0.4
	c0,0,0,0-0.1,0c0,0.3,0,0.5,0,0.8c0,0.3-0.1,0.5-0.4,0.5c-0.3,0-0.4-0.2-0.4-0.5c0-0.3,0-0.5,0-0.8c0,0,0,0,0-0.1
	c-0.3,0.2-0.5,0.4-0.8,0.5c-0.1,0.1-0.3,0.2-0.4,0.1c-0.1,0-0.3-0.2-0.3-0.3c-0.1-0.2,0-0.3,0.1-0.5c0.3-0.2,0.5-0.4,0.8-0.6
	c0.1-0.1,0.1-0.1,0.2-0.2c-0.3-0.3-0.7-0.5-1-0.7c-0.3-0.2-0.3-0.4-0.2-0.6c0.2-0.2,0.4-0.2,0.7,0c0.3,0.2,0.5,0.4,0.8,0.6
	c0-0.4,0-0.7,0-0.9c0-0.3,0.2-0.4,0.5-0.4c0.2,0,0.4,0.2,0.4,0.4C-929.7,536.5-929.7,536.8-929.7,537.1z"/>
<path class="st2" d="M-918.6,538.8c0,0.3,0,0.6,0,0.9c0,0.3-0.1,0.5-0.4,0.5c-0.3,0-0.4-0.2-0.4-0.5c0-0.3,0-0.5,0-0.8
	c-0.2,0.2-0.4,0.3-0.6,0.4c-0.1,0.1-0.2,0.1-0.3,0.2c-0.2,0.1-0.4,0.1-0.6-0.1c-0.1-0.2-0.1-0.4,0.1-0.6c0.2-0.2,0.5-0.4,0.7-0.5
	c0.1-0.1,0.2-0.2,0.3-0.3c-0.1-0.1-0.2-0.2-0.3-0.2c-0.3-0.2-0.5-0.4-0.8-0.6c-0.2-0.2-0.2-0.4-0.1-0.6c0.1-0.2,0.4-0.2,0.6-0.1
	c0.3,0.2,0.5,0.4,0.9,0.6c0-0.3,0-0.6,0-0.9c0-0.3,0.1-0.5,0.4-0.5c0.3,0,0.4,0.2,0.4,0.5c0,0.3,0,0.5,0,0.8c0,0,0,0,0,0.1
	c0.3-0.2,0.5-0.4,0.8-0.6c0.2-0.1,0.3-0.1,0.5,0c0.2,0.1,0.2,0.3,0.1,0.5c0,0.1-0.1,0.2-0.2,0.3c-0.3,0.2-0.6,0.5-1,0.7
	c0.4,0.3,0.7,0.5,1,0.8c0.2,0.2,0.3,0.4,0.2,0.6c-0.1,0.2-0.4,0.3-0.7,0.1C-918,539.2-918.2,539-918.6,538.8z"/>
<path class="st2" d="M-912.5,538c0.4,0.3,0.7,0.5,1,0.7c0.2,0.2,0.3,0.4,0.2,0.6c-0.2,0.2-0.4,0.2-0.7,0c-0.2-0.2-0.5-0.4-0.8-0.6
	c0,0.3,0,0.6,0,0.9c0,0.2-0.1,0.4-0.3,0.4c-0.3,0.1-0.5-0.1-0.5-0.4c0-0.3,0-0.6,0-1c-0.2,0.2-0.4,0.3-0.6,0.4
	c-0.1,0.1-0.2,0.2-0.3,0.2c-0.2,0.1-0.4,0.1-0.6-0.1c-0.1-0.2-0.1-0.4,0.1-0.6c0.3-0.2,0.6-0.4,0.8-0.6c0.1,0,0.1-0.1,0.2-0.2
	c-0.3-0.2-0.6-0.4-0.8-0.6c-0.1-0.1-0.2-0.1-0.2-0.2c-0.2-0.2-0.2-0.4-0.1-0.6c0.1-0.2,0.4-0.2,0.6-0.1c0.2,0.2,0.4,0.3,0.7,0.5
	c0.1,0,0.1,0.1,0.2,0.1c0-0.3,0-0.6,0-0.9c0-0.3,0.2-0.5,0.4-0.5c0.3,0,0.4,0.2,0.4,0.5c0,0.3,0,0.5,0,0.8c0,0,0,0,0.1,0.1
	c0.2-0.2,0.5-0.3,0.7-0.5c0.3-0.2,0.5-0.2,0.7,0c0.1,0.2,0.1,0.5-0.2,0.7C-911.8,537.5-912.1,537.7-912.5,538z"/>
<path class="st2" d="M-925.1,538c-0.4-0.3-0.7-0.5-1-0.8c-0.2-0.2-0.3-0.4-0.1-0.6c0.1-0.2,0.4-0.2,0.6-0.1c0.1,0,0.1,0.1,0.2,0.1
	c0.2,0.1,0.4,0.3,0.6,0.4c0,0,0,0,0.1,0c0-0.2,0-0.4,0-0.6c0-0.1,0-0.2,0-0.3c0-0.3,0.2-0.4,0.4-0.4c0.2,0,0.4,0.2,0.4,0.4
	c0,0.3,0,0.6,0,0.9c0.2-0.1,0.3-0.2,0.5-0.3c0.1-0.1,0.3-0.2,0.4-0.3c0.2-0.2,0.5-0.1,0.6,0.1c0.1,0.2,0.1,0.4-0.1,0.6
	c-0.3,0.2-0.5,0.4-0.8,0.6c-0.1,0-0.1,0.1-0.2,0.2c0.3,0.3,0.7,0.5,1,0.7c0.1,0.1,0.2,0.2,0.2,0.3c0,0.1-0.1,0.3-0.2,0.4
	c-0.1,0.1-0.3,0.1-0.5,0c-0.3-0.2-0.5-0.4-0.9-0.6c0,0.3,0,0.6,0,0.9c0,0.3-0.1,0.5-0.4,0.5c-0.3,0-0.4-0.2-0.4-0.5
	c0-0.3,0-0.5,0-0.8c-0.3,0.2-0.6,0.4-0.9,0.6c-0.2,0.1-0.3,0.1-0.5,0c-0.2-0.1-0.2-0.3-0.1-0.5c0-0.1,0.1-0.2,0.2-0.3
	C-925.7,538.5-925.4,538.2-925.1,538z"/>
</svg>
