<?xml version="1.0" encoding="utf-8"?>
<!-- Generator: Adobe Illustrator 19.0.0, SVG Export Plug-In . SVG Version: 6.00 Build 0)  -->
<svg version="1.1" id="icons" xmlns="http://www.w3.org/2000/svg" xmlns:xlink="http://www.w3.org/1999/xlink" x="0px" y="0px"
	 viewBox="-940 524.5 37.2 33.5" style="enable-background:new -940 524.5 37.2 33.5;" xml:space="preserve">
<style type="text/css">
	.st0{fill:#0E67B1;}
	.st1{fill:#0E67B1;stroke:#FFFFFF;stroke-width:0.1845;stroke-miterlimit:10;}
</style>
<g>
	<g>
		<path class="st0" d="M-911.7,526c0,10.9,0,19.5,0,30.4c-0.2,0.3-0.3,0.7-0.5,0.9c-0.3,0.3-0.7,0.4-1,0.6c-5.7,0-11.5,0-17.2,0
			c0,0-0.1-0.1-0.1-0.1c-1-0.3-1.4-0.9-1.4-2c0-10.6,0-18.9,0-29.5c0-1.3,0.7-2,2-2c3.7,0,7.4,0,11.2,0c1.7,0,3.5,0,5.2,0
			c0.8,0,1.5,0.5,1.7,1.2C-911.8,525.8-911.7,525.9-911.7,526z M-930.8,530.4c0,0.2,0,0.3,0,0.4c0,6.9,0,11.6,0,18.5
			c0,0.3,0.1,0.4,0.4,0.4c5.7,0,11.4,0,17.1,0c0.3,0,0.4-0.1,0.4-0.4c0-6.9,0-11.5,0-18.4c0-0.5,0-0.5-0.4-0.5c-5.7,0-11.4,0-17.1,0
			C-930.5,530.4-930.6,530.4-930.8,530.4z M-912.9,550.8c-6,0-11.9,0-17.9,0c0,0.1,0,0.2,0,0.2c0,1.7,0,3.4,0,5.1
			c0,0.4,0.2,0.7,0.7,0.7c5.5,0,11,0,16.5,0c0.5,0,0.7-0.2,0.7-0.7c0-1.7,0-3.3,0-5C-912.8,551-912.9,550.9-912.9,550.8z
			 M-912.8,529.3c0-1.1,0-2.1,0-3.1c0-0.3-0.3-0.6-0.7-0.6c-5.5,0-11,0-16.5,0c-0.5,0-0.7,0.2-0.7,0.7c0,0.9,0,1.7,0,2.6
			c0,0.1,0,0.2,0,0.2C-924.8,529.3-918.8,529.3-912.8,529.3z"/>
		<path class="st0" d="M-923.6,553.8c0-1,0.8-1.8,1.7-1.8c1,0,1.8,0.8,1.8,1.7c0,1-0.8,1.8-1.8,1.8
			C-922.8,555.6-923.6,554.8-923.6,553.8z M-921.8,553.2c-0.3,0-0.6,0.3-0.6,0.6c0,0.3,0.3,0.6,0.6,0.6c0.3,0,0.6-0.3,0.6-0.6
			C-921.2,553.5-921.5,553.2-921.8,553.2z"/>
		<path class="st0" d="M-921.8,528c-0.4,0-0.7,0-1.1,0c-0.4,0-0.6-0.2-0.6-0.6c0-0.3,0.2-0.6,0.6-0.6c0.8,0,1.5,0,2.3,0
			c0.4,0,0.6,0.2,0.6,0.6c0,0.3-0.2,0.6-0.6,0.6C-921.1,528-921.4,528-921.8,528L-921.8,528z"/>
	</g>
</g>
<g>
	<path class="st1" d="M-922.4,545.5c0,0.2,0,0.4,0,0.6c0,0.1,0,0.1-0.1,0.2c-0.1,0-0.1,0-0.2,0c-0.7-0.5-1.4-0.9-2.1-1.4
		c-0.2-0.1-0.2-0.2,0-0.3c0.7-0.5,1.4-1,2.1-1.4c0,0,0.1,0,0.2,0c0,0,0.1,0.1,0.1,0.2c0,0.2,0,0.4,0,0.6c0.4,0,0.8,0,1.1,0
		c1-0.1,1.8-0.4,2.5-1.1c0.8-0.7,1.2-1.6,1.3-2.7c0.1-1.8-0.6-3.1-2.2-4c-0.2-0.1-0.2-0.2-0.1-0.4c0.2-0.3,0.4-0.6,0.5-0.9
		c0.1-0.2,0.2-0.2,0.4-0.1c1.5,0.9,2.5,2.2,2.9,3.9c0.7,3.2-1.3,6.2-4.5,6.9c-0.6,0.1-1.1,0.1-1.7,0.1
		C-922.2,545.4-922.3,545.4-922.4,545.5C-922.4,545.4-922.4,545.4-922.4,545.5z"/>
	<path class="st1" d="M-919.1,540.1c0.1,0,0.2,0,0.2,0c0.1,0,0.2,0.1,0.2,0.2c0,0.2,0,0.3,0,0.5c0,0.1-0.1,0.2-0.2,0.2
		c-0.1,0-0.2,0-0.2,0c0,0.2,0,0.4,0,0.6c0,0.2,0,0.2-0.2,0.2c-0.1,0-0.3,0-0.4,0c-0.1,0-0.2,0-0.2-0.2c0-0.2,0-0.4,0-0.6
		c-0.1,0-0.1,0-0.1,0c-0.4,0-0.9,0-1.3,0c-0.2,0-0.2,0-0.2-0.2c0-0.4,0.1-0.8,0.3-1.1c0.4-0.6,0.8-1.2,1.2-1.8
		c0.1-0.1,0.1-0.1,0.3-0.1c0.1,0,0.3,0,0.4,0c0.2,0,0.2,0,0.2,0.2c0,0.7,0,1.4,0,2.1C-919.1,540-919.1,540-919.1,540.1z
		 M-920.8,540.1c0.3,0,0.6,0,0.9,0c0-0.4,0-0.8,0-1.2c0,0,0,0,0,0C-920.2,539.2-920.5,539.6-920.8,540.1z"/>
	<path class="st1" d="M-923.2,540.9c0.4,0,0.7,0,1,0c0.2,0,0.2,0,0.2,0.2c0,0.1,0,0.3,0,0.4c0,0.1,0,0.2-0.2,0.2c-0.7,0-1.4,0-2.1,0
		c-0.1,0-0.2-0.1-0.2-0.2c0-0.1,0-0.3,0-0.4c0-0.1,0.1-0.2,0.2-0.3c0.3-0.3,0.7-0.6,1-0.9c0.3-0.3,0.5-0.6,0.5-1c0-0.1,0-0.1,0-0.2
		c0-0.3-0.1-0.4-0.3-0.4c-0.2-0.1-0.5,0.1-0.6,0.3c0,0.1-0.1,0.2-0.2,0.2c-0.1,0-0.3,0-0.4,0c-0.1,0-0.2-0.1-0.2-0.2
		c0.1-0.5,0.4-0.8,0.8-1c0.5-0.2,0.9-0.1,1.3,0.3c0.3,0.3,0.4,0.7,0.3,1.1c-0.1,0.5-0.4,1-0.7,1.4
		C-922.9,540.6-923,540.7-923.2,540.9z"/>
	<path class="st1" d="M-922,534.7c0-0.2,0-0.4,0-0.5c0-0.2,0.1-0.3,0.3-0.3c0.1,0,0.2,0,0.3,0c0.1,0,0.2,0.1,0.2,0.2
		c0,0.4,0,0.8,0,1.2c0,0.1-0.1,0.2-0.2,0.2c-0.1,0-0.2,0-0.3,0c-0.2,0-0.3-0.1-0.3-0.3C-922,535.1-922,534.9-922,534.7z"/>
	<path class="st1" d="M-926.5,540.1c-0.2,0-0.3,0-0.5,0c-0.2,0-0.3-0.1-0.3-0.3c0-0.1,0-0.2,0-0.3c0-0.1,0.1-0.2,0.2-0.2
		c0.4,0,0.8,0,1.2,0c0.1,0,0.2,0.1,0.2,0.2c0,0.1,0,0.2,0,0.3c0,0.2-0.1,0.3-0.3,0.3C-926.1,540.1-926.3,540.1-926.5,540.1z"/>
	<path class="st1" d="M-925.4,537.9c-0.1,0-0.1,0-0.2-0.1c-0.3-0.2-0.6-0.4-0.9-0.5c-0.2-0.1-0.2-0.2-0.1-0.4c0-0.1,0.1-0.2,0.1-0.3
		c0.1-0.1,0.2-0.2,0.3-0.1c0.3,0.2,0.7,0.4,1,0.6c0.1,0.1,0.2,0.2,0.1,0.3c-0.1,0.1-0.1,0.2-0.2,0.3
		C-925.3,537.8-925.3,537.8-925.4,537.9z"/>
	<path class="st1" d="M-923.4,535.7c0,0.2-0.2,0.3-0.4,0.4c-0.1,0.1-0.2,0.1-0.3,0c0,0-0.1-0.1-0.1-0.1c-0.2-0.3-0.4-0.6-0.5-0.9
		c-0.1-0.2-0.1-0.3,0.1-0.4c0.1,0,0.1-0.1,0.2-0.1c0.2-0.1,0.3-0.1,0.4,0.1c0.2,0.3,0.4,0.6,0.6,1
		C-923.4,535.7-923.4,535.7-923.4,535.7z"/>
	<path class="st1" d="M-925.4,541.5C-925.4,541.5-925.4,541.5-925.4,541.5c0.2,0,0.5,0.5,0.4,0.6c0,0.1-0.1,0.1-0.1,0.2
		c-0.3,0.2-0.6,0.4-1,0.6c-0.1,0.1-0.3,0-0.4-0.1c-0.1-0.1-0.1-0.2-0.2-0.3c-0.1-0.1,0-0.2,0.1-0.3
		C-926.2,541.9-925.9,541.7-925.4,541.5C-925.5,541.5-925.5,541.5-925.4,541.5z"/>
</g>
</svg>
