<?xml version="1.0" encoding="utf-8"?>
<!-- Generator: Adobe Illustrator 19.0.0, SVG Export Plug-In . SVG Version: 6.00 Build 0)  -->
<svg version="1.1" id="icons" xmlns="http://www.w3.org/2000/svg" xmlns:xlink="http://www.w3.org/1999/xlink" x="0px" y="0px"
	 viewBox="-286 380.5 37.2 33.5" style="enable-background:new -286 380.5 37.2 33.5;" xml:space="preserve">
<style type="text/css">
	.st0{fill:#0E67B1;}
</style>
<g id="XMLID_108_">
	<path id="XMLID_124_" class="st0" d="M-255.4,397c0-3.9,0-7.8,0-11.8c0-0.8,0.4-1.2,1.2-1.2c0.9,0,1.7,0,2.6,0
		c0.8,0,1.2,0.4,1.2,1.2c0,7.1,0,14.2,0,21.3c0,0.7,0,1.5,0,2.2c0,0.8-0.4,1.2-1.2,1.2c-0.9,0-1.7,0-2.6,0c-0.8,0-1.2-0.4-1.2-1.2
		c0-3,0-6.1,0-9.1C-255.4,398.7-255.4,397.8-255.4,397z M-251.6,408.7c0-0.2,0-0.3,0-0.4c0-5.1,0-10.3,0-15.4c0-0.1,0-0.2,0-0.3
		c0-0.1-0.1-0.2-0.2-0.2c-0.8,0-1.5,0-2.3,0c0,5.5,0,10.9,0,16.3C-253.3,408.7-252.5,408.7-251.6,408.7z M-254.2,391.1
		c0.8,0,1.7,0,2.5,0c0-0.7,0-1.4,0-2.1c0-1.1,0-2.3,0-3.4c0-0.1-0.1-0.4-0.2-0.4c-0.8,0-1.5,0-2.3,0
		C-254.2,387.2-254.2,389.1-254.2,391.1z"/>
	<path id="XMLID_120_" class="st0" d="M-262.5,400.5c0-2.7,0-5.4,0-8.2c0-0.8,0.4-1.2,1.2-1.2c0.9,0,1.7,0,2.6,0
		c0.8,0,1.2,0.4,1.2,1.2c0,3.8,0,7.6,0,11.4c0,1.6,0,3.2,0,4.7c0,1-0.3,1.4-1.4,1.4c-0.8,0-1.7,0-2.5,0c-0.7,0-1.1-0.4-1.1-1.1
		c0-1.8,0-3.5,0-5.3C-262.5,402.5-262.5,401.5-262.5,400.5z M-261.3,397.3c0,3.8,0,7.5,0,11.3c0.9,0,1.7,0,2.5,0c0-0.1,0-0.3,0-0.4
		c0-2.7,0-5.4,0-8.1c0-0.8,0-1.6,0-2.4c0-0.2,0-0.4-0.2-0.4C-259.7,397.3-260.5,397.3-261.3,397.3z M-261.3,392.3c0,1.3,0,2.4,0,3.6
		c0,0.1,0.2,0.2,0.3,0.2c0.7,0,1.3,0,2,0c0.1,0,0.3-0.2,0.3-0.3c0-1.1,0-2.2,0-3.3c0-0.1-0.2-0.3-0.2-0.3
		C-259.7,392.3-260.5,392.3-261.3,392.3z"/>
	<path id="XMLID_119_" class="st0" d="M-267.1,411.2c5.4,0,10.9,0,16.3,0c0.5,0,0.8,0.2,0.8,0.6c0,0.4-0.3,0.6-0.8,0.6
		c-10.2,0-20.3,0-30.5,0c-0.7,0-1.4,0-2.2,0c-0.5,0-0.8-0.2-0.8-0.6c0-0.4,0.3-0.6,0.8-0.6C-278,411.2-272.6,411.2-267.1,411.2z"/>
	<path id="XMLID_116_" class="st0" d="M-269.6,403c0-1.8,0-3.7,0-5.5c0-1,0.3-1.3,1.3-1.3c0.8,0,1.6,0,2.4,0c1,0,1.3,0.3,1.3,1.3
		c0,1.8,0,3.5,0,5.3c0,1.9,0,3.9,0,5.8c0,0.8-0.3,1.4-1.3,1.3c-0.8,0-1.6,0-2.4,0c-0.8,0-1.2-0.4-1.2-1.2
		C-269.6,406.8-269.6,404.9-269.6,403L-269.6,403z M-265.9,408.7c0-3.8,0-7.5,0-11.3c-0.8,0-1.7,0-2.5,0c0,3.8,0,7.5,0,11.3
		C-267.6,408.7-266.7,408.7-265.9,408.7z"/>
	<path id="XMLID_115_" class="st0" d="M-267.1,385c-0.8,0-1.7-0.1-2.5-0.1c-0.5,0-1.1-0.1-1.6-0.1c-0.4,0-0.6-0.3-0.6-0.6
		c0-0.3,0.3-0.6,0.7-0.6c0.5,0,1,0,1.5,0.1c1.3,0.1,2.7,0.1,4,0.2c0.7,0,1.1,0.5,1,1.2c-0.3,1.8-0.6,3.6-0.9,5.5
		c-0.1,0.4-0.4,0.6-0.7,0.6c-0.3,0-0.6-0.3-0.5-0.7c0.2-1.1,0.4-2.2,0.5-3.3c0.1-0.3,0.1-0.7,0.2-1.1c-0.2,0.1-0.3,0.2-0.4,0.3
		c-4,2.9-8.1,5.7-12.1,8.6c-0.1,0.1-0.2,0.1-0.3,0.2c-0.5,0.3-0.8,0.3-1,0c-0.2-0.3-0.1-0.7,0.3-1c4-2.9,8.1-5.7,12.1-8.6
		C-267.4,385.3-267.2,385.2-267.1,385C-267.1,385.1-267.1,385-267.1,385z"/>
	<path id="XMLID_112_" class="st0" d="M-271.8,405.3c0,1.1,0,2.2,0,3.4c0,0.9-0.4,1.2-1.2,1.2c-0.9,0-1.8,0-2.7,0
		c-0.7,0-1.1-0.4-1.1-1.1c0-2.3,0-4.7,0-7c0-0.7,0.4-1,1.1-1c0.9,0,1.8,0,2.7,0c0.7,0,1.1,0.4,1.1,1.1
		C-271.8,403-271.8,404.2-271.8,405.3z M-273,402c-0.8,0-1.7,0-2.5,0c0,2.2,0,4.5,0,6.7c0.8,0,1.7,0,2.5,0
		C-273,406.4-273,404.2-273,402z"/>
	<path id="XMLID_109_" class="st0" d="M-281.4,404.9c0.5,0,0.9,0,1.4,0c0.6,0,1.1,0.4,1.1,1c0,1,0,1.9,0,2.9c0,0.7-0.4,1.1-1.1,1.1
		c-0.9,0-1.9,0-2.8,0c-0.6,0-1.1-0.4-1.1-1c0-1,0-1.9,0-2.9c0-0.6,0.4-1,1.1-1C-282.3,404.9-281.8,404.9-281.4,404.9
		C-281.4,404.9-281.4,404.9-281.4,404.9z M-280.1,406.2c-0.8,0-1.7,0-2.5,0c0,0.8,0,1.6,0,2.3c0,0.1,0.1,0.2,0.2,0.2
		c0.8,0,1.5,0,2.3,0C-280.1,407.8-280.1,407-280.1,406.2z"/>
</g>
</svg>
