<?xml version="1.0" encoding="utf-8"?>
<!-- Generator: Adobe Illustrator 19.0.0, SVG Export Plug-In . SVG Version: 6.00 Build 0)  -->
<svg version="1.1" id="icons" xmlns="http://www.w3.org/2000/svg" xmlns:xlink="http://www.w3.org/1999/xlink" x="0px" y="0px"
	 viewBox="-940 524.5 37.2 33.5" style="enable-background:new -940 524.5 37.2 33.5;" xml:space="preserve">
<style type="text/css">
	.st0{fill:#0E67B1;stroke:#0E67B1;stroke-width:0.2896;stroke-miterlimit:10;}
	.st1{clip-path:url(#SVGID_2_);fill:#FFFFFF;}
	.st2{clip-path:url(#SVGID_2_);}
	.st3{fill:#FFFFFF;}
	.st4{fill:#0E67B1;}
</style>
<g id="hlePzm.tif">
	<g>
		<path class="st0" d="M-908.3,546.1c0,1,0,2.1,0,3.1c-0.1,0.4-0.3,0.8-0.7,1c-0.2,0.1-0.2,0.2-0.2,0.4c0,1.5,0,3,0,4.5
			c0,0.2,0,0.5,0,0.7c-0.2,1.1-1.1,1.8-2.4,1.8c-6.6,0-13.2,0-19.8,0c-0.2,0-0.4,0-0.6-0.1c-1-0.3-1.7-1.2-1.7-2.3
			c0-6.3,0-12.6,0-18.9c0,0,0-0.1,0-0.1c0-1.1,0.7-1.9,1.8-2.2c0.1,0,0.2-0.1,0.4-0.1c6.2,0,12.3,0,18.5,0c0,0,0.1,0,0.1,0.1
			c1.2,0.2,1.9,1.1,1.9,2.3c0,0.4,0,0.8,0,1.2c0,0.1,0.1,0.2,0.1,0.2c1.1,0.4,1.7,1.1,1.7,2.3c0,1.5,0,3,0,4.4c0,0.3,0,0.5,0.3,0.7
			C-908.5,545.4-908.4,545.8-908.3,546.1z M-910.1,550.4c-0.1,0-0.2,0-0.3,0c-1.3,0-2.5,0-3.8,0c-0.8,0-1.4-0.6-1.4-1.4
			c0-0.9,0-1.8,0-2.7c0-0.7,0.5-1.3,1.2-1.3c0.2,0,0.4,0,0.6,0c1.1,0,2.2,0,3.4,0c0.2,0,0.3,0,0.3-0.2c0-1.6,0-3.2,0-4.8
			c0-0.6-0.4-1.2-1-1.3c-0.2-0.1-0.5-0.1-0.7-0.1c-6.5,0-13,0-19.5,0c-0.5,0-1-0.1-1.4-0.4c0,0-0.1,0-0.2-0.1c0,0.1,0,0.2,0,0.3
			c0,5.6,0,11.3,0,16.9c0,0.2,0,0.4,0.1,0.5c0.2,0.6,0.7,0.9,1.5,0.9c6.6,0,13.2,0,19.8,0c0.9,0,1.5-0.6,1.5-1.5c0-1.5,0-3.1,0-4.6
			C-910,550.6-910.1,550.5-910.1,550.4z M-911.9,537.7c0-0.5,0-1,0-1.5c0-0.3-0.2-0.5-0.4-0.8c-0.3-0.4-0.7-0.5-1.2-0.5
			c-4.6,0-9.2,0-13.8,0c-1.4,0-2.8,0-4.2,0c-0.8,0-1.3,0.5-1.4,1.3c-0.1,0.6,0.4,1.3,1.1,1.5c0.2,0,0.4,0,0.7,0c6.3,0,12.6,0,18.9,0
			C-912.1,537.7-912,537.7-911.9,537.7z M-911.9,545.8C-911.9,545.8-911.9,545.8-911.9,545.8c-0.7,0-1.5,0-2.2,0
			c-0.4,0-0.6,0.2-0.6,0.6c0,0.8,0,1.7,0,2.5c0,0.4,0.2,0.6,0.6,0.6c1.4,0,2.9,0,4.3,0c0.4,0,0.6-0.2,0.6-0.6c0-0.8,0-1.6,0-2.5
			c0-0.4-0.2-0.6-0.6-0.6C-910.5,545.8-911.2,545.8-911.9,545.8z"/>
		<path class="st0" d="M-911,543.6c0,0.2-0.2,0.4-0.4,0.4c-0.2,0-0.4-0.2-0.4-0.4c0-0.2,0.2-0.4,0.5-0.4
			C-911.2,543.2-911,543.4-911,543.6z"/>
		<path class="st0" d="M-911.4,540.4c-0.2,0-0.4-0.2-0.4-0.4c0-0.2,0.2-0.4,0.4-0.5c0.2,0,0.4,0.2,0.4,0.4
			C-911,540.2-911.2,540.4-911.4,540.4z"/>
		<path class="st0" d="M-924.2,539.5c0.2,0,0.4,0.2,0.5,0.4c0,0.2-0.2,0.4-0.4,0.4c-0.2,0-0.4-0.2-0.4-0.4
			C-924.6,539.7-924.4,539.5-924.2,539.5z"/>
		<path class="st0" d="M-920.1,539.9c0,0.2-0.2,0.4-0.4,0.4c-0.2,0-0.5-0.2-0.4-0.4c0-0.2,0.2-0.4,0.5-0.4
			C-920.3,539.5-920.1,539.7-920.1,539.9z"/>
		<path class="st0" d="M-916.9,540.4c-0.2,0-0.4-0.2-0.4-0.4c0-0.2,0.2-0.4,0.4-0.4c0.2,0,0.4,0.2,0.4,0.4
			C-916.5,540.2-916.6,540.4-916.9,540.4z"/>
		<path class="st0" d="M-915.1,539.5c0.2,0,0.4,0.2,0.4,0.4c0,0.2-0.2,0.4-0.4,0.4c-0.2,0-0.4-0.2-0.4-0.5
			C-915.5,539.7-915.3,539.5-915.1,539.5z"/>
		<path class="st0" d="M-916.9,555.8c-0.2,0-0.4-0.2-0.4-0.4c0-0.2,0.2-0.4,0.4-0.4c0.2,0,0.4,0.2,0.4,0.5
			C-916.5,555.6-916.6,555.8-916.9,555.8z"/>
		<path class="st0" d="M-918.3,555.4c0,0.2-0.2,0.4-0.4,0.4c-0.3,0-0.4-0.2-0.4-0.4c0-0.2,0.2-0.4,0.4-0.4
			C-918.5,554.9-918.3,555.1-918.3,555.4z"/>
		<path class="st0" d="M-927.4,540c0,0.2-0.2,0.4-0.5,0.4c-0.2,0-0.4-0.2-0.4-0.4c0-0.2,0.2-0.4,0.5-0.4
			C-927.5,539.5-927.4,539.7-927.4,540z"/>
		<path class="st0" d="M-931.4,539.5c0.2,0,0.4,0.2,0.4,0.4c0,0.2-0.2,0.4-0.4,0.4c-0.2,0-0.4-0.2-0.4-0.4
			C-931.9,539.7-931.7,539.5-931.4,539.5z"/>
		<path class="st0" d="M-911.4,553.1c0.2,0,0.4,0.2,0.4,0.4c0,0.2-0.2,0.4-0.4,0.4c-0.2,0-0.4-0.2-0.4-0.4
			C-911.9,553.3-911.7,553.1-911.4,553.1z"/>
		<path class="st0" d="M-929.6,554.9c0.2,0,0.4,0.2,0.4,0.5c0,0.2-0.2,0.4-0.4,0.4c-0.2,0-0.4-0.2-0.4-0.4
			C-930,555.1-929.8,554.9-929.6,554.9z"/>
		<path class="st0" d="M-927.4,555.4c0,0.2-0.2,0.4-0.4,0.4c-0.3,0-0.4-0.2-0.4-0.4c0-0.2,0.2-0.4,0.4-0.4
			C-927.6,554.9-927.4,555.2-927.4,555.4z"/>
		<path class="st0" d="M-918.7,539.5c0.2,0,0.4,0.2,0.4,0.4c0,0.2-0.2,0.4-0.4,0.4c-0.2,0-0.4-0.2-0.4-0.4
			C-919.1,539.7-918.9,539.5-918.7,539.5z"/>
		<path class="st0" d="M-914.6,555.4c0,0.2-0.2,0.4-0.5,0.4c-0.2,0-0.4-0.2-0.4-0.4c0-0.2,0.2-0.4,0.4-0.4
			C-914.8,555-914.6,555.2-914.6,555.4z"/>
		<path class="st0" d="M-929.6,539.5c0.2,0,0.4,0.2,0.4,0.4c0,0.2-0.2,0.4-0.4,0.4c-0.2,0-0.4-0.2-0.4-0.4
			C-930.1,539.7-929.9,539.5-929.6,539.5z"/>
		<path class="st0" d="M-920.5,555.8c-0.2,0-0.4-0.2-0.4-0.4c0-0.2,0.2-0.4,0.5-0.4c0.2,0,0.4,0.2,0.4,0.4
			C-920.1,555.6-920.3,555.8-920.5,555.8z"/>
		<path class="st0" d="M-911.4,555c0.3,0,0.4,0.2,0.4,0.4c0,0.2-0.2,0.4-0.4,0.4c-0.3,0-0.4-0.2-0.4-0.4
			C-911.9,555.1-911.7,555-911.4,555z"/>
		<path class="st0" d="M-921.9,539.9c0,0.2-0.2,0.4-0.4,0.4c-0.2,0-0.4-0.2-0.4-0.4c0-0.2,0.2-0.4,0.4-0.4
			C-922.1,539.5-921.9,539.7-921.9,539.9z"/>
		<path class="st0" d="M-925.6,540c0,0.2-0.2,0.4-0.4,0.4c-0.2,0-0.4-0.2-0.4-0.5c0-0.2,0.2-0.4,0.4-0.4
			C-925.7,539.5-925.5,539.7-925.6,540z"/>
		<path class="st0" d="M-913.3,539.5c0.2,0,0.4,0.2,0.4,0.4c0,0.2-0.2,0.4-0.4,0.4c-0.2,0-0.4-0.2-0.4-0.5
			C-913.7,539.7-913.5,539.5-913.3,539.5z"/>
		<path class="st0" d="M-931.5,555.8c-0.3,0-0.4-0.2-0.4-0.5c0-0.2,0.2-0.4,0.4-0.4c0.2,0,0.4,0.2,0.4,0.4
			C-931,555.6-931.2,555.8-931.5,555.8z"/>
		<path class="st0" d="M-923.7,555.4c0,0.2-0.2,0.4-0.4,0.4c-0.3,0-0.4-0.2-0.4-0.4c0-0.2,0.2-0.4,0.4-0.4
			C-923.9,554.9-923.7,555.1-923.7,555.4z"/>
		<path class="st0" d="M-911.4,551.3c0.2,0,0.4,0.2,0.4,0.4c0,0.2-0.2,0.4-0.4,0.4c-0.2,0-0.4-0.2-0.4-0.4
			C-911.9,551.5-911.7,551.3-911.4,551.3z"/>
		<path class="st0" d="M-911,541.8c0,0.2-0.2,0.4-0.4,0.4c-0.3,0-0.5-0.2-0.5-0.4s0.2-0.4,0.4-0.4C-911.2,541.3-911,541.5-911,541.8
			z"/>
		<path class="st0" d="M-925.6,555.4c0,0.2-0.2,0.4-0.4,0.4c-0.3,0-0.4-0.2-0.4-0.4c0-0.2,0.2-0.4,0.4-0.4
			C-925.7,554.9-925.6,555.1-925.6,555.4z"/>
		<path class="st0" d="M-922.3,555.8c-0.2,0-0.4-0.2-0.4-0.4c0-0.2,0.2-0.4,0.4-0.4c0.2,0,0.4,0.2,0.4,0.4
			C-921.9,555.6-922.1,555.8-922.3,555.8z"/>
		<path class="st0" d="M-912.8,555.4c0,0.3-0.2,0.4-0.5,0.4c-0.2,0-0.4-0.2-0.4-0.4c0-0.2,0.2-0.4,0.4-0.4
			C-913,555-912.8,555.1-912.8,555.4z"/>
		<path class="st0" d="M-912.8,548.5c-0.5,0-0.9-0.4-0.9-0.9c0-0.5,0.4-0.9,0.9-0.9c0.5,0,0.9,0.4,0.9,0.9
			C-911.9,548.2-912.3,548.6-912.8,548.5z"/>
	</g>
</g>
<g>
	<defs>
		<rect id="SVGID_1_" x="-932.4" y="523.5" width="21.4" height="14.6"/>
	</defs>
	<clipPath id="SVGID_2_">
		<use xlink:href="#SVGID_1_"  style="overflow:visible;"/>
	</clipPath>
	<polygon class="st1" points="-913.1,533.8 -923.9,528.4 -928.2,536.9 -923.2,539.7 -917.3,540 -915.9,539.7 -914.4,537.5 	"/>
	<g class="st2">
		<g>
			<path class="st3" d="M-921.1,535.8c-2.2-0.7-4.5,0.3-5.2,2.3c-0.1,0.2-0.1,0.5-0.2,0.7l7.8,2.6c0.1-0.2,0.2-0.4,0.3-0.6
				C-917.7,538.8-918.9,536.6-921.1,535.8z"/>
		</g>
		<polygon class="st3" points="-928.2,536.9 -914.1,536.4 -917.3,542.7 -928.2,537.4 		"/>
		<path class="st4" d="M-917.3,543.1c0.3,0.1,0.6,0,0.7-0.3l1.4-2.9l1.4-3l0.4-0.9l0.1-0.2c0.6-1.3,1.2-2.6,1.8-3.9
			c0.4-0.8,0.2-1.5-0.7-1.9c-3.3-1.6-6.5-3.1-9.8-4.7c-0.4-0.2-0.7-0.2-1.1-0.1c-0.3,0.1-0.6,0.4-0.8,0.7c-0.6,1.2-1.2,2.4-1.7,3.6
			l-0.3,0.5l-0.4,0.8l-1.4,3l-1.4,3c-0.1,0.3,0,0.6,0.3,0.7L-917.3,543.1z M-922.7,526.3c0.1-0.1,0.3,0,0.4,0.1
			c1.5,0.7,3.1,1.5,4.6,2.2c1.7,0.8,3.4,1.6,5.1,2.4c0.2,0.1,0.3,0.2,0.3,0.3c0,0.1,0,0.3-0.1,0.5l0,0l-10.6-5l0-0.1
			C-922.9,526.5-922.8,526.3-922.7,526.3z M-923.4,527.7c0.1,0,0.2,0,0.4,0.1l9.7,4.6c0.2,0.1,0.3,0.2,0.3,0.3c0,0.1,0,0.3-0.1,0.5
			l0,0.1l-10.6-5l0-0.1C-923.5,527.9-923.5,527.7-923.4,527.7z M-924.3,529.5c0.2-0.4,0.3-0.4,0.7-0.3c1.5,0.7,3,1.4,4.6,2.2
			c1.7,0.8,3.4,1.6,5.1,2.4c0.4,0.2,0.4,0.3,0.3,0.7c-1.4,3-2,4.2-3.4,7.2c-0.1,0.1-0.2,0.2-0.4,0.1l-1-0.5l0-0.1
			c0.9-2.1,0-4.5-2.1-5.6c-1-0.5-2.2-0.7-3.3-0.4c-1.1,0.3-2.1,1.1-2.6,2.1l0,0.1l-1-0.5c-0.2-0.1-0.2-0.3-0.2-0.5L-924.3,529.5z
			 M-919.4,540.9l-6.3-3l0-0.1c0.5-1,1.4-1.6,2.5-1.7c0.8-0.1,1.5,0,2.1,0.3c0.6,0.3,1.1,0.7,1.5,1.3
			C-919,538.7-918.9,539.7-919.4,540.9L-919.4,540.9z"/>
	</g>
</g>
</svg>
