<?xml version="1.0" encoding="utf-8"?>
<!-- Generator: Adobe Illustrator 19.0.0, SVG Export Plug-In . SVG Version: 6.00 Build 0)  -->
<svg version="1.1" id="icons" xmlns="http://www.w3.org/2000/svg" xmlns:xlink="http://www.w3.org/1999/xlink" x="0px" y="0px"
	 viewBox="-940 524.5 37.2 33.5" style="enable-background:new -940 524.5 37.2 33.5;" xml:space="preserve">
<style type="text/css">
	.st0{fill:#0E67B1;stroke:#0E67B1;stroke-width:0.3299;stroke-miterlimit:10;}
	.st1{fill:#0E67B1;}
</style>
<g>
	<path class="st0" d="M-921,546c-1.2,0-2.5,0-3.7,0c-0.9,0-1.6-0.6-1.7-1.5c-0.1-1,0.1-1.9,0.7-2.6c0.6-0.7,1.3-1.1,2.1-1.4
		c0.9-0.3,1.7-0.3,2.6-0.3c0.8,0,1.6,0.1,2.4,0.3c0.8,0.2,1.6,0.6,2.1,1.2c0.6,0.6,0.9,1.4,0.9,2.2c0,0.2,0,0.5-0.1,0.7
		c-0.2,0.8-0.9,1.3-1.7,1.3C-918.6,546-919.8,546-921,546z M-921,545.3c0,0,0.1,0,0.1,0c1.2,0,2.4,0,3.6,0c0.5,0,1-0.4,1.1-0.9
		c0-0.3,0-0.7,0-1c-0.1-0.8-0.6-1.3-1.2-1.8c-0.7-0.5-1.5-0.7-2.3-0.8c-0.7-0.1-1.4-0.1-2.2,0c-0.7,0.1-1.5,0.2-2.2,0.6
		c-0.6,0.3-1.1,0.7-1.4,1.4c-0.2,0.4-0.3,0.9-0.2,1.4c0,0.6,0.5,1.1,1.1,1.1C-923.5,545.3-922.2,545.3-921,545.3z"/>
	<path class="st0" d="M-923.8,536.9c0-1.5,1.3-2.8,2.8-2.8c1.5,0,2.8,1.3,2.8,2.8c0,1.5-1.3,2.8-2.8,2.8
		C-922.6,539.7-923.8,538.5-923.8,536.9z M-921,539.1c1.2,0,2.1-0.9,2.1-2.1c0-1.2-0.9-2.1-2.1-2.1c-1.2,0-2.1,0.9-2.1,2.1
		C-923.1,538.1-922.2,539.1-921,539.1z"/>
</g>
<g>
	<path class="st1" d="M-920.9,524.9c0.2,0.1,0.3,0.3,0.5,0.4c2,1.9,4.3,3,6.9,3.7c1.4,0.4,2.9,0.6,4.4,0.6c0.1,0,0.2,0,0.4,0
		c0.4,0,0.7,0.2,0.7,0.7c0,3.7,0.1,7.3,0,11c-0.1,4.7-2.1,8.5-5.8,11.4c-2.2,1.7-4.4,3.4-6.6,5c-0.4,0.3-0.6,0.3-1,0
		c-2.4-1.8-4.8-3.6-7.2-5.5c-2.9-2.3-4.5-5.4-5.1-9.1c-0.1-0.5-0.1-1-0.2-1.6c0-3.8,0-7.7,0-11.5c0.2-0.4,0.5-0.4,0.9-0.4
		c1.7,0,3.4-0.2,5-0.7c2.4-0.7,4.6-1.8,6.4-3.6c0.2-0.2,0.3-0.3,0.5-0.4C-921.1,524.9-921,524.9-920.9,524.9z M-921.1,526.3
		c-0.2,0.2-0.3,0.3-0.5,0.4c-3.2,2.6-6.9,3.8-11,4c-0.3,0-0.4,0.1-0.4,0.4c0,3,0,6,0,9c0,1,0,1.9,0.2,2.9c0.6,3.6,2.4,6.6,5.3,8.8
		c2,1.5,4,3.1,6.1,4.6c0.2,0.2,0.4,0.2,0.6,0c2-1.5,4-3,6-4.6c0.8-0.7,1.6-1.4,2.3-2.2c1.9-2.2,2.9-4.8,3.1-7.6
		c0.1-1.1,0.1-2.2,0.1-3.2c0-2.5,0-5.1,0-7.6c0-0.3-0.1-0.4-0.3-0.4c-0.5,0-1-0.1-1.4-0.1c-2.3-0.2-4.4-0.8-6.4-1.9
		C-918.8,528.2-920,527.3-921.1,526.3z"/>
	<path class="st1" d="M-912.6,532.2c0,0.3-0.3,0.6-0.6,0.6c-0.3,0-0.6-0.3-0.5-0.6c0-0.3,0.3-0.6,0.6-0.6
		C-912.9,531.6-912.6,531.9-912.6,532.2z"/>
	<path class="st1" d="M-920.5,554.4c0,0.3-0.3,0.6-0.6,0.6c-0.3,0-0.6-0.3-0.6-0.6c0-0.3,0.2-0.6,0.5-0.6
		C-920.8,553.9-920.5,554.1-920.5,554.4z"/>
	<path class="st1" d="M-928.4,532.2c0,0.3-0.3,0.6-0.6,0.6c-0.3,0-0.6-0.3-0.6-0.6c0-0.3,0.3-0.6,0.6-0.6
		C-928.6,531.6-928.4,531.9-928.4,532.2z"/>
	<path class="st1" d="M-912.4,545.9c0.3,0,0.6,0.3,0.6,0.6c0,0.3-0.3,0.5-0.6,0.5c-0.3,0-0.6-0.3-0.5-0.6
		C-913,546.2-912.7,545.9-912.4,545.9z"/>
	<path class="st1" d="M-930.5,542c0,0.3-0.3,0.6-0.6,0.6c-0.3,0-0.6-0.3-0.6-0.6c0-0.3,0.3-0.5,0.6-0.5
		C-930.8,541.4-930.5,541.7-930.5,542z"/>
	<path class="st1" d="M-910.5,534.9c0,0.3-0.3,0.6-0.6,0.6c-0.3,0-0.6-0.3-0.6-0.6c0-0.3,0.3-0.5,0.6-0.5
		C-910.7,534.3-910.5,534.5-910.5,534.9z"/>
	<path class="st1" d="M-920.5,528.6c0,0.3-0.3,0.6-0.6,0.6c-0.3,0-0.6-0.3-0.6-0.6c0-0.3,0.2-0.6,0.5-0.6
		C-920.8,528.1-920.5,528.3-920.5,528.6z"/>
	<path class="st1" d="M-929.2,546.5c0,0.3-0.3,0.6-0.6,0.6c-0.3,0-0.6-0.3-0.6-0.6c0-0.3,0.3-0.6,0.6-0.5
		C-929.4,546-929.2,546.2-929.2,546.5z"/>
	<path class="st1" d="M-911,539c0.3,0,0.5,0.2,0.6,0.6c0,0.3-0.2,0.6-0.6,0.6c-0.3,0-0.6-0.2-0.6-0.5
		C-911.6,539.3-911.3,539-911,539z"/>
	<path class="st1" d="M-931.7,534.8c0-0.3,0.2-0.5,0.6-0.5c0.3,0,0.6,0.3,0.6,0.6c0,0.3-0.3,0.6-0.6,0.5
		C-931.4,535.4-931.7,535.2-931.7,534.8z"/>
	<path class="st1" d="M-916,550.1c0-0.3,0.2-0.6,0.5-0.6c0.3,0,0.6,0.2,0.6,0.6c0,0.3-0.2,0.6-0.5,0.6
		C-915.7,550.7-916,550.5-916,550.1z"/>
	<path class="st1" d="M-911.5,544.9c-0.3,0-0.6-0.3-0.5-0.6c0-0.3,0.3-0.5,0.6-0.5c0.3,0,0.6,0.3,0.6,0.6
		C-911,544.6-911.3,544.9-911.5,544.9z"/>
	<path class="st1" d="M-930.1,544.3c0,0.3-0.3,0.6-0.6,0.6c-0.3,0-0.5-0.3-0.6-0.6c0-0.3,0.3-0.6,0.6-0.6
		C-930.3,543.8-930.1,544-930.1,544.3z"/>
	<path class="st1" d="M-930.6,532.5c0,0.3-0.3,0.6-0.6,0.6c-0.3,0-0.5-0.3-0.5-0.6c0-0.3,0.3-0.6,0.6-0.6
		C-930.8,531.9-930.5,532.2-930.6,532.5z"/>
	<path class="st1" d="M-931.7,539.6c0-0.3,0.2-0.6,0.5-0.6c0.3,0,0.6,0.3,0.6,0.6c0,0.3-0.3,0.5-0.6,0.6
		C-931.4,540.2-931.7,539.9-931.7,539.6z"/>
	<path class="st1" d="M-922.3,529.9c0,0.3-0.2,0.5-0.6,0.5c-0.3,0-0.6-0.2-0.6-0.6c0-0.3,0.3-0.6,0.6-0.6
		C-922.6,529.3-922.3,529.6-922.3,529.9z"/>
	<path class="st1" d="M-919.2,552.5c0.3,0,0.5,0.2,0.5,0.6c0,0.3-0.2,0.6-0.6,0.6c-0.3,0-0.6-0.3-0.6-0.6
		C-919.8,552.7-919.5,552.5-919.2,552.5z"/>
	<path class="st1" d="M-913.2,548.5c0,0.3-0.2,0.5-0.6,0.5c-0.3,0-0.6-0.2-0.6-0.6c0-0.3,0.3-0.6,0.6-0.6
		C-913.4,547.9-913.2,548.2-913.2,548.5z"/>
	<path class="st1" d="M-929,548.4c0-0.3,0.3-0.6,0.6-0.5c0.3,0,0.6,0.3,0.5,0.6c0,0.3-0.2,0.5-0.6,0.5
		C-928.7,549-929,548.8-929,548.4z"/>
	<path class="st1" d="M-919.3,530.4c-0.3,0-0.6-0.2-0.6-0.5c0-0.3,0.3-0.6,0.6-0.6c0.3,0,0.6,0.3,0.6,0.6
		C-918.7,530.2-918.9,530.4-919.3,530.4z"/>
	<path class="st1" d="M-917.3,531.4c-0.3,0-0.6-0.3-0.6-0.6c0-0.3,0.2-0.5,0.6-0.5c0.3,0,0.6,0.3,0.6,0.6
		C-916.8,531.2-917,531.4-917.3,531.4z"/>
	<path class="st1" d="M-911.6,542c0-0.3,0.2-0.6,0.5-0.6c0.3,0,0.6,0.2,0.6,0.6c0,0.3-0.3,0.6-0.6,0.6
		C-911.4,542.5-911.6,542.3-911.6,542z"/>
	<path class="st1" d="M-924.3,530.8c0,0.3-0.3,0.6-0.6,0.6c-0.3,0-0.5-0.2-0.6-0.6c0-0.3,0.2-0.6,0.5-0.6
		C-924.5,530.3-924.3,530.5-924.3,530.8z"/>
	<path class="st1" d="M-927.3,550.1c0-0.3,0.2-0.6,0.6-0.6c0.3,0,0.5,0.2,0.5,0.6c0,0.3-0.2,0.6-0.6,0.6
		C-927.1,550.7-927.3,550.5-927.3,550.1z"/>
	<path class="st1" d="M-910.5,532.5c0,0.3-0.2,0.6-0.6,0.6c-0.3,0-0.6-0.3-0.6-0.6c0-0.3,0.3-0.6,0.6-0.6
		C-910.7,531.9-910.5,532.2-910.5,532.5z"/>
	<path class="st1" d="M-917.3,551c0.3,0,0.6,0.3,0.6,0.6c0,0.3-0.2,0.5-0.6,0.5c-0.3,0-0.6-0.2-0.6-0.6
		C-917.9,551.3-917.6,551-917.3,551z"/>
	<path class="st1" d="M-923,552.5c0.3,0,0.6,0.3,0.6,0.6c0,0.3-0.3,0.5-0.6,0.5c-0.3,0-0.6-0.2-0.6-0.5
		C-923.5,552.7-923.3,552.5-923,552.5z"/>
	<path class="st1" d="M-911,537.8c-0.3,0-0.6-0.2-0.6-0.5c0-0.3,0.2-0.6,0.6-0.6c0.3,0,0.6,0.2,0.6,0.6
		C-910.5,537.6-910.7,537.8-911,537.8z"/>
	<path class="st1" d="M-931.7,537.2c0-0.3,0.2-0.5,0.5-0.5c0.3,0,0.6,0.2,0.6,0.6c0,0.3-0.3,0.6-0.6,0.5
		C-931.5,537.8-931.7,537.6-931.7,537.2z"/>
	<path class="st1" d="M-924.9,552.1c-0.3,0-0.5-0.2-0.5-0.5c0-0.3,0.2-0.6,0.6-0.6c0.3,0,0.5,0.2,0.5,0.5
		C-924.3,551.9-924.5,552.1-924.9,552.1z"/>
	<path class="st1" d="M-915.3,532.2c-0.3,0-0.5-0.2-0.6-0.5c0-0.3,0.2-0.6,0.6-0.6c0.3,0,0.5,0.2,0.6,0.5
		C-914.7,531.9-915,532.2-915.3,532.2z"/>
	<path class="st1" d="M-926.3,531.6c0,0.3-0.2,0.6-0.6,0.6c-0.3,0-0.5-0.2-0.5-0.6c0-0.3,0.2-0.5,0.6-0.5
		C-926.5,531.1-926.3,531.3-926.3,531.6z"/>
</g>
</svg>
