<?xml version="1.0" encoding="utf-8"?>
<!-- Generator: Adobe Illustrator 19.0.0, SVG Export Plug-In . SVG Version: 6.00 Build 0)  -->
<svg version="1.1" id="icons" xmlns="http://www.w3.org/2000/svg" xmlns:xlink="http://www.w3.org/1999/xlink" x="0px" y="0px"
	 viewBox="-940 524.5 37.2 33.5" style="enable-background:new -940 524.5 37.2 33.5;" xml:space="preserve">
<style type="text/css">
	.st0{fill:#0E67B1;}
	.st1{fill:#0E67B1;stroke:#0F68B1;stroke-width:0.2266;stroke-miterlimit:10;}
</style>
<g>
	<path class="st0" d="M-903,546.4c0-2.8,0-15.3,0-16.3c0-0.9-0.5-1.6-1.3-1.8c-0.1,0-0.2-0.1-0.3-0.1c-11,0-21.7,0-32.8,0
		c0,0-0.3,0.1-0.4,0.1c-1,0.3-1.5,1-1.5,2c0,0.9,0,15.1,0,16.5c0,1.4,0,2.3,0,3.9c0,1.5,0.8,2.2,2.3,2.2c3.4,0,6.8,0,10.2,0
		c0.2,0,0.3,0,0.5,0c0,1.3,0,2.6,0,3.9c-0.6,0-1.2,0-1.8,0c-0.4,0-0.7,0.2-0.7,0.6c0,0.4,0.3,0.6,0.7,0.6c4.7,0,9.4,0,14,0
		c0.5,0,0.7-0.2,0.7-0.6c0-0.4-0.3-0.6-0.7-0.6c-0.6,0-1.2,0-1.8,0c0-1.2,0-2.3,0-3.4c0-0.5,0-0.5,0.5-0.5c3.5,0,6.9,0,10.4,0
		c1.3,0,2.1-0.8,2.1-2.1c0-1.1,0-1.5,0-2.6C-903,547.5-903,546.9-903,546.4z M-938.1,530.3c0-0.7,0.2-0.9,0.9-0.9
		c10.7,0,21.4,0,32.1,0c0.6,0,0.8,0.2,0.8,0.8c0,0.9,0,12.3,0,15.7c0,0.2,0,0.5,0,0.7c0,0.1,0,0.2,0,0.2c0,0,0,0,0,0
		c0,0.2-0.2,0.2-0.5,0.2c-8.8,0-17.6,0-26.4,0c-2.2,0-4.4,0-6.5,0c-0.3,0-0.4-0.1-0.4-0.3c0,0,0-0.1,0-0.1c0,0,0-0.1,0-0.1
		c0-0.2,0-0.5,0-0.7C-938.1,542.6-938.1,531.1-938.1,530.3z M-917.3,556.7c-2.6,0-5.2,0-7.8,0c0-1.3,0-2.6,0-3.9c2.6,0,5.2,0,7.8,0
		C-917.3,554.1-917.3,555.4-917.3,556.7z M-904.3,550.9c0,0.3-0.2,0.5-0.6,0.6c-0.1,0-0.2,0-0.3,0c-10.6,0-21.2,0-31.7,0
		c-0.2,0-0.4,0-0.6,0c-0.3,0-0.6-0.2-0.6-0.6c0-1.1,0-1.4,0-2.6c11.3,0,22.5,0,33.8,0C-904.3,549.5-904.2,549.9-904.3,550.9z"/>
	<path class="st0" d="M-921.2,549.2c-0.3,0-0.6,0.3-0.6,0.6c0,0.4,0.3,0.6,0.6,0.6c0.3,0,0.6-0.3,0.6-0.6
		C-920.6,549.4-920.8,549.2-921.2,549.2z"/>
</g>
<g id="Page-1_5_">
	<g id="icon-27-one-finger-click_5_">
		<path id="one-finger-click_5_" class="st1" d="M-922.7,532.1v1.5c0,0,0,0,0,0h0.4c0,0,0,0,0,0v-1.5c0,0,0,0,0,0H-922.7
			L-922.7,532.1z M-920.3,533.1l-1.2,1c0,0,0,0,0,0l0.2,0.3c0,0,0,0,0,0l1.2-1c0,0,0,0,0,0L-920.3,533.1L-920.3,533.1z
			 M-919.5,535.7l-1.5-0.3c0,0,0,0,0,0l-0.1,0.4c0,0,0,0,0,0l1.5,0.3c0,0,0,0,0,0L-919.5,535.7L-919.5,535.7z M-925.5,536.1l1.5-0.3
			c0,0,0,0,0,0l-0.1-0.4c0,0,0,0,0,0l-1.5,0.3c0,0,0,0,0,0L-925.5,536.1L-925.5,536.1z M-925,533.4l1.2,1c0,0,0,0,0,0l0.2-0.3
			c0,0,0,0,0,0l-1.2-1c0,0,0,0,0,0L-925,533.4L-925,533.4z M-920.2,544c1.6,0,2.9-1.4,2.9-2.9c0,0,0,0.9,0,0v-1.4v-0.8
			c0-0.3-0.2-0.6-0.5-0.6c-0.3,0-0.6,0.2-0.6,0.6v0.2h-0.4c0,0,0,0,0,0v-0.9c0-0.3-0.2-0.6-0.5-0.6c-0.3,0-0.6,0.2-0.6,0.6v0.6
			c0,0,0,0,0,0h-0.4c0,0,0,0,0,0v-0.9c0-0.3-0.2-0.6-0.5-0.6c-0.3,0-0.6,0.2-0.6,0.6v1.3c0,0,0,0,0,0h-0.4c0,0,0,0,0,0v-4
			c0-0.3-0.2-0.6-0.5-0.6c-0.3,0-0.6,0.2-0.6,0.6v4.3c0,0,0,0,0,0c-0.8-0.8-1.8-1.8-2.2-1.3c-0.4,0.4,0.7,1.6,2.2,4.1
			C-922.5,543.3-921.7,544-920.2,544L-920.2,544z M-917,541.2c0,1.8-1.5,3.3-3.3,3.3c-1.2,0-2.5-0.6-3.3-2.1
			c-1.3-2.3-2.9-3.8-2.1-4.6c0.5-0.5,1.4,0,2.2,0.7l0,0v-3.4c0-0.4,0.3-0.8,0.7-1c0.7-0.2,1.2,0.4,1.2,1v1.8c0,0,0,0,0,0
			c0.2-0.1,0.4-0.2,0.6-0.2c0.4,0,0.8,0.3,0.9,0.6c0,0,0,0,0,0c0.2-0.1,0.4-0.2,0.6-0.2c0.5,0,1,0.4,1,1v0c0.2-0.1,0.4-0.2,0.6-0.2
			c0.5,0,1,0.4,1,1V541.2L-917,541.2z"/>
	</g>
</g>
</svg>
