<?xml version="1.0" encoding="utf-8"?>
<!-- Generator: Adobe Illustrator 19.0.0, SVG Export Plug-In . SVG Version: 6.00 Build 0)  -->
<svg version="1.1" id="icons" xmlns="http://www.w3.org/2000/svg" xmlns:xlink="http://www.w3.org/1999/xlink" x="0px" y="0px"
	 viewBox="-940 524.5 37.2 33.5" style="enable-background:new -940 524.5 37.2 33.5;" xml:space="preserve">
<style type="text/css">
	.st0{fill:#0E67B1;stroke:#0E67B1;stroke-width:0.3975;stroke-miterlimit:10;}
	.st1{fill:#0E67B1;}
</style>
<g>
	<path class="st0" d="M-905.9,550.6c0.8,0,1.5,0,2.3,0c0.4,0,0.5,0.1,0.5,0.5c0,0.2,0,0.5,0,0.7c0,1-0.5,1.5-1.5,1.5
		c-2.3,0-4.7,0-7,0c-8.9,0-17.8,0-26.7,0c-1.2,0-1.6-0.5-1.7-1.7c0-1.1,0-1.1,1-1.1c0.6,0,1.1,0,1.7,0c0-0.2,0-0.3,0-0.5
		c0-6.2,0-12.4,0-18.7c0-1.3,0.8-1.7,1.7-1.7c9.3,0,18.6,0,27.9,0c0.4,0,0.8,0.1,1.2,0.3c0.4,0.2,0.6,0.7,0.6,1.2c0,3.5,0,7,0,10.5
		c0,2.8,0,5.6,0,8.4C-905.9,550.3-905.9,550.4-905.9,550.6z M-906.3,550.5c0-0.2,0-0.3,0-0.4c0-1.7,0-3.5,0-5.2c0-4.6,0-9.1,0-13.7
		c0-0.7-0.4-1.1-1.1-1.1c-0.1,0-0.2,0-0.2,0c-9.3,0-18.7,0-28,0c-0.9,0-1.2,0.3-1.2,1.2c0,6.3,0,12.5,0,18.8c0,0.1,0,0.3,0,0.4
		C-926.6,550.5-916.5,550.5-906.3,550.5z M-925.9,551c-4.6,0-9.1,0-13.7,0c0,0.2,0,0.4,0,0.6c0,1,0.3,1.3,1.3,1.3
		c9.4,0,18.8,0,28.3,0c1.8,0,3.6,0,5.4,0c0.6,0,1-0.3,1.1-0.8c0.1-0.4,0-0.8,0-1.2c-4.9,0-9.8,0-14.7,0c-0.3,0.7-0.4,0.8-1.2,0.8
		c-1.8,0-3.6,0-5.4,0C-925.5,551.8-925.7,551.6-925.9,551z M-925.5,551c0.1,0.3,0.3,0.4,0.5,0.4c0.4,0,0.8,0,1.2,0c1.5,0,3,0,4.5,0
		c0.3,0,0.6,0,0.6-0.4C-921,551-923.2,551-925.5,551z"/>
	<path class="st0" d="M-921.6,531.6c4.4,0,8.8,0,13.1,0c0.5,0,0.5,0,0.5,0.5c0,5.4,0,10.9,0,16.3c0,0.6,0,0.6-0.6,0.6
		c-8.7,0-17.5,0-26.2,0c-0.1,0-0.2,0-0.2,0c-0.3,0-0.4-0.1-0.4-0.4c0-1.1,0-2.2,0-3.4c0-4.4,0-8.7,0-13.1c0-0.5,0-0.5,0.5-0.5
		C-930.3,531.6-925.9,531.6-921.6,531.6z M-934.9,532c0,5.5,0,11.1,0,16.6c8.9,0,17.7,0,26.6,0c0-5.5,0-11.1,0-16.6
		C-917.2,532-926,532-934.9,532z"/>
</g>
<path class="st1" d="M-914.8,536.1c-0.8,0-1.4,0.6-1.4,1.4c0,0.3,0.1,0.6,0.3,0.8l-3.3,3.8c-0.2-0.1-0.4-0.1-0.6-0.1
	c-0.3,0-0.5,0.1-0.7,0.2l-1.5-1.6c0.1-0.2,0.2-0.5,0.2-0.8c0-0.8-0.6-1.4-1.4-1.4c-0.8,0-1.4,0.6-1.4,1.4c0,0.1,0,0.3,0.1,0.4
	l-3.6,2.2c-0.3-0.3-0.6-0.4-1-0.4c-0.8,0-1.4,0.6-1.4,1.4c0,0.8,0.6,1.4,1.4,1.4c0.8,0,1.4-0.6,1.4-1.4c0-0.1,0-0.3-0.1-0.4l3.6-2.2
	c0.3,0.3,0.6,0.4,1,0.4c0.3,0,0.5-0.1,0.7-0.2l1.5,1.6c-0.1,0.2-0.2,0.5-0.2,0.8c0,0.8,0.6,1.4,1.4,1.4c0.8,0,1.4-0.6,1.4-1.4
	c0-0.3-0.1-0.6-0.3-0.8l3.3-3.8c0.2,0.1,0.4,0.2,0.6,0.2c0.8,0,1.4-0.6,1.4-1.4C-913.4,536.7-914,536.1-914.8,536.1z M-928.6,543.4
	c0,0.4-0.3,0.7-0.7,0.7c-0.4,0-0.7-0.3-0.7-0.7c0-0.4,0.3-0.7,0.7-0.7c0.1,0,0.2,0,0.3,0.1C-928.8,542.9-928.6,543.2-928.6,543.4
	L-928.6,543.4z M-923.4,540.6c-0.1,0-0.2,0-0.3-0.1c-0.2-0.1-0.4-0.4-0.4-0.6v0c0-0.4,0.3-0.7,0.7-0.7c0.4,0,0.7,0.3,0.7,0.7
	c0,0.1,0,0.1,0,0.2c-0.1,0.2-0.3,0.4-0.5,0.5C-923.3,540.6-923.3,540.6-923.4,540.6z M-919.3,543.4c0,0.4-0.3,0.7-0.7,0.7
	c-0.4,0-0.7-0.3-0.7-0.7c0-0.1,0-0.1,0-0.2c0.1-0.2,0.3-0.4,0.5-0.5c0.1,0,0.1,0,0.2,0c0,0,0.1,0,0.1,0c0.3,0,0.5,0.2,0.5,0.5
	C-919.3,543.3-919.3,543.4-919.3,543.4z M-914.8,538.2c0,0-0.1,0-0.1,0c-0.3,0-0.5-0.2-0.5-0.5c0-0.1,0-0.2,0-0.2
	c0-0.4,0.3-0.7,0.7-0.7c0.4,0,0.7,0.3,0.7,0.7C-914.1,537.9-914.4,538.2-914.8,538.2z"/>
</svg>
