<?xml version="1.0" encoding="utf-8"?>
<!-- Generator: Adobe Illustrator 19.0.0, SVG Export Plug-In . SVG Version: 6.00 Build 0)  -->
<svg version="1.1" id="icons" xmlns="http://www.w3.org/2000/svg" xmlns:xlink="http://www.w3.org/1999/xlink" x="0px" y="0px"
	 viewBox="-940 524.5 37.2 33.5" style="enable-background:new -940 524.5 37.2 33.5;" xml:space="preserve">
<style type="text/css">
	.st0{fill:#0E67B1;}
</style>
<g>
	<path class="st0" d="M-927.5,558.5c-0.3,0-0.5-0.1-0.8-0.2c-1.5-0.4-2.7-1.9-2.7-3.5c0-3.8,0-7.5,0-11.3c0-0.1,0-0.3,0-0.5
		c-0.2,0-0.4,0-0.5,0c-0.4,0-0.7-0.3-0.7-0.7c0-0.4,0.3-0.7,0.7-0.7c0.2,0,0.3,0,0.5,0c0-0.5,0-0.9,0-1.4c-0.3,0-0.6,0-0.8,0
		c-0.4,0-0.7,0-1.1,0c-0.4,0-0.7-0.3-0.7-0.7c0-0.4,0.3-0.7,0.7-0.7c0.5,0,1,0,1.5,0c0.1,0,0.3,0,0.4,0c0-0.1,0-0.3,0-0.4
		c0-3.3,0-6.5,0-9.8c0-1.9,1.4-3.3,2.6-3.6c0,0,0.1,0,0.1-0.1c4.6,0,9.3,0,13.9,0c0.8,0.3,1.5,0.7,2,1.4c0.5,0.6,0.7,1.3,0.7,2
		c0,2.3,0,4.6,0,6.9c0,0.5-0.3,0.8-0.7,0.8c-0.4,0-0.7-0.3-0.7-0.8c0-1.4,0-2.8,0-4.3c0-0.2,0-0.3,0-0.5c-5.6,0-11.1,0-16.6,0
		c0,2.8,0,5.5,0,8.3c0.2,0,0.3,0,0.4,0c1.9,0,3.9,0,5.8,0c0.5,0,0.8,0.2,0.8,0.6c0.1,0.5-0.3,0.8-0.8,0.8c-1.4,0-2.7,0-4.1,0
		c-0.7,0-1.5,0-2.2,0c0,0.5,0,0.9,0,1.4c0.1,0,0.2,0,0.4,0c1.5,0,3,0,4.6,0c0.3,0,0.6,0.1,0.7,0.4c0.1,0.2,0.1,0.5,0,0.7
		c-0.1,0.3-0.4,0.3-0.7,0.3c-1.5,0-3,0-4.5,0c-0.1,0-0.3,0-0.4,0c0,3.3,0,6.5,0,9.7c5.5,0,11.1,0,16.6,0c0-0.6,0-1.1,0-1.7
		c0-0.1,0-0.3,0-0.4c0-0.4,0.3-0.7,0.7-0.7c0.4,0,0.7,0.3,0.7,0.7c0,0.4,0,0.9,0,1.3c0,0.9,0,1.7,0,2.6c0.1,2.1-1.7,3.7-3.3,3.7
		c-0.1,0-0.1,0-0.2,0C-919.2,558.5-923.3,558.5-927.5,558.5z M-912.9,529.3c0-0.3,0-0.5,0-0.7c0-1.2-0.9-2.1-2.1-2.1
		c-4.1,0-8.2,0-12.3,0c-1.5,0-2.5,1.1-2.2,2.8C-924,529.3-918.5,529.3-912.9,529.3z M-912.9,554.3c-5.6,0-11.1,0-16.6,0
		c0,0.3,0,0.6,0,0.9c0.1,0.9,0.7,1.6,1.6,1.8c0.3,0.1,0.5,0.1,0.8,0.1c2.5,0,4.9,0,7.4,0c1.6,0,3.2,0,4.8,0c1.1,0,1.9-0.7,2-1.8
		C-912.9,555-912.9,554.7-912.9,554.3z"/>
	<path class="st0" d="M-919,537.7c3.3,0,6.6,0,9.9,0c0-0.1,0.1-0.2,0.1-0.4c0.1-0.4,0.5-0.5,0.8-0.4c0.4,0.1,0.6,0.4,0.5,0.8
		c-0.4,1.6-0.8,3.2-1.2,4.7c-0.1,0.4-0.7,0.8-1.1,0.8c-1.4,0.1-2.8,0.2-4.2,0.4c-1.1,0.1-2.3,0.2-3.4,0.3c-0.6,0.1-0.6,0.1-0.6,0.7
		c0.1,0,0.3,0,0.4,0c2.6,0,5.3,0,7.9,0c0.4,0,0.7,0.2,0.8,0.5c0.1,0.5-0.2,0.8-0.7,0.8c-1.1,0-2.1,0-3.2,0c-1.8,0-3.6,0-5.4,0
		c-0.9,0-1.4-0.6-1.2-1.4c0.3-1.1,0-2.2-0.2-3.3c-0.2-0.9-0.4-1.8-0.6-2.7c-0.1-0.3,0-0.6,0.1-1c-0.3,0-0.7,0-1.1,0
		c-0.5,0-0.8-0.3-0.8-0.7c0-0.4,0.3-0.7,0.8-0.7c0.5,0,0.9,0,1.4,0C-919.4,536.3-918.9,536.9-919,537.7z M-919.1,539.1
		c0.2,1.1,0.5,2.2,0.7,3.2c0.1,0.3,0.2,0.3,0.4,0.3c1.5-0.1,3.1-0.3,4.6-0.4c0.9-0.1,1.8-0.2,2.7-0.3c0.2,0,0.4-0.1,0.4-0.2
		c0.3-0.9,0.5-1.8,0.7-2.7C-912.7,539.1-915.8,539.1-919.1,539.1z"/>
	<path class="st0" d="M-916.2,548.1c0,0.8-0.7,1.5-1.5,1.5c-0.8,0-1.5-0.8-1.5-1.5c0-0.8,0.8-1.5,1.5-1.5
		C-917,546.5-916.2,547.3-916.2,548.1z M-917.7,547.6c-0.3,0-0.4,0.1-0.4,0.4c0,0.3,0.1,0.4,0.4,0.4c0.3,0,0.4-0.1,0.4-0.4
		C-917.3,547.8-917.4,547.6-917.7,547.6z"/>
	<path class="st0" d="M-910.8,546.5c0.8,0,1.5,0.8,1.5,1.5c0,0.8-0.8,1.5-1.5,1.5c-0.8,0-1.5-0.8-1.5-1.5
		C-912.3,547.3-911.6,546.5-910.8,546.5z M-910.8,547.6c-0.3,0-0.4,0.1-0.4,0.4c0,0.3,0.1,0.4,0.4,0.4c0.3,0,0.4-0.1,0.4-0.4
		C-910.4,547.8-910.5,547.6-910.8,547.6z"/>
	<path class="st0" d="M-921.3,556.3c-0.4,0-0.7-0.4-0.7-0.7c0-0.4,0.4-0.7,0.8-0.6c0.4,0,0.7,0.3,0.6,0.7
		C-920.6,556.1-920.9,556.4-921.3,556.3z"/>
</g>
</svg>
