<?xml version="1.0" encoding="utf-8"?>
<!-- Generator: Adobe Illustrator 19.0.0, SVG Export Plug-In . SVG Version: 6.00 Build 0)  -->
<svg version="1.1" id="icons" xmlns="http://www.w3.org/2000/svg" xmlns:xlink="http://www.w3.org/1999/xlink" x="0px" y="0px"
	 viewBox="-286 380.5 37.2 33.5" style="enable-background:new -286 380.5 37.2 33.5;" xml:space="preserve">
<style type="text/css">
	.st0{fill:#0E67B1;}
</style>
<g id="djgroI.tif">
	<g id="XMLID_108_">
		<path id="XMLID_109_" class="st0" d="M-251.2,390.5c0,6.4,0,12.8,0,19.1c0,0.1-0.1,0.1-0.1,0.2c-0.3,1.5-1.3,2.5-2.7,3
			c-0.2,0.1-0.4,0.1-0.6,0.2c-8.5,0-17.1,0-25.6,0c-0.1,0-0.1-0.1-0.2-0.1c-1.5-0.3-2.5-1.2-3-2.7c-0.1-0.2-0.1-0.4-0.2-0.6
			c0-6.4,0-12.8,0-19.1c0,0,0.1-0.1,0.1-0.1c0.4-2,1.9-3.2,3.9-3.2c1.3,0,2.5,0,3.8,0c0.1,0,0.2,0,0.3,0c0-0.4,0-0.7,0-1
			c0-0.3,0.1-0.5,0.4-0.5c0.2,0,0.2-0.2,0.3-0.3c0.4-1.7,1.5-2.8,3.2-3.4c0.2-0.1,0.4-0.1,0.6-0.1c2.4,0,4.9,0,7.3,0
			c0,0,0.1,0,0.1,0c2,0.4,3.2,1.6,3.7,3.5c0,0.1,0.1,0.2,0.2,0.2c0.3,0.1,0.4,0.3,0.4,0.6c0,0.3,0,0.6,0,1c0.1,0,0.2,0,0.3,0
			c1.3,0,2.6,0,3.9,0c1.7,0,3.2,1.2,3.7,2.8C-251.3,390.2-251.3,390.3-251.2,390.5z M-274.4,396.2c0,0.2,0,0.3,0,0.5
			c0,0.6-0.2,0.7-0.8,0.7c-0.9,0-1.9,0-2.8,0c-0.6,0-0.7-0.2-0.7-0.7c0-0.7,0-1.3,0-2c0-0.3-0.1-0.4-0.3-0.5
			c-0.7-0.3-1.5-0.6-2.2-0.9c-0.4-0.2-0.8-0.3-1.2-0.5c0,5.3,0,10.6,0,15.8c10.1,0,20.1,0,30.2,0c0-5.3,0-10.5,0-15.8
			c-0.1,0-0.1,0-0.1,0c-1.2,0.5-2.3,0.9-3.5,1.4c-0.1,0-0.2,0.2-0.2,0.3c0,0.7,0,1.5,0,2.2c0,0.4-0.2,0.6-0.6,0.6
			c-1.1,0-2.1,0-3.2,0c-0.3,0-0.5-0.2-0.5-0.5c0-0.2,0-0.4,0-0.7c-0.2,0.1-0.3,0.1-0.4,0.1c-2.1,0.9-4.2,1.7-6.2,2.6
			c-0.3,0.1-0.5,0.1-0.8,0c-1.6-0.7-3.2-1.3-4.8-2C-273.1,396.7-273.7,396.4-274.4,396.2z M-278.7,393.2c0-0.2,0-0.4,0-0.5
			c0-0.5,0.2-0.7,0.7-0.7c1,0,2,0,3,0c0.4,0,0.6,0.2,0.6,0.6c0,0.7,0,1.4,0,2.1c0,0.1,0.1,0.3,0.2,0.3c2.2,0.9,4.4,1.8,6.6,2.7
			c0.1,0.1,0.3,0.1,0.4,0c2.2-0.9,4.4-1.8,6.6-2.7c0.2-0.1,0.2-0.2,0.2-0.4c0-0.7,0-1.4,0-2.1c0-0.4,0.2-0.6,0.6-0.6
			c1,0,2.1,0,3.1,0c0.4,0,0.6,0.2,0.6,0.6c0,0.2,0,0.4,0,0.6c0.1,0,0.2-0.1,0.2-0.1c1-0.4,2-0.8,3-1.2c0.6-0.2,0.6-0.2,0.6-0.8
			c0-1.7-1.1-2.8-2.8-2.8c-2.8,0-5.5,0-8.3,0c-4.3,0-8.7,0-13,0c-1.3,0-2.5,0-3.8,0.1c-1.1,0.1-1.8,0.8-2.1,1.8
			c-0.1,0.4-0.1,0.9-0.1,1.3c0,0.2,0.1,0.3,0.2,0.3c0.6,0.2,1.2,0.5,1.7,0.7C-279.9,392.7-279.3,393-278.7,393.2z M-282.4,409.8
			c0.2,1.3,1.3,2.1,2.6,2.1c1.8,0,3.5,0,5.3,0c6.2,0,12.4,0,18.6,0c0.5,0,1,0,1.4-0.1c1.1-0.2,2-1,2.1-2.1
			C-262.4,409.8-272.4,409.8-282.4,409.8z M-263.2,385.6c-0.2-0.4-0.5-0.5-0.9-0.5c-2.2,0-4.4,0-6.6,0c-0.4,0-0.7,0.2-0.9,0.5
			c0.4,0.1,0.4,0.4,0.4,0.8c0,0.3,0,0.5,0,0.8c2.5,0,5,0,7.5,0C-263.4,386.6-263.9,385.9-263.2,385.6z M-261,385.5
			c0-0.1,0-0.2-0.1-0.3c-0.4-1.3-1.2-2.1-2.5-2.3c-0.7-0.1-1.5-0.1-2.3-0.1c-1.7,0-3.3,0-5,0c-1.1,0-2,0.6-2.6,1.6
			c-0.2,0.3-0.3,0.7-0.4,1.1c0.4,0,0.6,0,0.9,0c0.2,0,0.3-0.1,0.4-0.3c0.4-0.9,1.1-1.4,2.2-1.4c2,0,4,0,6,0c1.1,0,1.8,0.4,2.3,1.4
			c0,0.1,0.1,0.2,0.2,0.2C-261.6,385.6-261.3,385.5-261,385.5z M-277.6,393.1c0,1.1,0,2.1,0,3.2c0.7,0,1.4,0,2.1,0
			c0-1.1,0-2.1,0-3.2C-276.2,393.1-276.9,393.1-277.6,393.1z M-257.2,393.1c-0.7,0-1.4,0-2.1,0c0,1.1,0,2.1,0,3.2c0.7,0,1.4,0,2.1,0
			C-257.2,395.2-257.2,394.2-257.2,393.1z M-272.2,387.2c0-0.2,0-0.3,0-0.5c-0.7,0-1.4,0-2.1,0c0,0.2,0,0.3,0,0.5
			C-273.6,387.2-273,387.2-272.2,387.2z M-260.4,387.2c0-0.2,0-0.3,0-0.5c-0.7,0-1.4,0-2.1,0c0,0.2,0,0.3,0,0.5
			C-261.8,387.2-261.1,387.2-260.4,387.2z"/>
	</g>
</g>
</svg>
