<?xml version="1.0" encoding="utf-8"?>
<!-- Generator: Adobe Illustrator 19.0.0, SVG Export Plug-In . SVG Version: 6.00 Build 0)  -->
<svg version="1.1" id="icons" xmlns="http://www.w3.org/2000/svg" xmlns:xlink="http://www.w3.org/1999/xlink" x="0px" y="0px"
	 viewBox="-286 380.5 37.2 33.5" style="enable-background:new -286 380.5 37.2 33.5;" xml:space="preserve">
<style type="text/css">
	.st0{fill:#0E67B1;stroke:#0E67B1;stroke-width:0.2183;stroke-miterlimit:10;}
</style>
<g id="XMLID_43_">
	<path id="XMLID_59_" class="st0" d="M-262.4,381.9c0.2-0.2,0.4-0.5,0.6-0.7c0.2-0.2,0.4-0.3,0.6-0.2c0.3,0.1,0.3,0.3,0.3,0.6
		c0,1.5,0,3.1,0,4.6c0,0.1,0,0.3,0,0.5c0.2,0,0.3,0,0.4,0c2.3,0,4.5,0,6.8,0c1.9,0,3.2,1.3,3.3,3.2c0,3.9,0,7.9,0,11.8
		c0,0.3,0,0.5-0.3,0.6c-0.2,0.1-0.4,0-0.6-0.1c-0.3-0.2-0.6-0.4-1-0.6c-0.1-0.1-0.3-0.1-0.4,0c-0.3,0.2-0.6,0.4-1,0.6
		c-0.3,0.2-0.5,0.2-0.8,0c-0.4-0.2-0.7-0.4-1.2-0.6c0,0.2,0,0.3,0,0.4c0,2.7,0,5.3,0,8c0,2-1.3,3.3-3.3,3.3c-6.9,0-13.7,0-20.6,0
		c-1.9,0-3.3-1.3-3.3-3.3c0-9.5,0-19,0-28.5c0-0.3,0-0.5,0.3-0.7c0.3-0.1,0.5,0,0.7,0.2c0.2,0.2,0.4,0.4,0.6,0.6
		c0.4-0.2,0.7-0.4,1-0.7c0.5-0.3,0.5-0.3,1,0c0.3,0.2,0.6,0.4,0.9,0.6c0.1,0.1,0.3,0.1,0.4,0c0.4-0.2,0.7-0.4,1-0.7
		c0.2-0.2,0.5-0.2,0.7,0c0.3,0.2,0.7,0.5,1,0.7c0.1,0.1,0.3,0.1,0.4,0c0.3-0.2,0.7-0.4,1-0.6c0.3-0.2,0.6-0.2,0.9,0
		c0.3,0.2,0.6,0.4,0.9,0.6c0.2,0.1,0.3,0.1,0.5,0c0.3-0.2,0.7-0.4,1-0.7c0.2-0.2,0.4-0.2,0.7,0c0.3,0.2,0.7,0.4,1,0.7
		c0.1,0.1,0.3,0.1,0.4,0c0.3-0.2,0.6-0.4,0.9-0.6c0.3-0.2,0.6-0.2,0.9,0c0.3,0.2,0.6,0.4,0.9,0.6c0.2,0.1,0.3,0.1,0.4,0
		c0.3-0.2,0.7-0.4,1-0.7c0.2-0.2,0.5-0.2,0.7,0C-263.2,381.4-262.8,381.6-262.4,381.9z M-281.7,382.9c0,0.1,0,0.2,0,0.3
		c0,9,0,18,0,27c0,1.4,0.9,2.2,2.3,2.2c6,0,12.1,0,18.1,0c0.1,0,0.2,0,0.3,0c-0.6-0.7-0.8-1.5-0.8-2.4c0-8.9,0-17.9,0-26.8
		c0-0.1,0-0.2,0-0.5c-0.4,0.5-0.7,0.3-1.1,0.1c-0.3-0.2-0.6-0.4-0.8-0.6c-0.1,0-0.3,0-0.3,0c-0.4,0.2-0.7,0.4-1,0.7
		c-0.2,0.2-0.5,0.2-0.7,0c-0.3-0.2-0.7-0.4-1-0.7c-0.2-0.1-0.3-0.1-0.5,0c-0.3,0.2-0.7,0.4-1,0.7c-0.2,0.2-0.5,0.2-0.7,0
		c-0.3-0.2-0.7-0.5-1-0.7c-0.1-0.1-0.3-0.1-0.4,0c-0.4,0.2-0.7,0.4-1,0.7c-0.2,0.2-0.5,0.2-0.7,0c-0.3-0.2-0.7-0.4-1-0.7
		c-0.2-0.1-0.3-0.1-0.5,0c-0.3,0.2-0.6,0.4-0.9,0.6c-0.3,0.2-0.5,0.2-0.8,0c-0.3-0.2-0.7-0.4-1-0.7c-0.2-0.1-0.3-0.1-0.4,0
		c-0.3,0.2-0.7,0.5-1,0.7c-0.2,0.2-0.4,0.2-0.7,0c-0.3-0.2-0.7-0.5-1-0.7c-0.1-0.1-0.3-0.1-0.4,0c-0.3,0.2-0.6,0.4-0.9,0.6
		C-281.1,383.2-281.2,383.2-281.7,382.9z M-260.8,387.8c0,0.3,0,0.5,0,0.7c0,5.8,0,11.6,0,17.3c0,1.5,0,3,0,4.5c0,1.4,1.3,2.4,2.6,2
		c1-0.2,1.6-1.1,1.6-2.2c0-6.6,0-13.3,0-19.9c0-0.9,0.2-1.7,0.7-2.4c0,0,0,0,0-0.1C-257.5,387.8-259.1,387.8-260.8,387.8z
		 M-251.3,401c0-0.2,0-0.4,0-0.5c0-3.4,0-6.9,0-10.3c0-0.1,0-0.2,0-0.3c-0.1-1.2-1-2-2.2-2c-1.1,0-2,0.9-2,2.1c0,3.5,0,7,0,10.4
		c0,0.1,0.1,0.3,0.2,0.3c0.4,0.2,0.7,0.4,1.1,0.6c0.1,0,0.3,0,0.4,0c0.3-0.2,0.7-0.4,1-0.6c0.3-0.2,0.6-0.2,0.9,0
		C-251.8,400.7-251.6,400.8-251.3,401z"/>
	<path id="XMLID_56_" class="st0" d="M-275.4,387.8c0-2,1.6-3.7,3.7-3.7c2,0,3.7,1.6,3.7,3.7c0,2-1.6,3.7-3.7,3.7
		C-273.8,391.5-275.4,389.8-275.4,387.8z M-274.4,387.8c0,1.4,1.2,2.6,2.6,2.6c1.4,0,2.6-1.2,2.6-2.6c0-1.4-1.2-2.6-2.6-2.6
		C-273.2,385.2-274.4,386.4-274.4,387.8z"/>
	<path id="XMLID_55_" class="st0" d="M-267.1,395.7h-8.9c-0.3,0-0.5-0.2-0.5-0.5l0,0c0-0.3,0.2-0.5,0.5-0.5h8.9
		c0.3,0,0.5,0.2,0.5,0.5l0,0C-266.5,395.4-266.8,395.7-267.1,395.7z"/>
	<path id="XMLID_54_" class="st0" d="M-270.2,409.3L-270.2,409.3c0,0.3-0.2,0.5-0.5,0.5h-8.4c-0.3,0-0.5-0.2-0.5-0.5l0,0
		c0-0.3,0.2-0.5,0.5-0.5h8.4C-270.4,408.8-270.2,409-270.2,409.3z"/>
	<path id="XMLID_53_" class="st0" d="M-270.2,406.7L-270.2,406.7c0,0.3-0.2,0.5-0.5,0.5h-8.4c-0.3,0-0.5-0.2-0.5-0.5l0,0
		c0-0.3,0.2-0.5,0.5-0.5h8.4C-270.4,406.2-270.2,406.4-270.2,406.7z"/>
	<path id="XMLID_52_" class="st0" d="M-270.2,404.1L-270.2,404.1c0,0.3-0.2,0.5-0.5,0.5h-8.4c-0.3,0-0.5-0.2-0.5-0.5l0,0
		c0-0.3,0.2-0.5,0.5-0.5h8.4C-270.4,403.6-270.2,403.8-270.2,404.1z"/>
	<path id="XMLID_51_" class="st0" d="M-270.2,401.4L-270.2,401.4c0,0.3-0.2,0.5-0.5,0.5h-8.4c-0.3,0-0.5-0.2-0.5-0.5l0,0
		c0-0.3,0.2-0.5,0.5-0.5h8.4C-270.4,400.9-270.2,401.2-270.2,401.4z"/>
	<path id="XMLID_50_" class="st0" d="M-279.6,398.8L-279.6,398.8c0-0.3,0.2-0.5,0.5-0.5h8.4c0.3,0,0.5,0.2,0.5,0.5l0,0
		c0,0.3-0.2,0.5-0.5,0.5h-8.4C-279.4,399.3-279.6,399.1-279.6,398.8z"/>
	<path id="XMLID_49_" class="st0" d="M-275.4,393.1L-275.4,393.1c0-0.3,0.2-0.5,0.5-0.5h6.8c0.3,0,0.5,0.2,0.5,0.5l0,0
		c0,0.3-0.2,0.5-0.5,0.5h-6.8C-275.2,393.6-275.4,393.3-275.4,393.1z"/>
	<path id="XMLID_48_" class="st0" d="M-265.5,400.9h1c0.3,0,0.5,0.2,0.5,0.5l0,0c0,0.3-0.2,0.5-0.5,0.5h-1c-0.3,0-0.5-0.2-0.5-0.5
		l0,0C-266,401.2-265.7,400.9-265.5,400.9z"/>
	<path id="XMLID_47_" class="st0" d="M-265.5,398.3h1.1c0.3,0,0.5,0.2,0.5,0.5v0c0,0.3-0.2,0.5-0.5,0.5h-1.1c-0.3,0-0.5-0.2-0.5-0.5
		v0C-266,398.5-265.8,398.3-265.5,398.3z"/>
	<path id="XMLID_46_" class="st0" d="M-266,404.1L-266,404.1c0-0.3,0.2-0.5,0.5-0.5h1.1c0.3,0,0.5,0.2,0.5,0.5l0,0
		c0,0.3-0.2,0.5-0.5,0.5h-1.1C-265.8,404.6-266,404.3-266,404.1z"/>
	<path id="XMLID_45_" class="st0" d="M-264.5,407.2h-1c-0.3,0-0.5-0.2-0.5-0.5l0,0c0-0.3,0.2-0.5,0.5-0.5h1c0.3,0,0.5,0.2,0.5,0.5
		l0,0C-263.9,407-264.2,407.2-264.5,407.2z"/>
	<path id="XMLID_44_" class="st0" d="M-264.5,409.8h-1c-0.3,0-0.5-0.2-0.5-0.5l0,0c0-0.3,0.2-0.5,0.5-0.5h1c0.3,0,0.5,0.2,0.5,0.5
		l0,0C-263.9,409.6-264.2,409.8-264.5,409.8z"/>
</g>
</svg>
