<?xml version="1.0" encoding="utf-8"?>
<!-- Generator: Adobe Illustrator 19.0.0, SVG Export Plug-In . SVG Version: 6.00 Build 0)  -->
<svg version="1.1" id="icons" xmlns="http://www.w3.org/2000/svg" xmlns:xlink="http://www.w3.org/1999/xlink" x="0px" y="0px"
	 viewBox="-940 524.5 37.2 33.5" style="enable-background:new -940 524.5 37.2 33.5;" xml:space="preserve">
<style type="text/css">
	.st0{fill:#0E67B1;}
</style>
<g id="_x32_bCXoV.tif">
	<g>
		<g>
			<path class="st0" d="M-932.4,527.3c0.3,0,0.6,0.1,0.8,0.4c1,1,1.7,2.1,2.4,3.3c1.2,2,2,4.1,2.4,6.4c0,0.1,0,0.2,0.1,0.3
				c0.3-0.1,0.6-0.2,0.8-0.3c1.6-0.5,3.3-0.7,5-0.8c0.5,0,1,0,1.5,0c1.6,0,3.3,0.1,4.9,0.3c0.8,0.1,1.6,0.3,2.5,0.4
				c0.6,0.1,0.9,0.6,0.8,1.2c-0.1,0.5-0.5,0.7-1,0.7c-0.1,0-0.1,0-0.2,0c-1.1-0.2-2.3-0.3-3.4-0.5c0,0,0,0-0.1,0c0,0-0.1,0-0.1,0
				c0,0.1,0,0.1,0,0.2c0,1.6,0,3.3,0,4.9c0,0.2,0.1,0.2,0.3,0.2c0,0,0.1,0,0.1,0c0.1,0,0.3,0,0.4,0c0.3,0,0.5,0,0.8,0
				c0.8,0.1,1.5,0.8,1.5,1.7c0,0.1,0,0.2,0,0.4c0,0.3-0.3,0.6-0.6,0.6h-2.1c0.3,1.7,0.7,3.3,1.5,4.9c0.1,0,0.1,0,0.2-0.1
				c0.6-0.4,1.3-0.8,1.9-1.2c0.3-0.2,0.6-0.3,0.9-0.3c0.4,0,0.8,0.2,1,0.5c0.5,0.6,0.4,1.4-0.2,2c-1.5,1.2-3.2,2.1-5.1,2.7
				c-2.1,0.7-4.3,1.1-6.6,1.1c-0.4,0-0.8,0-1.2,0c-3.8-0.2-7.3-1.3-10.7-3c-0.7-0.4-1-1.2-0.6-1.9c0.2-0.5,0.7-0.8,1.2-0.8
				c0.2,0,0.4,0.1,0.7,0.2c0.7,0.4,1.5,0.7,2.3,1.1c0.2-0.6,0.4-1.2,0.6-1.8c0.9-2.8,1.3-5.6,1.2-8.5c-0.2-4.4-1.5-8.3-4.3-11.8
				c-0.1-0.2-0.3-0.3-0.5-0.5c-0.5-0.5-0.5-1.2,0-1.6C-932.9,527.4-932.7,527.3-932.4,527.3 M-926.2,544c2.9,0,5.8,0,8.7,0
				c0-1.8,0-3.6,0-5.5c-0.1,0-0.1,0-0.2,0c0,0,0,0,0,0c-1.4,0-2.8,0-4.3,0.1c-1.3,0.1-2.6,0.4-3.9,0.8c-0.3,0.1-0.4,0.2-0.4,0.6
				c0,1.2,0,2.5,0.1,3.7C-926.2,543.8-926.2,543.9-926.2,544 M-921.9,553.5c2.2,0,4.3-0.4,6.5-1.2c-0.1-0.2-0.1-0.4-0.3-0.5
				c-0.3-0.2-0.4-0.4-0.5-0.7c-1.2-2.3-3.5-3.5-5.9-3.5c-1.9,0-3.7,0.8-5,2.4c-0.1,0.2-0.2,0.4-0.3,0.6c-0.2,0.6-0.4,1.2-0.6,1.7
				c0,0.1-0.1,0.2-0.1,0.3C-926.1,553.1-924,553.5-921.9,553.5 M-932.4,526c-0.6,0-1.2,0.2-1.6,0.7c-0.9,0.9-0.9,2.4,0,3.4
				c0.1,0.1,0.3,0.3,0.4,0.4c2.5,3.1,3.8,6.7,4,11c0.1,2.6-0.3,5.2-1.2,8.1c-0.1,0.2-0.1,0.3-0.2,0.5c-0.3-0.2-0.7-0.3-1-0.5
				c-0.4-0.2-0.8-0.3-1.2-0.3c-1,0-1.9,0.6-2.3,1.4c-0.7,1.3-0.1,2.9,1.2,3.5c3.8,1.9,7.5,3,11.2,3.2c0.4,0,0.8,0,1.2,0
				c2.4,0,4.8-0.4,7-1.2c2.2-0.7,3.9-1.7,5.4-2.9c0.6-0.5,0.9-1.1,1-1.8c0.1-0.7-0.1-1.4-0.6-1.9c-0.5-0.6-1.2-0.9-2-0.9
				c-0.6,0-1.2,0.2-1.7,0.6c-0.2,0.2-0.5,0.3-0.8,0.5c-0.2-0.6-0.4-1.2-0.6-1.9h0.6c1,0,1.9-0.8,1.9-1.9c0-0.1,0-0.3,0-0.4
				c-0.1-1.5-1.2-2.6-2.6-2.8c-0.2,0-0.3,0-0.5,0c0-0.7,0-1.4,0-2.1l0-0.7c0.8,0.1,1.5,0.2,2.3,0.3c0.1,0,0.3,0,0.4,0
				c1.1,0,2-0.7,2.2-1.7c0.1-0.6,0-1.2-0.3-1.7c-0.3-0.5-0.9-0.8-1.5-1c-0.8-0.2-1.7-0.3-2.5-0.4c-1.8-0.2-3.5-0.3-5.1-0.3
				c-0.5,0-1,0-1.6,0c-1.9,0.1-3.5,0.3-4.9,0.7c-0.5-2-1.3-3.9-2.3-5.7c-0.8-1.4-1.7-2.5-2.6-3.5C-931.1,526.3-931.8,526-932.4,526
				L-932.4,526z M-925.1,540.4c1.1-0.3,2.1-0.5,3.1-0.6c1-0.1,2-0.1,2.9-0.1c0.1,0,0.1,0,0.2,0v3h-6.2l0-0.1
				C-925,541.9-925,541.2-925.1,540.4L-925.1,540.4z M-926.6,551.6c0.1-0.2,0.2-0.5,0.3-0.7c0.1-0.1,0.1-0.2,0.1-0.2
				c1-1.2,2.5-1.9,4.1-1.9c2,0,3.8,1.1,4.8,2.8c-1.5,0.4-3,0.6-4.6,0.6C-923.4,552.2-925,552-926.6,551.6L-926.6,551.6z"/>
		</g>
	</g>
</g>
</svg>
