<?xml version="1.0" encoding="utf-8"?>
<!-- Generator: Adobe Illustrator 19.0.0, SVG Export Plug-In . SVG Version: 6.00 Build 0)  -->
<svg version="1.1" id="icons" xmlns="http://www.w3.org/2000/svg" xmlns:xlink="http://www.w3.org/1999/xlink" x="0px" y="0px"
	 viewBox="-940 524.5 37.2 33.5" style="enable-background:new -940 524.5 37.2 33.5;" xml:space="preserve">
<style type="text/css">
	.st0{fill:#0E67B1;}
</style>
<g>
	<path class="st0" d="M-905.2,532.9c-1.6-0.5-3.3-1-4.8-1.4c-0.6-0.2-1.2-0.4-1.9-0.5c-1-0.3-2-0.6-3-0.9c-2.7-0.8-5.5-1.6-8.2-2.4
		c-1.7-0.5-3,0.2-3.5,1.9c-0.3,1.1-0.7,2.3-1,3.4c-0.2,0.6-0.3,1.2-0.5,1.8c-0.1,0.3-0.2,0.7-0.1,0.9c0.1,0.1,0.2,0.2,0.4,0.3
		c0.2,0.1,0.4,0,0.5,0c0.2-0.1,0.3-0.5,0.4-0.8c0.1-0.4,0.2-0.7,0.3-1.1c0.1-0.2,0.1-0.4,0.2-0.6l0-0.1l20.9,6l0,0.1
		c-0.2,0.7-0.4,1.5-0.6,2.2c-0.6,1.9-1.1,3.8-1.7,5.6c-0.2,0.7-0.8,1-1.5,0.8c-0.7-0.2-1.5-0.4-2.2-0.6c-0.5-0.1-1-0.3-1.5-0.4
		c-0.2,0-0.3-0.1-0.4-0.1c-0.3,0-0.4,0.1-0.5,0.4c-0.1,0.2-0.1,0.4,0,0.5c0.1,0.2,0.3,0.3,0.6,0.4l0.7,0.2c0.9,0.3,1.8,0.5,2.7,0.8
		c1.8,0.5,3.1-0.2,3.6-2l1.3-4.4c0.6-2,1.2-4.1,1.8-6.1C-902.7,534.7-903.4,533.5-905.2,532.9z M-904.4,535.8
		c-0.1,0.3-0.1,0.4-0.3,0.5c-0.1,0-0.2,0.1-0.3,0.1c-0.1,0-0.2,0-0.4-0.1c-1.8-0.5-3.7-1.1-5.5-1.6c-0.8-0.2-1.6-0.5-2.5-0.7
		c-3.4-1-6.8-2-10.2-2.9l-1.4-0.4c-0.1,0-0.2-0.1-0.3-0.1l-0.2-0.1l0-0.1c0.1-0.7,0.2-1.1,0.6-1.4c0.3-0.2,0.7-0.2,1.3-0.1
		c5.6,1.6,11.4,3.4,17.9,5.3C-904.6,534.5-904.3,535-904.4,535.8z"/>
	<path class="st0" d="M-917.9,537.1c-0.4,0-0.9,0-1.3,0c-0.2,0-0.4,0-0.6,0c-1.6,0-3.2,0-4.7,0c-3.9,0-8,0-12-0.1
		c-1,0-1.9,0.3-2.4,0.8c-0.5,0.5-0.8,1.3-0.8,2.3c0.1,2.5,0.1,5,0,7.4c0,1.2,0,2.3,0,3.5c0,1.9,0.9,2.9,2.9,2.9c2.2,0,4.4,0,6.6,0
		l2.7,0l2.8,0c2.2,0,4.4,0,6.6,0c1.8,0,2.8-1,2.8-2.8c0-0.9,0-1.8,0-2.6c0-0.8,0-1.5,0-2.3c0-0.9,0-1.8,0-2.6c0-1.2,0-2.5,0-3.8
		C-915.2,538.2-916.2,537.2-917.9,537.1z M-916.6,551.3c0,0.9-0.5,1.4-1.6,1.4c-3.3,0-6.7,0-10,0l-4.1,0c-0.5,0-1.1,0-1.6,0
		c-0.5,0-1,0-1.6,0c-0.4,0-0.9,0-1.3,0c-1.1,0-1.6-0.5-1.6-1.6c0-4,0-7.7,0-11.2c0-1,0.5-1.5,1.5-1.5c2.3,0,4.5,0,6.8,0l2.5,0l0.1,0
		l2.5,0c2.3,0,4.6,0,6.9,0c0.9,0,1.4,0.5,1.4,1.3C-916.6,543.6-916.6,547.5-916.6,551.3z"/>
	<path class="st0" d="M-918.2,540.8c0-0.2,0-0.4-0.2-0.5c-0.1-0.1-0.3-0.2-0.5-0.2h-0.7c-1.9,0-3.8,0-5.6,0c-0.8,0-1.6,0-2.4,0
		c-1.1,0-2.2,0-3.3,0c-0.2,0-0.4,0-0.6,0c-1.2,0-2.5,0-3.7,0l-1.1,0c-0.2,0-0.4,0.1-0.5,0.2c-0.1,0.1-0.2,0.3-0.1,0.5
		c0,0.5,0.3,0.6,0.9,0.6c2.1,0,4.2,0,6.3,0l2.1,0l0,0l0.1,0l0.8,0c0.5,0,1.1,0,1.6,0l1.6,0c1.5,0,3.1,0,4.7,0
		C-918.4,541.4-918.2,541.2-918.2,540.8z"/>
	<path class="st0" d="M-936.8,548.4c0.1,0.1,0.3,0.2,0.7,0.2c1.1,0,2.3,0,3.4,0c0.5,0,1,0,1.5,0c0.4,0,0.9,0,1.3,0
		c1.1,0,2.3,0,3.5,0c0.6,0,0.9-0.2,0.9-0.6c0-0.2,0-0.4-0.1-0.5c-0.1-0.1-0.4-0.2-0.7-0.2c0,0,0,0,0,0c-2.9,0-6,0-9.7,0c0,0,0,0,0,0
		c-0.6,0-0.8,0.2-0.8,0.6C-937,548.1-936.9,548.3-936.8,548.4z"/>
	<path class="st0" d="M-926.5,549.7c-2.9,0-6.1,0-9.6,0c-0.4,0-0.6,0.1-0.7,0.2c-0.1,0.1-0.1,0.3-0.1,0.5c0,0.5,0.3,0.6,0.8,0.6
		c0,0,0,0,0,0c1.1,0,2.3,0,3.4,0l1.2,0v0h0.1c0.5,0,0.9,0,1.4,0c0.5,0,0.9,0,1.4,0c0.7,0,1.4,0,2.2,0c0.3,0,0.6-0.1,0.7-0.2
		c0.1-0.1,0.2-0.3,0.2-0.5C-925.6,549.9-925.8,549.7-926.5,549.7z"/>
	<path class="st0" d="M-919,549.7c-0.3,0-0.7,0-1,0c-0.1,0-0.2,0-0.4,0v0h-0.1c-0.2,0-0.3,0-0.5,0c-0.4,0-0.8,0-1.1,0
		c-0.5,0-0.7,0.2-0.7,0.6c0,0.2,0,0.4,0.2,0.5c0.1,0.1,0.3,0.2,0.5,0.2c0,0,0,0,0,0c0.3,0,0.6,0,1,0c0.4,0,0.9,0,1.3,0l1,0
		c0,0,0,0,0,0c0.2,0,0.4-0.1,0.5-0.2c0.1-0.1,0.2-0.3,0.2-0.5c0-0.2-0.1-0.4-0.2-0.5C-918.5,549.7-918.7,549.7-919,549.7z"/>
	<circle class="st0" cx="-935.6" cy="544.6" r="0.8"/>
	<circle class="st0" cx="-932.5" cy="544.6" r="0.8"/>
	<circle class="st0" cx="-929.4" cy="544.6" r="0.8"/>
	<circle class="st0" cx="-926.4" cy="544.6" r="0.8"/>
	<path class="st0" d="M-919.1,543h-3c-0.7,0-1.2,0.6-1.2,1.2v2.1c0,0.7,0.6,1.2,1.2,1.2h3c0.7,0,1.2-0.6,1.2-1.2v-2.1
		C-917.8,543.6-918.4,543-919.1,543z M-918.8,546.4c0,0.1-0.1,0.2-0.2,0.2h-3c-0.1,0-0.2-0.1-0.2-0.2v-2.1c0-0.1,0.1-0.2,0.2-0.2h3
		c0.1,0,0.2,0.1,0.2,0.2V546.4z"/>
</g>
</svg>
