<?xml version="1.0" encoding="utf-8"?>
<!-- Generator: Adobe Illustrator 19.0.0, SVG Export Plug-In . SVG Version: 6.00 Build 0)  -->
<svg version="1.1" id="icons" xmlns="http://www.w3.org/2000/svg" xmlns:xlink="http://www.w3.org/1999/xlink" x="0px" y="0px"
	 viewBox="-940 524.5 37.2 33.5" style="enable-background:new -940 524.5 37.2 33.5;" xml:space="preserve">
<style type="text/css">
	.st0{fill:#0E67B1;stroke:#0E67B1;stroke-width:0.2127;stroke-miterlimit:10;}
</style>
<path class="st0" d="M-904.8,525.5v31.3c0,0,0,0,0,0c-0.1,0.7-0.7,0.8-1.3,0.8c-10.1,0-20.1,0-30.2,0c-0.8,0-1.4-0.6-1.4-1.4
	c0-10.1,0-20.1,0-30.2c0-0.6,0-1.1,0.8-1.3c0,0,0,0,0,0h31.3c0,0,0,0,0,0c0.4,0,0.6,0.3,0.7,0.7
	C-904.9,525.5-904.8,525.5-904.8,525.5z M-905.9,543.3C-905.9,543.2-905.9,543.2-905.9,543.3c-0.2-0.1-0.3-0.1-0.3-0.1
	c-2,0-3.9,0-5.9,0c-0.3,0-0.6,0-0.9,0.3c-0.2,0.1-0.4,0.2-0.6,0.3c-0.5,0-0.9,0.1-1.4,0c-0.4,0-0.8-0.1-1.2-0.2
	c-0.1,0-0.1,0.1-0.1,0.1l0,0c0.2,0.5,0.4,1,0.6,1.5c0.3,0.7-0.4,1.5-1.1,1.3c-0.3,0-0.5-0.1-0.8-0.2c-0.5-0.1-0.6,0-0.6,0.5
	c0,3.1,0,6.2,0,9.3c0,0,0,0,0,0c0,0.2,0.2,0.3,0.3,0.3h11.9c0.1,0,0.1,0,0.1-0.1V543.3z M-936.3,556.5h11.5c0.2,0,0.4-0.2,0.4-0.4
	c0,0,0,0,0,0c0-2.9,0-5.8,0-8.6c0-0.2,0-0.5,0-0.7c0-0.3-0.2-0.4-0.5-0.4c-0.3,0.1-0.5,0.1-0.8,0.2c-0.4,0.1-0.8,0-1.1-0.3
	c-0.3-0.4-0.3-0.8-0.1-1.2c0.2-0.4,0.4-0.9,0.5-1.3c0-0.1,0-0.1-0.1-0.1c-0.4,0.1-0.8,0.1-1.2,0.2c-0.7,0.1-1.5,0.1-2.1-0.4
	c-0.1-0.1-0.4-0.2-0.5-0.2c-2.1,0-4.1,0-6.2,0h0c-0.2,0-0.3,0.1-0.3,0.3v12.6C-936.7,556.3-936.5,556.5-936.3,556.5z M-924.5,525.8
	h-11.8c-0.2,0-0.4,0.2-0.4,0.4v10.7c0,0.1,0,0.1,0.1,0.1h4.9c0.1,0,0.1,0,0.1-0.1c-0.1-1.3,0.8-2.3,1.8-2.3c0.5,0,1,0.1,1.5,0.3
	c1.3,0.5,2.4,1.3,3.6,2c0.1,0,0.1,0.1,0.2,0.1c0.1,0,0.1,0,0.1-0.1L-924.5,525.8C-924.4,525.8-924.4,525.8-924.5,525.8z M-910.9,537
	h4.6c0.2,0,0.4-0.2,0.4-0.4v-10.5c0-0.2-0.2-0.4-0.4-0.4h-11.5c-0.3,0-0.5,0.2-0.5,0.5v10.7c0,0.1,0.1,0.1,0.1,0.1
	c0.1,0,0.1-0.1,0.2-0.1c0.3-0.2,0.5-0.4,0.8-0.5c1-0.6,2-1.3,3.1-1.7c0.5-0.2,1-0.2,1.5-0.1C-911.5,534.9-911,535.8-910.9,537
	C-911,537-911,537-910.9,537z M-923.3,525.8V537c0,0.1,0.1,0.1,0.1,0.1c0.2-0.1,0.4-0.1,0.6-0.2c0.9-0.4,1.8-0.4,2.7,0
	c0.2,0.1,0.4,0.1,0.6,0.2c0.1,0,0.1,0,0.1-0.1v-11.1c0-0.1,0-0.1-0.1-0.1L-923.3,525.8C-923.3,525.7-923.3,525.8-923.3,525.8z
	 M-919.2,547.8C-919.2,547.8-919.3,547.7-919.2,547.8c-0.8-0.1-1-0.3-1.3-0.9c-0.2-0.5-0.4-1-0.7-1.6c0-0.1-0.1-0.1-0.2,0
	c-0.2,0.6-0.5,1.1-0.7,1.7c-0.1,0.3-0.3,0.6-0.6,0.7c-0.2,0.1-0.4,0.1-0.6,0.1c0,0-0.1,0-0.1,0.1v8.3c0,0.2,0.2,0.4,0.4,0.4h3.2
	c0.2,0,0.4-0.2,0.4-0.4V547.8z M-918.6,541.2c0,0,0,0.1,0,0.1c0.3,0.2,0.5,0.4,0.8,0.6c1.1,0.6,2.3,0.8,3.5,0.8
	c0.8,0,1.2-0.4,1.2-1.2c0-0.6,0-1.2,0.1-1.7c0.2-0.9,0.5-1.8,0.8-2.8c0.3-0.9-0.5-1.7-1.4-1.4c-0.4,0.1-0.9,0.3-1.3,0.5
	c-1.1,0.6-2.1,1.4-3.2,2.1c-0.4,0.3-0.4,0.3-0.3,0.8c0,0,0,0,0.1,0.1c0.6-0.1,1.2-0.4,1.7-0.8c0.2-0.2,0.5-0.2,0.7,0
	c0.2,0.2,0.2,0.5,0,0.7c-0.2,0.2-0.4,0.3-0.6,0.4c-0.3,0.2-0.6,0.3-0.9,0.5c0,0.1,0,0.1,0,0.3c0.5,0.2,1.1,0.3,1.6,0.5
	c0.3,0.1,0.5,0.2,0.5,0.5c0,0.4-0.3,0.6-0.7,0.5c-0.9-0.2-1.7-0.4-2.4-0.9c0,0-0.1,0-0.1,0C-918.5,541-918.5,541.1-918.6,541.2z
	 M-924.4,539.1c0,0,0.1,0,0.1-0.1c0-0.1,0.1-0.2,0.1-0.3c0-0.1,0-0.2-0.1-0.3c-1.2-0.8-2.5-1.6-3.7-2.4c-0.4-0.2-0.8-0.4-1.3-0.4
	c-0.8-0.2-1.4,0.5-1.2,1.3c0,0.2,0.1,0.3,0.1,0.5c0.5,1.4,0.9,2.9,0.8,4.4c0,0.6,0.4,1,1,1c0.5,0,1.1-0.1,1.6-0.1
	c1-0.2,1.9-0.5,2.7-1.1c0.2-0.2,0.3-0.3,0.1-0.5c0,0-0.1-0.1-0.1-0.2c0-0.1-0.1-0.1-0.1,0c-0.8,0.5-1.6,0.7-2.5,0.9
	c-0.3,0.1-0.6-0.1-0.7-0.4c-0.1-0.3,0.1-0.5,0.5-0.6c0.5-0.1,0.9-0.3,1.4-0.4c0.1,0,0.2-0.1,0.3-0.2c0.1,0,0.1-0.1,0-0.2
	c-0.1,0-0.2-0.1-0.2-0.1c-0.4-0.3-0.9-0.5-1.3-0.8c-0.2-0.1-0.3-0.4-0.1-0.6c0.1-0.1,0.3-0.2,0.5-0.3c0.1,0,0.3,0.1,0.4,0.2
	C-925.5,538.7-925,539-924.4,539.1z M-906,538.1c-1.7,0-3.3,0-5,0c-0.3,0-0.5,0.2-0.6,0.4c-0.4,1.2-0.5,2.4-0.5,3.6
	c0,0.1,0,0.1,0.1,0.1h6c0.1,0,0.1,0,0.1-0.1L-906,538.1C-905.9,538.1-905.9,538.1-906,538.1z M-936.7,538.2v3.6
	c0,0.2,0.2,0.4,0.4,0.4l5.7,0c0.1,0,0.1,0,0.1-0.1c0-0.3,0-0.5,0-0.8c0-0.9-0.1-1.7-0.4-2.5c-0.2-0.7-0.2-0.7-0.9-0.7
	c-0.1,0-0.1,0-0.2,0C-933.5,538.1-935,538.1-936.7,538.2C-936.6,538.1-936.7,538.1-936.7,538.2z M-921.3,541.7c1.1,0,2.1-0.9,2.1-2
	c0-1.1-0.9-2.1-2-2.1c-1.1,0-2,0.9-2.1,2C-923.3,540.8-922.4,541.7-921.3,541.7z M-923,546.6c0.5-1.3,1-2.5,1.5-3.6
	c0,0,0-0.1-0.1-0.1c-0.6-0.2-1.1-0.4-1.7-0.7c0,0-0.1,0-0.1,0c-0.3,0.2-0.6,0.5-1,0.7c-0.5,0.2-0.7,0.5-0.9,1
	c-0.2,0.5-0.4,1-0.6,1.6c0,0.1,0,0.1,0.1,0.1c0.5-0.1,0.9-0.2,1.4-0.3c0.2,0,0.3,0,0.4,0.2c0.2,0.4,0.5,0.8,0.8,1.2
	C-923.1,546.6-923,546.6-923,546.6z M-916.8,545.5c0.1,0,0.1-0.1,0.1-0.1c-0.3-0.8-0.6-1.5-0.9-2.2c0,0-0.1-0.1-0.1-0.1
	c-0.5-0.3-1.1-0.6-1.6-0.9c0,0-0.1,0-0.1,0c-0.7,0.2-1.1,0.7-1.3,1.4c0,0.1-0.1,0.2,0,0.3c0.4,0.9,0.7,1.8,1.1,2.7
	c0,0.1,0.1,0.1,0.2,0c0.3-0.4,0.5-0.8,0.8-1.2c0.1-0.2,0.2-0.2,0.4-0.2C-917.8,545.3-917.3,545.4-916.8,545.5z"/>
</svg>
