<?xml version="1.0" encoding="utf-8"?>
<!-- Generator: Adobe Illustrator 19.0.0, SVG Export Plug-In . SVG Version: 6.00 Build 0)  -->
<svg version="1.1" id="icons" xmlns="http://www.w3.org/2000/svg" xmlns:xlink="http://www.w3.org/1999/xlink" x="0px" y="0px"
	 viewBox="-940 524.5 37.2 33.5" style="enable-background:new -940 524.5 37.2 33.5;" xml:space="preserve">
<style type="text/css">
	.st0{fill:#0E67B1;stroke:#0E67B1;stroke-width:0.1919;stroke-miterlimit:10;}
</style>
<g>
	<path class="st0" d="M-926.5,541.1c0-1.6-0.1-3.1,0-4.7c0.1-1.5,1.5-2.7,3-2.7c0.9,0,1.8,0,2.7,0c1.7,0,2.8,0.8,3.2,2.4
		c0.3,1.3,0.5,2.7,0.7,4c0.1,0.3,0.1,0.6,0.1,0.9c0,0.5,0.2,0.5,0.6,0.5c0.4,0,0.9,0,1.3,0c1.2,0.2,1.9,0.9,2.3,2
		c0.8,2.3,1.6,4.6,2.3,7c0.5,1.5-0.3,3-1.7,3.5c-1.4,0.5-3-0.2-3.6-1.7c-0.5-1.2-0.9-2.3-1.3-3.5c-0.1-0.3-0.3-0.4-0.6-0.4
		c-2,0-3.9,0-5.9,0c-1.9,0-3.2-1.3-3.3-3.2C-926.6,543.9-926.6,542.5-926.5,541.1C-926.6,541.1-926.6,541.1-926.5,541.1z
		 M-917.8,542.8c0-0.2-0.1-0.4-0.1-0.5c-0.3-1.8-0.6-3.7-0.9-5.5c-0.2-1.2-0.8-1.8-1.9-1.8c-0.9,0-1.9,0-2.8,0c-1,0-1.8,0.8-1.8,1.8
		c0,2.9,0,5.8,0,8.6c0,0.8,0.7,1.8,1.9,1.8c2.3-0.1,4.5,0,6.8,0c0.4,0,0.6,0.1,0.7,0.5c0.5,1.4,1.1,2.9,1.6,4.3
		c0.3,0.8,1.1,1.2,1.9,1c0.8-0.3,1.2-1.1,0.9-1.9c-0.8-2.3-1.5-4.6-2.3-6.9c-0.3-0.8-0.8-1.2-1.7-1.2
		C-916.2,542.8-917,542.8-917.8,542.8z"/>
	<path class="st0" d="M-918.8,549.4c0.1,0,0.2,0,0.3,0c0.3,0,0.6,0,0.9,0c0,1-0.2,1.8-0.5,2.7c-1.2,3.2-4.3,5.4-7.7,5.3
		c-3.9-0.1-7.3-3.2-7.7-7.1c-0.4-3.4,1.3-6.5,4.4-8c0.3-0.1,0.4-0.3,0.4-0.6c0-1.5,0-3.1,0-4.6c0-0.4-0.1-0.5-0.5-0.5c-1,0-2,0-3,0
		c-0.3,0-0.4-0.1-0.4-0.4c0-1.1-0.1-0.9,0.9-0.9c1.3,0,2.5,0,3.8,0c0.4,0,0.5,0.1,0.5,0.5c0,2.3,0,4.5,0,6.8c0,0.3-0.1,0.5-0.4,0.6
		c-2.8,1.1-4.5,3.5-4.4,6.6c0.1,3.1,2.6,5.9,5.6,6.3c3.6,0.5,6.8-1.6,7.6-5.1C-918.9,550.3-918.9,549.9-918.8,549.4z"/>
	<path class="st0" d="M-918,528.7c0,2.3-1.9,4.2-4.2,4.2c-2.3,0-4.2-1.9-4.2-4.2c0-2.3,1.9-4.2,4.2-4.2
		C-919.8,524.5-918,526.4-918,528.7z M-925,528.7c0,1.6,1.3,2.9,2.9,2.9c1.6,0,2.9-1.3,2.9-2.9c0-1.6-1.3-2.9-2.8-2.9
		C-923.8,525.8-925,527-925,528.7z"/>
</g>
</svg>
