<?xml version="1.0" encoding="utf-8"?>
<!-- Generator: Adobe Illustrator 19.0.0, SVG Export Plug-In . SVG Version: 6.00 Build 0)  -->
<svg version="1.1" id="icons" xmlns="http://www.w3.org/2000/svg" xmlns:xlink="http://www.w3.org/1999/xlink" x="0px" y="0px"
	 viewBox="-940 524.5 37.2 33.5" style="enable-background:new -940 524.5 37.2 33.5;" xml:space="preserve">
<style type="text/css">
	.st0{fill:#0E67B1;}
	.st1{fill:#0E67B1;stroke:#0F68B1;stroke-width:0.1845;stroke-miterlimit:10;}
</style>
<g>
	<g>
		<path class="st0" d="M-910.9,526c0,10.9,0,19.5,0,30.4c-0.2,0.3-0.3,0.7-0.5,0.9c-0.3,0.3-0.7,0.4-1,0.6c-5.7,0-11.5,0-17.2,0
			c0,0-0.1-0.1-0.1-0.1c-1-0.3-1.4-0.9-1.4-2c0-10.6,0-18.9,0-29.5c0-1.3,0.7-2,2-2c3.7,0,7.4,0,11.2,0c1.7,0,3.5,0,5.2,0
			c0.8,0,1.5,0.5,1.7,1.2C-911,525.8-911,525.9-910.9,526z M-930.1,530.4c0,0.2,0,0.3,0,0.4c0,6.9,0,11.6,0,18.5
			c0,0.3,0.1,0.4,0.4,0.4c5.7,0,11.4,0,17.1,0c0.3,0,0.4-0.1,0.4-0.4c0-6.9,0-11.5,0-18.4c0-0.5,0-0.5-0.4-0.5c-5.7,0-11.4,0-17.1,0
			C-929.7,530.4-929.9,530.4-930.1,530.4z M-912.1,550.8c-6,0-11.9,0-17.9,0c0,0.1,0,0.2,0,0.2c0,1.7,0,3.4,0,5.1
			c0,0.4,0.2,0.7,0.7,0.7c5.5,0,11,0,16.5,0c0.5,0,0.7-0.2,0.7-0.7c0-1.7,0-3.3,0-5C-912.1,551-912.1,550.9-912.1,550.8z
			 M-912.1,529.3c0-1.1,0-2.1,0-3.1c0-0.3-0.3-0.6-0.7-0.6c-5.5,0-11,0-16.5,0c-0.5,0-0.7,0.2-0.7,0.7c0,0.9,0,1.7,0,2.6
			c0,0.1,0,0.2,0,0.2C-924.1,529.3-918.1,529.3-912.1,529.3z"/>
		<path class="st0" d="M-922.8,553.8c0-1,0.8-1.8,1.7-1.8c1,0,1.8,0.8,1.8,1.7c0,1-0.8,1.8-1.8,1.8
			C-922.1,555.6-922.8,554.8-922.8,553.8z M-921.1,553.2c-0.3,0-0.6,0.3-0.6,0.6c0,0.3,0.3,0.6,0.6,0.6c0.3,0,0.6-0.3,0.6-0.6
			C-920.5,553.5-920.8,553.2-921.1,553.2z"/>
		<path class="st0" d="M-921.1,528c-0.4,0-0.7,0-1.1,0c-0.4,0-0.6-0.2-0.6-0.6c0-0.3,0.2-0.6,0.6-0.6c0.8,0,1.5,0,2.3,0
			c0.4,0,0.6,0.2,0.6,0.6c0,0.3-0.2,0.6-0.6,0.6C-920.3,528-920.7,528-921.1,528L-921.1,528z"/>
	</g>
</g>
<g id="Page-1_4_">
	<g id="icon-27-one-finger-click_4_">
		<path id="one-finger-click_4_" class="st1" d="M-923,533.9v1.5c0,0,0,0,0,0h0.4c0,0,0,0,0,0v-1.5c0,0,0,0,0,0H-923L-923,533.9z
			 M-920.6,534.9l-1.2,1c0,0,0,0,0,0l0.2,0.3c0,0,0,0,0,0l1.2-1c0,0,0,0,0,0L-920.6,534.9L-920.6,534.9z M-919.8,537.5l-1.5-0.3
			c0,0,0,0,0,0l-0.1,0.4c0,0,0,0,0,0l1.5,0.3c0,0,0,0,0,0L-919.8,537.5L-919.8,537.5z M-925.8,537.8l1.5-0.3c0,0,0,0,0,0l-0.1-0.4
			c0,0,0,0,0,0l-1.5,0.3c0,0,0,0,0,0L-925.8,537.8L-925.8,537.8z M-925.4,535.2l1.2,1c0,0,0,0,0,0l0.2-0.3c0,0,0,0,0,0l-1.2-1
			c0,0,0,0,0,0L-925.4,535.2L-925.4,535.2z M-920.5,545.8c1.6,0,2.9-1.4,2.9-2.9c0,0,0,0.9,0,0v-1.4v-0.8c0-0.3-0.2-0.6-0.5-0.6
			c-0.3,0-0.6,0.2-0.6,0.6v0.2h-0.4c0,0,0,0,0,0v-0.9c0-0.3-0.2-0.6-0.5-0.6c-0.3,0-0.6,0.2-0.6,0.6v0.6c0,0,0,0,0,0h-0.4
			c0,0,0,0,0,0v-0.9c0-0.3-0.2-0.6-0.5-0.6c-0.3,0-0.6,0.2-0.6,0.6v1.3c0,0,0,0,0,0h-0.4c0,0,0,0,0,0v-4c0-0.3-0.2-0.6-0.5-0.6
			c-0.3,0-0.6,0.2-0.6,0.6v4.3c0,0,0,0,0,0c-0.8-0.8-1.8-1.8-2.3-1.3c-0.4,0.4,0.7,1.6,2.2,4.1C-922.8,545.1-922,545.8-920.5,545.8
			L-920.5,545.8z M-917.2,542.9c0,1.8-1.5,3.3-3.3,3.3c-1.2,0-2.5-0.6-3.3-2.2c-1.3-2.3-2.9-3.8-2.1-4.6c0.5-0.5,1.4,0,2.2,0.7l0,0
			v-3.4c0-0.4,0.3-0.8,0.7-1c0.7-0.2,1.2,0.4,1.2,1v1.8c0,0,0,0,0,0c0.2-0.1,0.4-0.2,0.6-0.2c0.4,0,0.8,0.3,0.9,0.6c0,0,0,0,0,0
			c0.2-0.1,0.4-0.2,0.6-0.2c0.5,0,1,0.4,1,1v0c0.2-0.1,0.4-0.2,0.6-0.2c0.5,0,1,0.4,1,1V542.9L-917.2,542.9z"/>
	</g>
</g>
</svg>
