<?xml version="1.0" encoding="utf-8"?>
<!-- Generator: Adobe Illustrator 19.0.0, SVG Export Plug-In . SVG Version: 6.00 Build 0)  -->
<svg version="1.1" id="icons" xmlns="http://www.w3.org/2000/svg" xmlns:xlink="http://www.w3.org/1999/xlink" x="0px" y="0px"
	 viewBox="-286 380.5 37.2 33.5" style="enable-background:new -286 380.5 37.2 33.5;" xml:space="preserve">
<style type="text/css">
	.st0{fill:#0E67B1;}
</style>
<g>
	<path class="st0" d="M-253,394.5l-2.7-2.1v-10.8c0-0.6-0.5-1.1-1.1-1.1h-20.8c-0.6,0-1.1,0.5-1.1,1.1v10.8l-2.7,2.1
		c-0.1,0.1-0.2,0.3-0.2,0.4v17.4c0,0.9,0.8,1.7,1.7,1.7h25.5c0.9,0,1.7-0.8,1.7-1.7v-17.4C-252.8,394.8-252.9,394.6-253,394.5
		L-253,394.5z M-253.9,412.3C-253.9,412.3-253.9,412.3-253.9,412.3l-10.3-8.1l10.3-8.1V412.3z M-280.6,412.3v-16.2l10.3,8.1
		L-280.6,412.3C-280.6,412.3-280.6,412.3-280.6,412.3L-280.6,412.3z M-265.1,403.5c-1.3,1-3.1,1-4.4,0l-2.1-1.7h8.6L-265.1,403.5z
		 M-269.4,404.9C-269.4,404.9-269.4,404.9-269.4,404.9c0.7,0.3,1.4,0.5,2.2,0.5c0.7,0,1.5-0.2,2.1-0.5c0,0,0,0,0.1,0l10.2,8h-24.7
		L-269.4,404.9z M-254.3,394.9l-1.5,1.2v-2.3L-254.3,394.9z M-277.7,381.6h20.8c0,0,0,0,0,0V397l-4.8,3.8h-11.3l-4.8-3.8
		L-277.7,381.6C-277.7,381.6-277.7,381.6-277.7,381.6L-277.7,381.6z M-278.8,396.1l-1.5-1.2l1.5-1.2V396.1z M-278.8,396.1"/>
	<path class="st0" d="M-274.2,385.6h4.1c0.3,0,0.5-0.2,0.5-0.5c0-0.3-0.2-0.5-0.5-0.5h-4.1c-0.3,0-0.5,0.2-0.5,0.5
		C-274.8,385.4-274.5,385.6-274.2,385.6L-274.2,385.6z M-274.2,385.6"/>
	<path class="st0" d="M-274.2,388.5h6.4c0.3,0,0.5-0.2,0.5-0.5c0-0.3-0.2-0.5-0.5-0.5h-6.4c-0.3,0-0.5,0.2-0.5,0.5
		C-274.8,388.3-274.5,388.5-274.2,388.5L-274.2,388.5z M-274.2,388.5"/>
	<path class="st0" d="M-271.3,392.6c0,0.3,0.2,0.5,0.5,0.5h6.9c0.3,0,0.5-0.2,0.5-0.5c0-0.3-0.2-0.5-0.5-0.5h-6.9
		C-271,392.1-271.3,392.3-271.3,392.6L-271.3,392.6z M-271.3,392.6"/>
	<path class="st0" d="M-274.2,396.1h13.9c0.3,0,0.5-0.2,0.5-0.5c0-0.3-0.2-0.5-0.5-0.5h-13.9c-0.3,0-0.5,0.2-0.5,0.5
		C-274.8,395.8-274.5,396.1-274.2,396.1L-274.2,396.1z M-274.2,396.1"/>
	<path class="st0" d="M-274.2,399h13.9c0.3,0,0.5-0.2,0.5-0.5c0-0.3-0.2-0.5-0.5-0.5h-13.9c-0.3,0-0.5,0.2-0.5,0.5
		C-274.8,398.7-274.5,399-274.2,399L-274.2,399z M-274.2,399"/>
</g>
</svg>
