<?xml version="1.0" encoding="utf-8"?>
<!-- Generator: Adobe Illustrator 19.0.0, SVG Export Plug-In . SVG Version: 6.00 Build 0)  -->
<svg version="1.1" id="icons" xmlns="http://www.w3.org/2000/svg" xmlns:xlink="http://www.w3.org/1999/xlink" x="0px" y="0px"
	 viewBox="-286 380.5 37.2 33.5" style="enable-background:new -286 380.5 37.2 33.5;" xml:space="preserve">
<style type="text/css">
	.st0{fill:#F4F4F4;}
	.st1{fill:#F4791F;}
	.st2{fill:#0E67B1;}
	.st3{clip-path:url(#SVGID_2_);fill:#F4F4F4;}
	.st4{clip-path:url(#SVGID_4_);fill:#414042;}
	.st5{fill:#414042;}
</style>
<circle class="st0" cx="-262.5" cy="392" r="9.6"/>
<g>
	<path class="st1" d="M-282.9,410.7l2,2c-0.2,0.1-0.4,0.2-0.7,0.2c-0.4,0-0.8-0.2-1.1-0.4C-283.1,412-283.3,411.3-282.9,410.7
		L-282.9,410.7z"/>
	<path class="st1" d="M-273.8,403.7c0.5,0.5,0.6,1.2,0.3,1.8l-2-2c0.2-0.1,0.4-0.2,0.7-0.2C-274.5,403.2-274.1,403.4-273.8,403.7
		L-273.8,403.7z"/>
	<path class="st2" d="M-254.8,384.7c2,2,3.1,4.6,3.1,7.5c0,2.8-1.1,5.5-3.1,7.5c-4.1,4.1-10.8,4.1-14.9,0s-4.1-10.8,0-14.9
		c2-2,4.6-3.1,7.5-3.1C-259.5,381.6-256.8,382.7-254.8,384.7L-254.8,384.7z M-253.5,392.1c0-2.4-0.9-4.6-2.6-6.2
		c-1.7-1.7-3.9-2.6-6.2-2.6c-2.4,0-4.6,0.9-6.2,2.6c-1.7,1.7-2.6,3.9-2.6,6.2s0.9,4.6,2.6,6.2c1.7,1.7,3.9,2.6,6.2,2.6
		c2.4,0,4.6-0.9,6.2-2.6C-254.4,396.7-253.5,394.5-253.5,392.1L-253.5,392.1z"/>
	<g>
		<g>
			<g>
				<defs>
					<rect id="SVGID_1_" x="-284" y="380.6" width="33.3" height="33.4"/>
				</defs>
				<clipPath id="SVGID_2_">
					<use xlink:href="#SVGID_1_"  style="overflow:visible;"/>
				</clipPath>
				<path class="st3" d="M-270.3,400.5l-2.7,2.7c-0.1-0.1-0.1-0.2-0.2-0.3c-0.1-0.1-0.2-0.2-0.3-0.2l2.7-2.7
					c0.1,0.1,0.2,0.2,0.2,0.3C-270.3,400.4-270.3,400.5-270.3,400.5L-270.3,400.5z"/>
			</g>
		</g>
		<g>
			<g>
				<defs>
					<rect id="SVGID_3_" x="-284" y="380.6" width="33.3" height="33.4"/>
				</defs>
				<clipPath id="SVGID_4_">
					<use xlink:href="#SVGID_3_"  style="overflow:visible;"/>
				</clipPath>
				<path class="st4" d="M-254.1,384c2.2,2.2,3.4,5.1,3.4,8.2s-1.2,6-3.4,8.2c-2.2,2.2-5.2,3.4-8.2,3.4c-2.5,0-5.1-0.8-7.2-2.5l-3,3
					c0.2,0.8,0,1.7-0.7,2.3l-6.6,6.6c-0.5,0.5-1.1,0.7-1.8,0.7s-1.3-0.3-1.8-0.7c-1-1-1-2.6,0-3.5l6.6-6.6c0.5-0.5,1.1-0.7,1.8-0.7
					c0.2,0,0.4,0,0.6,0.1l3-3c-3.6-4.5-3.3-11.1,0.9-15.3c2.2-2.2,5.1-3.4,8.2-3.4S-256.3,381.8-254.1,384L-254.1,384z
					 M-251.7,392.1c0-2.8-1.1-5.5-3.1-7.5c-2-2-4.6-3.1-7.5-3.1c-2.8,0-5.5,1.1-7.5,3.1c-4.1,4.1-4.1,10.8,0,14.9s10.8,4.1,14.9,0
					C-252.8,397.6-251.7,395-251.7,392.1L-251.7,392.1z M-272.9,403.3l2.7-2.7c-0.1-0.1-0.2-0.2-0.3-0.2c-0.1-0.1-0.2-0.2-0.2-0.3
					l-2.7,2.7c0.1,0.1,0.2,0.1,0.3,0.2C-273.1,403.1-273,403.2-272.9,403.3L-272.9,403.3z M-273.5,405.4c0.3-0.6,0.2-1.3-0.3-1.8
					c-0.3-0.3-0.7-0.4-1.1-0.4c-0.2,0-0.5,0.1-0.7,0.2L-273.5,405.4z M-280.1,412.1l5.9-5.9l-2.2-2.2l-5.9,5.9L-280.1,412.1z
					 M-280.8,412.7l-2-2c-0.3,0.6-0.2,1.3,0.3,1.8c0.3,0.3,0.7,0.4,1.1,0.4C-281.3,412.9-281,412.8-280.8,412.7L-280.8,412.7z"/>
			</g>
		</g>
	</g>
	<path class="st5" d="M-256,385.9c1.7,1.7,2.6,3.9,2.6,6.2s-0.9,4.6-2.6,6.2c-1.7,1.7-3.9,2.6-6.2,2.6c-2.4,0-4.6-0.9-6.2-2.6
		c-1.7-1.7-2.6-3.9-2.6-6.2s0.9-4.6,2.6-6.2c1.7-1.7,3.9-2.6,6.2-2.6S-257.8,384.2-256,385.9L-256,385.9z M-254.4,392.1
		c0-2.1-0.8-4.1-2.3-5.5c-0.9-0.9-2-1.5-3.1-1.9c0,0.2,0,0.4,0,0.6v4.9c0,1-0.3,1.9-0.8,2.7c-0.1,0.1-0.2,0.2-0.4,0.2
		c-0.1,0-0.2,0-0.2-0.1c-0.2-0.1-0.3-0.4-0.2-0.7c0.4-0.7,0.6-1.5,0.6-2.2v-4.9c0-0.3,0-0.6-0.1-0.8c-0.3-0.1-0.6-0.1-0.9-0.1
		c0.1,0.3,0.1,0.6,0.1,1c0,0.3-0.2,0.5-0.5,0.5s-0.5-0.2-0.5-0.5s-0.1-0.7-0.2-1c-0.3,0-0.6,0.1-0.9,0.1c0.1,0.3,0.2,0.5,0.2,0.8
		v4.9c0,0.9-0.8,1.7-1.7,1.7c-0.9,0-1.7-0.8-1.7-1.7v-0.9c0-0.3,0.2-0.5,0.5-0.5s0.5,0.2,0.5,0.5v0.9c0,0.4,0.3,0.7,0.7,0.7
		c0.4,0,0.7-0.3,0.7-0.7v-4.9c0-0.2-0.1-0.5-0.3-0.6c-0.4,0.1-0.8,0.3-1.2,0.5v0.1v2.4c0,0.3-0.2,0.5-0.5,0.5s-0.5-0.2-0.5-0.5v-1.9
		c-0.3,0.2-0.6,0.4-0.8,0.7v3.7c0,0.3,0,0.5,0.1,0.8s-0.1,0.5-0.3,0.6h-0.1c-0.2,0-0.4-0.1-0.5-0.3c-0.1-0.3-0.2-0.7-0.2-1.1v-2.6
		c-0.3,0.5-0.6,0.9-0.8,1.5v1.1c0,2.4,1.9,4.3,4.3,4.3c0.9,0,1.8-0.3,2.5-0.8c0.2-0.2,0.5-0.1,0.7,0.1s0.1,0.5-0.1,0.7
		c-0.9,0.6-2,1-3.1,1c-2.3,0-4.2-1.4-5-3.5c0,0.1,0,0.1,0,0.2c0,2.1,0.8,4.1,2.3,5.5c1.5,1.5,3.5,2.3,5.5,2.3c2.1,0,4.1-0.8,5.5-2.3
		C-255.2,396.2-254.4,394.2-254.4,392.1L-254.4,392.1z"/>
	<path class="st5" d="M-261.6,388v2.1c0,1.9-1.6,3.5-3.5,3.5c-1,0-1.9-0.4-2.6-1.1c-0.2-0.2-0.2-0.5,0-0.7s0.5-0.2,0.7,0
		c0.5,0.5,1.2,0.8,1.9,0.8c1.4,0,2.5-1.1,2.5-2.5v-2.1c0-0.3,0.2-0.5,0.5-0.5C-261.9,387.6-261.6,387.8-261.6,388L-261.6,388z"/>
	<path class="st0" d="M-274.3,406.2l-5.9,5.9l-2.2-2.2l5.9-5.9L-274.3,406.2z"/>
</g>
</svg>
