<?xml version="1.0" encoding="utf-8"?>
<!-- Generator: Adobe Illustrator 19.0.0, SVG Export Plug-In . SVG Version: 6.00 Build 0)  -->
<svg version="1.1" id="icons" xmlns="http://www.w3.org/2000/svg" xmlns:xlink="http://www.w3.org/1999/xlink" x="0px" y="0px"
	 viewBox="-286 380.5 37.2 33.5" style="enable-background:new -286 380.5 37.2 33.5;" xml:space="preserve">
<style type="text/css">
	.st0{fill:#414042;}
	.st1{fill:#F4F4F4;}
	.st2{fill:#F4791F;}
	.st3{fill:#0E67B1;}
</style>
<path class="st0" d="M-257.8,383.3h-4.1c-0.2-0.7-0.8-1.1-1.6-1.1h-1.7c-0.5-0.7-1.3-1.1-2.2-1.1c-0.9,0-1.7,0.4-2.2,1.1h-1.7
	c-0.7,0-1.3,0.5-1.6,1.1h-4.1c-1.2,0-2.2,1-2.2,2.2v25.8c0,1.2,1,2.2,2.2,2.2h19.1c1.2,0,2.2-1,2.2-2.2v-25.8
	C-255.6,384.1-256.5,383.3-257.8,383.3L-257.8,383.3z"/>
<path class="st1" d="M-272.8,386.5c0.2,0.7,0.8,1.1,1.6,1.1h7.9c0.7,0,1.3-0.5,1.6-1.1h3v23.7h-16.9v-23.7H-272.8z"/>
<path class="st2" d="M-271.2,383.1h2c0.2,0,0.4-0.1,0.5-0.3c0.3-0.5,0.9-0.9,1.5-0.9s1.2,0.3,1.5,0.9c0.1,0.2,0.3,0.3,0.5,0.3h2
	c0.3,0,0.6,0.3,0.6,0.6v2.2l0,0l0,0c0,0.3-0.3,0.6-0.6,0.6h-7.9c-0.3,0-0.6-0.3-0.6-0.6l0,0l0,0v-2.2
	C-271.8,383.4-271.6,383.1-271.2,383.1L-271.2,383.1z"/>
<path class="st3" d="M-256.6,411.3c0,0.6-0.5,1.2-1.2,1.2h-19.1c-0.6,0-1.2-0.5-1.2-1.2v-25.8c0-0.6,0.5-1.2,1.2-1.2h4v1.2h-3.4
	c-0.3,0-0.5,0.2-0.5,0.5v24.7c0,0.3,0.2,0.5,0.5,0.5h18c0.3,0,0.5-0.2,0.5-0.5V386c0-0.3-0.2-0.5-0.5-0.5h-3.4v-1.2h4
	c0.6,0,1.2,0.5,1.2,1.2v25.8H-256.6z"/>
<path class="st0" d="M-256.6,411.3"/>
<path class="st0" d="M-267.3,385.3c0.3,0,0.5-0.2,0.5-0.5v-1.1c0-0.3-0.2-0.5-0.5-0.5s-0.5,0.2-0.5,0.5v1.1
	C-267.8,385.1-267.6,385.3-267.3,385.3L-267.3,385.3z"/>
<path class="st0" d="M-266.7,392.6h3.4c0.3,0,0.5-0.2,0.5-0.5s-0.2-0.5-0.5-0.5h-3.4c-0.3,0-0.5,0.2-0.5,0.5
	C-267.3,392.4-267,392.6-266.7,392.6L-266.7,392.6z"/>
<path class="st0" d="M-266.7,394.9h5.6c0.3,0,0.5-0.2,0.5-0.5s-0.2-0.5-0.5-0.5h-5.6c-0.3,0-0.5,0.2-0.5,0.5
	C-267.3,394.6-267,394.9-266.7,394.9L-266.7,394.9z"/>
<path class="st0" d="M-272.2,394.8c0.1,0.1,0.2,0.2,0.4,0.2s0.3-0.1,0.4-0.2l2.8-2.8c0.2-0.2,0.2-0.5,0-0.7s-0.5-0.2-0.7,0l-2.4,2.4
	l-1.3-1.3c-0.2-0.2-0.5-0.2-0.7,0s-0.2,0.5,0,0.7L-272.2,394.8z"/>
<path class="st0" d="M-266.7,398.3h3.4c0.3,0,0.5-0.2,0.5-0.5s-0.2-0.5-0.5-0.5h-3.4c-0.3,0-0.5,0.2-0.5,0.5
	C-267.3,398-267,398.3-266.7,398.3L-266.7,398.3z"/>
<path class="st0" d="M-266.7,400.5h5.6c0.3,0,0.5-0.2,0.5-0.5s-0.2-0.5-0.5-0.5h-5.6c-0.3,0-0.5,0.2-0.5,0.5
	C-267.3,400.3-267,400.5-266.7,400.5L-266.7,400.5z"/>
<path class="st0" d="M-272.2,400.3c0.1,0.1,0.2,0.2,0.4,0.2s0.3-0.1,0.4-0.2l2.8-2.8c0.2-0.2,0.2-0.5,0-0.7s-0.5-0.2-0.7,0l-2.4,2.4
	l-1.3-1.3c-0.2-0.2-0.5-0.2-0.7,0s-0.2,0.5,0,0.7L-272.2,400.3z"/>
<path class="st0" d="M-266.7,403.9h3.4c0.3,0,0.5-0.2,0.5-0.5s-0.2-0.5-0.5-0.5h-3.4c-0.3,0-0.5,0.2-0.5,0.5
	C-267.3,403.6-267,403.9-266.7,403.9L-266.7,403.9z"/>
<path class="st0" d="M-266.7,406.1h5.6c0.3,0,0.5-0.2,0.5-0.5s-0.2-0.5-0.5-0.5h-5.6c-0.3,0-0.5,0.2-0.5,0.5
	C-267.3,405.9-267,406.1-266.7,406.1L-266.7,406.1z"/>
<path class="st0" d="M-272.2,406c0.1,0.1,0.2,0.2,0.4,0.2s0.3-0.1,0.4-0.2l2.8-2.8c0.2-0.2,0.2-0.5,0-0.7s-0.5-0.2-0.7,0l-2.4,2.4
	l-1.3-1.3c-0.2-0.2-0.5-0.2-0.7,0s-0.2,0.5,0,0.7L-272.2,406z"/>
</svg>
