<?xml version="1.0" encoding="utf-8"?>
<!-- Generator: Adobe Illustrator 19.0.0, SVG Export Plug-In . SVG Version: 6.00 Build 0)  -->
<svg version="1.1" id="icons" xmlns="http://www.w3.org/2000/svg" xmlns:xlink="http://www.w3.org/1999/xlink" x="0px" y="0px"
	 viewBox="-286 380.5 37.2 33.5" style="enable-background:new -286 380.5 37.2 33.5;" xml:space="preserve">
<style type="text/css">
	.st0{fill:#F4F4F4;}
	.st1{fill:#FFFFFF;}
	.st2{fill:#414042;}
	.st3{fill:#0E67B1;}
	.st4{fill:#F4791F;}
</style>
<path class="st0" d="M-252.6,414h-29.6c-1.1,0-1.9-0.9-1.9-2v-20c0-1.2,0.9-2,1.9-2h29.6c1.1,0,1.9,0.9,1.9,2v20
	C-250.7,413.1-251.6,414-252.6,414z"/>
<path class="st1" d="M-260.8,394.9h-13.4c-0.2,0-0.4-0.2-0.4-0.4v-2c0-0.2,0.2-0.4,0.4-0.4h13.4c0.2,0,0.4,0.2,0.4,0.4v2
	C-260.4,394.7-260.6,394.9-260.8,394.9z"/>
<path d="M-267.5,382.8c-0.6,0-1.1,0.5-1.1,1.1s0.5,1.1,1.1,1.1s1.1-0.5,1.1-1.1S-266.8,382.8-267.5,382.8L-267.5,382.8z"/>
<path class="st2" d="M-260.8,404.6c0-0.3-0.2-0.6-0.6-0.6h-5.6c-0.3,0-0.6,0.3-0.6,0.6c0,0.3,0.2,0.6,0.6,0.6h5.6
	C-261,405.2-260.8,404.9-260.8,404.6L-260.8,404.6z"/>
<path class="st2" d="M-273.6,391.8c-0.9,0-1.7,0.8-1.7,1.7c0,0.9,0.8,1.7,1.7,1.7h12.3c0.9,0,1.7-0.8,1.7-1.7c0-0.9-0.8-1.7-1.7-1.7
	h-1.1c-0.3,0-0.6,0.3-0.6,0.6c0,0.3,0.2,0.6,0.6,0.6h1.1c0.3,0,0.6,0.3,0.6,0.6c0,0.3-0.3,0.6-0.6,0.6h-12.3c-0.3,0-0.6-0.3-0.6-0.6
	c0-0.3,0.3-0.6,0.6-0.6h11.1c0.3,0,0.6-0.3,0.6-0.6c0-0.3-0.2-0.6-0.6-0.6H-273.6z"/>
<path class="st2" d="M-266.9,407.4c-0.3,0-0.6,0.3-0.6,0.6c0,0.3,0.2,0.6,0.6,0.6h2.2c0.3,0,0.6-0.3,0.6-0.6c0-0.3-0.2-0.6-0.6-0.6
	H-266.9z"/>
<path class="st2" d="M-270.2,392.9h5.6c0.3,0,0.6-0.3,0.6-0.6V381c0-0.3-0.2-0.6-0.6-0.6h-5.6c-0.3,0-0.6,0.3-0.6,0.6v11.2
	C-270.8,392.6-270.6,392.9-270.2,392.9L-270.2,392.9z"/>
<rect x="-269.7" y="381.7" class="st3" width="4.5" height="10.1"/>
<path d="M-269.7,381.7"/>
<path class="st2" d="M-255.2,404.6c0-0.3-0.2-0.6-0.6-0.6h-3.4c-0.3,0-0.6,0.3-0.6,0.6c0,0.3,0.2,0.6,0.6,0.6h3.4
	C-255.4,405.2-255.2,404.9-255.2,404.6L-255.2,404.6z"/>
<path class="st2" d="M-273.6,398.5h-2.2c-1.8,0-3.3,1.5-3.3,3.4v0.2c-0.3,0.2-0.6,0.6-0.6,1v1.1c0,0.4,0.2,0.8,0.6,1
	c0.1,1.1,0.6,2,0.6,2.1c0.5,1,1.3,2.5,3.8,2.5c2.6,0,3.3-1.5,3.8-2.5c0,0,0.5-1,0.6-2.1c0.3-0.2,0.6-0.6,0.6-1v-1.1
	c0-0.4-0.2-0.8-0.6-1v-0.2C-270.2,400-271.7,398.5-273.6,398.5L-273.6,398.5z"/>
<path class="st4" d="M-270.8,404c-0.3,0-0.6,0.3-0.6,0.6c0,1-0.5,2-0.5,2c-0.6,1.2-1.1,1.9-2.9,1.9s-2.3-0.8-2.8-1.9
	c0,0-0.5-1-0.5-2c0-0.3-0.2-0.6-0.6-0.6v-1.1c0.3,0,0.6-0.3,0.6-0.6v-0.6c0-1.2,1-2.2,2.2-2.2h2.2c1.2,0,2.2,1,2.2,2.2v0.6
	c0,0.3,0.2,0.6,0.6,0.6L-270.8,404L-270.8,404z"/>
<path d="M-270.8,404"/>
<path class="st2" d="M-253.5,389.5H-264c-0.3,0-0.6,0.3-0.6,0.6c0,0.3,0.2,0.6,0.6,0.6h10.5c0.9,0,1.7,0.8,1.7,1.7v19
	c0,0.9-0.8,1.7-1.7,1.7h-27.9c-0.9,0-1.7-0.8-1.7-1.7v-19c0-0.9,0.8-1.7,1.7-1.7h10.4c0.3,0,0.6-0.3,0.6-0.6c0-0.3-0.2-0.6-0.6-0.6
	h-10.4c-1.5,0-2.8,1.3-2.8,2.8v19c0,1.5,1.3,2.8,2.8,2.8h27.9c1.5,0,2.8-1.3,2.8-2.8v-19C-250.7,390.8-252,389.5-253.5,389.5
	L-253.5,389.5z"/>
<path d="M-253.5,389.5"/>
<path class="st2" d="M-273,402.9h-0.6c-0.3,0-0.6,0.3-0.6,0.6c0,0.3,0.2,0.6,0.6,0.6h0.6c0.3,0,0.6-0.3,0.6-0.6
	C-272.5,403.2-272.7,402.9-273,402.9L-273,402.9z"/>
<path class="st2" d="M-259.1,399.6h-7.8c-0.3,0-0.6,0.3-0.6,0.6c0,0.3,0.2,0.6,0.6,0.6h7.8c0.3,0,0.6-0.3,0.6-0.6
	C-258.5,399.8-258.8,399.6-259.1,399.6L-259.1,399.6z"/>
<path class="st2" d="M-262.4,408.5h5.6c0.3,0,0.6-0.3,0.6-0.6c0-0.3-0.2-0.6-0.6-0.6h-5.6c-0.3,0-0.6,0.3-0.6,0.6
	C-263,408.3-262.7,408.5-262.4,408.5L-262.4,408.5z"/>
<path class="st2" d="M-275.8,402.9h-0.6c-0.3,0-0.6,0.3-0.6,0.6c0,0.3,0.2,0.6,0.6,0.6h0.6c0.3,0,0.6-0.3,0.6-0.6
	C-275.3,403.2-275.5,402.9-275.8,402.9L-275.8,402.9z"/>
</svg>
