<?xml version="1.0" encoding="utf-8"?>
<!-- Generator: Adobe Illustrator 19.0.0, SVG Export Plug-In . SVG Version: 6.00 Build 0)  -->
<svg version="1.1" id="icons" xmlns="http://www.w3.org/2000/svg" xmlns:xlink="http://www.w3.org/1999/xlink" x="0px" y="0px"
	 viewBox="-286 380.5 37.2 33.5" style="enable-background:new -286 380.5 37.2 33.5;" xml:space="preserve">
<style type="text/css">
	.st0{fill:#0E67B1;}
	.st1{fill:#414042;}
	.st2{fill:#F4791F;stroke:#414042;stroke-width:0.4;stroke-miterlimit:10;}
	.st3{fill:#0E67B1;stroke:#414042;stroke-width:0.7695;stroke-miterlimit:10;}
	.st4{fill:#F4F4F4;}
	.st5{fill:#F4791F;stroke:#414042;stroke-width:0.7695;stroke-miterlimit:10;}
	.st6{fill:#F4F4F4;stroke:#414042;stroke-width:0.7695;stroke-miterlimit:10;}
	.st7{fill:#414042;stroke:#414042;stroke-width:0.7695;stroke-miterlimit:10;}
</style>
<g>
	<polygon class="st0" points="-267.2,406.5 -267.2,404.7 -261.9,404.7 -260.9,406.5 	"/>
	<path class="st1" d="M-262.1,405.1l0.6,1h-5.3v-1H-262.1 M-261.6,404.4h-0.5h-4.7h-0.8v0.8v1v0.8h0.8h5.3h1.3l-0.6-1.1l-0.6-1
		L-261.6,404.4L-261.6,404.4z"/>
	<g>
		<polygon class="st0" points="-273.8,406.5 -272.8,404.7 -267.5,404.7 -267.5,406.5 		"/>
		<path class="st1" d="M-267.8,405.1v1h-5.3l0.6-1H-267.8 M-267.1,404.4h-0.8h-4.7h-0.5l-0.2,0.4l-0.6,1l-0.6,1.1h1.3h5.3h0.8v-0.8
			v-1L-267.1,404.4L-267.1,404.4z"/>
	</g>
</g>
<path class="st2" d="M-251.3,384.7c-0.6-1.3-1.6-2.4-2.9-3.1l3,7.3C-250.7,387.5-250.7,386-251.3,384.7L-251.3,384.7z"/>
<path class="st3" d="M-275,394.8"/>
<g>
	<g>
		
			<rect x="-276.8" y="391.2" transform="matrix(-0.9221 0.387 -0.387 -0.9221 -379.9293 859.6843)" class="st0" width="0.6" height="0.8"/>
		<polyline class="st1" points="-276.3,391.5 -276.3,391.5 -276.9,391.7 -276.3,391.5 		"/>
	</g>
	<g>
		
			<rect x="-274.2" y="397.6" transform="matrix(-0.9219 0.3875 -0.3875 -0.9219 -372.1943 871.0535)" class="st0" width="0.6" height="0.8"/>
		<polyline class="st1" points="-273.6,398 -273.6,398 -274.2,398.2 -273.6,398 		"/>
	</g>
	<g>
		<path class="st4" d="M-276.8,391.3l16.4-6.9l3,7.2l-8.3,3.5v-0.5c-0.1-0.8-0.8-1.5-1.6-1.5c-0.9,0-1.6,0.7-1.6,1.6
			c0,0.4,0.1,0.8,0.4,1l0.3,0.4l-5.6,2.4L-276.8,391.3z"/>
		<path class="st1" d="M-260.6,384.9l1.3,3.3l0,0l1.3,3.2l0,0l-7.4,3.1c-0.1-1-0.9-1.8-2-1.8s-2,0.9-2,2c0,0.5,0.2,0.9,0.5,1.3
			l-4.8,2l-1.3-3.2l0,0l-1.3-3.3L-260.6,384.9 M-260.2,383.9l-0.7,0.3l-15.7,6.6l-0.7,0.3l0.3,0.7l1.3,3.3l1.3,3.2l0.3,0.7l0.7-0.3
			l4.8-2l1-0.4l-0.7-0.8c-0.2-0.2-0.3-0.5-0.3-0.8c0-0.7,0.5-1.2,1.2-1.2c0.6,0,1.2,0.5,1.2,1.1l0.1,1l1-0.4l7.4-3.1l0.8-0.3
			l-0.4-0.7l-1.3-3.1l-1.4-3.3L-260.2,383.9L-260.2,383.9z"/>
	</g>
</g>
<path class="st3" d="M-259.2,388.2"/>
<path class="st5" d="M-259.2,388.2"/>
<path class="st6" d="M-280.4,394.8L-280.4,394.8l1.5,3.7l3.2-1.3l-1.5-3.7L-280.4,394.8z"/>
<g>
	<g>
		<path class="st4" d="M-277.3,413.5c-0.1,0-0.3,0-0.4-0.1c-0.2-0.1-0.4-0.3-0.4-0.5c-0.1-0.2,0-0.5,0.1-0.7l9.3-16.7l0.4,0.3
			c0.2,0.2,0.4,0.3,0.7,0.4l0.5,0.1l-9.3,16.7C-276.7,413.3-277,413.5-277.3,413.5z"/>
		<path class="st1" d="M-268.7,396.1c0.2,0.2,0.5,0.4,0.9,0.5l-4.7,8.5l-0.6,1l-3.7,6.7c-0.1,0.2-0.3,0.3-0.4,0.3s-0.2,0-0.2-0.1
			c-0.2-0.1-0.3-0.4-0.2-0.7L-268.7,396.1 M-268.9,394.9l-0.5,0.9l-9,16.3c-0.2,0.3-0.2,0.6-0.1,1c0.1,0.3,0.3,0.6,0.6,0.8
			c0.2,0.1,0.4,0.2,0.6,0.2c0.5,0,0.9-0.2,1.1-0.7l3.7-6.7l0.6-1l4.7-8.5l0.5-0.9l-1-0.2c-0.2-0.1-0.4-0.2-0.5-0.3L-268.9,394.9
			L-268.9,394.9z"/>
	</g>
	<g>
		<path class="st4" d="M-257.4,413.5c-0.3,0-0.6-0.2-0.8-0.5l-9.3-16.7l0.5-0.1c0.3-0.1,0.5-0.2,0.7-0.4l0.4-0.3l9.3,16.7
			c0.1,0.2,0.1,0.4,0.1,0.7c-0.1,0.2-0.2,0.4-0.4,0.5C-257.1,413.4-257.2,413.5-257.4,413.5z"/>
		<path class="st1" d="M-266,396.1l9,16.3c0.1,0.2,0,0.5-0.2,0.7c-0.1,0-0.2,0.1-0.2,0.1c-0.2,0-0.3-0.1-0.4-0.3l-3.7-6.7l-0.6-1
			l-4.7-8.5C-266.5,396.5-266.2,396.3-266,396.1 M-265.8,394.9l-0.7,0.7c-0.2,0.1-0.3,0.2-0.5,0.3l-1,0.2l0.5,0.9l4.7,8.5l0.6,1
			l3.7,6.7c0.2,0.4,0.6,0.7,1.1,0.7c0.2,0,0.4-0.1,0.6-0.2c0.3-0.2,0.5-0.4,0.6-0.8c0.1-0.3,0.1-0.7-0.1-1l-9-16.3L-265.8,394.9
			L-265.8,394.9z"/>
	</g>
	<g>
		<path class="st4" d="M-267.3,413.5c-0.5,0-0.9-0.4-0.9-0.9v-16.5l0.5,0.1c0.1,0,0.3,0.1,0.4,0.1s0.3,0,0.4-0.1l0.5-0.1v16.5
			C-266.5,413.1-266.9,413.5-267.3,413.5z"/>
		<path class="st1" d="M-266.8,396.6v16c0,0.3-0.2,0.5-0.5,0.5s-0.5-0.2-0.5-0.5v-16c0.2,0,0.3,0.1,0.5,0.1
			C-267.2,396.7-267,396.6-266.8,396.6 M-268.6,395.6v1v16c0,0.7,0.6,1.3,1.3,1.3c0.7,0,1.3-0.6,1.3-1.3v-16v-1l-1,0.2
			c-0.1,0-0.2,0-0.3,0c-0.1,0-0.2,0-0.3,0L-268.6,395.6L-268.6,395.6z"/>
	</g>
</g>
<path class="st7" d="M-275,394.8L-275,394.8l-1.4-3.3l-0.5,0.2c-0.2,0.1-0.4,0.3-0.5,0.5s-0.1,0.5,0,0.8l0.2,0.5l0.8,1.9l0,0
	l0.3,0.8l0.4,0.9l0.2,0.5c0.1,0.2,0.3,0.4,0.5,0.5c0.1,0.1,0.3,0.1,0.4,0.1s0.3,0,0.4-0.1l0.5-0.2L-275,394.8z"/>
<g>
	<path class="st0" d="M-256.5,392.7c-0.8,0-1.4-0.5-1.7-1.2l-2.7-6.4c-0.2-0.5-0.2-1,0-1.4c0.2-0.5,0.6-0.8,1-1l4.1-1.7
		c0.1,0,0.2-0.1,0.3-0.1s0.2,0,0.3,0.1c0.2,0.1,0.4,0.3,0.5,0.5l3.4,8.3c0.1,0.2,0.1,0.5,0,0.7s-0.3,0.4-0.5,0.5l-4.1,1.7
		C-256.1,392.6-256.3,392.7-256.5,392.7z"/>
	<path class="st1" d="M-255.5,381.2c0.1,0,0.1,0,0.2,0c0.1,0.1,0.2,0.1,0.3,0.3l0.2,0.5l1.5,3.7l0,0l1.7,4.1c0.1,0.1,0.1,0.3,0,0.4
		s-0.1,0.2-0.3,0.3l-4.1,1.7c-0.2,0.1-0.4,0.1-0.6,0.1c-0.6,0-1.1-0.3-1.4-0.9l0,0l-1.3-3.2l0,0l-1.3-3.3l0,0
		c-0.2-0.4-0.2-0.8,0-1.1c0.2-0.4,0.4-0.7,0.8-0.8l4.1-1.7C-255.6,381.2-255.5,381.2-255.5,381.2 M-255.5,380.4
		c-0.2,0-0.3,0-0.5,0.1l-4.1,1.7c-0.6,0.2-1,0.7-1.2,1.2c-0.2,0.6-0.2,1.2,0,1.7l1.3,3.3l1.3,3.2l0,0l0,0c0.4,0.8,1.2,1.4,2.1,1.4
		c0.3,0,0.6-0.1,0.9-0.2l4.1-1.7c0.3-0.1,0.6-0.4,0.7-0.7c0.1-0.3,0.1-0.7,0-1l-1.7-4.1l-1.5-3.7l-0.2-0.5c-0.1-0.3-0.4-0.6-0.7-0.7
		C-255.1,380.5-255.3,380.4-255.5,380.4L-255.5,380.4z"/>
</g>
<path class="st5" d="M-279.6,396.7"/>
<g>
	<path class="st0" d="M-280.7,400.7c-0.2,0-0.4,0-0.5-0.1c-0.3-0.1-0.6-0.4-0.7-0.7l-1.5-3.7c-0.3-0.7,0-1.5,0.7-1.8l0.9-0.4
		c0.2-0.1,0.3-0.1,0.5-0.1c0.6,0,1.1,0.3,1.3,0.9l1.5,3.7c0.1,0.3,0.1,0.7,0,1.1c-0.1,0.3-0.4,0.6-0.7,0.7l-0.9,0.4
		C-280.4,400.6-280.6,400.7-280.7,400.7z"/>
	<path class="st1" d="M-281.3,394.2c0.4,0,0.8,0.2,0.9,0.6l0,0l1.5,3.7c0.1,0.2,0.1,0.5,0,0.8c-0.1,0.2-0.3,0.4-0.5,0.5l-0.9,0.4
		c-0.1,0.1-0.3,0.1-0.4,0.1s-0.3,0-0.4-0.1c-0.2-0.1-0.4-0.3-0.5-0.5l-0.5-1.1l-1.1-2.5c-0.2-0.5,0-1.1,0.5-1.3l0.9-0.4
		C-281.6,394.2-281.5,394.2-281.3,394.2 M-281.3,393.5c-0.2,0-0.5,0-0.7,0.1l-0.9,0.4c-0.9,0.4-1.3,1.4-1,2.3l1.1,2.5l0.5,1.1
		c0.2,0.4,0.5,0.8,1,1c0.2,0.1,0.4,0.1,0.7,0.1c0.2,0,0.5,0,0.7-0.1l0.9-0.4c0.4-0.2,0.8-0.5,1-1c0.2-0.4,0.2-0.9,0-1.4l-1.5-3.7
		C-280,393.9-280.6,393.5-281.3,393.5L-281.3,393.5z"/>
</g>
<path class="st7" d="M-267.3,392.7c-1.1,0-2,0.9-2,2c0,0.5,0.2,0.9,0.5,1.3c0,0.1,0.1,0.1,0.1,0.2c0.2,0.2,0.5,0.4,0.9,0.5l0,0
	c0.2,0,0.3,0.1,0.5,0.1s0.3,0,0.5-0.1l0,0c0.3-0.1,0.6-0.3,0.9-0.5c0.4-0.4,0.6-0.9,0.6-1.4c0-0.1,0-0.1,0-0.2
	C-265.5,393.5-266.3,392.7-267.3,392.7L-267.3,392.7z M-267.3,395.7c-0.6,0-1-0.4-1-1s0.4-1,1-1s1,0.4,1,1
	C-266.3,395.2-266.8,395.7-267.3,395.7L-267.3,395.7z"/>
<path class="st0" d="M-266.3,394.7c0,0.6-0.4,1-1,1s-1-0.4-1-1s0.4-1,1-1C-266.8,393.7-266.3,394.1-266.3,394.7L-266.3,394.7z"/>
</svg>
