<?xml version="1.0" encoding="utf-8"?>
<!-- Generator: Adobe Illustrator 19.0.0, SVG Export Plug-In . SVG Version: 6.00 Build 0)  -->
<svg version="1.1" id="icons" xmlns="http://www.w3.org/2000/svg" xmlns:xlink="http://www.w3.org/1999/xlink" x="0px" y="0px"
	 viewBox="-286 380.5 37.2 33.5" style="enable-background:new -286 380.5 37.2 33.5;" xml:space="preserve">
<style type="text/css">
	.st0{fill:#0E67B1;}
	.st1{fill:none;stroke:#0E67B1;stroke-width:1.0273;stroke-miterlimit:10;}
	.st2{fill:#FFFFFF;}
</style>
<g>
	<path class="st0" d="M-263.6,384.1"/>
	<path class="st0" d="M-272,382.5C-272.1,382.5-272.1,382.5-272,382.5l-0.1-1.1c0-0.3-0.2-0.5-0.5-0.5c-0.3,0-0.5,0.2-0.5,0.5v1.1
		c0,0,0,0-0.1,0c-7.1,0.3-12.7,6.2-12.7,13.3v1.1c0,0.3,0.2,0.5,0.5,0.5c0.3,0,0.5-0.2,0.5-0.5v-0.9c0.7-0.8,1.7-1.3,2.7-1.3
		c1,0,1.9,0.5,2.7,1.3v0.9c0,0.3,0.2,0.5,0.5,0.5c0.3,0,0.5-0.2,0.5-0.5v-0.9c0.7-0.8,1.7-1.3,2.7-1.3c1,0,1.9,0.5,2.7,1.3v4.6h-0.5
		c-0.3,0-0.5,0.2-0.5,0.5c0,0.3,0.2,0.5,0.5,0.5h0.5v1.1h-1.1v3.7c0,0.3-0.2,0.5-0.5,0.5c-0.2,0-0.4-0.1-0.5-0.3
		c-0.3-0.5-0.8-0.8-1.4-0.8c-0.6,0-1.1,0.3-1.4,0.8c-0.3,0.5-0.3,1.1,0,1.6c0.7,1.1,1.9,1.8,3.2,1.8c2.1,0,3.7-1.7,3.7-3.7v-3.7
		h-1.1v-6.7c0.7-0.8,1.7-1.3,2.7-1.3c1,0,1.9,0.5,2.7,1.3v0.9c0,0.3,0.2,0.5,0.5,0.5c0.3,0,0.5-0.2,0.5-0.5v-0.9
		c0.7-0.8,1.7-1.3,2.7-1.3c1,0,1.9,0.5,2.7,1.3v0.9c0,0.3,0.2,0.5,0.5,0.5c0.3,0,0.5-0.2,0.5-0.5v-1.1
		C-259.3,388.7-265,382.9-272,382.5L-272,382.5z M-279.6,394.7c-0.8-0.6-1.7-0.9-2.7-0.9c-0.9,0-1.8,0.3-2.6,0.9
		c0.5-5.2,4.4-9.5,9.4-10.7C-277.8,385.9-279.3,389.9-279.6,394.7L-279.6,394.7z M-275.9,393.7c-0.9,0-1.9,0.3-2.6,0.9
		c0.3-5.5,2.5-9.9,5.3-10.8v10.9C-274,394-274.9,393.7-275.9,393.7L-275.9,393.7z M-272.1,406.5c0,1.5-1.2,2.7-2.7,2.7
		c-0.9,0-1.8-0.5-2.3-1.3c-0.1-0.2-0.1-0.4,0-0.6c0-0.1,0.2-0.3,0.5-0.3c0.2,0,0.4,0.1,0.4,0.2c0.3,0.5,0.8,0.8,1.4,0.8
		c0.9,0,1.6-0.7,1.6-1.6v-2.7h1.1V406.5z M-269.4,393.7c-1,0-1.9,0.3-2.7,0.9v-10.9c2.8,0.9,5,5.3,5.3,10.8
		C-267.6,394-268.5,393.7-269.4,393.7L-269.4,393.7z M-263,393.7c-1,0-1.9,0.3-2.7,0.9c-0.2-4.8-1.8-8.7-4.1-10.7
		c5,1.2,8.8,5.4,9.4,10.7C-261.2,394-262.1,393.7-263,393.7L-263,393.7z M-263,393.7"/>
</g>
<polyline class="st1" points="-260.6,405.2 -260.6,409.6 -265,409.6 -265,406.3 "/>
<g>
	<path class="st0" d="M-260.7,414.4l-0.2-0.1c-2.3-0.8-4.2-2.2-5.8-4.1c-1.2-1.7-2.1-3.5-2.9-5.8c-1.1-3.6-1.1-6.9-1.1-7.3
		c0-0.9,0.7-1.6,1.5-1.6c0.4,0,4.8-0.6,7.8-2.8c0.3-0.2,0.6-0.4,1-0.4s0.7,0.1,1,0.4c2.8,2,6.9,2.7,7.8,2.8l0,0
		c0.8,0,1.5,0.7,1.5,1.6c0,0.4,0,3.7-1.1,7.3c-0.7,2.3-1.7,4.2-2.8,5.8c-1.5,2.1-3.5,3.5-5.8,4.2h-0.1H-260.7z"/>
	<path class="st2" d="M-260.3,393.4c0.1,0,0.3,0,0.4,0.1c3.4,2.5,8.3,3,8.4,3c0.3,0,0.6,0.3,0.6,0.6c0,0.1,0,3.4-1.1,7
		c-0.7,2.2-1.6,4-2.7,5.5c-1.4,1.9-3.2,3.2-5.3,3.8c-0.2,0-0.3,0-0.3,0c-0.1,0-0.1,0-0.2,0c-2.1-0.7-3.9-2-5.3-3.8
		c-1.1-1.5-2-3.3-2.7-5.5c-1.1-3.6-1.1-6.9-1.1-7c0-0.3,0.2-0.6,0.6-0.6c0,0,5-0.5,8.4-3C-260.5,393.4-260.4,393.4-260.3,393.4
		 M-260.3,391.4c-0.6,0-1.2,0.2-1.6,0.6c-2.4,1.7-6,2.4-7.3,2.6c-1.4,0.1-2.5,1.2-2.5,2.6c0,0.4,0,3.8,1.2,7.6
		c0.8,2.4,1.7,4.4,3,6.1l0,0l0,0c1.6,2.1,3.8,3.7,6.2,4.5l0.3,0.1h0.3h0.2h0.3h0.3l0.3-0.1c2.5-0.7,4.7-2.3,6.4-4.5
		c1.3-1.7,2.2-3.7,3-6.1c1.2-3.8,1.2-7.2,1.2-7.6c0-1.4-1.1-2.5-2.5-2.6c-0.4,0-4.5-0.5-7.3-2.6
		C-259.1,391.6-259.7,391.4-260.3,391.4L-260.3,391.4z"/>
</g>
<path class="st2" d="M-268.4,397.6c0.1,1.1,0.3,3.5,1,6.1c1.4,4.4,3.7,7.3,7,8.4c3.3-1.1,5.6-4,7-8.4c0.8-2.6,1-5,1-6.1
	c-1.4-0.2-5.1-0.9-8-2.9C-263.3,396.7-267,397.4-268.4,397.6L-268.4,397.6z"/>
<path class="st0" d="M-268.4,397.6"/>
<path class="st0" d="M-260.7,406.5c-0.1,0-0.3-0.1-0.4-0.2l-2.3-2c-0.3-0.2-0.3-0.6-0.1-0.9c0.2-0.3,0.6-0.3,0.9-0.1l1.8,1.5
	l3.5-4.6c0.2-0.3,0.6-0.3,0.9-0.1c0.3,0.2,0.3,0.6,0.1,0.9l-3.9,5.2C-260.3,406.3-260.4,406.4-260.7,406.5
	C-260.6,406.5-260.7,406.5-260.7,406.5L-260.7,406.5z"/>
</svg>
