<?xml version="1.0" encoding="utf-8"?>
<!-- Generator: Adobe Illustrator 19.0.0, SVG Export Plug-In . SVG Version: 6.00 Build 0)  -->
<svg version="1.1" id="icons" xmlns="http://www.w3.org/2000/svg" xmlns:xlink="http://www.w3.org/1999/xlink" x="0px" y="0px"
	 viewBox="-286 380.5 37.2 33.5" style="enable-background:new -286 380.5 37.2 33.5;" xml:space="preserve">
<style type="text/css">
	.st0{fill:#0E67B1;}
</style>
<g>
	<path class="st0" d="M-256.1,404.1v-7.4c0-0.3-0.2-0.5-0.5-0.5h-5l3.1-3.7c0.1-0.2,0.2-0.4,0.1-0.6c-0.1-0.2-0.3-0.3-0.5-0.3h-2.9
		v-9.7c0-0.6-0.5-1.1-1.1-1.1h-5.7c-0.6,0-1.1,0.5-1.1,1.1v9.7h-2.9c-0.2,0-0.4,0.1-0.5,0.3c-0.1,0.2-0.1,0.4,0.1,0.6l3.1,3.7h-6.6
		l-0.4-1.2c-0.2-0.7-0.9-1.1-1.6-1.1h-1.5c-0.3,0-0.5,0.2-0.5,0.5c0,0.3,0.2,0.5,0.5,0.5h1.5c0.3,0,0.5,0.2,0.6,0.4l4.6,12.4
		c0.2,0.5,0.4,0.9,0.8,1.3l-0.6,0.6c-0.3-0.2-0.7-0.3-1.2-0.3c-1.2,0-2.2,1-2.2,2.2c0,1.2,1,2.2,2.2,2.2s2.2-1,2.2-2.2
		c0-0.4-0.1-0.8-0.3-1.2l0.6-0.6c0.6,0.4,1.3,0.6,2.1,0.6h8.8c-0.2,0.3-0.3,0.7-0.3,1.2c0,1.2,1,2.2,2.2,2.2c1.2,0,2.2-1,2.2-2.2
		c0-1.2-1-2.2-2.2-2.2h-10.7c-1.2,0-2.3-0.8-2.7-1.9l-0.2-0.5h13.6C-257.4,406.9-256.1,405.6-256.1,404.1L-256.1,404.1z
		 M-257.8,411.4c0,0.6-0.5,1.2-1.2,1.2c-0.6,0-1.2-0.5-1.2-1.2c0-0.6,0.5-1.2,1.2-1.2C-258.3,410.3-257.8,410.8-257.8,411.4
		L-257.8,411.4z M-269.1,392.7c0.3,0,0.5-0.2,0.5-0.5v-10.2c0,0,0,0,0,0h5.7c0,0,0,0,0,0v10.2c0,0.3,0.2,0.5,0.5,0.5h2.2l-5.7,6.6
		l-5.7-6.6H-269.1z M-274.2,412.6c-0.6,0-1.2-0.5-1.2-1.2c0-0.6,0.5-1.2,1.2-1.2s1.2,0.5,1.2,1.2
		C-273.1,412.1-273.6,412.6-274.2,412.6L-274.2,412.6z M-276,397.2h7.2l2.8,3.2c0.1,0.1,0.2,0.2,0.4,0.2c0.2,0,0.3-0.1,0.4-0.2
		l2.8-3.2h5.4v6.8c0,1-0.8,1.7-1.7,1.7h-13.9L-276,397.2z M-276,397.2"/>
	<path class="st0" d="M-264.6,401.3c-0.3,0-0.5,0.2-0.5,0.5v2.3c0,0.3,0.2,0.5,0.5,0.5c0.3,0,0.5-0.2,0.5-0.5v-2.3
		C-264.1,401.5-264.3,401.3-264.6,401.3L-264.6,401.3z M-264.6,401.3"/>
	<path class="st0" d="M-262.3,398.4c-0.3,0-0.5,0.2-0.5,0.5v5.1c0,0.3,0.2,0.5,0.5,0.5c0.3,0,0.5-0.2,0.5-0.5V399
		C-261.8,398.7-262,398.4-262.3,398.4L-262.3,398.4z M-262.3,398.4"/>
	<path class="st0" d="M-260.1,398.4c-0.3,0-0.5,0.2-0.5,0.5v5.1c0,0.3,0.2,0.5,0.5,0.5s0.5-0.2,0.5-0.5V399
		C-259.5,398.7-259.8,398.4-260.1,398.4L-260.1,398.4z M-260.1,398.4"/>
	<path class="st0" d="M-271.4,398.4c-0.3,0-0.5,0.2-0.5,0.5v5.1c0,0.3,0.2,0.5,0.5,0.5s0.5-0.2,0.5-0.5V399
		C-270.9,398.7-271.1,398.4-271.4,398.4L-271.4,398.4z M-271.4,398.4"/>
	<path class="st0" d="M-269.1,398.4c-0.3,0-0.5,0.2-0.5,0.5v5.1c0,0.3,0.2,0.5,0.5,0.5c0.3,0,0.5-0.2,0.5-0.5V399
		C-268.6,398.7-268.8,398.4-269.1,398.4L-269.1,398.4z M-269.1,398.4"/>
	<path class="st0" d="M-266.9,401.3c-0.3,0-0.5,0.2-0.5,0.5v2.3c0,0.3,0.2,0.5,0.5,0.5c0.3,0,0.5-0.2,0.5-0.5v-2.3
		C-266.3,401.5-266.6,401.3-266.9,401.3L-266.9,401.3z M-266.9,401.3"/>
</g>
</svg>
