<?xml version="1.0" encoding="utf-8"?>
<!-- Generator: Adobe Illustrator 19.0.0, SVG Export Plug-In . SVG Version: 6.00 Build 0)  -->
<svg version="1.1" id="icons" xmlns="http://www.w3.org/2000/svg" xmlns:xlink="http://www.w3.org/1999/xlink" x="0px" y="0px"
	 viewBox="-286 380.5 37.2 33.5" style="enable-background:new -286 380.5 37.2 33.5;" xml:space="preserve">
<style type="text/css">
	.st0{fill:#0E67B1;}
</style>
<g>
	<path class="st0" d="M-252.4,396.3h-1.5v-6.7c0-1.6-1.3-2.9-2.9-2.9h-2l-2.1-3.6c-0.3-0.6-0.9-0.9-1.5-0.9c-0.3,0-0.6,0.1-0.8,0.2
		l-7.8,4.3h-8.7c-1.6,0-2.9,1.3-2.9,2.9v20.2c0,1.6,1.3,2.9,2.9,2.9h23c1.6,0,2.9-1.3,2.9-2.9v-5.9h1.5L-252.4,396.3L-252.4,396.3z
		 M-256.8,387.8c0.9,0,1.7,0.7,1.8,1.6h-2.2l-0.8-1.6H-256.8z M-262.7,383.3c0.3-0.2,0.7,0,0.8,0.2l3.3,5.8h-14.9L-262.7,383.3z
		 M-255,409.7c0,0.9-0.7,1.8-1.8,1.8h-23c-0.9,0-1.8-0.7-1.8-1.8v-20.2c0-0.9,0.7-1.8,1.8-1.8h6.6l-2.8,1.6h-3.5
		c-0.3,0-0.6,0.3-0.6,0.6c0,0.3,0.3,0.6,0.6,0.6h24.4v5.8h-4.3c-2,0-3.6,1.6-3.6,3.6v0.3c0,2,1.6,3.6,3.6,3.6h4.3V409.7z
		 M-253.5,402.6h-5.8c-1.3,0-2.4-1.1-2.4-2.4v-0.3c0-1.3,1.1-2.4,2.4-2.4h5.8V402.6z M-257.6,400.1c0,0.7-0.6,1.3-1.3,1.3
		c-0.7,0-1.3-0.6-1.3-1.3s0.6-1.3,1.3-1.3C-258.1,398.8-257.6,399.4-257.6,400.1L-257.6,400.1z"/>
</g>
</svg>
