<?xml version="1.0" encoding="utf-8"?>
<!-- Generator: Adobe Illustrator 19.0.0, SVG Export Plug-In . SVG Version: 6.00 Build 0)  -->
<svg version="1.1" id="icons" xmlns="http://www.w3.org/2000/svg" xmlns:xlink="http://www.w3.org/1999/xlink" x="0px" y="0px"
	 viewBox="-286 380.5 37.2 33.5" style="enable-background:new -286 380.5 37.2 33.5;" xml:space="preserve">
<style type="text/css">
	.st0{fill:#0E67B1;}
	.st1{fill:#FFFFFF;}
</style>
<g>
	<path class="st0" d="M-254.7,383.5h-28.1c-1.2,0-2.3,1.1-2.3,2.3v19.3c0,1.2,1.1,2.3,2.3,2.3h28.1c1.2,0,2.3-1.1,2.3-2.3v-19.3
		C-252.4,384.6-253.4,383.5-254.7,383.5L-254.7,383.5z M-253.5,405.1c0,0.6-0.5,1.2-1.2,1.2h-28.1c-0.7,0-1.2-0.5-1.2-1.2v-19.3
		c0-0.7,0.5-1.2,1.2-1.2h28.1c0.7,0,1.2,0.5,1.2,1.2L-253.5,405.1L-253.5,405.1z"/>
	<path class="st0" d="M-276.3,399.3h-4.9c-0.3,0-0.5,0.3-0.5,0.5s0.3,0.5,0.5,0.5h4.9c0.3,0,0.5-0.3,0.5-0.5S-276,399.3-276.3,399.3
		L-276.3,399.3z"/>
	<path class="st0" d="M-269.2,399.3h-4.9c-0.3,0-0.5,0.3-0.5,0.5s0.3,0.5,0.5,0.5h4.9c0.3,0,0.5-0.3,0.5-0.5S-269,399.3-269.2,399.3
		L-269.2,399.3z"/>
	<path class="st0" d="M-280.7,402h-0.5c-0.3,0-0.5,0.3-0.5,0.5c0,0.3,0.3,0.5,0.5,0.5h0.5c0.3,0,0.5-0.3,0.5-0.5
		C-280.1,402.3-280.3,402-280.7,402L-280.7,402z"/>
	<path class="st0" d="M-277.4,402h-1.1c-0.3,0-0.5,0.3-0.5,0.5c0,0.3,0.3,0.5,0.5,0.5h1.1c0.3,0,0.5-0.3,0.5-0.5
		C-276.9,402.3-277.1,402-277.4,402L-277.4,402z"/>
	<path class="st0" d="M-274.6,402h-0.5c-0.3,0-0.5,0.3-0.5,0.5c0,0.3,0.3,0.5,0.5,0.5h0.5c0.3,0,0.5-0.3,0.5-0.5
		C-274.1,402.3-274.4,402-274.6,402L-274.6,402z"/>
	<path class="st0" d="M-271.5,402h-1.1c-0.3,0-0.5,0.3-0.5,0.5c0,0.3,0.3,0.5,0.5,0.5h1.1c0.3,0,0.5-0.3,0.5-0.5
		C-270.8,402.3-271.1,402-271.5,402L-271.5,402z"/>
	<path class="st0" d="M-269.6,402.2c-0.1,0.1-0.2,0.3-0.2,0.4c0,0.2,0.1,0.3,0.2,0.4s0.3,0.2,0.4,0.2c0.2,0,0.3-0.1,0.4-0.2
		s0.2-0.3,0.2-0.4c0-0.2-0.1-0.3-0.2-0.4C-269.1,401.9-269.4,401.9-269.6,402.2L-269.6,402.2z"/>
	<path class="st0" d="M-258.9,397.1c-0.7,0-1.3,0.2-1.9,0.5c-0.5-0.4-1.2-0.5-1.9-0.5c-2.1,0-3.8,1.7-3.8,3.8s1.7,3.8,3.8,3.8
		c0.7,0,1.3-0.2,1.9-0.5c0.5,0.4,1.2,0.5,1.9,0.5c2.1,0,3.8-1.7,3.8-3.8S-256.8,397.1-258.9,397.1L-258.9,397.1z M-260,401
		c0,0.8-0.4,1.4-0.8,1.9c-0.5-0.5-0.8-1.2-0.8-1.9c0-0.8,0.4-1.4,0.8-1.9C-260.3,399.5-260,400.2-260,401L-260,401z M-265.4,401
		c0-1.5,1.2-2.7,2.7-2.7c0.4,0,0.7,0.1,1,0.2c-0.6,0.7-1,1.6-1,2.6s0.4,1.9,1,2.6c-0.3,0.1-0.6,0.2-1,0.2
		C-264.2,403.6-265.4,402.5-265.4,401L-265.4,401z M-258.9,403.6c-0.4,0-0.7-0.1-1-0.2c0.6-0.7,1-1.6,1-2.6s-0.4-1.9-1-2.6
		c0.3-0.1,0.6-0.2,1-0.2c1.5,0,2.7,1.2,2.7,2.7C-256.2,402.5-257.4,403.6-258.9,403.6L-258.9,403.6z"/>
	<path class="st0" d="M-280.5,395.5h7.4c0.7,0,1.2-0.5,1.2-1.2v-5.1c0-0.7-0.5-1.2-1.2-1.2h-7.4c-0.7,0-1.2,0.5-1.2,1.2v5.1
		C-281.7,394.9-281.2,395.5-280.5,395.5L-280.5,395.5z M-278.5,392.2h-2.2v-1.1h2.2V392.2z M-280.7,394.2v-1h2.2v1
		c0,0.1,0,0.1,0,0.2h-2C-280.6,394.4-280.7,394.3-280.7,394.2L-280.7,394.2z M-273,392.2h-2.2v-1c0-0.1,0.1-0.2,0.2-0.2h1.9
		c0.1,0,0.1,0,0.2,0L-273,392.2L-273,392.2z M-273.1,394.4h-2c0-0.1,0-0.1,0-0.2v-1h2.2v1C-273,394.3-273.1,394.4-273.1,394.4
		L-273.1,394.4z M-273.1,389c0.1,0,0.2,0.1,0.2,0.2v0.8c0,0.1-0.1,0.2-0.2,0.2h-1.9c-0.7,0-1.2,0.5-1.2,1.2v3c0,0.1-0.1,0.2-0.2,0.2
		h-0.8c-0.1,0-0.2-0.1-0.2-0.2v-5.1c0-0.1,0.1-0.2,0.2-0.2L-273.1,389L-273.1,389z M-280.5,389h2c0,0.1,0,0.1,0,0.2v1h-2.2v-1
		C-280.7,389-280.6,389-280.5,389L-280.5,389z"/>
</g>
<g>
	<path class="st0" d="M-259.5,414.6c-2.8-0.1-5.4-1.3-7.3-3.4c-1.6-1.8-2.6-4.3-2.6-6.8c0-2.6,1-5.1,2.7-7c1.8-1.9,4.4-3.1,7.1-3.2
		l0.7,0c2.7,0.1,5.2,1.2,7.1,3.2c1.8,1.9,2.7,4.3,2.7,7c0,2.5-0.9,5-2.6,6.8c-1.9,2.1-4.5,3.3-7.3,3.4l0,0H-259.5z"/>
	<path class="st1" d="M-258.8,395.2c2.6,0.1,4.8,1.2,6.4,2.9c1.5,1.6,2.5,3.8,2.5,6.3c0,2.4-0.9,4.5-2.3,6.1c-1.6,1.8-4,3-6.6,3.1
		h-0.2c-0.1,0-0.1,0-0.2,0s-0.1,0-0.2,0h-0.2c-2.6-0.1-4.9-1.3-6.6-3.1c-1.4-1.6-2.3-3.8-2.3-6.1c0-2.5,0.9-4.7,2.5-6.3
		c1.6-1.7,3.9-2.8,6.4-2.9h0.2c0.1,0,0.1,0,0.2,0s0.1,0,0.2,0H-258.8 M-258.8,393.2L-258.8,393.2h-0.2h-0.2h-0.2h-0.2h0l0,0
		c-2.9,0.1-5.7,1.4-7.8,3.5c-1.9,2.1-3,4.8-3,7.7c0,2.7,1,5.5,2.8,7.5c2.1,2.3,4.9,3.6,8,3.7l0,0h0h0.2h0.2h0.2h0.2h0l0,0
		c3-0.1,5.9-1.5,8-3.7c1.8-2,2.8-4.7,2.8-7.5c0-2.9-1.1-5.6-3-7.7C-253,394.6-255.8,393.3-258.8,393.2L-258.8,393.2L-258.8,393.2z"
		/>
</g>
<path class="st1" d="M-267.6,404.7h3.8c0,1.4,0.3,2.6,0.8,3.8c-0.9,0.3-1.8,0.8-2.6,1.3C-266.9,408.5-267.6,406.7-267.6,404.7
	L-267.6,404.7z"/>
<path class="st1" d="M-265.5,398.7c0.8,0.5,1.6,0.9,2.5,1.2c-0.5,1.3-0.9,2.7-0.9,4.2h-3.8C-267.6,402-266.8,400.1-265.5,398.7
	L-265.5,398.7z"/>
<path class="st1" d="M-250.6,404.1h-3.8c0-1.4-0.3-2.8-0.9-4.2c0.9-0.3,1.7-0.7,2.5-1.2C-251.5,400.1-250.6,402-250.6,404.1
	L-250.6,404.1z"/>
<path class="st1" d="M-259.5,400c-0.9,0-1.8-0.2-2.7-0.4c0.7-1.3,1.5-2.5,2.7-3.5V400z"/>
<path class="st1" d="M-259.5,400.6v3.5h-3.8c0-1.4,0.3-2.7,0.9-3.9C-261.4,400.4-260.5,400.6-259.5,400.6L-259.5,400.6z"/>
<path class="st1" d="M-258.8,400.6c1,0,2-0.2,3-0.4c0.5,1.3,0.8,2.6,0.9,3.9h-3.8V400.6z"/>
<path class="st1" d="M-258.8,400v-3.9c1.1,1,2,2.2,2.7,3.5C-257,399.8-257.8,399.9-258.8,400L-258.8,400z"/>
<path class="st1" d="M-255.5,399.4c-0.6-1.3-1.4-2.5-2.5-3.4c1.9,0.3,3.5,1.1,4.9,2.3C-253.9,398.7-254.7,399-255.5,399.4
	L-255.5,399.4z"/>
<path class="st1" d="M-262.7,399.4c-0.8-0.3-1.6-0.7-2.3-1.1c1.3-1.3,3-2,4.9-2.3C-261.3,396.9-262.1,398.1-262.7,399.4
	L-262.7,399.4z"/>
<path class="st1" d="M-263.2,404.7h3.8v3.1c-1,0-2,0.2-3.1,0.5C-263,407.2-263.2,406-263.2,404.7L-263.2,404.7z"/>
<path class="st1" d="M-259.5,408.6v4.3c-1.2-1-2.1-2.4-2.8-3.7C-261.3,408.7-260.4,408.6-259.5,408.6L-259.5,408.6z"/>
<path class="st1" d="M-258.8,412.7v-4.3c0.9,0,1.9,0.2,2.8,0.4C-256.7,410.5-257.6,411.7-258.8,412.7L-258.8,412.7z"/>
<path class="st1" d="M-258.8,407.9v-3.1h3.8c0,1.3-0.3,2.6-0.8,3.7C-256.7,408.1-257.8,407.9-258.8,407.9L-258.8,407.9z"/>
<path class="st1" d="M-254.4,404.7h3.8c-0.1,2-0.9,3.7-2,5.2c-0.8-0.5-1.7-1-2.6-1.3C-254.7,407.4-254.4,406-254.4,404.7
	L-254.4,404.7z"/>
<path class="st1" d="M-265.3,410.4c0.8-0.5,1.5-0.9,2.4-1.2c0.6,1.4,1.5,2.6,2.6,3.7C-262.2,412.7-263.9,411.7-265.3,410.4
	L-265.3,410.4z"/>
<path class="st1" d="M-258,412.9c1.1-1.1,2-2.3,2.6-3.7c0.9,0.3,1.6,0.7,2.4,1.2C-254.3,411.7-256.1,412.7-258,412.9L-258,412.9z"/>
</svg>
