<?xml version="1.0" encoding="utf-8"?>
<!-- Generator: Adobe Illustrator 19.0.0, SVG Export Plug-In . SVG Version: 6.00 Build 0)  -->
<svg version="1.1" id="icons" xmlns="http://www.w3.org/2000/svg" xmlns:xlink="http://www.w3.org/1999/xlink" x="0px" y="0px"
	 viewBox="-286 380.5 37.2 33.5" style="enable-background:new -286 380.5 37.2 33.5;" xml:space="preserve">
<style type="text/css">
	.st0{fill:#0E67B1;}
</style>
<g>
	<g>
		<path class="st0" d="M-250.9,397.3c-0.1-0.2-0.6-0.4-1-0.5c0-0.1-0.1-0.3-0.1-0.4c-0.2-0.4-0.5-0.6-0.9-0.7
			c-0.7-0.1-1.5,0.2-2,0.6c-1.1-3.9-4.4-7.1-8.8-8.5c0.3-0.7,0.5-1.4,0.5-2.2c0-2.9-2.3-5.2-5.2-5.2c-2.9,0-5.2,2.3-5.2,5.2
			c0,0.8,0.2,1.6,0.5,2.3c-1.5,0.5-2.9,1.2-4.1,2.1c-1.4-0.7-2.9-0.7-3.9,0.1l-0.5,0.4l1.7,2.3c-0.8,1.2-1.5,2.5-1.8,3.8h-0.7
			c-1.1,0-2,0.9-2,2v5.8c0,1.1,0.9,2,2,2h2.9c0.8,1.1,1.9,2,3,2.8v2.7c0,0.8,0.6,1.5,1.3,1.5h2.5c0.7,0,1.3-0.7,1.3-1.5v-0.6
			c1.9,0.4,3.8,0.4,5.8,0.1v0.6c0,0.8,0.6,1.5,1.3,1.5h2.5c0.7,0,1.3-0.7,1.3-1.5v-2.5c3.7-2.3,5.9-6,5.9-10c0-0.8-0.1-1.6-0.3-2.3
			c0.5-0.3,1.2-0.7,1.8-0.6c0.2,0,0.3,0.1,0.4,0.3c-0.4-0.1-0.8,0-1,0.1c-0.3,0.2-0.4,0.6-0.3,1c0.1,0.4,0.4,0.6,0.9,0.7
			c0,0,0.1,0,0.1,0c0.2,0,0.5-0.1,0.6-0.3c0.1-0.2,0.2-0.4,0.3-0.6c0.3,0.1,0.5,0.2,0.6,0.3c0.1,0.1,0.3,0.1,0.5,0
			C-250.8,397.7-250.8,397.5-250.9,397.3L-250.9,397.3z M-268.4,381.7c2.1,0,3.9,1.7,3.9,3.9c0,0.8-0.2,1.5-0.7,2.2l0,0
			c0,0,0,0-0.1,0.1c-0.1,0.1-0.2,0.2-0.2,0.3c0,0,0,0.1-0.1,0.1c-0.1,0.1-0.2,0.2-0.3,0.3c0,0,0,0-0.1,0.1c-0.2,0.2-0.5,0.4-0.7,0.5
			c0,0,0,0,0,0c-0.1,0.1-0.2,0.1-0.4,0.2c0,0-0.1,0-0.1,0c-0.1,0-0.2,0.1-0.3,0.1c0,0-0.1,0-0.1,0c-0.1,0-0.2,0-0.3,0.1
			c0,0-0.1,0-0.1,0c-0.1,0-0.3,0-0.4,0c-0.1,0-0.3,0-0.4,0c0,0-0.1,0-0.1,0c-0.1,0-0.2,0-0.3-0.1c0,0-0.1,0-0.1,0
			c-0.1,0-0.2-0.1-0.4-0.1c0,0,0,0,0,0c-0.6-0.2-1.1-0.5-1.5-1c0,0,0,0,0,0c-0.1-0.1-0.2-0.2-0.3-0.3c0,0,0-0.1-0.1-0.1l0,0
			c-0.4-0.6-0.7-1.4-0.7-2.2C-272.2,383.5-270.5,381.7-268.4,381.7L-268.4,381.7z M-261.4,408.4l-0.3,0.2l0,3.2c0,0.1,0,0.2-0.1,0.2
			l-2.4,0c0,0-0.1-0.1-0.1-0.2v-2.2l-0.8,0.2c-2.3,0.5-4.6,0.5-6.8-0.1l-0.8-0.2v2.2c0,0.1-0.1,0.2,0,0.2l-2.4,0
			c0,0-0.1-0.1-0.1-0.2l0-2.8l0.1-0.5l-0.4-0.2c-1.3-0.8-2.4-1.8-3.2-2.9l-0.2-0.3h-3.5c-0.4,0-0.7-0.3-0.7-0.7v-5.8
			c0-0.4,0.3-0.7,0.7-0.7h1.8l0.1-0.5c0.3-1.5,1-2.9,2-4.2l0.3-0.4l-1.4-1.9c0.6-0.2,1.5,0,2.2,0.5l0.4,0.2l0.4-0.3
			c1.3-1,2.8-1.8,4.4-2.3c0,0,0,0,0,0c0.1,0.1,0.2,0.2,0.3,0.3c0,0,0.1,0.1,0.1,0.1c0.1,0.1,0.2,0.2,0.3,0.3c0,0,0.1,0,0.1,0.1
			c0,0,0.1,0.1,0.1,0.1c-0.8,0.2-1.7,0.5-2.4,0.9c-0.3,0.2-0.4,0.6-0.3,0.9c0.2,0.3,0.6,0.4,0.9,0.3c1.5-0.7,3.2-1.1,4.9-1.1
			c1.8,0,3.6,0.4,5.1,1.3c0.1,0.1,0.2,0.1,0.3,0.1c0.2,0,0.5-0.1,0.6-0.3c0.2-0.3,0.1-0.7-0.3-0.9c-0.9-0.5-1.9-0.8-2.9-1.1
			c0,0,0.1,0,0.1-0.1c0,0,0.1-0.1,0.1-0.1c0.1-0.1,0.2-0.2,0.3-0.2c0,0,0.1-0.1,0.1-0.1c0.1-0.1,0.2-0.2,0.3-0.3c0,0,0,0,0.1-0.1
			c5.1,1.4,8.6,5.7,8.6,10.4C-255.8,403-257.9,406.4-261.4,408.4L-261.4,408.4z M-252.7,397.7c0,0-0.1,0.1-0.2,0.1
			c-0.1,0-0.3-0.1-0.4-0.2c0-0.1,0-0.2,0.1-0.3c0,0,0.1,0,0.2,0c0.1,0,0.3,0,0.4,0.1C-252.6,397.5-252.7,397.6-252.7,397.7
			L-252.7,397.7z M-275.4,397.2c0,0.6-0.5,1.1-1.1,1.1c-0.6,0-1.1-0.5-1.1-1.1c0-0.6,0.5-1.1,1.1-1.1
			C-275.9,396.1-275.4,396.6-275.4,397.2L-275.4,397.2z M-275.4,397.2"/>
	</g>
</g>
</svg>
