<?xml version="1.0" encoding="utf-8"?>
<!-- Generator: Adobe Illustrator 19.0.0, SVG Export Plug-In . SVG Version: 6.00 Build 0)  -->
<svg version="1.1" id="icons" xmlns="http://www.w3.org/2000/svg" xmlns:xlink="http://www.w3.org/1999/xlink" x="0px" y="0px"
	 viewBox="-286 380.5 37.2 33.5" style="enable-background:new -286 380.5 37.2 33.5;" xml:space="preserve">
<style type="text/css">
	.st0{fill:#0E67B1;}
</style>
<g>
	<path class="st0" d="M-253.5,386.8h-6.6v-1.1c0-2.2-1.8-4-4-4h-6.1c-2.2,0-4,1.8-4,4v1.1h-6.6c-1.4,0-2.5,1.1-2.5,2.5v19.6
		c0,1.4,1.1,2.5,2.5,2.5h27.1c1.4,0,2.5-1.1,2.5-2.5v-19.6C-251.1,387.9-252.2,386.8-253.5,386.8L-253.5,386.8z M-273.2,385.7
		c0-1.6,1.4-3,3-3h6.1c1.6,0,3,1.4,3,3v1.1h-1.1v-1.1c0-1.1-0.9-1.9-1.9-1.9h-6.1c-1.1,0-1.9,0.9-1.9,1.9v1.1h-1.1L-273.2,385.7
		L-273.2,385.7z M-263.1,386.8h-8.1v-1.1c0-0.5,0.5-1,1-1h6.1c0.5,0,1,0.5,1,1V386.8z M-253.5,410.5h-27.1c-0.8,0-1.5-0.7-1.5-1.5
		v-6.6c0.5,0.4,1,0.5,1.5,0.5h2.5v2.1c0,0.8,0.6,1.4,1.4,1.4s1.4-0.6,1.4-1.4v-5c0-0.8-0.6-1.4-1.4-1.4s-1.4,0.6-1.4,1.4v2.1h-2.5
		c-0.8,0-1.5-0.7-1.5-1.5v-11.1c0-0.8,0.7-1.5,1.5-1.5h27.1c0.8,0,1.5,0.7,1.5,1.5v11.1c0,0.8-0.7,1.5-1.5,1.5h-1.5
		c-0.3,0-0.5,0.2-0.5,0.5s0.2,0.5,0.5,0.5h1.5c0.5,0,1.1-0.2,1.5-0.5v6.6C-252,409.7-252.7,410.5-253.5,410.5L-253.5,410.5z
		 M-277.2,403.7c0.2,0.1,0.4,0.1,0.5,0.1c0.2,0,0.4,0,0.5-0.1v1.2c0,0.3-0.3,0.5-0.5,0.5c-0.3,0-0.5-0.3-0.5-0.5V403.7z
		 M-276.1,402.3c0,0.3-0.3,0.5-0.5,0.5c-0.3,0-0.5-0.3-0.5-0.5v-2.5c0-0.3,0.3-0.5,0.5-0.5c0.3,0,0.5,0.3,0.5,0.5V402.3z"/>
	<path class="st0" d="M-258.1,398.4c-0.8,0-1.4,0.6-1.4,1.4v2.1h-14.1c-0.3,0-0.5,0.2-0.5,0.5s0.2,0.5,0.5,0.5h14.1v2.1
		c0,0.8,0.6,1.4,1.4,1.4c0.8,0,1.4-0.6,1.4-1.4v-5C-256.6,399-257.3,398.4-258.1,398.4L-258.1,398.4z M-258.7,399.8
		c0-0.3,0.3-0.5,0.5-0.5s0.5,0.3,0.5,0.5v2.5c0,0.3-0.3,0.5-0.5,0.5c-0.3,0-0.5-0.3-0.5-0.5V399.8z M-258.1,405.4
		c-0.3,0-0.5-0.3-0.5-0.5v-1.2c0.2,0.1,0.4,0.1,0.5,0.1c0.2,0,0.4,0,0.5-0.1v1.2C-257.6,405.1-257.8,405.4-258.1,405.4L-258.1,405.4
		z"/>
	<path class="st0" d="M-270.1,400.8h6c0.3,0,0.5-0.2,0.5-0.5s-0.2-0.5-0.5-0.5h-6c-0.3,0-0.5,0.2-0.5,0.5
		C-270.6,400.6-270.4,400.8-270.1,400.8L-270.1,400.8z"/>
</g>
</svg>
