<?xml version="1.0" encoding="utf-8"?>
<!-- Generator: Adobe Illustrator 19.0.0, SVG Export Plug-In . SVG Version: 6.00 Build 0)  -->
<svg version="1.1" id="icons" xmlns="http://www.w3.org/2000/svg" xmlns:xlink="http://www.w3.org/1999/xlink" x="0px" y="0px"
	 viewBox="-286 380.5 37.2 33.5" style="enable-background:new -286 380.5 37.2 33.5;" xml:space="preserve">
<style type="text/css">
	.st0{fill:#0E67B1;}
	.st1{fill:none;stroke:#0E67B1;stroke-width:1.0273;stroke-miterlimit:10;}
	.st2{fill:#FFFFFF;}
</style>
<g>
	<path class="st0" d="M-261.6,382.5h-4.9l0,0c-0.4-0.6-1.1-1-1.9-1h-1.3c-0.3-0.6-1-1-1.7-1s-1.3,0.4-1.7,1h-1.3
		c-0.8,0-1.5,0.4-1.9,1l0,0h-4.9c-1.3,0-2.4,1.1-2.4,2.4v24.4c0,1.3,1.1,2.4,2.4,2.4h19.5c1.3,0,2.4-1.1,2.4-2.4v-24.4
		C-259.2,383.6-260.3,382.5-261.6,382.5L-261.6,382.5z M-275.8,384c0-0.8,0.7-1.5,1.5-1.5h1.6c0.2,0,0.4-0.1,0.4-0.3
		c0.1-0.4,0.5-0.7,0.9-0.7s0.8,0.3,0.9,0.7c0.1,0.2,0.2,0.3,0.4,0.3h1.6c0.8,0,1.5,0.7,1.5,1.5v1.5h-8.9V384H-275.8z M-260.1,409.4
		c0,0.8-0.7,1.5-1.5,1.5h-19.5c-0.8,0-1.5-0.7-1.5-1.5V385c0-0.8,0.7-1.5,1.5-1.5h4.5c0,0.2-0.1,0.3-0.1,0.5v2
		c0,0.3,0.2,0.5,0.5,0.5h9.8c0.3,0,0.5-0.2,0.5-0.5v-2c0-0.2,0-0.4-0.1-0.5h4.5c0.8,0,1.5,0.7,1.5,1.5L-260.1,409.4L-260.1,409.4z"
		/>
	<path class="st0" d="M-261.6,384.5h-2.9c-0.3,0-0.5,0.2-0.5,0.5s0.2,0.5,0.5,0.5h2.5V409h-18.6v-23.5h2.5c0.3,0,0.5-0.2,0.5-0.5
		s-0.2-0.5-0.5-0.5h-2.9c-0.3,0-0.5,0.2-0.5,0.5v24.4c0,0.3,0.2,0.5,0.5,0.5h19.5c0.3,0,0.5-0.2,0.5-0.5V385
		C-261.2,384.7-261.4,384.5-261.6,384.5L-261.6,384.5z"/>
	<path class="st0" d="M-271.4,382.5c-0.1,0-0.2,0-0.3,0.1c-0.1,0.1-0.1,0.2-0.1,0.3c0,0.1,0,0.2,0.1,0.3c0.1,0.1,0.2,0.1,0.3,0.1
		c0.1,0,0.2,0,0.3-0.1c0.1-0.1,0.1-0.2,0.1-0.3c0-0.1,0-0.2-0.1-0.3C-271.1,382.6-271.3,382.5-271.4,382.5L-271.4,382.5z"/>
</g>
<polyline class="st1" points="-262.7,406 -262.7,410.4 -267.1,410.4 -267.1,407.1 "/>
<g>
	<path class="st0" d="M-262.8,415.2l-0.2-0.1c-2.3-0.8-4.2-2.2-5.8-4.1c-1.2-1.7-2.1-3.5-2.9-5.8c-1.1-3.6-1.1-6.9-1.1-7.3
		c0-0.9,0.7-1.6,1.5-1.6c0.4,0,4.8-0.6,7.8-2.8c0.3-0.2,0.6-0.4,1-0.4s0.7,0.1,1,0.4c3.2,2.3,7.8,2.8,7.8,2.8l0,0
		c0.8,0,1.5,0.7,1.5,1.6c0,0.4,0,3.7-1.1,7.3c-0.7,2.3-1.7,4.2-2.8,5.8c-1.5,2.1-3.5,3.5-5.8,4.2h-0.1H-262.8z"/>
	<path class="st2" d="M-262.4,394.2c0.1,0,0.3,0,0.4,0.1c3.4,2.5,8.3,3,8.4,3c0.3,0,0.6,0.3,0.6,0.6c0,0.1,0,3.4-1.1,7
		c-0.7,2.2-1.6,4-2.7,5.5c-1.4,1.9-3.2,3.2-5.3,3.8c-0.2,0-0.3,0-0.3,0c-0.1,0-0.1,0-0.2,0c-2.1-0.7-3.9-2-5.3-3.8
		c-1.1-1.5-2-3.3-2.7-5.5c-1.1-3.6-1.1-6.9-1.1-7c0-0.3,0.2-0.6,0.6-0.6c0,0,5-0.5,8.4-3C-262.6,394.2-262.5,394.2-262.4,394.2
		 M-262.4,392.1c-0.6,0-1.2,0.2-1.6,0.6c-2.4,1.7-6,2.4-7.3,2.6c-1.4,0.1-2.5,1.2-2.5,2.6c0,0.4,0,3.8,1.2,7.6
		c0.8,2.4,1.7,4.4,3,6.1l0,0l0,0c1.6,2.1,3.8,3.7,6.2,4.5l0.3,0.1h0.3h0.2h0.3h0.3l0.3-0.1c2.5-0.7,4.7-2.3,6.4-4.5
		c1.3-1.7,2.2-3.7,3-6.1c1.2-3.8,1.2-7.2,1.2-7.6c0-1.4-1.1-2.5-2.5-2.6c-0.4,0-4.5-0.5-7.3-2.6
		C-261.2,392.4-261.8,392.1-262.4,392.1L-262.4,392.1z"/>
</g>
<path class="st2" d="M-270.5,398.4c0.1,1.1,0.3,3.5,1,6.1c1.4,4.4,3.7,7.3,7,8.4c3.3-1.1,5.6-4,7-8.4c0.8-2.6,1-5,1-6.1
	c-1.4-0.2-5.1-0.9-8-2.9C-265.4,397.5-269.1,398.2-270.5,398.4L-270.5,398.4z"/>
<path class="st0" d="M-270.5,398.4"/>
<path class="st0" d="M-262.8,407.3c-0.1,0-0.3-0.1-0.4-0.2l-2.3-2c-0.3-0.2-0.3-0.6-0.1-0.9c0.2-0.3,0.6-0.3,0.9-0.1l1.8,1.5
	l3.5-4.6c0.2-0.3,0.6-0.3,0.9-0.1c0.3,0.2,0.3,0.6,0.1,0.9l-3.9,5.2C-262.4,407.1-262.5,407.2-262.8,407.3
	C-262.7,407.3-262.8,407.3-262.8,407.3L-262.8,407.3z"/>
<path class="st0" d="M-279.9,400.3c0,0.8,0.6,1.4,1.4,1.4s1.4-0.6,1.4-1.4c0-0.3-0.1-0.5-0.2-0.7l2.1-2.4c0.2,0.1,0.4,0.1,0.6,0.1
	c0.4,0,0.8-0.2,1-0.5l2.9,1.3v0.1c0,0.8,2.6-0.8,2.3-1.1l2.4-5.8h0.1c0.8,0,1.4-0.6,1.4-1.4s-0.6-1.4-1.4-1.4s-1.4,0.6-1.4,1.4
	c0,0.4,0.2,0.8,0.5,1.1l-2.6,6.6l-0.3-0.3c-0.4,0-0.4-0.3-0.6,0l-2.9-1.3v-0.1c0-0.8-0.6-1.4-1.4-1.4s-1.4,0.6-1.4,1.4
	c0,0.3,0.1,0.5,0.2,0.7l-2.1,2.4c-0.2-0.1-0.4-0.1-0.6-0.1C-279.2,398.9-279.9,399.5-279.9,400.3z M-265.7,389.6
	c0.3,0,0.5,0.2,0.5,0.5s-0.2,0.5-0.5,0.5s-0.5-0.2-0.5-0.5S-266,389.6-265.7,389.6L-265.7,389.6z M-274.5,395.4
	c0.3,0,0.5,0.2,0.5,0.5s-0.2,0.5-0.5,0.5s-0.5-0.2-0.5-0.5C-275.1,395.7-274.8,395.4-274.5,395.4L-274.5,395.4z M-277.9,400.3
	c0,0.3-0.2,0.5-0.5,0.5s-0.5-0.2-0.5-0.5s0.2-0.5,0.5-0.5C-278.2,399.8-277.9,400.1-277.9,400.3L-277.9,400.3z"/>
</svg>
