<?xml version="1.0" encoding="utf-8"?>
<!-- Generator: Adobe Illustrator 19.0.0, SVG Export Plug-In . SVG Version: 6.00 Build 0)  -->
<svg version="1.1" id="icons" xmlns="http://www.w3.org/2000/svg" xmlns:xlink="http://www.w3.org/1999/xlink" x="0px" y="0px"
	 viewBox="-286 380.5 37.2 33.5" style="enable-background:new -286 380.5 37.2 33.5;" xml:space="preserve">
<style type="text/css">
	.st0{fill:#0E67B1;stroke:#FFFFFF;stroke-width:0.1;stroke-miterlimit:10;}
</style>
<g>
	<g>
		<path class="st0" d="M-258.8,394.1h-4.1c-0.3,0-0.6,0.2-0.6,0.6v4.7c0,0.3,0.2,0.6,0.6,0.6h4.1c0.3,0,0.6-0.2,0.6-0.6v-4.7
			C-258.2,394.4-258.5,394.1-258.8,394.1L-258.8,394.1z M-259.3,398.8h-3.1v-3.6h3.1V398.8z"/>
		<path class="st0" d="M-252.2,392.1l-16.1-10.4c-0.2-0.1-0.4-0.1-0.6,0c-0.2,0.1-0.3,0.3-0.3,0.5v2.6c0,0.2,0.1,0.4,0.3,0.5
			l0.8,0.6v8.6l-14.8,6.1c-0.2,0.1-0.3,0.3-0.3,0.5v11.4c0,0.3,0.2,0.6,0.6,0.6h28.5c0.3,0,0.6-0.2,0.6-0.6v-17.2l0.7,0.5
			c0.1,0.1,0.2,0.1,0.3,0.1s0.2,0,0.3-0.1c0.2-0.1,0.3-0.3,0.3-0.5v-2.6C-252.1,392.4-252.1,392.2-252.2,392.1L-252.2,392.1z
			 M-270.7,411.8h-8.8v-1h8.8V411.8z M-270.7,409.7h-8.8v-1h8.8V409.7z M-270.7,407.6h-8.8v-1h8.8V407.6z M-270.7,405.5h-8.8v-1h8.8
			V405.5z M-270.7,403.5h-8.8v-1h8.8V403.5z M-268.1,411.8h-1.6V402c0-0.3-0.2-0.6-0.6-0.6h-9.8c-0.3,0-0.6,0.2-0.6,0.6v9.8h-1.6
			v-10.6l14-5.8L-268.1,411.8L-268.1,411.8z M-258.8,411.8h-4.1v-7.3h4.1V411.8z M-254.6,411.8h-3.1V404c0-0.3-0.2-0.6-0.6-0.6h-5.1
			c-0.3,0-0.6,0.2-0.6,0.6v7.8h-3.1v-25.3l12.4,8L-254.6,411.8L-254.6,411.8z M-253.1,394.2l-15.1-9.7v-1.4l15.1,9.7V394.2z"/>
	</g>
</g>
</svg>
