<?xml version="1.0" encoding="utf-8"?>
<!-- Generator: Adobe Illustrator 19.0.0, SVG Export Plug-In . SVG Version: 6.00 Build 0)  -->
<svg version="1.1" id="icons" xmlns="http://www.w3.org/2000/svg" xmlns:xlink="http://www.w3.org/1999/xlink" x="0px" y="0px"
	 viewBox="-286 380.5 37.2 33.5" style="enable-background:new -286 380.5 37.2 33.5;" xml:space="preserve">
<style type="text/css">
	.st0{fill:#0E67B1;}
	.st1{fill:#FFFFFF;}
</style>
<g>
	<path class="st0" d="M-253.8,383.4h-28.1c-1.2,0-2.3,1.1-2.3,2.3V405c0,1.2,1.1,2.3,2.3,2.3h28.1c1.2,0,2.3-1.1,2.3-2.3v-19.3
		C-251.5,384.5-252.5,383.4-253.8,383.4L-253.8,383.4z M-252.6,405c0,0.6-0.5,1.2-1.2,1.2h-28.1c-0.7,0-1.2-0.5-1.2-1.2v-19.3
		c0-0.7,0.5-1.2,1.2-1.2h28.1c0.7,0,1.2,0.5,1.2,1.2L-252.6,405L-252.6,405z"/>
	<path class="st0" d="M-275.4,399.2h-4.9c-0.3,0-0.5,0.3-0.5,0.5s0.3,0.5,0.5,0.5h4.9c0.3,0,0.5-0.3,0.5-0.5
		S-275.1,399.2-275.4,399.2L-275.4,399.2z"/>
	<path class="st0" d="M-268.3,399.2h-4.9c-0.3,0-0.5,0.3-0.5,0.5s0.3,0.5,0.5,0.5h4.9c0.3,0,0.5-0.3,0.5-0.5
		S-268.1,399.2-268.3,399.2L-268.3,399.2z"/>
	<path class="st0" d="M-279.8,401.9h-0.5c-0.3,0-0.5,0.3-0.5,0.5c0,0.3,0.3,0.5,0.5,0.5h0.5c0.3,0,0.5-0.3,0.5-0.5
		C-279.2,402.2-279.4,401.9-279.8,401.9L-279.8,401.9z"/>
	<path class="st0" d="M-276.5,401.9h-1.1c-0.3,0-0.5,0.3-0.5,0.5c0,0.3,0.3,0.5,0.5,0.5h1.1c0.3,0,0.5-0.3,0.5-0.5
		S-276.2,401.9-276.5,401.9L-276.5,401.9z"/>
	<path class="st0" d="M-273.7,401.9h-0.5c-0.3,0-0.5,0.3-0.5,0.5c0,0.3,0.3,0.5,0.5,0.5h0.5c0.3,0,0.5-0.3,0.5-0.5
		S-273.5,401.9-273.7,401.9L-273.7,401.9z"/>
	<path class="st0" d="M-270.6,401.9h-1.1c-0.3,0-0.5,0.3-0.5,0.5c0,0.3,0.3,0.5,0.5,0.5h1.1c0.3,0,0.5-0.3,0.5-0.5
		C-269.9,402.2-270.2,401.9-270.6,401.9L-270.6,401.9z"/>
	<path class="st0" d="M-268.7,402.1c-0.1,0.1-0.2,0.3-0.2,0.4c0,0.2,0.1,0.3,0.2,0.4s0.3,0.2,0.4,0.2c0.2,0,0.3-0.1,0.4-0.2
		s0.2-0.3,0.2-0.4c0-0.2-0.1-0.3-0.2-0.4C-268.2,401.8-268.5,401.8-268.7,402.1L-268.7,402.1z"/>
	<path class="st0" d="M-258,397c-0.7,0-1.3,0.2-1.9,0.5c-0.5-0.4-1.2-0.5-1.9-0.5c-2.1,0-3.8,1.7-3.8,3.8s1.7,3.8,3.8,3.8
		c0.7,0,1.3-0.2,1.9-0.5c0.5,0.4,1.2,0.5,1.9,0.5c2.1,0,3.8-1.7,3.8-3.8S-255.9,397-258,397L-258,397z M-259.1,400.9
		c0,0.8-0.4,1.4-0.8,1.9c-0.5-0.5-0.8-1.2-0.8-1.9c0-0.8,0.4-1.4,0.8-1.9C-259.4,399.4-259.1,400.1-259.1,400.9L-259.1,400.9z
		 M-264.5,400.9c0-1.5,1.2-2.7,2.7-2.7c0.4,0,0.7,0.1,1,0.2c-0.6,0.7-1,1.6-1,2.6s0.4,1.9,1,2.6c-0.3,0.1-0.6,0.2-1,0.2
		C-263.3,403.5-264.5,402.4-264.5,400.9L-264.5,400.9z M-258,403.5c-0.4,0-0.7-0.1-1-0.2c0.6-0.7,1-1.6,1-2.6s-0.4-1.9-1-2.6
		c0.3-0.1,0.6-0.2,1-0.2c1.5,0,2.7,1.2,2.7,2.7C-255.3,402.4-256.5,403.5-258,403.5L-258,403.5z"/>
	<path class="st0" d="M-279.6,395.4h7.4c0.7,0,1.2-0.5,1.2-1.2v-5.1c0-0.7-0.5-1.2-1.2-1.2h-7.4c-0.7,0-1.2,0.5-1.2,1.2v5.1
		C-280.8,394.8-280.3,395.4-279.6,395.4L-279.6,395.4z M-277.6,392.1h-2.2V391h2.2V392.1z M-279.8,394.1v-1h2.2v1c0,0.1,0,0.1,0,0.2
		h-2C-279.7,394.3-279.8,394.2-279.8,394.1L-279.8,394.1z M-272.1,392.1h-2.2v-1c0-0.1,0.1-0.2,0.2-0.2h1.9c0.1,0,0.1,0,0.2,0
		L-272.1,392.1L-272.1,392.1z M-272.2,394.3h-2c0-0.1,0-0.1,0-0.2v-1h2.2v1C-272.1,394.2-272.2,394.3-272.2,394.3L-272.2,394.3z
		 M-272.2,388.9c0.1,0,0.2,0.1,0.2,0.2v0.8c0,0.1-0.1,0.2-0.2,0.2h-1.9c-0.7,0-1.2,0.5-1.2,1.2v3c0,0.1-0.1,0.2-0.2,0.2h-0.8
		c-0.1,0-0.2-0.1-0.2-0.2v-5.1c0-0.1,0.1-0.2,0.2-0.2L-272.2,388.9L-272.2,388.9z M-279.6,388.9h2c0,0.1,0,0.1,0,0.2v1h-2.2v-1
		C-279.8,388.9-279.7,388.9-279.6,388.9L-279.6,388.9z"/>
</g>
<g>
	<path class="st0" d="M-258.6,415l-0.2-0.1c-2.3-0.8-4.2-2.2-5.8-4.1c-1.2-1.7-2.1-3.5-2.9-5.8c-1.1-3.6-1.1-6.9-1.1-7.3
		c0-0.9,0.7-1.6,1.5-1.6c0.4,0,4.8-0.6,7.8-2.8c0.3-0.2,0.6-0.4,1-0.4c0.4,0,0.7,0.1,1,0.4c3.2,2.3,7.8,2.8,7.8,2.8c0,0,0,0,0,0
		c0.8,0,1.5,0.7,1.5,1.6c0,0.4,0,3.7-1.1,7.3c-0.7,2.3-1.7,4.2-2.8,5.8c-1.5,2.1-3.5,3.5-5.8,4.2l-0.1,0H-258.6z"/>
	<path class="st1" d="M-258.1,394c0.1,0,0.3,0,0.4,0.1c3.4,2.5,8.3,3,8.4,3c0.3,0,0.6,0.3,0.6,0.6c0,0.1,0,3.4-1.1,7
		c-0.7,2.2-1.6,4-2.7,5.5c-1.4,1.9-3.2,3.2-5.3,3.8c-0.2,0-0.3,0-0.3,0c-0.1,0-0.1,0-0.2,0c-2.1-0.7-3.9-2-5.3-3.8
		c-1.1-1.5-2-3.3-2.7-5.5c-1.1-3.6-1.1-6.9-1.1-7c0-0.3,0.2-0.6,0.6-0.6c0,0,5-0.5,8.4-3C-258.4,394-258.3,394-258.1,394
		 M-258.1,392c-0.6,0-1.2,0.2-1.6,0.6c-2.4,1.7-6,2.4-7.3,2.6c-1.4,0.1-2.5,1.2-2.5,2.6c0,0.4,0,3.8,1.2,7.6c0.8,2.4,1.7,4.4,3,6.1
		l0,0l0,0c1.6,2.1,3.8,3.7,6.2,4.5l0.3,0.1h0.3h0.2h0.3h0.3l0.3-0.1c2.5-0.7,4.7-2.3,6.4-4.5c1.3-1.7,2.2-3.7,3-6.1
		c1.2-3.8,1.2-7.2,1.2-7.6c0-1.4-1.1-2.5-2.5-2.6c-0.4,0-4.5-0.5-7.3-2.6C-257,392.2-257.6,392-258.1,392L-258.1,392z"/>
</g>
<path class="st1" d="M-266.3,398.2c0.1,1.1,0.3,3.5,1,6.1c1.4,4.4,3.7,7.3,7,8.4c3.3-1.1,5.6-4,7-8.4c0.8-2.6,1-5,1-6.1
	c-1.4-0.2-5.1-0.9-8-2.9C-261.2,397.3-264.9,398-266.3,398.2L-266.3,398.2z"/>
<path class="st0" d="M-258.6,407.1c-0.1,0-0.3-0.1-0.4-0.2l-2.3-2c-0.3-0.2-0.3-0.6-0.1-0.9c0.2-0.3,0.6-0.3,0.9-0.1l1.8,1.5
	l3.5-4.6c0.2-0.3,0.6-0.3,0.9-0.1c0.3,0.2,0.3,0.6,0.1,0.9l-3.9,5.2C-258.2,406.9-258.3,407-258.6,407.1
	C-258.5,407.1-258.6,407.1-258.6,407.1L-258.6,407.1z"/>
</svg>
