<?xml version="1.0" encoding="utf-8"?>
<!-- Generator: Adobe Illustrator 19.0.0, SVG Export Plug-In . SVG Version: 6.00 Build 0)  -->
<svg version="1.1" id="icons" xmlns="http://www.w3.org/2000/svg" xmlns:xlink="http://www.w3.org/1999/xlink" x="0px" y="0px"
	 viewBox="-286 380.5 37.2 33.5" style="enable-background:new -286 380.5 37.2 33.5;" xml:space="preserve">
<style type="text/css">
	.st0{fill:#0E67B1;stroke:#FFFFFF;stroke-width:0.5;stroke-miterlimit:10;}
</style>
<g>
	<path class="st0" d="M-286,386.5v21c0,1.4,1.1,2.5,2.5,2.5h20.4c0.5,0,0.9-0.4,0.9-0.9c0-0.5-0.4-0.9-0.9-0.9h-20.4
		c-0.4,0-0.7-0.3-0.7-0.7v-15.6h28.4v4.5c0,0.5,0.4,0.9,0.9,0.9c0.5,0,0.9-0.4,0.9-0.9v-9.9c0-1.4-1.1-2.5-2.5-2.5h-27.1
		C-284.9,384-286,385.1-286,386.5L-286,386.5z M-255.7,386.5v3.5h-28.4v-3.5c0-0.4,0.3-0.7,0.7-0.7h27.1
		C-256,385.8-255.7,386.1-255.7,386.5L-255.7,386.5z M-255.7,386.5"/>
	<path class="st0" d="M-282,388.9c0.2,0,0.5-0.1,0.7-0.3c0.2-0.2,0.3-0.4,0.3-0.7c0-0.2-0.1-0.5-0.3-0.7c-0.4-0.4-1-0.4-1.3,0
		c-0.2,0.2-0.3,0.4-0.3,0.7c0,0.2,0.1,0.5,0.3,0.7C-282.5,388.8-282.3,388.9-282,388.9L-282,388.9z M-282,388.9"/>
	<path class="st0" d="M-279,388.9c0.2,0,0.5-0.1,0.7-0.3c0.2-0.2,0.3-0.4,0.3-0.7c0-0.2-0.1-0.5-0.3-0.7c-0.4-0.4-1-0.4-1.3,0
		c-0.2,0.2-0.3,0.4-0.3,0.7c0,0.2,0.1,0.5,0.3,0.7C-279.5,388.8-279.3,388.9-279,388.9L-279,388.9z M-279,388.9"/>
	<path class="st0" d="M-276,388.9c0.2,0,0.5-0.1,0.7-0.3c0.2-0.2,0.3-0.4,0.3-0.7c0-0.2-0.1-0.5-0.3-0.7c-0.4-0.4-1-0.4-1.3,0
		c-0.2,0.2-0.3,0.4-0.3,0.7c0,0.2,0.1,0.5,0.3,0.7C-276.5,388.8-276.2,388.9-276,388.9L-276,388.9z M-276,388.9"/>
	<path class="st0" d="M-254.8,398.6c-2.4,0-4.3,1.9-4.3,4.3v1.7c-0.9,0.1-1.6,0.9-1.6,1.8v4.7c0,1,0.8,1.8,1.8,1.8h8.2
		c1,0,1.8-0.8,1.8-1.8v-4.7c0-0.9-0.7-1.7-1.6-1.8v-1.7C-250.5,400.6-252.4,398.6-254.8,398.6L-254.8,398.6z M-254.8,400.5
		c1.4,0,2.4,1.1,2.4,2.4v1.7h-4.9v-1.7C-257.2,401.6-256.1,400.5-254.8,400.5L-254.8,400.5z M-250.7,411.1h-8.2v-4.6h8.2V411.1z
		 M-250.7,411.1"/>
</g>
</svg>
