<?xml version="1.0" encoding="utf-8"?>
<!-- Generator: Adobe Illustrator 19.0.0, SVG Export Plug-In . SVG Version: 6.00 Build 0)  -->
<svg version="1.1" id="icons" xmlns="http://www.w3.org/2000/svg" xmlns:xlink="http://www.w3.org/1999/xlink" x="0px" y="0px"
	 viewBox="-286 380.5 37.2 33.5" style="enable-background:new -286 380.5 37.2 33.5;" xml:space="preserve">
<style type="text/css">
	.st0{fill:#0E67B1;}
</style>
<g>
	<path class="st0" d="M-256.9,404.1C-256.9,404.1-256.9,404.1-256.9,404.1l-4.6-0.7c-0.7-0.5-0.8-1.6-0.8-2.9
		c1.4-1.5,2.3-3.5,2.3-5.8v-0.2c1.1-1,1.7-2.4,1.7-3.9v-3.5c0-2.8-2.3-5.2-5.2-5.2h-7.5c-1.1,0-2,0.8-2.2,1.8c-2,0.2-3.5,1.9-3.5,4
		v2.9c0,1.5,0.6,2.9,1.7,3.9v0.2c0,2.3,0.9,4.3,2.3,5.8c0,1.3-0.1,2.4-0.8,2.9l-4.5,0.7c0,0,0,0-0.1,0c-1,0.3-1.8,0.9-2.4,1.8
		c-0.6,0.8-0.9,1.8-0.9,2.7v2.2c0,0.9,0.8,1.7,1.9,1.7h23.9c1,0,1.9-0.8,1.9-1.7v-2.2c0-1-0.3-1.9-0.9-2.7
		C-255,405-255.9,404.3-256.9,404.1L-256.9,404.1z M-267.4,402.7c1.5,0,2.9-0.5,4.1-1.3c0.1,1,0.3,2.1,1.1,2.7
		c-0.4,2.2-2.6,3.8-5.2,3.8c-2.6,0-4.7-1.6-5.2-3.8c0.8-0.7,1-1.8,1.1-2.7C-270.3,402.2-268.9,402.7-267.4,402.7L-267.4,402.7z
		 M-273.8,394.3C-273.8,394.2-273.8,394.2-273.8,394.3v-3.1c0-1,0.8-1.8,1.8-1.8h9.8c0.3,0,0.5-0.2,0.5-0.5c0-0.3-0.2-0.5-0.5-0.5
		h-9.8c-1.6,0-2.9,1.3-2.9,2.9v1.6c-0.4-0.6-0.7-1.4-0.7-2.2v-2.9c0-1.6,1.3-2.9,2.9-2.9c0.3,0,0.5-0.2,0.5-0.5
		c0-0.7,0.5-1.2,1.2-1.2h7.5c2.2,0,4.1,1.8,4.1,4.1v3.5c0,0.8-0.2,1.6-0.6,2.2v-2.2c0-0.3-0.2-0.5-0.5-0.5c-0.3,0-0.5,0.2-0.5,0.5v4
		c0,3.8-2.9,7-6.4,7c-3.5,0-6.4-3.1-6.4-7V394.3z M-254.7,410.8c0,0.3-0.4,0.6-0.8,0.6h-23.9c-0.4,0-0.8-0.3-0.8-0.6v-2.2
		c0-1.4,0.8-3,2.5-3.5l4.1-0.6c0.6,2.6,3.2,4.6,6.2,4.6c3,0,5.6-1.9,6.2-4.6l4.1,0.6c1.6,0.5,2.5,2.1,2.5,3.5V410.8z M-254.7,410.8"
		/>
	<path class="st0" d="M-282.4,406.2h-2c-0.2,0-0.3-0.1-0.3-0.2v-1.4c0-0.8,0.5-1.8,1.4-2.1l2.9-0.4c0,0,0,0,0,0c0,0,0,0,0,0
		c0,0,0,0,0.1,0c0,0,0,0,0,0c0,0,0,0,0,0c0,0,0,0,0,0c0,0,0,0,0,0c0,0,0,0,0,0c0.7-0.4,0.9-1.1,1-1.7c0.7,0.4,1.5,0.7,2.4,0.7
		c0.7,0,1.4-0.2,2.1-0.5c0.3-0.1,0.4-0.5,0.2-0.7c-0.1-0.3-0.5-0.4-0.7-0.2c-0.5,0.3-1.1,0.4-1.6,0.4c-2.2,0-3.9-1.9-3.9-4.3v-2.3
		c0-0.5,0.4-1,1-1h1.4c0.3,0,0.5-0.2,0.5-0.5c0-0.3-0.2-0.5-0.5-0.5h-1.4c-1.1,0-2,0.9-2,2v0.3c0-0.2-0.1-0.4-0.1-0.6v-1.9
		c0-0.9,0.8-1.7,1.7-1.7c0.3,0,0.5-0.2,0.5-0.5c0-0.3,0.3-0.6,0.6-0.6h0.7c0.3,0,0.5-0.2,0.5-0.5c0-0.3-0.2-0.5-0.5-0.5h-0.7
		c-0.7,0-1.4,0.5-1.6,1.2c-1.3,0.2-2.3,1.4-2.3,2.7v1.9c0,1,0.4,1.9,1.2,2.6v0c0,1.5,0.6,2.9,1.6,3.9c0,0.7-0.1,1.3-0.4,1.6
		l-2.9,0.4c0,0,0,0-0.1,0c-1.5,0.4-2.3,1.9-2.3,3.1v1.4c0,0.7,0.6,1.3,1.4,1.3h2c0.3,0,0.5-0.2,0.5-0.5
		C-281.9,406.5-282.1,406.2-282.4,406.2L-282.4,406.2z M-282.4,406.2"/>
	<path class="st0" d="M-251.2,401.5C-251.2,401.5-251.3,401.5-251.2,401.5l-2.9-0.4c-0.3-0.3-0.4-0.9-0.4-1.6c1-1,1.6-2.4,1.6-3.9v0
		c0.7-0.7,1.2-1.6,1.2-2.6V390c0-1.6-1.3-2.9-2.9-2.9h-1.7c-0.3,0-0.5,0.2-0.5,0.5c0,0.3,0.2,0.5,0.5,0.5h1.7c1,0,1.8,0.8,1.8,1.8
		v2.9c0,0.2,0,0.4-0.1,0.6v-0.3c0-1.1-0.9-2-2-2h-1.4c-0.3,0-0.5,0.2-0.5,0.5c0,0.3,0.2,0.5,0.5,0.5h1.4c0.5,0,1,0.4,1,1v2.3
		c0,2.4-1.8,4.3-3.9,4.3c-0.6,0-1.1-0.1-1.6-0.4c-0.3-0.1-0.6,0-0.7,0.2c-0.1,0.3,0,0.6,0.2,0.7c0.7,0.3,1.4,0.5,2.1,0.5
		c0.9,0,1.7-0.2,2.4-0.7c0.1,0.7,0.3,1.3,1,1.7c0,0,0,0,0,0c0,0,0,0,0,0c0,0,0,0,0,0c0,0,0,0,0,0c0,0,0,0,0,0c0,0,0,0,0.1,0
		c0,0,0,0,0,0c0,0,0,0,0,0l2.9,0.4c1,0.3,1.4,1.2,1.4,2.1v1.4c0,0.1-0.1,0.2-0.3,0.2h-2c-0.3,0-0.5,0.2-0.5,0.5
		c0,0.3,0.2,0.5,0.5,0.5h2c0.8,0,1.4-0.6,1.4-1.3v-1.4C-249,403.4-249.7,401.9-251.2,401.5L-251.2,401.5z M-251.2,401.5"/>
</g>
</svg>
