<?xml version="1.0" encoding="utf-8"?>
<!-- Generator: Adobe Illustrator 19.0.0, SVG Export Plug-In . SVG Version: 6.00 Build 0)  -->
<svg version="1.1" id="icons" xmlns="http://www.w3.org/2000/svg" xmlns:xlink="http://www.w3.org/1999/xlink" x="0px" y="0px"
	 viewBox="-286 380.5 37.2 33.5" style="enable-background:new -286 380.5 37.2 33.5;" xml:space="preserve">
<style type="text/css">
	.st0{fill:#0E67B1;}
	.st1{fill:none;stroke:#0E67B1;stroke-width:1.0273;stroke-miterlimit:10;}
	.st2{fill:#FFFFFF;}
</style>
<g>
	<g>
		<path class="st0" d="M-255.1,396c-0.1-0.1-0.5-0.3-0.9-0.5c0-0.1,0-0.2-0.1-0.3c-0.1-0.3-0.4-0.6-0.8-0.6
			c-0.6-0.1-1.3,0.2-1.8,0.5c-1-3.5-3.9-6.4-7.8-7.6c0.3-0.6,0.4-1.3,0.4-2c0-2.5-2.1-4.6-4.6-4.6c-2.5,0-4.6,2.1-4.6,4.6
			c0,0.7,0.2,1.4,0.5,2c-1.3,0.4-2.6,1.1-3.7,1.9c-1.2-0.6-2.6-0.6-3.5,0l-0.5,0.3l1.5,2c-0.8,1-1.3,2.2-1.6,3.4h-0.6
			c-1,0-1.8,0.8-1.8,1.8v5.2c0,1,0.8,1.8,1.8,1.8h2.6c0.7,0.9,1.7,1.8,2.7,2.5v2.4c0,0.7,0.5,1.3,1.2,1.3h2.2c0.7,0,1.2-0.6,1.2-1.3
			v-0.5c1.7,0.3,3.4,0.4,5.2,0.1v0.5c0,0.7,0.5,1.3,1.2,1.3h2.2c0.7,0,1.2-0.6,1.2-1.3v-2.3c3.3-2,5.3-5.4,5.3-9
			c0-0.7-0.1-1.4-0.2-2.1c0.5-0.3,1.1-0.6,1.6-0.5c0.2,0,0.3,0.1,0.3,0.2c-0.4-0.1-0.7,0-0.9,0.1c-0.2,0.2-0.4,0.5-0.3,0.9
			c0.1,0.3,0.4,0.6,0.8,0.6c0,0,0.1,0,0.1,0c0.2,0,0.4-0.1,0.6-0.3c0.1-0.2,0.2-0.3,0.2-0.5c0.2,0.1,0.5,0.2,0.5,0.2
			c0.1,0.1,0.3,0.1,0.4,0C-255,396.3-255,396.2-255.1,396L-255.1,396z M-270.7,382.1c1.9,0,3.5,1.6,3.5,3.5c0,0.7-0.2,1.4-0.6,1.9
			l0,0c0,0,0,0,0,0.1c-0.1,0.1-0.1,0.2-0.2,0.3c0,0,0,0-0.1,0.1c-0.1,0.1-0.1,0.2-0.2,0.2c0,0,0,0-0.1,0c-0.2,0.2-0.4,0.3-0.7,0.4
			c0,0,0,0,0,0c-0.1,0.1-0.2,0.1-0.3,0.1c0,0,0,0-0.1,0c-0.1,0-0.2,0.1-0.3,0.1c0,0-0.1,0-0.1,0c-0.1,0-0.2,0-0.3,0.1
			c0,0-0.1,0-0.1,0c-0.1,0-0.3,0-0.4,0c-0.1,0-0.3,0-0.4,0c0,0-0.1,0-0.1,0c-0.1,0-0.2,0-0.3-0.1c0,0,0,0-0.1,0
			c-0.1,0-0.2-0.1-0.3-0.1c0,0,0,0,0,0c-0.5-0.2-0.9-0.5-1.3-0.9c0,0,0,0,0,0c-0.1-0.1-0.2-0.2-0.2-0.3c0,0,0,0-0.1-0.1l0,0
			c-0.4-0.6-0.6-1.2-0.6-1.9C-274.2,383.6-272.6,382.1-270.7,382.1L-270.7,382.1z M-264.5,405.9l-0.3,0.2l0,2.9c0,0.1,0,0.1-0.1,0.2
			l-2.1,0c0,0-0.1-0.1-0.1-0.2v-2l-0.7,0.2c-2.1,0.5-4.1,0.4-6-0.1l-0.7-0.2v2c0,0.1,0,0.2,0,0.2l-2.2,0c0,0-0.1-0.1-0.1-0.2l0-2.5
			l0.1-0.5l-0.3-0.2c-1.1-0.7-2.1-1.6-2.9-2.6l-0.2-0.2h-3.1c-0.4,0-0.6-0.3-0.6-0.6v-5.2c0-0.4,0.3-0.6,0.6-0.6h1.6l0.1-0.5
			c0.3-1.4,0.9-2.6,1.8-3.7l0.3-0.3l-1.3-1.7c0.6-0.1,1.3,0,2,0.5l0.3,0.2l0.3-0.3c1.1-0.9,2.5-1.6,3.9-2c0,0,0,0,0,0
			c0.1,0.1,0.2,0.2,0.3,0.3c0,0,0,0,0.1,0.1c0.1,0.1,0.2,0.2,0.3,0.2c0,0,0,0,0.1,0.1c0,0,0.1,0.1,0.1,0.1c-0.8,0.2-1.5,0.5-2.2,0.8
			c-0.3,0.1-0.4,0.5-0.3,0.8c0.1,0.3,0.5,0.4,0.8,0.3c1.3-0.7,2.8-1,4.4-1c1.6,0,3.2,0.4,4.6,1.1c0.1,0,0.2,0.1,0.3,0.1
			c0.2,0,0.4-0.1,0.5-0.3c0.2-0.3,0-0.6-0.2-0.8c-0.8-0.4-1.7-0.8-2.6-1c0,0,0.1,0,0.1-0.1c0,0,0.1-0.1,0.1-0.1
			c0.1-0.1,0.2-0.1,0.3-0.2c0,0,0.1-0.1,0.1-0.1c0.1-0.1,0.2-0.2,0.3-0.3c0,0,0,0,0.1-0.1c4.5,1.3,7.7,5.1,7.7,9.3
			C-259.5,401.1-261.4,404.1-264.5,405.9L-264.5,405.9z M-256.8,396.4c0,0-0.1,0.1-0.1,0.1c-0.1,0-0.3-0.1-0.3-0.2
			c0-0.1,0-0.2,0.1-0.2c0,0,0.1,0,0.2,0c0.1,0,0.2,0,0.4,0C-256.6,396.2-256.7,396.3-256.8,396.4L-256.8,396.4z M-277,395.9
			c0,0.5-0.4,1-1,1c-0.5,0-1-0.4-1-1c0-0.5,0.4-1,1-1C-277.5,394.9-277,395.4-277,395.9L-277,395.9z M-277,395.9"/>
	</g>
</g>
<polyline class="st1" points="-260.3,405.7 -260.3,410.1 -264.7,410.1 -264.7,406.8 "/>
<g>
	<path class="st0" d="M-260.4,414.9l-0.2-0.1c-2.3-0.8-4.2-2.2-5.8-4.1c-1.2-1.7-2.1-3.5-2.9-5.8c-1.1-3.6-1.1-6.9-1.1-7.3
		c0-0.9,0.7-1.6,1.5-1.6c0.4,0,4.8-0.6,7.8-2.8c0.3-0.2,0.6-0.4,1-0.4s0.7,0.1,1,0.4c2.8,2,6.9,2.7,7.8,2.8l0,0
		c0.8,0,1.5,0.7,1.5,1.6c0,0.4,0,3.7-1.1,7.3c-0.7,2.3-1.7,4.2-2.8,5.8c-1.5,2.1-3.5,3.5-5.8,4.2h-0.1H-260.4z"/>
	<path class="st2" d="M-260,393.8c0.1,0,0.3,0,0.4,0.1c3.4,2.5,8.3,3,8.4,3c0.3,0,0.6,0.3,0.6,0.6c0,0.1,0,3.4-1.1,7
		c-0.7,2.2-1.6,4-2.7,5.5c-1.4,1.9-3.2,3.2-5.3,3.8c-0.2,0-0.3,0-0.3,0c-0.1,0-0.1,0-0.2,0c-2.1-0.7-3.9-2-5.3-3.8
		c-1.1-1.5-2-3.3-2.7-5.5c-1.1-3.6-1.1-6.9-1.1-7c0-0.3,0.2-0.6,0.6-0.6c0,0,5-0.5,8.4-3C-260.2,393.9-260.1,393.8-260,393.8
		 M-260,391.8c-0.6,0-1.2,0.2-1.6,0.6c-2.4,1.7-6,2.4-7.3,2.6c-1.4,0.1-2.5,1.2-2.5,2.6c0,0.4,0,3.8,1.2,7.6c0.8,2.4,1.7,4.4,3,6.1
		l0,0l0,0c1.6,2.1,3.8,3.7,6.2,4.5l0.3,0.1h0.3h0.2h0.3h0.3l0.3-0.1c2.5-0.7,4.7-2.3,6.4-4.5c1.3-1.7,2.2-3.7,3-6.1
		c1.2-3.8,1.2-7.2,1.2-7.6c0-1.4-1.1-2.5-2.5-2.6c-0.4,0-4.5-0.5-7.3-2.6C-258.8,392.1-259.4,391.8-260,391.8L-260,391.8z"/>
</g>
<path class="st2" d="M-268.1,398.1c0.1,1.1,0.3,3.5,1,6.1c1.4,4.4,3.7,7.3,7,8.4c3.3-1.1,5.6-4,7-8.4c0.8-2.6,1-5,1-6.1
	c-1.4-0.2-5.1-0.9-8-2.9C-263,397.2-266.7,397.9-268.1,398.1L-268.1,398.1z"/>
<path class="st0" d="M-268.1,398.1"/>
<path class="st0" d="M-260.4,407c-0.1,0-0.3-0.1-0.4-0.2l-2.3-2c-0.3-0.2-0.3-0.6-0.1-0.9c0.2-0.3,0.6-0.3,0.9-0.1l1.8,1.5l3.5-4.6
	c0.2-0.3,0.6-0.3,0.9-0.1c0.3,0.2,0.3,0.6,0.1,0.9l-3.9,5.2C-260,406.8-260.1,406.9-260.4,407C-260.3,407-260.4,407-260.4,407
	L-260.4,407z"/>
</svg>
