<?xml version="1.0" encoding="utf-8"?>
<!-- Generator: Adobe Illustrator 19.0.0, SVG Export Plug-In . SVG Version: 6.00 Build 0)  -->
<svg version="1.1" id="icons" xmlns="http://www.w3.org/2000/svg" xmlns:xlink="http://www.w3.org/1999/xlink" x="0px" y="0px"
	 viewBox="-286 380.5 37.2 33.5" style="enable-background:new -286 380.5 37.2 33.5;" xml:space="preserve">
<style type="text/css">
	.st0{fill:#0E67B1;stroke:#FFFFFF;stroke-width:0.25;stroke-miterlimit:10;}
</style>
<g>
	<g>
		<path class="st0" d="M-280.7,393.6c0.3,0.1,0.7,0,0.8-0.3l1.8-4.3c0.5-1,1.3-1.5,2.5-1.5h8.7c1.5,0,2.9,0.8,3.8,2.2l3.7,4.9
			c0.2,0.3,0.9,1.5,2.4,1.5h1.9c2.7,0,3.7,1.5,4.1,2.5h-1c-0.3,0-0.6,0.3-0.6,0.6c0,0.3,0.3,0.6,0.6,0.6h1.3l0.5,3.1
			c0,0.2,0,0.3,0,0.4c-0.1,0.1-0.3,0.2-0.6,0.2h-1.9c-0.3-2.1-2.1-3.7-4.3-3.7c-2.4,0-4.3,1.9-4.3,4.3c0,2.4,1.9,4.3,4.3,4.3
			c2.2,0,4-1.6,4.3-3.7h1.9c0.7,0,1.2-0.2,1.5-0.7c0.3-0.4,0.4-0.9,0.3-1.4l-0.6-3.6c-0.4-2-2.1-4.2-5.6-4.2h-1.9
			c-0.8,0-1.3-0.9-1.3-0.9c0,0,0-0.1-0.1-0.1l-3.7-4.9c-1.1-1.7-3-2.8-4.9-2.8h-8.7c-1.7,0-2.9,0.7-3.7,2.2l-1.9,4.3
			C-281.1,393.1-281,393.5-280.7,393.6L-280.7,393.6z M-256.9,407.3c-1.7,0-3.1-1.4-3.1-3.1c0-1.7,1.4-3.1,3.1-3.1
			c1.7,0,3.1,1.4,3.1,3.1C-253.8,405.9-255.2,407.3-256.9,407.3L-256.9,407.3z M-256.9,407.3"/>
	</g>
	<path class="st0" d="M-284.1,404.8h0.3c0.3,0,0.6-0.3,0.6-0.6c0-0.3-0.3-0.6-0.6-0.6h-0.3c-0.3,0-0.6-0.3-0.6-0.6v-3.1h0.6
		c0.3,0,0.6-0.3,0.6-0.6c0-0.3-0.3-0.6-0.6-0.6h-0.6v-1.9c0-0.3,0.3-0.6,0.6-0.6h11.9l1.1,5.7c0.1,0.3,0.3,0.5,0.6,0.5
		c0,0,0.1,0,0.1,0c0.3-0.1,0.6-0.4,0.5-0.7l-1.1-5.5h10.4c0.3,0,0.6-0.3,0.6-0.6c0-0.3-0.3-0.6-0.6-0.6h-2.1l0.8-1.6
		c0.2-0.3,0-0.7-0.3-0.8c-0.3-0.2-0.7,0-0.8,0.3l-1.1,2.1h-7.1v-5.6c0-0.3-0.3-0.6-0.6-0.6c-0.3,0-0.6,0.3-0.6,0.6v5.6h-11.8
		c-1,0-1.9,0.8-1.9,1.9v6.2C-286,404-285.2,404.8-284.1,404.8L-284.1,404.8z M-284.1,404.8"/>
	<path class="st0" d="M-262.4,404.2c0-0.3-0.3-0.6-0.6-0.6h-10.6c-0.3-2.1-2.1-3.7-4.3-3.7c-2.4,0-4.3,1.9-4.3,4.3
		c0,2.4,1.9,4.3,4.3,4.3c2.2,0,4-1.6,4.3-3.7h10.6C-262.7,404.8-262.4,404.6-262.4,404.2L-262.4,404.2z M-277.9,407.3
		c-1.7,0-3.1-1.4-3.1-3.1c0-1.7,1.4-3.1,3.1-3.1c1.7,0,3.1,1.4,3.1,3.1C-274.8,405.9-276.2,407.3-277.9,407.3L-277.9,407.3z
		 M-277.9,407.3"/>
	<path class="st0" d="M-256.9,402.4c-1,0-1.9,0.8-1.9,1.9c0,1,0.8,1.9,1.9,1.9c1,0,1.9-0.8,1.9-1.9
		C-255,403.2-255.8,402.4-256.9,402.4L-256.9,402.4z M-256.9,404.8c-0.3,0-0.6-0.3-0.6-0.6c0-0.3,0.3-0.6,0.6-0.6
		c0.3,0,0.6,0.3,0.6,0.6C-256.2,404.6-256.5,404.8-256.9,404.8L-256.9,404.8z M-256.9,404.8"/>
	<path class="st0" d="M-268.6,397.4c-0.3,0-0.6,0.3-0.6,0.6c0,0.3,0.3,0.6,0.6,0.6h0.6c0.3,0,0.6-0.3,0.6-0.6c0-0.3-0.3-0.6-0.6-0.6
		H-268.6z M-268.6,397.4"/>
	<path class="st0" d="M-277.9,402.4c-1,0-1.9,0.8-1.9,1.9c0,1,0.8,1.9,1.9,1.9c1,0,1.9-0.8,1.9-1.9
		C-276.1,403.2-276.9,402.4-277.9,402.4L-277.9,402.4z M-277.9,404.8c-0.3,0-0.6-0.3-0.6-0.6c0-0.3,0.3-0.6,0.6-0.6s0.6,0.3,0.6,0.6
		C-277.3,404.6-277.6,404.8-277.9,404.8L-277.9,404.8z M-277.9,404.8"/>
</g>
</svg>
