<?xml version="1.0" encoding="utf-8"?>
<!-- Generator: Adobe Illustrator 19.0.0, SVG Export Plug-In . SVG Version: 6.00 Build 0)  -->
<svg version="1.1" id="icons" xmlns="http://www.w3.org/2000/svg" xmlns:xlink="http://www.w3.org/1999/xlink" x="0px" y="0px"
	 viewBox="-286 380.5 37.2 33.5" style="enable-background:new -286 380.5 37.2 33.5;" xml:space="preserve">
<style type="text/css">
	.st0{fill:#0E67B1;}
</style>
<g>
	<path class="st0" d="M-278.3,395.9c-0.9,0.6-1.6,1.6-1.9,2.6c-0.1,0.3,0.1,0.7,0.4,0.8c0.1,0,0.1,0,0.2,0c0.3,0,0.5-0.2,0.6-0.4
		c0.2-0.8,0.7-1.5,1.4-1.9c0.3-0.2,0.3-0.6,0.1-0.8C-277.7,395.7-278,395.7-278.3,395.9L-278.3,395.9z M-278.3,395.9"/>
	<path class="st0" d="M-271.1,395.7c0.2,0.2,0.6,0.3,0.9,0c0.2-0.2,0.3-0.6,0-0.9c-1.4-1.5-3.3-2.3-5.3-2.3c-4,0-7.3,3.3-7.3,7.3
		c0,0.4,0,0.9,0.1,1.3c0.1,0.3,0.3,0.5,0.6,0.5c0,0,0.1,0,0.1,0c0.3-0.1,0.5-0.4,0.5-0.7c-0.1-0.4-0.1-0.7-0.1-1.1
		c0-3.3,2.7-6.1,6.1-6.1C-273.9,393.8-272.3,394.4-271.1,395.7L-271.1,395.7z M-271.1,395.7"/>
	<path class="st0" d="M-267.7,387.8c0.2,0,0.3-0.1,0.4-0.2l1.7-1.7c0.2-0.2,0.2-0.6,0-0.9c-0.2-0.2-0.6-0.2-0.9,0l-1.7,1.7
		c-0.2,0.2-0.2,0.6,0,0.9C-268,387.7-267.8,387.8-267.7,387.8L-267.7,387.8z M-267.7,387.8"/>
	<path class="st0" d="M-270.7,385.9c0.1,0,0.2,0,0.2,0c0.2,0,0.5-0.1,0.6-0.4l0.5-1.1c0.1-0.3,0-0.7-0.3-0.8c-0.3-0.1-0.7,0-0.8,0.3
		l-0.5,1.1C-271.1,385.4-271,385.7-270.7,385.9L-270.7,385.9z M-270.7,385.9"/>
	<path class="st0" d="M-271.5,392c-0.2,0.3-0.1,0.7,0.2,0.8c0.3,0.2,0.7,0.1,0.8-0.2c1.6-2.4,4.2-3.8,7.1-3.8c4.7,0,8.5,3.8,8.5,8.5
		c0,0.8-0.1,1.5-0.3,2.3c-0.1,0.3,0.1,0.7,0.4,0.7c0.1,0,0.1,0,0.2,0c0.3,0,0.5-0.2,0.6-0.4c0.2-0.8,0.3-1.7,0.3-2.6
		c0-5.4-4.4-9.7-9.7-9.7C-266.6,387.7-269.6,389.3-271.5,392L-271.5,392z M-271.5,392"/>
	<path class="st0" d="M-258.1,393.3c-0.3,0.2-0.4,0.6-0.2,0.8c0.6,1,1,2.1,1,3.3c0,0.3,0.3,0.6,0.6,0.6c0.3,0,0.6-0.3,0.6-0.6
		c0-1.4-0.4-2.8-1.2-4C-257.5,393.2-257.8,393.1-258.1,393.3L-258.1,393.3z M-258.1,393.3"/>
	<path class="st0" d="M-282.9,390l1.1,0.5c0.1,0,0.2,0,0.2,0c0.2,0,0.5-0.1,0.6-0.4c0.1-0.3,0-0.7-0.3-0.8l-1.1-0.5
		c-0.3-0.1-0.7,0-0.8,0.3C-283.4,389.5-283.2,389.9-282.9,390L-282.9,390z M-282.9,390"/>
	<path class="st0" d="M-280.2,387.6c0.1,0.1,0.3,0.2,0.4,0.2c0.2,0,0.3-0.1,0.4-0.2c0.2-0.2,0.2-0.6,0-0.9l-1.7-1.7
		c-0.2-0.2-0.6-0.2-0.9,0c-0.2,0.2-0.2,0.6,0,0.9L-280.2,387.6z M-280.2,387.6"/>
	<path class="st0" d="M-284.6,393.8l2.4,0c0.3,0,0.6-0.3,0.6-0.6c0-0.3-0.3-0.6-0.6-0.6h-2.4c-0.3,0-0.6,0.3-0.6,0.6
		C-285.3,393.5-285,393.8-284.6,393.8L-284.6,393.8z M-284.6,393.8"/>
	<path class="st0" d="M-251.9,398.8c-0.3-0.2-0.7-0.1-0.8,0.1c-0.2,0.3-0.1,0.7,0.1,0.8c1.6,1.1,2.6,3,2.6,5c0,3.3-2.7,6.1-6.1,6.1
		h-24.3c-2,0-3.6-1.6-3.6-3.6s1.6-3.6,3.6-3.6c0.3,0,0.6-0.3,0.6-0.6c0-0.3-0.3-0.6-0.6-0.6c-2.7,0-4.9,2.2-4.9,4.9s2.2,4.9,4.9,4.9
		h24.3c4,0,7.3-3.3,7.3-7.3C-248.8,402.3-250,400.1-251.9,398.8L-251.9,398.8z M-251.9,398.8"/>
	<path class="st0" d="M-277.5,385.5c0.1,0.2,0.3,0.4,0.6,0.4c0.1,0,0.2,0,0.2,0c0.3-0.1,0.5-0.5,0.3-0.8l-0.5-1.1
		c-0.1-0.3-0.5-0.5-0.8-0.3c-0.3,0.1-0.5,0.5-0.3,0.8L-277.5,385.5z M-277.5,385.5"/>
	<path class="st0" d="M-279.8,392.5c0,0,0.1,0,0.1,0c0.3,0,0.5-0.2,0.6-0.5c0.5-2.5,2.8-4.4,5.4-4.4c1.2,0,2.3,0.4,3.3,1.1
		c0.3,0.2,0.6,0.1,0.9-0.1c0.2-0.3,0.1-0.6-0.1-0.9c-1.2-0.9-2.6-1.3-4-1.3c-3.2,0-5.9,2.2-6.5,5.3
		C-280.3,392.2-280.1,392.5-279.8,392.5L-279.8,392.5z M-279.8,392.5"/>
	<path class="st0" d="M-273.7,385.3c0.3,0,0.6-0.3,0.6-0.6v-2.4c0-0.3-0.3-0.6-0.6-0.6c-0.3,0-0.6,0.3-0.6,0.6v2.4
		C-274.3,385-274,385.3-273.7,385.3L-273.7,385.3z M-273.7,385.3"/>
</g>
</svg>
