<?xml version="1.0" encoding="utf-8"?>
<!-- Generator: Adobe Illustrator 19.0.0, SVG Export Plug-In . SVG Version: 6.00 Build 0)  -->
<svg version="1.1" id="icons" xmlns="http://www.w3.org/2000/svg" xmlns:xlink="http://www.w3.org/1999/xlink" x="0px" y="0px"
	 viewBox="-286 380.5 37.2 33.5" style="enable-background:new -286 380.5 37.2 33.5;" xml:space="preserve">
<style type="text/css">
	.st0{fill:#0E67B1;}
</style>
<g>
	<g>
		<path class="st0" d="M-255.6,388.6l-5.7-5.7c-0.1-0.1-0.2-0.2-0.4-0.2h-14.8c-0.8,0-1.5,0.7-1.5,1.5v26.6c0,0.8,0.7,1.5,1.5,1.5
			h19.4c0.8,0,1.5-0.7,1.5-1.5v-22C-255.4,388.9-255.5,388.7-255.6,388.6L-255.6,388.6z M-261,384.6l4,4h-3.4
			c-0.3,0-0.5-0.3-0.5-0.5V384.6z M-256.9,411.5h-19.4c-0.3,0-0.5-0.3-0.5-0.5v-26.6c0-0.3,0.3-0.5,0.5-0.5h14.3v4.2
			c0,0.8,0.7,1.5,1.5,1.5h4.2v21.6C-256.4,411.3-256.6,411.5-256.9,411.5L-256.9,411.5z"/>
	</g>
	<path class="st0" d="M-272.7,396.2h-1.1c-0.5,0-1,0.4-1,1v1.1c0,0.5,0.4,1,1,1h1.1c0.5,0,1-0.4,1-1v-1.1
		C-271.7,396.7-272.2,396.2-272.7,396.2L-272.7,396.2z M-272.7,398.2C-272.7,398.3-272.7,398.3-272.7,398.2h-1.1l0,0v-1.1l0,0h1.1
		l0,0V398.2z"/>
	<path class="st0" d="M-270.2,397.1h4.6c0.3,0,0.4-0.2,0.4-0.4s-0.2-0.4-0.4-0.4h-4.6c-0.3,0-0.4,0.2-0.4,0.4
		S-270.5,397.1-270.2,397.1L-270.2,397.1z"/>
	<path class="st0" d="M-270.2,399.2h6.6c0.3,0,0.4-0.2,0.4-0.4s-0.2-0.4-0.4-0.4h-6.6c-0.3,0-0.4,0.2-0.4,0.4
		C-270.7,399-270.5,399.2-270.2,399.2L-270.2,399.2z"/>
	<path class="st0" d="M-272.7,391.6h-1.1c-0.5,0-1,0.4-1,1v1.1c0,0.5,0.4,1,1,1h1.1c0.5,0,1-0.4,1-1v-1.1
		C-271.7,392-272.2,391.6-272.7,391.6L-272.7,391.6z M-272.7,393.6C-272.7,393.6-272.7,393.7-272.7,393.6h-1.1l0,0v-1.1l0,0h1.1l0,0
		V393.6z"/>
	<path class="st0" d="M-270.2,392.5h6.6c0.3,0,0.4-0.2,0.4-0.4s-0.2-0.4-0.4-0.4h-6.6c-0.3,0-0.4,0.2-0.4,0.4
		C-270.7,392.3-270.5,392.5-270.2,392.5L-270.2,392.5z"/>
	<path class="st0" d="M-258.9,393.7h-11.2c-0.3,0-0.4,0.2-0.4,0.4s0.2,0.4,0.4,0.4h11.2c0.3,0,0.4-0.2,0.4-0.4
		C-258.5,393.9-258.6,393.7-258.9,393.7L-258.9,393.7z"/>
	<path class="st0" d="M-272.7,387h-1.1c-0.5,0-1,0.4-1,1v1.1c0,0.5,0.4,1,1,1h1.1c0.5,0,1-0.4,1-1v-1.1
		C-271.7,387.4-272.2,387-272.7,387L-272.7,387z M-272.7,389L-272.7,389h-1.1l0,0v-1.1l0,0h1.1l0,0V389z"/>
	<path class="st0" d="M-270.2,387.9h4.6c0.3,0,0.4-0.2,0.4-0.4s-0.2-0.4-0.4-0.4h-4.6c-0.3,0-0.4,0.2-0.4,0.4
		S-270.5,387.9-270.2,387.9L-270.2,387.9z"/>
	<path class="st0" d="M-270.2,390h6.6c0.3,0,0.4-0.2,0.4-0.4s-0.2-0.4-0.4-0.4h-6.6c-0.3,0-0.4,0.2-0.4,0.4S-270.5,390-270.2,390
		L-270.2,390z"/>
	<path class="st0" d="M-272.7,405.4h-1.1c-0.5,0-1,0.4-1,1v1.1c0,0.5,0.4,1,1,1h1.1c0.5,0,1-0.4,1-1v-1.1
		C-271.7,405.9-272.2,405.4-272.7,405.4L-272.7,405.4z M-272.7,407.5L-272.7,407.5h-1.1l0,0v-1.1l0,0h1.1l0,0V407.5z"/>
	<path class="st0" d="M-270.2,406.4h4.6c0.3,0,0.4-0.2,0.4-0.4s-0.2-0.4-0.4-0.4h-4.6c-0.3,0-0.4,0.2-0.4,0.4
		C-270.7,406.1-270.5,406.4-270.2,406.4L-270.2,406.4z"/>
	<path class="st0" d="M-263.5,407.5h-6.6c-0.3,0-0.4,0.2-0.4,0.4s0.2,0.4,0.4,0.4h6.6c0.3,0,0.4-0.2,0.4-0.4
		S-263.2,407.5-263.5,407.5L-263.5,407.5z"/>
	<path class="st0" d="M-272.7,400.8h-1.1c-0.5,0-1,0.4-1,1v1.1c0,0.5,0.4,1,1,1h1.1c0.5,0,1-0.4,1-1v-1.1
		C-271.7,401.3-272.2,400.8-272.7,400.8L-272.7,400.8z M-272.7,402.8C-272.7,402.9-272.7,402.9-272.7,402.8h-1.1l0,0v-1.1l0,0h1.1
		l0,0V402.8z"/>
	<path class="st0" d="M-270.2,401.7h6.6c0.3,0,0.4-0.2,0.4-0.4s-0.2-0.4-0.4-0.4h-6.6c-0.3,0-0.4,0.2-0.4,0.4
		C-270.7,401.5-270.5,401.7-270.2,401.7L-270.2,401.7z"/>
	<path class="st0" d="M-258.9,402.9h-11.2c-0.3,0-0.4,0.2-0.4,0.4s0.2,0.4,0.4,0.4h11.2c0.3,0,0.4-0.2,0.4-0.4
		S-258.6,402.9-258.9,402.9L-258.9,402.9z"/>
</g>
</svg>
