<?xml version="1.0" encoding="utf-8"?>
<!-- Generator: Adobe Illustrator 19.0.0, SVG Export Plug-In . SVG Version: 6.00 Build 0)  -->
<svg version="1.1" id="icons" xmlns="http://www.w3.org/2000/svg" xmlns:xlink="http://www.w3.org/1999/xlink" x="0px" y="0px"
	 viewBox="-286 380.5 37.2 33.5" style="enable-background:new -286 380.5 37.2 33.5;" xml:space="preserve">
<style type="text/css">
	.st0{fill:#0B5689;}
	.st1{fill:#333333;}
	.st2{fill:#0E67B1;}
	.st3{clip-path:url(#XMLID_7_);}
	.st4{fill:#58595B;}
	.st5{fill:#F4791F;}
	.st6{fill:#FBB817;}
</style>
<g id="XMLID_607_">
	<g>
		<g id="XMLID_347_">
			<path class="st0" d="M-267.6,398.3h-9.7c-0.9,0-1.6-0.7-1.6-1.6v-4.3c0-0.9,0.7-1.6,1.6-1.6h9.7c0.9,0,1.6,0.7,1.6,1.6v4.3
				C-266,397.6-266.7,398.3-267.6,398.3z M-267.6,398.3"/>
		</g>
		<g id="XMLID_343_">
			<path class="st1" d="M-275.7,400.4c0-0.5-0.4-1-1-1h-1.2c-0.5,0-1,0.4-1,1v1.2c0,0.5,0.4,1,1,1h1.2c0.5,0,1-0.4,1-1V400.4z
				 M-276.8,401c0,0.3-0.2,0.5-0.5,0.5s-0.5-0.2-0.5-0.5c0-0.3,0.2-0.5,0.5-0.5S-276.8,400.7-276.8,401z M-276.8,401.5"/>
		</g>
		<g id="XMLID_339_">
			<path class="st1" d="M-270.9,400.4c0-0.5-0.4-1-1-1h-1.2c-0.5,0-1,0.4-1,1v1.2c0,0.5,0.4,1,1,1h1.2c0.5,0,1-0.4,1-1L-270.9,400.4
				z M-271.9,401c0,0.3-0.2,0.5-0.5,0.5s-0.5-0.2-0.5-0.5c0-0.3,0.2-0.5,0.5-0.5S-271.9,400.7-271.9,401z M-271.9,401.5"/>
		</g>
		<g id="XMLID_335_">
			<path class="st1" d="M-266,400.4c0-0.5-0.4-1-1-1h-1.2c-0.5,0-1,0.4-1,1v1.2c0,0.5,0.4,1,1,1h1.2c0.5,0,1-0.4,1-1V400.4z
				 M-267.1,401c0,0.3-0.2,0.5-0.5,0.5c-0.3,0-0.5-0.2-0.5-0.5c0-0.3,0.2-0.5,0.5-0.5C-267.3,400.5-267.1,400.7-267.1,401z
				 M-267.1,401.5"/>
		</g>
		<g id="XMLID_331_">
			<path class="st1" d="M-275.7,404.7c0-0.5-0.4-1-1-1h-1.2c-0.5,0-1,0.4-1,1v1.2c0,0.5,0.4,1,1,1h1.2c0.5,0,1-0.4,1-1V404.7z
				 M-276.8,405.3c0,0.3-0.2,0.5-0.5,0.5s-0.5-0.2-0.5-0.5c0-0.3,0.2-0.5,0.5-0.5S-276.8,405-276.8,405.3z M-276.8,405.8"/>
		</g>
		<g id="XMLID_327_">
			<path class="st1" d="M-270.9,404.7c0-0.5-0.4-1-1-1h-1.2c-0.5,0-1,0.4-1,1v1.2c0,0.5,0.4,1,1,1h1.2c0.5,0,1-0.4,1-1L-270.9,404.7
				z M-271.9,405.3c0,0.3-0.2,0.5-0.5,0.5s-0.5-0.2-0.5-0.5c0-0.3,0.2-0.5,0.5-0.5S-271.9,405-271.9,405.3z M-271.9,405.8"/>
		</g>
		<g id="XMLID_323_">
			<path class="st1" d="M-266,404.7c0-0.5-0.4-1-1-1h-1.2c-0.5,0-1,0.4-1,1v1.2c0,0.5,0.4,1,1,1h1.2c0.5,0,1-0.4,1-1V404.7z
				 M-267.1,405.3c0,0.3-0.2,0.5-0.5,0.5c-0.3,0-0.5-0.2-0.5-0.5c0-0.3,0.2-0.5,0.5-0.5C-267.3,404.8-267.1,405-267.1,405.3z
				 M-267.1,405.8"/>
		</g>
		<g id="XMLID_319_">
			<path class="st1" d="M-278.9,410.2c0,0.5,0.4,1,1,1h1.2c0.5,0,1-0.4,1-1V409c0-0.5-0.4-1-1-1h-1.2c-0.5,0-1,0.4-1,1V410.2z
				 M-277.8,409.6c0-0.3,0.2-0.5,0.5-0.5s0.5,0.2,0.5,0.5c0,0.3-0.2,0.5-0.5,0.5S-277.8,409.9-277.8,409.6z M-277.8,409"/>
		</g>
		<g id="XMLID_315_">
			<path class="st1" d="M-274.1,410.2c0,0.5,0.4,1,1,1h1.2c0.5,0,1-0.4,1-1V409c0-0.5-0.4-1-1-1h-1.2c-0.5,0-1,0.4-1,1V410.2z
				 M-273,409.6c0-0.3,0.2-0.5,0.5-0.5s0.5,0.2,0.5,0.5c0,0.3-0.2,0.5-0.5,0.5S-273,409.9-273,409.6z M-273,409"/>
		</g>
		<g id="XMLID_311_">
			<path class="st1" d="M-269.2,410.2c0,0.5,0.4,1,1,1h1.2c0.5,0,1-0.4,1-1V409c0-0.5-0.4-1-1-1h-1.2c-0.5,0-1,0.4-1,1V410.2z
				 M-268.2,409.6c0-0.3,0.2-0.5,0.5-0.5c0.3,0,0.5,0.2,0.5,0.5c0,0.3-0.2,0.5-0.5,0.5C-267.9,410.1-268.2,409.9-268.2,409.6z
				 M-268.2,409"/>
		</g>
		<g id="XMLID_307_">
			<path class="st1" d="M-263.9,388.1v-0.8c0-1.1-0.9-1.9-1.9-1.9h-0.3c-0.5,0-1,0.2-1,0.5s0.4,0.5,1,0.5h0.3c0.5,0,0.8,0.4,0.8,0.8
				v24c0,0.8-0.7,1.5-1.5,1.5h-12.1c-0.8,0-1.5-0.7-1.5-1.5v-24c0-0.5,0.4-0.8,0.8-0.8h0.3c0.5,0,1-0.2,1-0.5s-0.4-0.5-1-0.5h-0.3
				c-1.1,0-1.9,0.9-1.9,1.9v24c0,1.4,1.1,2.5,2.5,2.5h12.1c1.4,0,2.5-1.1,2.5-2.5v-10.9 M-263.9,390.3v-1.1 M-263.9,399.4v-8"/>
		</g>
		<g id="XMLID_304_">
			<path class="st2" d="M-276.3,388.7c-0.5,0-1.2,0-1.5,0c-0.3,0-0.5-0.4-0.5-1v-6.1c0-0.5,0.4-1,1-1h9.8c0.5,0,1,0.4,1,1v6.1
				c0,0.5-0.4,1-1,1H-276.3z M-277.3,388.7"/>
		</g>
		<g id="XMLID_303_">
			<path class="st1" d="M-278.9,388.7c0-0.3,0.4-0.5,1-0.5h10.9c0.5,0,1,0.2,1,0.5c0,0.3-0.4,0.5-1,0.5h-10.9
				C-278.5,389.2-278.9,389-278.9,388.7z"/>
		</g>
		<g id="XMLID_302_">
			<path class="st1" d="M-276.2,383.3c0-0.3,0.4-0.5,1-0.5h5.5c0.5,0,1,0.2,1,0.5c0,0.3-0.4,0.5-1,0.5h-5.5
				C-275.8,383.8-276.2,383.6-276.2,383.3z"/>
		</g>
		<g id="XMLID_301_">
			<path class="st1" d="M-273.5,385.5c0-0.3,0.4-0.5,1-0.5h2.8c0.5,0,1,0.2,1,0.5c0,0.3-0.4,0.5-1,0.5h-2.8
				C-273.1,386-273.5,385.7-273.5,385.5z"/>
		</g>
	</g>
</g>
<g id="XMLID_387_">
	<defs>
		<rect id="XMLID_3_" x="-264.9" y="386.9" width="13.3" height="14.6"/>
	</defs>
	<clipPath id="XMLID_7_">
		<use xlink:href="#XMLID_3_"  style="overflow:visible;"/>
	</clipPath>
	<g id="XMLID_2_" class="st3">
		<path id="XMLID_386_" class="st4" d="M-253.8,400.9h-14c-0.5,0-0.9-0.4-0.9-0.9v-9.7c0-0.5,0.4-0.9,0.9-0.9h14
			c0.5,0,0.9,0.4,0.9,0.9v9.7C-252.9,400.5-253.3,400.9-253.8,400.9"/>
		<rect id="XMLID_385_" x="-268.7" y="390.2" class="st2" width="15.8" height="2.2"/>
		<path id="XMLID_384_" class="st2" d="M-264.6,394.2h-2.4c-0.2,0-0.3-0.1-0.3-0.3c0-0.1,0.1-0.3,0.3-0.3h2.4c0.1,0,0.3,0.1,0.3,0.3
			C-264.3,394.1-264.5,394.2-264.6,394.2"/>
		<path id="XMLID_374_" class="st2" d="M-261.1,394.2h-2.4c-0.1,0-0.3-0.1-0.3-0.3c0-0.1,0.1-0.3,0.3-0.3h2.4c0.2,0,0.3,0.1,0.3,0.3
			C-260.8,394.1-260.9,394.2-261.1,394.2"/>
		<path id="XMLID_373_" class="st2" d="M-266.8,395.6h-0.3c-0.2,0-0.3-0.1-0.3-0.3c0-0.1,0.1-0.3,0.3-0.3h0.3c0.1,0,0.3,0.1,0.3,0.3
			C-266.5,395.5-266.6,395.6-266.8,395.6"/>
		<path id="XMLID_372_" class="st2" d="M-265.2,395.6h-0.5c-0.2,0-0.3-0.1-0.3-0.3c0-0.1,0.1-0.3,0.3-0.3h0.5c0.2,0,0.3,0.1,0.3,0.3
			C-264.9,395.5-265,395.6-265.2,395.6"/>
		<path id="XMLID_367_" class="st2" d="M-263.8,395.6h-0.3c-0.2,0-0.3-0.1-0.3-0.3c0-0.1,0.1-0.3,0.3-0.3h0.3c0.2,0,0.3,0.1,0.3,0.3
			C-263.5,395.5-263.7,395.6-263.8,395.6"/>
		<path id="XMLID_366_" class="st2" d="M-262.2,395.6h-0.5c-0.2,0-0.3-0.1-0.3-0.3c0-0.1,0.1-0.3,0.3-0.3h0.5c0.2,0,0.3,0.1,0.3,0.3
			C-261.9,395.5-262,395.6-262.2,395.6"/>
		<path id="XMLID_218_" class="st2" d="M-261.1,395.6c-0.1,0-0.1,0-0.2-0.1c0-0.1-0.1-0.1-0.1-0.2c0-0.1,0-0.1,0.1-0.2
			c0.1-0.1,0.3-0.1,0.4,0c0,0.1,0.1,0.1,0.1,0.2s0,0.1-0.1,0.2C-260.9,395.6-261,395.6-261.1,395.6"/>
		<path id="XMLID_205_" class="st5" d="M-256.2,397.2c0,0.9-0.7,1.6-1.6,1.6s-1.6-0.7-1.6-1.6c0-0.9,0.7-1.6,1.6-1.6
			S-256.2,396.3-256.2,397.2"/>
		<path id="XMLID_202_" class="st6" d="M-254.3,397.2c0,0.9-0.7,1.6-1.6,1.6c-0.9,0-1.6-0.7-1.6-1.6c0-0.9,0.7-1.6,1.6-1.6
			C-255,395.6-254.3,396.3-254.3,397.2"/>
	</g>
</g>
</svg>
