<?xml version="1.0" encoding="utf-8"?>
<!-- Generator: Adobe Illustrator 19.0.0, SVG Export Plug-In . SVG Version: 6.00 Build 0)  -->
<svg version="1.1" id="icons" xmlns="http://www.w3.org/2000/svg" xmlns:xlink="http://www.w3.org/1999/xlink" x="0px" y="0px"
	 viewBox="-286 380.5 37.2 33.5" style="enable-background:new -286 380.5 37.2 33.5;" xml:space="preserve">
<style type="text/css">
	.st0{fill:none;stroke:#0E67B1;stroke-miterlimit:10;}
	.st1{fill:#0E67B1;}
	.st2{fill:none;}
	.st3{clip-path:url(#SVGID_2_);}
</style>
<g id="XMLID_347_">
	<path class="st0" d="M-269.1,398.6h-9.7c-0.9,0-1.6-0.7-1.6-1.6v-4.3c0-0.9,0.7-1.6,1.6-1.6h9.7c0.9,0,1.6,0.7,1.6,1.6v4.3
		C-267.5,397.9-268.2,398.6-269.1,398.6z"/>
</g>
<g id="XMLID_343_">
	<path class="st1" d="M-277.2,400.7c0-0.5-0.4-1-1-1h-1.2c-0.5,0-1,0.4-1,1v1.2c0,0.5,0.4,1,1,1h1.2c0.5,0,1-0.4,1-1V400.7z
		 M-278.3,401.3c0,0.3-0.2,0.5-0.5,0.5s-0.5-0.2-0.5-0.5s0.2-0.5,0.5-0.5S-278.3,401-278.3,401.3z"/>
</g>
<g id="XMLID_339_">
	<path class="st1" d="M-272.4,400.7c0-0.5-0.4-1-1-1h-1.2c-0.5,0-1,0.4-1,1v1.2c0,0.5,0.4,1,1,1h1.2c0.5,0,1-0.4,1-1V400.7z
		 M-273.4,401.3c0,0.3-0.2,0.5-0.5,0.5s-0.5-0.2-0.5-0.5s0.2-0.5,0.5-0.5S-273.4,401-273.4,401.3z"/>
</g>
<g id="XMLID_335_">
	<path class="st1" d="M-267.5,400.7c0-0.5-0.4-1-1-1h-1.2c-0.5,0-1,0.4-1,1v1.2c0,0.5,0.4,1,1,1h1.2c0.5,0,1-0.4,1-1V400.7z
		 M-268.6,401.3c0,0.3-0.2,0.5-0.5,0.5s-0.5-0.2-0.5-0.5s0.2-0.5,0.5-0.5C-268.8,400.8-268.6,401-268.6,401.3z"/>
</g>
<g id="XMLID_331_">
	<path class="st1" d="M-277.2,405c0-0.5-0.4-1-1-1h-1.2c-0.5,0-1,0.4-1,1v1.2c0,0.5,0.4,1,1,1h1.2c0.5,0,1-0.4,1-1V405z
		 M-278.3,405.6c0,0.3-0.2,0.5-0.5,0.5s-0.5-0.2-0.5-0.5s0.2-0.5,0.5-0.5S-278.3,405.3-278.3,405.6z"/>
</g>
<g id="XMLID_327_">
	<path class="st1" d="M-272.4,405c0-0.5-0.4-1-1-1h-1.2c-0.5,0-1,0.4-1,1v1.2c0,0.5,0.4,1,1,1h1.2c0.5,0,1-0.4,1-1V405z
		 M-273.4,405.6c0,0.3-0.2,0.5-0.5,0.5s-0.5-0.2-0.5-0.5s0.2-0.5,0.5-0.5S-273.4,405.3-273.4,405.6z"/>
</g>
<g id="XMLID_323_">
	<path class="st1" d="M-267.5,405c0-0.5-0.4-1-1-1h-1.2c-0.5,0-1,0.4-1,1v1.2c0,0.5,0.4,1,1,1h1.2c0.5,0,1-0.4,1-1V405z
		 M-268.6,405.6c0,0.3-0.2,0.5-0.5,0.5s-0.5-0.2-0.5-0.5s0.2-0.5,0.5-0.5C-268.8,405.1-268.6,405.3-268.6,405.6z"/>
</g>
<g id="XMLID_319_">
	<path class="st1" d="M-280.4,410.5c0,0.5,0.4,1,1,1h1.2c0.5,0,1-0.4,1-1v-1.2c0-0.5-0.4-1-1-1h-1.2c-0.5,0-1,0.4-1,1V410.5z
		 M-279.3,409.9c0-0.3,0.2-0.5,0.5-0.5s0.5,0.2,0.5,0.5s-0.2,0.5-0.5,0.5S-279.3,410.2-279.3,409.9z"/>
</g>
<g id="XMLID_315_">
	<path class="st1" d="M-275.6,410.5c0,0.5,0.4,1,1,1h1.2c0.5,0,1-0.4,1-1v-1.2c0-0.5-0.4-1-1-1h-1.2c-0.5,0-1,0.4-1,1V410.5z
		 M-274.5,409.9c0-0.3,0.2-0.5,0.5-0.5s0.5,0.2,0.5,0.5s-0.2,0.5-0.5,0.5S-274.5,410.2-274.5,409.9z"/>
</g>
<g id="XMLID_311_">
	<path class="st1" d="M-270.7,410.5c0,0.5,0.4,1,1,1h1.2c0.5,0,1-0.4,1-1v-1.2c0-0.5-0.4-1-1-1h-1.2c-0.5,0-1,0.4-1,1V410.5z
		 M-269.7,409.9c0-0.3,0.2-0.5,0.5-0.5s0.5,0.2,0.5,0.5s-0.2,0.5-0.5,0.5C-269.4,410.4-269.7,410.2-269.7,409.9z"/>
</g>
<path class="st1" d="M-265.4,388.4v-0.8c0-1.1-0.9-1.9-1.9-1.9h-0.3c-0.5,0-1,0.2-1,0.5s0.4,0.5,1,0.5h0.3c0.5,0,0.8,0.4,0.8,0.8v24
	c0,0.8-0.7,1.5-1.5,1.5h-12.1c-0.8,0-1.5-0.7-1.5-1.5v-24c0-0.5,0.4-0.8,0.8-0.8h0.3c0.5,0,1-0.2,1-0.5s-0.4-0.5-1-0.5h-0.3
	c-1.1,0-1.9,0.9-1.9,1.9v24c0,1.4,1.1,2.5,2.5,2.5h12.1c1.4,0,2.5-1.1,2.5-2.5v-10.9"/>
<line class="st2" x1="-265.4" y1="390.6" x2="-265.4" y2="389.5"/>
<line class="st2" x1="-265.4" y1="399.7" x2="-265.4" y2="391.7"/>
<g id="XMLID_304_">
	<path class="st0" d="M-277.8,389c-0.5,0-1.2,0-1.5,0s-0.5-0.4-0.5-1v-6.1c0-0.5,0.4-1,1-1h9.8c0.5,0,1,0.4,1,1v6.1c0,0.5-0.4,1-1,1
		H-277.8z"/>
</g>
<g id="XMLID_303_">
	<path class="st1" d="M-280.4,389c0-0.3,0.4-0.5,1-0.5h10.9c0.5,0,1,0.2,1,0.5s-0.4,0.5-1,0.5h-10.9
		C-280,389.5-280.4,389.3-280.4,389z"/>
</g>
<g id="XMLID_302_">
	<path class="st1" d="M-277.7,383.6c0-0.3,0.4-0.5,1-0.5h5.5c0.5,0,1,0.2,1,0.5s-0.4,0.5-1,0.5h-5.5
		C-277.3,384.1-277.7,383.9-277.7,383.6z"/>
</g>
<g id="XMLID_301_">
	<path class="st1" d="M-275,385.8c0-0.3,0.4-0.5,1-0.5h2.8c0.5,0,1,0.2,1,0.5s-0.4,0.5-1,0.5h-2.8C-274.6,386.3-275,386-275,385.8z"
		/>
</g>
<g>
	<defs>
		<rect id="SVGID_1_" x="-266" y="388" width="17.2" height="20.3"/>
	</defs>
	<clipPath id="SVGID_2_">
		<use xlink:href="#SVGID_1_"  style="overflow:visible;"/>
	</clipPath>
	<g class="st3">
		<g>
			<path class="st1" d="M-252,390.6h-16.4c-0.7,0-1.3,0.6-1.3,1.3v11.2c0,0.7,0.6,1.3,1.3,1.3h16.4c0.7,0,1.3-0.6,1.3-1.3V392
				C-250.6,391.2-251.2,390.6-252,390.6L-252,390.6z M-251.3,403.2c0,0.4-0.3,0.7-0.7,0.7h-16.4c-0.4,0-0.7-0.3-0.7-0.7V392
				c0-0.4,0.3-0.7,0.7-0.7h16.4c0.4,0,0.7,0.3,0.7,0.7L-251.3,403.2L-251.3,403.2z"/>
			<path class="st1" d="M-264.6,399.8h-2.8c-0.2,0-0.3,0.2-0.3,0.3s0.2,0.3,0.3,0.3h2.8c0.2,0,0.3-0.2,0.3-0.3
				S-264.4,399.8-264.6,399.8L-264.6,399.8z"/>
			<path class="st1" d="M-260.4,399.8h-2.8c-0.2,0-0.3,0.2-0.3,0.3s0.2,0.3,0.3,0.3h2.8c0.2,0,0.3-0.2,0.3-0.3
				S-260.3,399.8-260.4,399.8L-260.4,399.8z"/>
			<path class="st1" d="M-267.1,401.4h-0.3c-0.2,0-0.3,0.2-0.3,0.3c0,0.2,0.2,0.3,0.3,0.3h0.3c0.2,0,0.3-0.2,0.3-0.3
				C-266.8,401.6-266.9,401.4-267.1,401.4L-267.1,401.4z"/>
			<path class="st1" d="M-265.2,401.4h-0.6c-0.2,0-0.3,0.2-0.3,0.3c0,0.2,0.2,0.3,0.3,0.3h0.6c0.2,0,0.3-0.2,0.3-0.3
				C-264.9,401.6-265,401.4-265.2,401.4L-265.2,401.4z"/>
			<path class="st1" d="M-263.6,401.4h-0.3c-0.2,0-0.3,0.2-0.3,0.3c0,0.2,0.2,0.3,0.3,0.3h0.3c0.2,0,0.3-0.2,0.3-0.3
				C-263.3,401.6-263.4,401.4-263.6,401.4L-263.6,401.4z"/>
			<path class="st1" d="M-261.7,401.4h-0.6c-0.2,0-0.3,0.2-0.3,0.3c0,0.2,0.2,0.3,0.3,0.3h0.6c0.2,0,0.3-0.2,0.3-0.3
				C-261.4,401.6-261.5,401.4-261.7,401.4L-261.7,401.4z"/>
			<path class="st1" d="M-260.6,401.5c-0.1,0.1-0.1,0.2-0.1,0.2c0,0.1,0.1,0.2,0.1,0.2c0.1,0.1,0.2,0.1,0.2,0.1
				c0.1,0,0.2-0.1,0.2-0.1c0.1-0.1,0.1-0.2,0.1-0.2c0-0.1-0.1-0.2-0.1-0.2C-260.3,401.3-260.5,401.3-260.6,401.5L-260.6,401.5z"/>
			<path class="st1" d="M-254.4,398.6c-0.4,0-0.8,0.1-1.1,0.3c-0.3-0.2-0.7-0.3-1.1-0.3c-1.2,0-2.2,1-2.2,2.2s1,2.2,2.2,2.2
				c0.4,0,0.8-0.1,1.1-0.3c0.3,0.2,0.7,0.3,1.1,0.3c1.2,0,2.2-1,2.2-2.2S-253.2,398.6-254.4,398.6L-254.4,398.6z M-255.1,400.8
				c0,0.5-0.2,0.8-0.5,1.1c-0.3-0.3-0.5-0.7-0.5-1.1s0.2-0.8,0.5-1.1C-255.2,399.9-255.1,400.3-255.1,400.8L-255.1,400.8z
				 M-258.2,400.8c0-0.9,0.7-1.6,1.6-1.6c0.2,0,0.4,0.1,0.6,0.1c-0.4,0.4-0.6,0.9-0.6,1.5c0,0.6,0.2,1.1,0.6,1.5
				c-0.2,0.1-0.4,0.1-0.6,0.1C-257.5,402.3-258.2,401.7-258.2,400.8L-258.2,400.8z M-254.4,402.3c-0.2,0-0.4-0.1-0.6-0.1
				c0.4-0.4,0.6-0.9,0.6-1.5c0-0.6-0.2-1.1-0.6-1.5c0.2-0.1,0.4-0.1,0.6-0.1c0.9,0,1.6,0.7,1.6,1.6
				C-252.9,401.7-253.5,402.3-254.4,402.3L-254.4,402.3z"/>
			<path class="st1" d="M-267,397.6h4.3c0.4,0,0.7-0.3,0.7-0.7v-3c0-0.4-0.3-0.7-0.7-0.7h-4.3c-0.4,0-0.7,0.3-0.7,0.7v3
				C-267.7,397.3-267.4,397.6-267,397.6L-267,397.6z M-265.8,395.7h-1.3v-0.6h1.3V395.7z M-267.1,396.9v-0.6h1.3v0.6
				c0,0.1,0,0.1,0,0.1h-1.2C-267,397-267.1,396.9-267.1,396.9L-267.1,396.9z M-262.7,395.7h-1.3v-0.6c0-0.1,0.1-0.1,0.1-0.1h1.1
				c0.1,0,0.1,0,0.1,0V395.7L-262.7,395.7z M-262.7,397h-1.2c0-0.1,0-0.1,0-0.1v-0.6h1.3v0.6C-262.7,396.9-262.7,397-262.7,397
				L-262.7,397z M-262.7,393.8c0.1,0,0.1,0.1,0.1,0.1v0.5c0,0.1-0.1,0.1-0.1,0.1h-1.1c-0.4,0-0.7,0.3-0.7,0.7v1.8
				c0,0.1-0.1,0.1-0.1,0.1h-0.5c-0.1,0-0.1-0.1-0.1-0.1v-3c0-0.1,0.1-0.1,0.1-0.1L-262.7,393.8L-262.7,393.8z M-267,393.8h1.2
				c0,0.1,0,0.1,0,0.1v0.6h-1.3v-0.6C-267.1,393.8-267,393.8-267,393.8L-267,393.8z"/>
		</g>
	</g>
</g>
</svg>
