<?xml version="1.0" encoding="utf-8"?>
<!-- Generator: Adobe Illustrator 19.0.0, SVG Export Plug-In . SVG Version: 6.00 Build 0)  -->
<svg version="1.1" id="icons" xmlns="http://www.w3.org/2000/svg" xmlns:xlink="http://www.w3.org/1999/xlink" x="0px" y="0px"
	 viewBox="-286 380.5 37.2 33.5" style="enable-background:new -286 380.5 37.2 33.5;" xml:space="preserve">
<style type="text/css">
	.st0{fill:#0E67B1;}
</style>
<g>
	<path class="st0" d="M-252.4,384.8h-30c-1.3,0-2.5,1.1-2.5,2.5v20.6c0,1.3,1.1,2.5,2.5,2.5h30c1.3,0,2.5-1.1,2.5-2.5v-20.6
		C-249.9,385.9-251,384.8-252.4,384.8L-252.4,384.8z M-251,407.9c0,0.7-0.6,1.3-1.3,1.3h-30c-0.8,0-1.3-0.6-1.3-1.3v-20.6
		c0-0.8,0.6-1.3,1.3-1.3h30c0.8,0,1.3,0.6,1.3,1.3L-251,407.9L-251,407.9z"/>
	<path class="st0" d="M-275.5,401.6h-5.2c-0.3,0-0.6,0.3-0.6,0.6s0.3,0.6,0.6,0.6h5.2c0.3,0,0.6-0.3,0.6-0.6
		S-275.1,401.6-275.5,401.6L-275.5,401.6z"/>
	<path class="st0" d="M-267.9,401.6h-5.2c-0.3,0-0.6,0.3-0.6,0.6s0.3,0.6,0.6,0.6h5.2c0.3,0,0.6-0.3,0.6-0.6
		S-267.6,401.6-267.9,401.6L-267.9,401.6z"/>
	<path class="st0" d="M-280.1,404.5h-0.6c-0.3,0-0.6,0.3-0.6,0.6c0,0.3,0.3,0.6,0.6,0.6h0.6c0.3,0,0.6-0.3,0.6-0.6
		S-279.7,404.5-280.1,404.5L-280.1,404.5z"/>
	<path class="st0" d="M-276.6,404.5h-1.1c-0.3,0-0.6,0.3-0.6,0.6c0,0.3,0.3,0.6,0.6,0.6h1.1c0.3,0,0.6-0.3,0.6-0.6
		S-276.3,404.5-276.6,404.5L-276.6,404.5z"/>
	<path class="st0" d="M-273.7,404.5h-0.6c-0.3,0-0.6,0.3-0.6,0.6c0,0.3,0.3,0.6,0.6,0.6h0.6c0.3,0,0.6-0.3,0.6-0.6
		C-273.1,404.8-273.4,404.5-273.7,404.5L-273.7,404.5z"/>
	<path class="st0" d="M-270.3,404.5h-1.1c-0.3,0-0.6,0.3-0.6,0.6c0,0.3,0.3,0.6,0.6,0.6h1.1c0.3,0,0.6-0.3,0.6-0.6
		C-269.6,404.8-269.9,404.5-270.3,404.5L-270.3,404.5z"/>
	<path class="st0" d="M-268.3,404.7c-0.1,0.1-0.2,0.3-0.2,0.4c0,0.2,0.1,0.3,0.2,0.4s0.3,0.2,0.4,0.2c0.2,0,0.3-0.1,0.4-0.2
		s0.2-0.3,0.2-0.4c0-0.2-0.1-0.3-0.2-0.4C-267.7,404.4-268.1,404.4-268.3,404.7L-268.3,404.7z"/>
	<path class="st0" d="M-256.8,399.3c-0.8,0-1.4,0.2-2,0.6c-0.6-0.4-1.3-0.6-2-0.6c-2.3,0-4.1,1.8-4.1,4.1s1.8,4.1,4.1,4.1
		c0.8,0,1.4-0.2,2-0.6c0.6,0.4,1.3,0.6,2,0.6c2.3,0,4.1-1.8,4.1-4.1S-254.6,399.3-256.8,399.3L-256.8,399.3z M-258.1,403.4
		c0,0.9-0.4,1.5-0.9,2.1c-0.6-0.6-0.9-1.2-0.9-2.1c0-0.9,0.4-1.5,0.9-2.1C-258.3,401.8-258.1,402.6-258.1,403.4L-258.1,403.4z
		 M-263.8,403.4c0-1.6,1.3-2.9,2.9-2.9c0.4,0,0.8,0.1,1,0.2c-0.7,0.8-1,1.7-1,2.7s0.4,2,1,2.7c-0.3,0.1-0.7,0.2-1,0.2
		C-262.5,406.2-263.8,405-263.8,403.4L-263.8,403.4z M-256.8,406.2c-0.4,0-0.8-0.1-1-0.2c0.7-0.8,1-1.7,1-2.7s-0.4-2-1-2.7
		c0.3-0.1,0.7-0.2,1-0.2c1.6,0,2.9,1.3,2.9,2.9C-254,405-255.2,406.2-256.8,406.2L-256.8,406.2z"/>
	<path class="st0" d="M-279.9,397.5h7.9c0.8,0,1.3-0.6,1.3-1.3v-5.5c0-0.8-0.6-1.3-1.3-1.3h-7.9c-0.8,0-1.3,0.6-1.3,1.3v5.5
		C-281.3,397-280.7,397.5-279.9,397.5L-279.9,397.5z M-277.7,394h-2.4v-1.1h2.4V394z M-280.1,396.2v-1h2.4v1c0,0.1,0,0.1,0,0.2h-2.2
		C-280,396.4-280.1,396.3-280.1,396.2L-280.1,396.2z M-272,394h-2.4v-1c0-0.1,0.1-0.2,0.2-0.2h2c0.1,0,0.1,0,0.2,0L-272,394
		L-272,394z M-272.1,396.4h-2.2c0-0.1,0-0.1,0-0.2v-1h2.4v1C-272,396.3-272.1,396.4-272.1,396.4L-272.1,396.4z M-272.1,390.6
		c0.1,0,0.2,0.1,0.2,0.2v0.9c0,0.1-0.1,0.2-0.2,0.2h-2c-0.8,0-1.3,0.6-1.3,1.3v3.2c0,0.1-0.1,0.2-0.2,0.2h-0.9
		c-0.1,0-0.2-0.1-0.2-0.2v-5.5c0-0.1,0.1-0.2,0.2-0.2L-272.1,390.6L-272.1,390.6z M-279.9,390.6h2.2c0,0.1,0,0.1,0,0.2v1h-2.4v-1
		C-280.1,390.6-280,390.6-279.9,390.6L-279.9,390.6z"/>
</g>
</svg>
