<?xml version="1.0" encoding="utf-8"?>
<!-- Generator: Adobe Illustrator 19.0.0, SVG Export Plug-In . SVG Version: 6.00 Build 0)  -->
<svg version="1.1" id="icons" xmlns="http://www.w3.org/2000/svg" xmlns:xlink="http://www.w3.org/1999/xlink" x="0px" y="0px"
	 viewBox="-286 380.5 37.2 33.5" style="enable-background:new -286 380.5 37.2 33.5;" xml:space="preserve">
<style type="text/css">
	.st0{fill:#414141;}
	.st1{fill:#F4F4F4;}
	.st2{fill:#F4F4F4;stroke:#414141;stroke-miterlimit:10;}
	.st3{fill:#F4791F;stroke:#F4791F;stroke-miterlimit:10;}
	.st4{fill:#0066B3;}
	.st5{fill:#0E67B1;}
	.st6{fill:none;}
</style>
<path class="st0" d="M-254.5,410.2l-4.2-10.2c2-2,3.2-4.8,3.2-7.8c0-6.3-5.1-11.3-11.3-11.3c-6.3,0-11.3,5.1-11.3,11.3
	c0,3,1.2,5.8,3.2,7.8l-4.2,10.2c-0.2,0.4-0.1,0.8,0.2,1.2c0.3,0.3,0.7,0.4,1.1,0.3l2.7-0.8l1.3,2.5c0.2,0.4,0.6,0.6,1,0.6
	c0,0,0,0,0.1,0c0.4,0,0.8-0.3,1-0.7l4-9.8c0.3,0,0.7,0,1.1,0c0.4,0,0.7,0,1.1,0l4,9.8c0.2,0.4,0.5,0.7,1,0.7c0,0,0,0,0.1,0
	c0.4,0,0.8-0.2,1-0.6l1.3-2.5l2.7,0.8c0.4,0.1,0.9,0,1.1-0.3C-254.4,411.1-254.4,410.6-254.5,410.2L-254.5,410.2z"/>
<path class="st1" d="M-277.2,392.2c0-5.7,4.6-10.3,10.3-10.3c5.7,0,10.3,4.6,10.3,10.3c0,5.7-4.6,10.3-10.3,10.3
	C-272.6,402.5-277.2,397.9-277.2,392.2L-277.2,392.2z"/>
<path class="st2" d="M-266.9,383.1c-5,0-9.1,4.1-9.1,9.1c0,5,4.1,9.1,9.1,9.1c5,0,9.1-4.1,9.1-9.1
	C-257.9,387.2-261.9,383.1-266.9,383.1L-266.9,383.1z"/>
<path class="st0" d="M-263.6,393.2l2-2c0.2-0.2,0.3-0.6,0.2-0.9c-0.1-0.3-0.4-0.5-0.7-0.6l0,0l-2.8-0.4l-1.3-2.6
	c-0.1-0.3-0.4-0.5-0.8-0.5s-0.6,0.2-0.8,0.5l-1.3,2.6l-2.8,0.4c-0.3,0-0.6,0.3-0.7,0.6c-0.1,0.3,0,0.7,0.2,0.9l2,2l-0.5,2.8
	c-0.1,0.3,0.1,0.7,0.3,0.9c0.2,0.1,0.3,0.2,0.5,0.2c0.1,0,0.3,0,0.4-0.1l2.5-1.3l2.5,1.3c0.3,0.2,0.6,0.1,0.9-0.1
	c0.3-0.2,0.4-0.5,0.3-0.9"/>
<path class="st3" d="M-264.6,392.7c-0.1,0.1-0.2,0.3-0.2,0.5l0.5,2.7l-2.4-1.3c-0.2-0.1-0.3-0.1-0.5,0l-2.4,1.3l0.5-2.7
	c0-0.2,0-0.3-0.2-0.5l-2-1.9l2.7-0.4c0.2,0,0.3-0.1,0.4-0.3l1.2-2.4l1.2,2.4c0.1,0.2,0.2,0.3,0.4,0.3l2.7,0.4L-264.6,392.7z"/>
<path d="M-264.6,392.7"/>
<path d="M-266.9,400.2"/>
<path class="st4" d="M-273,412.8C-273,412.8-273,412.8-273,412.8C-273.1,412.8-273.1,412.8-273,412.8l-1.6-2.9
	c-0.1-0.2-0.4-0.3-0.6-0.3l-3.1,1c0,0,0,0,0,0c0,0,0,0,0,0l4.1-9.8c0.6,0.5,1.3,1,2,1.4l-2.4,5.7c-0.1,0.3,0,0.6,0.3,0.7
	c0.1,0,0.1,0,0.2,0c0.2,0,0.4-0.1,0.5-0.3l2.4-5.7c0.7,0.3,1.5,0.5,2.3,0.7L-273,412.8z"/>
<path class="st5" d="M-255.5,410.7C-255.5,410.7-255.6,410.7-255.5,410.7l-3.1-1c-0.2-0.1-0.5,0-0.6,0.3l-1.5,2.9c0,0,0,0,0,0
	c0,0,0,0,0,0l-3.9-9.5c0.8-0.2,1.5-0.4,2.3-0.7l2.4,5.7c0.1,0.2,0.3,0.3,0.5,0.3c0.1,0,0.1,0,0.2,0c0.3-0.1,0.4-0.4,0.3-0.7
	l-2.4-5.7c0.7-0.4,1.4-0.8,2-1.4L-255.5,410.7C-255.5,410.6-255.5,410.6-255.5,410.7L-255.5,410.7z"/>
<path d="M-255.5,410.7"/>
<rect x="-279.4" y="380.8" class="st6" width="25" height="33.2"/>
</svg>
