<?xml version="1.0" encoding="utf-8"?>
<!-- Generator: Adobe Illustrator 19.0.0, SVG Export Plug-In . SVG Version: 6.00 Build 0)  -->
<svg version="1.1" id="Layer_1" xmlns="http://www.w3.org/2000/svg" xmlns:xlink="http://www.w3.org/1999/xlink" x="0px" y="0px"
	 viewBox="-255.057 388.7 99.858 48.3" style="enable-background:new -255.057 388.7 99.858 48.3;" xml:space="preserve">
<style type="text/css">
	.st0{fill:#FCB918;}
	.st1{fill:#F47A20;}
	.st2{fill:#F89521;}
	.st3{fill:#FFFFFF;}
</style>
<path class="st0" d="M-163.7,388.7c-2.6,0-3.8,0.7-5.2,2.2l-3.3,3.7l-3.3-3.7c-1.5-1.5-2.7-2.2-5.3-2.2h-3.9c0,0,6.1,7.8,6.8,8.6
	c1.3,1.4,2.2,2.4,4,2.4h3.2c1.8,0,2.7-0.9,4-2.4c0.7-0.8,6.7-8.6,6.7-8.6H-163.7z"/>
<path class="st1" d="M-165.8,398.6c-1.9,0.4-3,0.8-3.9,2.4l-0.8,1.3l-0.8,1.4c-0.9,1.6-0.7,2.7-0.1,4.5c0.4,1.1,3.9,10.2,3.9,10.2
	l1.9-3.3c1.3-2.3,1.3-3.6,0.8-5.6l-1.5-4.8l4.8-1c2.1-0.5,3.2-1.2,4.4-3.5l1.9-3.3C-155.1,396.9-164.7,398.3-165.8,398.6"/>
<path class="st2" d="M-173.2,403.7l-0.8-1.3l-0.8-1.3c-0.9-1.6-2-2-3.9-2.4c-1.1-0.2-10.7-1.7-10.7-1.7l1.9,3.3
	c1.3,2.3,2.4,2.9,4.4,3.5l4.8,1l-1.5,4.7c-0.6,2.1-0.6,3.3,0.8,5.6l1.9,3.3c0,0,3.5-9.1,3.9-10.2
	C-172.4,406.4-172.3,405.3-173.2,403.7"/>
<path class="st3" d="M-227,407.7h-3.9c-1.1,0-1.4,0.7-1.8,2.2c-1.3,5.5-2.9,14.2-6,18.8c0,0-0.7,1.2-1.7,1.2s-1.6-1.1-1.6-1.1
	c-3.1-4.5-5.2-13.4-6.5-18.9c-0.4-1.6-0.7-2.2-1.8-2.2h-3.4c-1.2,0-1.5,1.2-1.3,2c1,5.7,2.9,14.3,7.2,21.8c2.1,3.5,4,5.5,7.5,5.5
	c3.4,0,5.4-1.9,7.5-5.5c4.4-7.4,5.7-16.2,6.7-21.9c0.2-0.9-0.2-2-1.3-2 M-217,407.7h-3.6c-0.7,0-1.4,1-1.4,1.6v25.9
	c0,0.7,0.7,1.5,1.4,1.5h3.9c0.7,0,0.7-0.9,0.7-1.5v-25.9c1-0.6,0-1.6-0.7-1.6 M-196,431.7h-8v-8h7.7c2.9,0,5,1.4,5,4.1
	c-0.1,2.9-2.6,3.9-5.1,3.9 M-204,412.7h6.8c2.6,0,4,1.3,4,3.5c0,2.1-1.6,3.5-3.8,3.5h-7V412.7z M-190.8,421.1
	c0.2-0.2,0.2-0.1,0.5-0.2c2.1-1.1,3.6-3.5,3.6-6c0-4.9-3.9-7.1-9.5-7.1h-12.1c-1,0-1.7,1-1.7,1.9v25.2c0,1.2,0.7,1.8,1.6,1.8h13.6
	c5.8,0,10-2.7,10-8.5C-184.8,424.7-187,421.9-190.8,421.1"/>
</svg>
